<svg width="25" height="25" viewBox="0 0 25 25" fill="none" xmlns="http://www.w3.org/2000/svg">
<path d="M21.917 12.5003C21.917 7.29973 17.7015 3.08349 12.501 3.08331C7.30029 3.08331 3.08398 7.29962 3.08398 12.5003C3.08416 17.7008 7.3004 21.9163 12.501 21.9163C17.7014 21.9161 21.9168 17.7007 21.917 12.5003ZM12.5107 15.6663C13.0629 15.6663 13.5106 16.1142 13.5107 16.6663C13.5107 17.2186 13.063 17.6663 12.5107 17.6663H12.501C11.9487 17.6663 11.501 17.2186 11.501 16.6663C11.5012 16.1142 11.9488 15.6663 12.501 15.6663H12.5107ZM11.501 12.5003V8.33331C11.501 7.78103 11.9487 7.33331 12.501 7.33331C13.0531 7.33349 13.501 7.78114 13.501 8.33331V12.5003C13.5008 13.0523 13.053 13.5001 12.501 13.5003C11.9488 13.5003 11.5012 13.0524 11.501 12.5003ZM23.917 12.5003C23.9168 18.8053 18.806 23.9161 12.501 23.9163C6.19583 23.9163 1.08416 18.8054 1.08398 12.5003C1.08398 6.19505 6.19572 1.08331 12.501 1.08331C18.8061 1.08349 23.917 6.19516 23.917 12.5003Z" fill="#4FAE47"/>
</svg>
