<svg width="20" height="20" viewBox="0 0 20 20" fill="none" xmlns="http://www.w3.org/2000/svg">
<path d="M16.875 9.375C17.2202 9.375 17.5 9.65482 17.5 10C17.5 10.3452 17.2202 10.625 16.875 10.625H3.125C2.77982 10.625 2.5 10.3452 2.5 10C2.5 9.65482 2.77982 9.375 3.125 9.375H16.875Z" fill="white"/>
<path d="M10.8081 3.93306C11.0521 3.68898 11.4487 3.68898 11.6928 3.93306L17.3178 9.55806C17.5619 9.80214 17.5619 10.1987 17.3178 10.4428L11.6928 16.0678C11.4487 16.3119 11.0521 16.3119 10.8081 16.0678C10.564 15.8237 10.564 15.4271 10.8081 15.1831L15.9907 10.0004L10.8081 4.81782C10.564 4.57375 10.564 4.17714 10.8081 3.93306Z" fill="white"/>
</svg>
