<svg width="16" height="16" viewBox="0 0 16 16" fill="none" xmlns="http://www.w3.org/2000/svg">
<path d="M2.5 13.5L11.2156 12.0475C11.3021 12.033 11.3832 11.9961 11.4509 11.9404C11.5186 11.8846 11.5705 11.8121 11.6012 11.73L13 8L8 3L4.27 4.39875C4.18791 4.42955 4.11537 4.48139 4.05964 4.54907C4.00392 4.61676 3.96697 4.6979 3.9525 4.78438L2.5 13.5Z" stroke="#131313" stroke-width="1.2" stroke-linecap="round" stroke-linejoin="round"/>
<path d="M13 8.00008L14.8538 6.14633C14.9474 6.05257 15.0001 5.92544 15.0001 5.79289C15.0001 5.66034 14.9474 5.53321 14.8538 5.43946L10.5625 1.14633C10.4687 1.05263 10.3416 1 10.2091 1C10.0765 1 9.94938 1.05263 9.85563 1.14633L8 3.00008" stroke="#131313" stroke-width="1.2" stroke-linecap="round" stroke-linejoin="round"/>
<path d="M7.75 9.5C8.44036 9.5 9 8.94036 9 8.25C9 7.55964 8.44036 7 7.75 7C7.05964 7 6.5 7.55964 6.5 8.25C6.5 8.94036 7.05964 9.5 7.75 9.5Z" stroke="#131313" stroke-width="1.2" stroke-linecap="round" stroke-linejoin="round"/>
<path d="M2.5 13.5L6.86563 9.13379" stroke="#131313" stroke-width="1.2" stroke-linecap="round" stroke-linejoin="round"/>
</svg>
