<svg width="27" height="19" viewBox="0 0 27 19" fill="none" xmlns="http://www.w3.org/2000/svg">
<path d="M1.2998 2.59961C0.581921 2.5995 -5.73398e-08 2.01771 1.13633e-07 1.2998C5.8979e-06 0.5819 0.581929 0.000102286 1.2998 -2.22928e-06L25.5 -1.13633e-07C26.2179 5.67063e-06 26.7997 0.581928 26.7998 1.2998C26.7998 2.01777 26.218 2.59961 25.5 2.59961L1.2998 2.59961Z" fill="white"/>
<path d="M1.2998 10.5996C0.581924 10.5995 5.08713e-08 10.0177 1.13633e-07 9.2998C2.31942e-07 8.5819 0.581924 8.0001 1.2998 8L17 8C17.718 8 18.2998 8.58183 18.2998 9.2998C18.2998 10.0178 17.718 10.5996 17 10.5996L1.2998 10.5996Z" fill="white"/>
<path d="M1.2998 18.6001C0.581991 18.6 0.000104778 18.0181 1.13633e-07 17.3003C-9.35956e-06 16.5824 0.581917 16.0006 1.2998 16.0005L9 15.9995C9.71796 15.9995 10.2998 16.5823 10.2998 17.3003C10.2996 18.0181 9.71787 18.6001 9 18.6001L1.2998 18.6001Z" fill="white"/>
</svg>
