<svg width="25" height="20" viewBox="0 0 25 20" fill="none" xmlns="http://www.w3.org/2000/svg">
<path d="M22.0786 0H0.912338C0.65167 0.0346661 0.434447 0.156 0.260668 0.364C0.0868893 0.572001 0 0.806 0 1.066C0 1.326 0.0868893 1.56433 0.260668 1.781C0.434447 1.99767 0.65167 2.12333 0.912338 2.158H5.10909L4.35316 11.752V11.934C4.35316 12.5233 4.56603 13.0303 4.99179 13.455C5.41755 13.8797 5.92585 14.092 6.5167 14.092H19.8368C20.3582 14.092 20.8143 13.9317 21.2053 13.611C21.5963 13.2903 21.844 12.896 21.9482 12.428L24.19 2.652C24.2247 2.444 24.2421 2.27933 24.2421 2.158C24.2421 1.55133 24.0336 1.04 23.6165 0.624001C23.1994 0.208 22.6868 0 22.0786 0ZM19.8368 11.908H6.5167L7.27264 2.158H22.0786L19.8368 11.908ZM8.52384 19.5C9.13207 19.5 9.64906 19.2877 10.0748 18.863C10.5006 18.4383 10.7135 17.9227 10.7135 17.316C10.7135 16.7093 10.5006 16.198 10.0748 15.782C9.64906 15.366 9.13207 15.158 8.52384 15.158C7.933 15.158 7.42469 15.366 6.99893 15.782C6.57318 16.198 6.3603 16.7093 6.3603 17.316C6.3603 17.9227 6.57318 18.4383 6.99893 18.863C7.42469 19.2877 7.933 19.5 8.52384 19.5ZM18.2989 19.5C18.9071 19.5 19.4241 19.2877 19.8499 18.863C20.2756 18.4383 20.4885 17.9227 20.4885 17.316C20.4885 16.7093 20.2756 16.198 19.8499 15.782C19.4241 15.366 18.9071 15.158 18.2989 15.158C17.708 15.158 17.1997 15.366 16.774 15.782C16.3482 16.198 16.1353 16.7093 16.1353 17.316C16.1353 17.9227 16.3482 18.4383 16.774 18.863C17.1997 19.2877 17.708 19.5 18.2989 19.5Z" fill="white"/>
</svg>
