<svg width="31" height="30" viewBox="0 0 31 30" fill="none" xmlns="http://www.w3.org/2000/svg">
<path d="M26.7517 4.65477H3.25778C2.96845 4.69339 2.72734 4.82856 2.53445 5.06029C2.34156 5.29201 2.24512 5.5527 2.24512 5.84235C2.24512 6.13201 2.34156 6.39753 2.53445 6.63891C2.72734 6.88029 2.96845 7.02028 3.25778 7.05891H7.91605L7.07698 17.7472V17.9499C7.07698 18.6065 7.31327 19.1713 7.78585 19.6444C8.25843 20.1175 8.82263 20.3541 9.47845 20.3541H24.2634C24.8421 20.3541 25.3484 20.1755 25.7824 19.8182C26.2164 19.461 26.4913 19.0217 26.607 18.5003L29.0953 7.60925C29.1338 7.37753 29.1531 7.19408 29.1531 7.05891C29.1531 6.38304 28.9217 5.81339 28.4587 5.34994C27.9958 4.88649 27.4268 4.65477 26.7517 4.65477ZM24.2634 17.921H9.47845L10.3175 7.05891H26.7517L24.2634 17.921ZM11.7063 26.3789C12.3814 26.3789 12.9553 26.1424 13.4279 25.6693C13.9004 25.1961 14.1367 24.6217 14.1367 23.9458C14.1367 23.2699 13.9004 22.7003 13.4279 22.2368C12.9553 21.7734 12.3814 21.5417 11.7063 21.5417C11.0505 21.5417 10.4863 21.7734 10.0137 22.2368C9.54114 22.7003 9.30485 23.2699 9.30485 23.9458C9.30485 24.6217 9.54114 25.1961 10.0137 25.6693C10.4863 26.1424 11.0505 26.3789 11.7063 26.3789ZM22.5563 26.3789C23.2314 26.3789 23.8053 26.1424 24.2779 25.6693C24.7504 25.1961 24.9867 24.6217 24.9867 23.9458C24.9867 23.2699 24.7504 22.7003 24.2779 22.2368C23.8053 21.7734 23.2314 21.5417 22.5563 21.5417C21.9005 21.5417 21.3363 21.7734 20.8637 22.2368C20.3911 22.7003 20.1549 23.2699 20.1549 23.9458C20.1549 24.6217 20.3911 25.1961 20.8637 25.6693C21.3363 26.1424 21.9005 26.3789 22.5563 26.3789Z" fill="white"/>
</svg>
