<svg width="18" height="18" viewBox="0 0 18 18" fill="none" xmlns="http://www.w3.org/2000/svg">
<path d="M6.30599 0.5H1.97266C1.52821 0.5 1.15668 0.638718 0.858073 0.916157C0.559462 1.19359 0.410156 1.54733 0.410156 1.97736V6.30539C0.410156 6.73541 0.562934 7.10302 0.86849 7.4082C1.17405 7.71338 1.5421 7.86597 1.97266 7.86597H6.30599C6.75043 7.86597 7.12196 7.71338 7.42057 7.4082C7.71918 7.10302 7.86849 6.73541 7.86849 6.30539V1.97736C7.86849 1.54733 7.71918 1.19359 7.42057 0.916157C7.12196 0.638718 6.75043 0.5 6.30599 0.5ZM6.47266 6.30539C6.47266 6.347 6.4553 6.38515 6.42057 6.41983C6.38585 6.45451 6.34766 6.47185 6.30599 6.47185H1.97266C1.93099 6.51346 1.88932 6.51 1.84766 6.46144C1.80599 6.41289 1.78516 6.36087 1.78516 6.30539V1.97736C1.78516 1.92187 1.80599 1.87678 1.84766 1.8421C1.88932 1.80742 1.93099 1.79008 1.97266 1.79008H6.30599C6.34766 1.79008 6.38585 1.80742 6.42057 1.8421C6.4553 1.87678 6.47266 1.92187 6.47266 1.97736V6.30539ZM15.8477 0.5H11.5143C11.0838 0.5 10.7157 0.649122 10.4102 0.947369C10.1046 1.24561 9.95182 1.61669 9.95182 2.06059V6.38862C9.95182 6.81865 10.1046 7.18625 10.4102 7.49143C10.7157 7.79661 11.0838 7.9492 11.5143 7.9492H15.8477C16.2921 7.9492 16.6636 7.79661 16.9622 7.49143C17.2609 7.18625 17.4102 6.81865 17.4102 6.38862V1.97736C17.4102 1.54733 17.2609 1.19359 16.9622 0.916157C16.6636 0.638718 16.2921 0.5 15.8477 0.5ZM16.0352 6.30539C16.0352 6.347 16.0178 6.38515 15.9831 6.41983C15.9484 6.45451 15.9032 6.47185 15.8477 6.47185H11.5143C11.4727 6.47185 11.4345 6.45451 11.3997 6.41983C11.365 6.38515 11.3477 6.347 11.3477 6.30539V1.97736C11.3477 1.92187 11.365 1.87678 11.3997 1.8421C11.4345 1.80742 11.4727 1.79008 11.5143 1.79008H15.8477C15.9032 1.79008 15.9484 1.80742 15.9831 1.8421C16.0178 1.87678 16.0352 1.92187 16.0352 1.97736V6.30539ZM15.8477 10.03H11.5143C11.0838 10.03 10.7157 10.1791 10.4102 10.4774C10.1046 10.7756 9.95182 11.1467 9.95182 11.5906V15.9186C9.95182 16.3625 10.1046 16.737 10.4102 17.0422C10.7157 17.3474 11.0838 17.5 11.5143 17.5H15.8477C16.2782 17.5 16.6463 17.3474 16.9518 17.0422C17.2574 16.737 17.4102 16.3625 17.4102 15.9186V11.5906C17.4102 11.1189 17.2609 10.7409 16.9622 10.4565C16.6636 10.1722 16.2921 10.03 15.8477 10.03ZM16.0352 15.8354C16.0352 15.877 16.0178 15.9186 15.9831 15.9602C15.9484 16.0018 15.9032 16.0226 15.8477 16.0226H11.5143C11.4727 16.0226 11.4345 16.0018 11.3997 15.9602C11.365 15.9186 11.3477 15.877 11.3477 15.8354V11.5073C11.3477 11.4657 11.365 11.4276 11.3997 11.3929C11.4345 11.3582 11.4727 11.3409 11.5143 11.3409H15.8477C15.9032 11.3409 15.9484 11.3582 15.9831 11.3929C16.0178 11.4276 16.0352 11.4657 16.0352 11.5073V15.8354ZM6.30599 10.03H1.97266C1.5421 10.03 1.17405 10.1791 0.86849 10.4774C0.562934 10.7756 0.410156 11.1467 0.410156 11.5906V15.9186C0.410156 16.3625 0.562934 16.737 0.86849 17.0422C1.17405 17.3474 1.5421 17.5 1.97266 17.5H6.30599C6.73655 17.5 7.1046 17.3474 7.41016 17.0422C7.71571 16.737 7.86849 16.3625 7.86849 15.9186V11.5906C7.86849 11.1189 7.71918 10.7409 7.42057 10.4565C7.12196 10.1722 6.75043 10.03 6.30599 10.03ZM6.47266 15.8354C6.47266 15.877 6.4553 15.9186 6.42057 15.9602C6.38585 16.0018 6.34766 16.0226 6.30599 16.0226H1.97266C1.93099 16.0226 1.88932 16.0018 1.84766 15.9602C1.80599 15.9186 1.78516 15.877 1.78516 15.8354V11.5073C1.78516 11.4657 1.80599 11.4276 1.84766 11.3929C1.88932 11.3582 1.93099 11.3409 1.97266 11.3409H6.30599C6.34766 11.3409 6.38585 11.3582 6.42057 11.3929C6.4553 11.4276 6.47266 11.4657 6.47266 11.5073V15.8354Z" fill="#FACC15"/>
</svg>
