<svg width="20" height="20" viewBox="0 0 20 20" fill="none" xmlns="http://www.w3.org/2000/svg">
<g clip-path="url(#clip0_2076_29980)">
<path d="M10.0748 11.9805L18.2765 2.97832L19.3592 3.96481L10.15 14.0729L5.12959 9.30038L6.13896 8.23872L10.0748 11.9805ZM18.7904 6.74023L17.6482 7.99793C17.814 8.63468 17.9023 9.30233 17.9023 9.99023C17.9023 14.3518 14.3538 17.9004 9.99219 17.9004C5.63062 17.9004 2.08203 14.3518 2.08203 9.99023C2.08203 5.62866 5.63062 2.08008 9.99219 2.08008C12.0128 2.08008 13.8585 2.84203 15.2582 4.09309L16.2457 3.00579C14.5242 1.46072 12.3232 0.615234 9.99219 0.615234C7.48811 0.615234 5.13371 1.59039 3.36308 3.36113C1.59234 5.13176 0.617188 7.48615 0.617188 9.99023C0.617188 12.4943 1.59234 14.8487 3.36308 16.6193C5.13371 18.3901 7.48811 19.3652 9.99219 19.3652C12.4963 19.3652 14.8507 18.3901 16.6213 16.6193C18.392 14.8487 19.3672 12.4943 19.3672 9.99023C19.3672 8.86322 19.1691 7.76688 18.7904 6.74023Z" fill="#4FAE47"/>
</g>
<defs>
<clipPath id="clip0_2076_29980">
<rect width="20" height="20" fill="white"/>
</clipPath>
</defs>
</svg>
