<svg width="13" height="12" viewBox="0 0 13 12" fill="none" xmlns="http://www.w3.org/2000/svg">
<path d="M12.6369 0.335206C12.1527 -0.111735 11.3677 -0.111735 10.8835 0.335206L6.5 4.3816L2.11652 0.335206C1.63235 -0.111735 0.847303 -0.111735 0.36313 0.335206C-0.121043 0.782147 -0.121043 1.50682 0.36313 1.95376L4.74661 6.00016L0.364757 10.0451C-0.119416 10.492 -0.119416 11.2167 0.364757 11.6636C0.84893 12.1106 1.63398 12.1106 2.11815 11.6636L6.5 7.61872L10.8831 11.6648C11.3673 12.1117 12.1523 12.1117 12.6365 11.6648C13.1207 11.2179 13.1207 10.4932 12.6365 10.0462L8.25339 6.00016L12.6369 1.95376C13.121 1.50682 13.121 0.782201 12.6369 0.335206Z" fill="#EA580C"/>
</svg>
