<svg width="25" height="25" viewBox="0 0 25 25" fill="none" xmlns="http://www.w3.org/2000/svg">
<path d="M0.344997 1.08365C0.154048 0.884172 0.154047 0.560749 0.344997 0.361268C0.535947 0.161786 0.845538 0.161787 1.03649 0.361268L23.0528 23.3612C23.2437 23.5607 23.2437 23.8841 23.0528 24.0836C22.8618 24.2831 22.5522 24.2831 22.3613 24.0836L0.344997 1.08365Z" fill="white"/>
<path d="M2.01687 24.0835C1.82592 24.283 1.51633 24.283 1.32538 24.0835C1.13443 23.884 1.13443 23.5606 1.32538 23.3611L23.3417 0.361189C23.5326 0.161708 23.8422 0.161708 24.0332 0.361189C24.2241 0.56067 24.2241 0.884093 24.0332 1.08357L2.01687 24.0835Z" fill="white"/>
</svg>
