<svg width="20" height="20" viewBox="0 0 20 20" fill="none" xmlns="http://www.w3.org/2000/svg">
<path d="M10 10.7812C10.4315 10.7812 10.7812 10.4315 10.7812 10C10.7812 9.56853 10.4315 9.21875 10 9.21875C9.56853 9.21875 9.21875 9.56853 9.21875 10C9.21875 10.4315 9.56853 10.7812 10 10.7812Z" fill="#131313"/>
<path d="M10.6562 10C10.6562 9.63756 10.3624 9.34375 10 9.34375C9.63756 9.34375 9.34375 9.63756 9.34375 10C9.34375 10.3624 9.63756 10.6562 10 10.6562V10.7812C9.56853 10.7812 9.21875 10.4315 9.21875 10C9.21875 9.56853 9.56853 9.21875 10 9.21875C10.4315 9.21875 10.7812 9.56853 10.7812 10C10.7812 10.4315 10.4315 10.7812 10 10.7812V10.6562C10.3624 10.6562 10.6562 10.3624 10.6562 10Z" fill="#131313"/>
<path d="M6.5625 10.7812C6.99397 10.7812 7.34375 10.4315 7.34375 10C7.34375 9.56853 6.99397 9.21875 6.5625 9.21875C6.13103 9.21875 5.78125 9.56853 5.78125 10C5.78125 10.4315 6.13103 10.7812 6.5625 10.7812Z" fill="#131313"/>
<path d="M7.21875 10C7.21875 9.63756 6.92494 9.34375 6.5625 9.34375C6.20006 9.34375 5.90625 9.63756 5.90625 10C5.90625 10.3624 6.20006 10.6562 6.5625 10.6562V10.7812C6.13103 10.7812 5.78125 10.4315 5.78125 10C5.78125 9.56853 6.13103 9.21875 6.5625 9.21875C6.99397 9.21875 7.34375 9.56853 7.34375 10C7.34375 10.4315 6.99397 10.7812 6.5625 10.7812V10.6562C6.92494 10.6562 7.21875 10.3624 7.21875 10Z" fill="#131313"/>
<path d="M13.4375 10.7812C13.869 10.7812 14.2188 10.4315 14.2188 10C14.2188 9.56853 13.869 9.21875 13.4375 9.21875C13.006 9.21875 12.6562 9.56853 12.6562 10C12.6562 10.4315 13.006 10.7812 13.4375 10.7812Z" fill="#131313"/>
<path d="M3.25 17.2256L5.75977 15.0576L5.86816 14.9795C5.9831 14.9115 6.11485 14.875 6.25 14.875H16.75V5.125H3.25V17.2256ZM18.25 15C18.25 15.3647 18.1055 15.7148 17.8477 15.9727C17.5898 16.2305 17.2397 16.375 16.875 16.375H6.5293L4.01758 18.5449L4.00977 18.5518C3.80967 18.7199 3.56574 18.8278 3.30664 18.8623C3.0473 18.8968 2.78317 18.8563 2.5459 18.7461C2.30856 18.6358 2.10773 18.4598 1.9668 18.2393C1.82586 18.0187 1.75039 17.7627 1.75 17.501V5C1.75 4.63533 1.89448 4.28521 2.15234 4.02734L2.25391 3.93652C2.49856 3.73611 2.80597 3.625 3.125 3.625H16.875C17.194 3.625 17.5014 3.73611 17.7461 3.93652L17.8477 4.02734L17.9385 4.12891C18.1389 4.37356 18.25 4.68097 18.25 5V15Z" fill="#131313"/>
</svg>
