<svg width="21" height="17" viewBox="0 0 21 17" fill="none" xmlns="http://www.w3.org/2000/svg">
<path d="M20.0156 9.00447L17.0909 1.93574C17.0898 1.93324 17.0883 1.93104 17.0872 1.92854C17.0844 1.92215 17.081 1.9162 17.0778 1.91003C17.0712 1.89715 17.0639 1.88467 17.0557 1.87266C17.0515 1.86654 17.0473 1.8605 17.0428 1.85463C17.033 1.84215 17.0223 1.83031 17.0109 1.81921C17.0073 1.81576 17.0042 1.81192 17.0006 1.80864C16.9853 1.79495 16.9689 1.78255 16.9514 1.77158C16.9464 1.76843 16.9411 1.76588 16.9359 1.76295C16.9228 1.75544 16.9091 1.74872 16.8951 1.74284C16.8883 1.74004 16.8814 1.73741 16.8744 1.73499C16.8603 1.73017 16.846 1.72619 16.8314 1.72308C16.8249 1.72166 16.8185 1.71985 16.8119 1.71877C16.7919 1.7154 16.7717 1.71365 16.7514 1.71355C16.7505 1.71355 16.7496 1.71373 16.7487 1.71377C16.744 1.71381 16.7393 1.71458 16.7346 1.7148C16.7166 1.71559 16.6987 1.71765 16.681 1.72097C16.678 1.72153 16.6751 1.72136 16.6721 1.72201L10.5364 3.04019V0.653241C10.5364 0.559504 10.4978 0.469606 10.4293 0.403324C10.3607 0.337042 10.2677 0.299805 10.1708 0.299805C10.0738 0.299805 9.98082 0.337042 9.91226 0.403324C9.8437 0.469606 9.80518 0.559504 9.80518 0.653241V3.19727L3.51082 4.5495C3.50739 4.55023 3.50444 4.55178 3.50105 4.5526C3.48414 4.55673 3.46755 4.56202 3.45142 4.56844C3.44651 4.57038 3.44142 4.57193 3.43665 4.57409C3.4175 4.58264 3.39915 4.59277 3.3818 4.60438C3.37698 4.60761 3.37279 4.61137 3.36819 4.61478C3.35569 4.624 3.34381 4.63399 3.33262 4.64467C3.32753 4.64959 3.32271 4.65455 3.31798 4.65973C3.30782 4.67081 3.29838 4.6825 3.28973 4.69472C3.28625 4.69964 3.28246 4.7043 3.27925 4.70939C3.26813 4.7265 3.25857 4.74452 3.25068 4.76323L3.25006 4.7647L3.2497 4.76556L0.325956 11.832C0.308685 11.8737 0.29981 11.9182 0.299805 11.9632C0.299805 13.7656 2.31801 14.4373 3.59013 14.4373C4.86224 14.4373 6.88045 13.7656 6.88045 11.9632C6.88045 11.9182 6.87157 11.8737 6.8543 11.832L4.08929 5.14924L9.80518 3.92127V15.851H7.97722C7.88026 15.851 7.78727 15.8882 7.71871 15.9545C7.65015 16.0208 7.61163 16.1107 7.61163 16.2044C7.61163 16.2982 7.65015 16.3881 7.71871 16.4543C7.78727 16.5206 7.88026 16.5579 7.97722 16.5579H12.3643C12.4613 16.5579 12.5543 16.5206 12.6228 16.4543C12.6914 16.3881 12.7299 16.2982 12.7299 16.2044C12.7299 16.1107 12.6914 16.0208 12.6228 15.9545C12.5543 15.8882 12.4613 15.851 12.3643 15.851H10.5364V3.76419L16.1549 2.55714L13.4872 9.00446C13.47 9.04621 13.4611 9.09075 13.4611 9.13571C13.4611 10.9381 15.4793 11.6098 16.7514 11.6098C18.0235 11.6098 20.0417 10.9381 20.0417 9.13571C20.0417 9.09075 20.0329 9.04621 20.0156 9.00447ZM3.59013 13.7304C2.93628 13.7304 1.08829 13.4154 1.03228 12.0281L3.59013 5.84615L6.14797 12.0281C6.09197 13.4154 4.24397 13.7304 3.59013 13.7304ZM16.7514 10.9029C16.0976 10.9029 14.2496 10.5879 14.1936 9.2006L16.7514 3.01866L19.3093 9.2006C19.2533 10.5879 17.4053 10.9029 16.7514 10.9029Z" fill="#D3D3D3"/>
<path d="M7.31152 16.2041C7.31161 16.0278 7.38423 15.8608 7.50977 15.7393C7.63531 15.6179 7.80423 15.5508 7.97754 15.5508V15.8506L7.90527 15.8574C7.83518 15.871 7.77009 15.9046 7.71875 15.9541L7.67285 16.0088C7.63333 16.0663 7.6114 16.1341 7.61133 16.2041C7.61133 16.2978 7.65025 16.3878 7.71875 16.4541C7.77009 16.5037 7.83513 16.5372 7.90527 16.5508L7.97754 16.5576H12.3643C12.4371 16.5576 12.5077 16.5366 12.5674 16.498L12.623 16.4541C12.6915 16.3878 12.7295 16.2977 12.7295 16.2041C12.7294 16.1341 12.7084 16.0662 12.6689 16.0088L12.623 15.9541C12.5545 15.8879 12.4612 15.8506 12.3643 15.8506V15.5508C12.5376 15.5508 12.7055 15.6179 12.8311 15.7393C12.9568 15.8609 13.0302 16.0276 13.0303 16.2041C13.0303 16.3807 12.9569 16.5482 12.8311 16.6699C12.7055 16.7912 12.5375 16.8574 12.3643 16.8574H7.97754C7.80423 16.8574 7.63531 16.7913 7.50977 16.6699C7.38405 16.5482 7.31152 16.3806 7.31152 16.2041ZM6.14844 12.0283C6.09225 13.4155 4.24365 13.7305 3.58984 13.7305V13.4307C3.88428 13.4307 4.46584 13.3572 4.96875 13.127C5.45114 12.906 5.79805 12.574 5.84277 12.0752L3.58984 6.63086L1.33594 12.0762C1.38099 12.5746 1.72966 12.9062 2.21191 13.127C2.71464 13.3571 3.29533 13.4306 3.58984 13.4307V13.7305L3.29492 13.7139C2.50249 13.6346 1.08141 13.2421 1.03223 12.0283L3.58984 5.8457L6.14844 12.0283ZM13.1611 9.13574C13.1611 9.05125 13.1777 8.96757 13.21 8.88965L15.6592 2.96973L10.8359 4.00684V15.5508H12.3643V15.8506H10.5361V3.76465L16.1553 2.55762L13.4873 9.00488L13.4678 9.06934C13.4635 9.09117 13.4609 9.11341 13.4609 9.13574L13.4668 9.30176C13.5866 10.9793 15.5187 11.6092 16.751 11.6094C17.9833 11.6094 19.9163 10.9795 20.0361 9.30176L20.042 9.13574C20.042 9.11341 20.0395 9.09117 20.0352 9.06934L20.0156 9.00488L17.0908 1.93555L17.0869 1.92871L17.0781 1.91016C17.0716 1.89737 17.0638 1.88498 17.0557 1.87305L17.043 1.85449C17.0332 1.84201 17.0222 1.83044 17.0107 1.81934L17.001 1.80859C16.9857 1.7949 16.9686 1.78245 16.9512 1.77148C16.9462 1.7684 16.9406 1.76558 16.9355 1.7627C16.9227 1.75535 16.9092 1.74894 16.8955 1.74316L16.874 1.73535C16.86 1.73057 16.8456 1.72575 16.8311 1.72266C16.8247 1.72125 16.818 1.71981 16.8115 1.71875C16.7917 1.71542 16.7711 1.71397 16.751 1.71387H16.749L16.7344 1.71484L16.6807 1.7207C16.6778 1.72121 16.6747 1.72105 16.6719 1.72168L10.5361 3.04004V0.65332C10.5361 0.582921 10.5145 0.514722 10.4746 0.457031L10.4297 0.40332C10.3782 0.353553 10.3126 0.320191 10.2422 0.306641L10.1709 0.299805C10.0739 0.299805 9.98067 0.337038 9.91211 0.40332C9.8436 0.469595 9.80566 0.559618 9.80566 0.65332V3.19727L3.51074 4.5498L3.50098 4.55273C3.4841 4.55686 3.46727 4.56196 3.45117 4.56836C3.44632 4.57027 3.44124 4.57209 3.43652 4.57422L3.38184 4.60449C3.37703 4.60772 3.37275 4.61183 3.36816 4.61523L3.33301 4.64453C3.32792 4.64945 3.32309 4.65498 3.31836 4.66016L3.29004 4.69434L3.2793 4.70898C3.26818 4.7261 3.25886 4.74496 3.25098 4.76367L3.25 4.76465V4.76562L0.326172 11.832L0.306641 11.8965C0.302291 11.9183 0.299827 11.9405 0.299805 11.9629C0.299805 13.6527 2.07381 14.3494 3.34375 14.4297L3.58984 14.4375C4.82221 14.4375 6.75542 13.8069 6.875 12.1289L6.88086 11.9629C6.88084 11.9406 6.87836 11.9183 6.87402 11.8965L6.85449 11.832L4.08887 5.14941L9.80566 3.9209V15.8506H7.97754V15.5508H9.50488V4.29199L4.50293 5.36621L7.13184 11.7168C7.16404 11.7946 7.18062 11.8785 7.18066 11.9629C7.18066 12.9986 6.59227 13.7029 5.86523 14.1338C5.14693 14.5594 4.26898 14.7373 3.58984 14.7373C2.9108 14.7373 2.03361 14.5593 1.31543 14.1338C0.588327 13.7029 0 12.9986 0 11.9629C4.53356e-05 11.8785 0.016624 11.7946 0.0488281 11.7168L2.97266 4.65039L2.97363 4.64746C2.98843 4.61235 3.00663 4.57779 3.02734 4.5459C3.03415 4.53535 3.04031 4.52703 3.04297 4.52344L3.04492 4.52148C3.06087 4.49895 3.07806 4.47735 3.09668 4.45703L3.12402 4.42871L3.125 4.42773C3.14399 4.4096 3.16459 4.39271 3.18555 4.37695V4.37598C3.1859 4.3757 3.18757 4.37572 3.18848 4.375C3.19191 4.37227 3.20197 4.36411 3.21484 4.35547L3.31445 4.2998C3.32644 4.29445 3.33663 4.29058 3.34082 4.28906C3.36725 4.27858 3.39436 4.26977 3.42188 4.2627L3.41602 4.26465C3.41873 4.26378 3.42223 4.26275 3.42578 4.26172C3.42708 4.26139 3.42838 4.26106 3.42969 4.26074H3.43066C3.43589 4.25931 3.44176 4.25724 3.44824 4.25586L9.50488 2.95508V0.65332C9.50488 0.476683 9.57822 0.309201 9.7041 0.1875C9.82962 0.0662881 9.9977 0 10.1709 0C10.3441 3.21744e-05 10.5122 0.0662375 10.6377 0.1875C10.7636 0.309201 10.8359 0.476683 10.8359 0.65332V2.66895L16.6074 1.42871C16.6137 1.42734 16.6198 1.42662 16.625 1.42578H16.626C16.6317 1.42488 16.6367 1.42428 16.6406 1.42383C16.6473 1.42308 16.6528 1.42198 16.6543 1.42188C16.6535 1.42194 16.6517 1.42262 16.6494 1.42285C16.6477 1.42302 16.6453 1.42349 16.6426 1.42383C16.6685 1.41964 16.6945 1.41621 16.7207 1.41504C16.7218 1.41495 16.7234 1.41513 16.7246 1.41504L16.7363 1.41406C16.7295 1.41435 16.7239 1.41473 16.7207 1.41504C16.7191 1.41519 16.7172 1.41499 16.7168 1.41504C16.7177 1.41494 16.7223 1.41447 16.7275 1.41406C16.7332 1.41363 16.7415 1.4131 16.751 1.41309H16.7529C16.7894 1.41327 16.8263 1.41677 16.8623 1.42285H16.8613C16.8745 1.42504 16.8854 1.42746 16.8906 1.42871C16.8921 1.42905 16.8937 1.42948 16.8945 1.42969C16.8956 1.42994 16.896 1.43055 16.8965 1.43066L16.8955 1.42969C16.9213 1.43525 16.9467 1.44261 16.9717 1.45117H16.9727C16.9858 1.45571 16.9976 1.46124 17.0088 1.46582H17.0107C17.0354 1.47617 17.0597 1.48873 17.083 1.50195H17.084C17.0825 1.50111 17.0811 1.50097 17.0811 1.50098H17.083C17.0836 1.50128 17.0841 1.50245 17.085 1.50293C17.0889 1.50503 17.0995 1.51013 17.1113 1.51758L17.2012 1.58496C17.2081 1.59113 17.2138 1.59655 17.2178 1.60059C17.2215 1.60439 17.2243 1.60795 17.2256 1.60938L17.2197 1.60352V1.60449L17.2783 1.66992L17.2803 1.6709C17.2905 1.68408 17.2983 1.69661 17.3027 1.70312L17.3037 1.7041C17.3188 1.72631 17.3325 1.74951 17.3447 1.77344L17.3457 1.77441C17.3463 1.77548 17.3474 1.77795 17.3486 1.78027C17.3506 1.78403 17.353 1.79046 17.3564 1.79785H17.3574C17.3602 1.8033 17.3641 1.81135 17.3682 1.82129L20.293 8.88965C20.3252 8.96757 20.3418 9.05124 20.3418 9.13574C20.3418 10.1715 19.7535 10.8758 19.0264 11.3066C18.3081 11.7322 17.4301 11.9102 16.751 11.9102C16.072 11.9101 15.1947 11.7321 14.4766 11.3066C13.7495 10.8758 13.1611 10.1715 13.1611 9.13574ZM19.3096 9.2002C19.2536 10.5875 17.4048 10.9033 16.751 10.9033V10.6025C17.0454 10.6025 17.627 10.5291 18.1299 10.2988C18.6118 10.0781 18.9597 9.74713 19.0049 9.24902L16.751 3.80273L14.4971 9.24902C14.5422 9.7472 14.891 10.0781 15.373 10.2988C15.8757 10.529 16.4564 10.6025 16.751 10.6025V10.9033L16.4561 10.8867C15.6635 10.8075 14.2424 10.4141 14.1934 9.2002L16.751 3.01855L19.3096 9.2002ZM3.3418 4.28906H3.34082C3.34205 4.28858 3.3431 4.28833 3.34375 4.28809H3.34473L3.3418 4.28906ZM3.40527 4.26758H3.40723C3.408 4.26732 3.40918 4.26692 3.41016 4.2666C3.40834 4.26723 3.40652 4.26713 3.40527 4.26758Z" fill="#D3D3D3"/>
</svg>
