<svg width="30" height="30" viewBox="0 0 30 30" fill="none" xmlns="http://www.w3.org/2000/svg">
<path d="M27.6227 15.7634L23.8727 6.38844C23.8714 6.38512 23.8695 6.3822 23.868 6.37888C23.8644 6.37041 23.8601 6.36251 23.856 6.35433C23.8476 6.33725 23.8381 6.3207 23.8276 6.30478C23.8223 6.29665 23.8169 6.28864 23.811 6.28086C23.7985 6.26431 23.7848 6.24861 23.7702 6.23388C23.7656 6.22931 23.7617 6.22421 23.757 6.21986C23.7374 6.20171 23.7163 6.18526 23.694 6.17071C23.6876 6.16653 23.6807 6.16316 23.6741 6.15927C23.6572 6.1493 23.6397 6.1404 23.6218 6.1326C23.613 6.12888 23.6042 6.12539 23.5952 6.12219C23.5772 6.11579 23.5587 6.11052 23.54 6.1064C23.5317 6.10451 23.5236 6.1021 23.515 6.10067C23.4894 6.0962 23.4635 6.09388 23.4375 6.09375C23.4363 6.09375 23.4352 6.09398 23.434 6.09404C23.428 6.09409 23.4219 6.09512 23.4159 6.09541C23.3928 6.09645 23.3698 6.09919 23.3471 6.10359C23.3434 6.10434 23.3396 6.10411 23.3358 6.10496L15.4688 7.85322V4.6875C15.4688 4.56318 15.4194 4.44395 15.3315 4.35604C15.2435 4.26814 15.1243 4.21875 15 4.21875C14.8757 4.21875 14.7565 4.26814 14.6685 4.35604C14.5806 4.44395 14.5312 4.56318 14.5312 4.6875V8.06156L6.46082 9.85497C6.45641 9.85594 6.45264 9.858 6.44829 9.85909C6.4266 9.86456 6.40534 9.87158 6.38465 9.88008C6.37836 9.88266 6.37184 9.88472 6.36572 9.88759C6.34116 9.89892 6.31763 9.91236 6.29539 9.92775C6.28921 9.93205 6.28383 9.93702 6.27794 9.94154C6.26191 9.95378 6.24668 9.96703 6.23233 9.9812C6.22581 9.98772 6.21963 9.9943 6.21357 10.0012C6.20053 10.0159 6.18844 10.0314 6.17735 10.0476C6.17288 10.0541 6.16802 10.0603 6.1639 10.067C6.14964 10.0897 6.13739 10.1136 6.12728 10.1384L6.12648 10.1404L6.12602 10.1415L2.37728 19.5134C2.35514 19.5688 2.34376 19.6279 2.34375 19.6875C2.34375 22.0779 4.93143 22.9688 6.5625 22.9688C8.19357 22.9688 10.7812 22.0779 10.7812 19.6875C10.7812 19.6279 10.7699 19.5688 10.7477 19.5134L7.20251 10.6504L14.5312 9.02178V24.8438H12.1875C12.0632 24.8438 11.944 24.8931 11.856 24.981C11.7681 25.069 11.7188 25.1882 11.7188 25.3125C11.7188 25.4368 11.7681 25.556 11.856 25.644C11.944 25.7319 12.0632 25.7812 12.1875 25.7812H17.8125C17.9368 25.7812 18.056 25.7319 18.144 25.644C18.2319 25.556 18.2812 25.4368 18.2812 25.3125C18.2812 25.1882 18.2319 25.069 18.144 24.981C18.056 24.8931 17.9368 24.8438 17.8125 24.8438H15.4688V8.81344L22.6726 7.21258L19.2523 15.7634C19.2301 15.8188 19.2188 15.8779 19.2188 15.9375C19.2188 18.3279 21.8064 19.2188 23.4375 19.2188C25.0686 19.2188 27.6562 18.3279 27.6562 15.9375C27.6562 15.8779 27.6449 15.8188 27.6227 15.7634ZM6.5625 22.0312C5.72416 22.0312 3.35473 21.6135 3.28291 19.7736L6.5625 11.5747L9.84209 19.7736C9.77028 21.6135 7.40084 22.0312 6.5625 22.0312ZM23.4375 18.2812C22.5992 18.2812 20.2297 17.8635 20.1579 16.0236L23.4375 7.82467L26.7171 16.0236C26.6453 17.8635 24.2758 18.2812 23.4375 18.2812Z" fill="white"/>
<path d="M12.1875 24.8438C12.0632 24.8438 11.9444 24.8935 11.8564 24.9814C11.7685 25.0694 11.7188 25.1882 11.7188 25.3125C11.7188 25.4368 11.7685 25.5556 11.8564 25.6436C11.9444 25.7315 12.0632 25.7812 12.1875 25.7812H17.8125C17.9368 25.7812 18.0556 25.7315 18.1436 25.6436C18.2315 25.5556 18.2812 25.4368 18.2812 25.3125C18.2812 25.1882 18.2315 25.0694 18.1436 24.9814C18.0556 24.8935 17.9368 24.8438 17.8125 24.8438V24.3438C18.0375 24.3438 18.2543 24.4221 18.4268 24.5635L18.4971 24.6279L18.5615 24.6982C18.7029 24.8707 18.7812 25.0875 18.7812 25.3125C18.7812 25.5694 18.6787 25.8154 18.4971 25.9971C18.3154 26.1787 18.0694 26.2812 17.8125 26.2812H12.1875C11.9306 26.2812 11.6846 26.1787 11.5029 25.9971C11.3213 25.8154 11.2188 25.5694 11.2188 25.3125C11.2188 25.0556 11.3213 24.8096 11.5029 24.6279L11.5732 24.5635C11.7457 24.4221 11.9625 24.3438 12.1875 24.3438V24.8438ZM9.8418 19.7734C9.76999 21.6134 7.40084 22.0312 6.5625 22.0312V21.5312C6.92536 21.5312 7.65062 21.4364 8.27539 21.1406C8.86286 20.8624 9.27248 20.456 9.33398 19.8506L6.5625 12.9199L3.79004 19.8506C3.85151 20.4561 4.26211 20.8624 4.84961 21.1406C5.47438 21.4364 6.19964 21.5312 6.5625 21.5312V22.0312C5.72416 22.0312 3.35502 21.6134 3.2832 19.7734L6.5625 11.5742L9.8418 19.7734ZM24.1279 5.88477C24.1569 5.91423 24.184 5.94557 24.209 5.97852L24.2109 5.98047C24.226 6.00058 24.2382 6.0194 24.2441 6.02832L24.2451 6.03027C24.2665 6.06291 24.2864 6.09686 24.3037 6.13184C24.3042 6.13287 24.3067 6.13789 24.3086 6.1416C24.3102 6.14473 24.312 6.14914 24.3145 6.1543C24.3159 6.15717 24.3182 6.16081 24.3203 6.16504C24.3247 6.17399 24.3313 6.18758 24.3379 6.2041H24.3369L28.0869 15.5781C28.1212 15.6639 28.1426 15.754 28.1514 15.8457L28.1562 15.9375C28.1562 17.3485 27.3792 18.3123 26.4199 18.9004C25.4768 19.4785 24.3277 19.7188 23.4375 19.7188C22.5473 19.7188 21.3982 19.4785 20.4551 18.9004C19.4958 18.3123 18.7188 17.3485 18.7188 15.9375C18.7188 15.8144 18.7424 15.6924 18.7881 15.5781L21.8564 7.90527L15.9688 9.21387V24.3438H17.8125V24.8438H15.4688V8.81348L22.6729 7.21289L19.252 15.7637C19.2299 15.8189 19.2188 15.878 19.2188 15.9375C19.2188 18.3279 21.8064 19.2188 23.4375 19.2188C25.0686 19.2188 27.6562 18.3279 27.6562 15.9375C27.6562 15.9076 27.6531 15.8779 27.6475 15.8486L27.623 15.7637L23.873 6.38867C23.8717 6.38538 23.8696 6.3822 23.8682 6.37891C23.8646 6.37054 23.8605 6.36257 23.8564 6.35449C23.848 6.33741 23.8376 6.32061 23.8271 6.30469L23.8115 6.28125C23.799 6.2647 23.7852 6.24813 23.7705 6.2334C23.766 6.22884 23.7615 6.22405 23.7568 6.21973C23.7374 6.20171 23.7165 6.18536 23.6943 6.1709C23.6879 6.16672 23.6805 6.16307 23.6738 6.15918C23.6571 6.14933 23.6398 6.14054 23.6221 6.13281C23.6133 6.12909 23.6037 6.12527 23.5947 6.12207L23.54 6.10645C23.5317 6.10456 23.5232 6.10202 23.5146 6.10059C23.4892 6.09616 23.4634 6.09388 23.4375 6.09375C23.4363 6.09375 23.4348 6.0937 23.4336 6.09375C23.4277 6.09385 23.4219 6.09542 23.416 6.0957L23.3467 6.10352C23.3431 6.10415 23.3395 6.10372 23.3359 6.10449L15.4688 7.85352V4.6875C15.4688 4.56318 15.419 4.44435 15.3311 4.35645C15.2431 4.26854 15.1243 4.21875 15 4.21875C14.8757 4.21875 14.7569 4.26854 14.6689 4.35645C14.581 4.44435 14.5312 4.56318 14.5312 4.6875V8.06152L6.46094 9.85449L6.44824 9.85938C6.42666 9.86484 6.40536 9.87142 6.38477 9.87988L6.36523 9.8877L6.29492 9.92773C6.28898 9.9319 6.284 9.93702 6.27832 9.94141L6.23242 9.98145C6.22601 9.98786 6.21984 9.99423 6.21387 10.001L6.17773 10.0479C6.17327 10.0544 6.16818 10.0606 6.16406 10.0674C6.14985 10.09 6.13704 10.1139 6.12695 10.1387V10.1406L6.12598 10.1416L2.37695 19.5137C2.35489 19.5689 2.34376 19.628 2.34375 19.6875C2.34375 22.0779 4.93143 22.9688 6.5625 22.9688C8.19357 22.9688 10.7812 22.0779 10.7812 19.6875C10.7812 19.6576 10.7781 19.6279 10.7725 19.5986L10.748 19.5137L7.20215 10.6504L14.5312 9.02148V24.8438H12.1875V24.3438H14.0312V9.64453L7.88477 11.0107L11.2119 19.3281C11.2462 19.4139 11.2676 19.504 11.2764 19.5957L11.2812 19.6875C11.2812 21.0985 10.5042 22.0623 9.54492 22.6504C8.60178 23.2285 7.45275 23.4688 6.5625 23.4688C5.67225 23.4688 4.52322 23.2285 3.58008 22.6504C2.62082 22.0623 1.84375 21.0985 1.84375 19.6875C1.84376 19.5644 1.86741 19.4424 1.91309 19.3281L5.66211 9.95605V9.95508L5.66406 9.9502L5.66504 9.94824C5.68597 9.89711 5.71084 9.84757 5.74023 9.80078C5.75055 9.7843 5.75995 9.77182 5.76367 9.7666L5.7666 9.7627C5.78901 9.73017 5.81363 9.6985 5.83984 9.66895C5.8523 9.65489 5.86541 9.64143 5.87891 9.62793L5.88086 9.625C5.90996 9.59628 5.94117 9.56977 5.97363 9.54492L5.96582 9.55078C5.9662 9.55047 5.96743 9.54894 5.96875 9.54785C5.97364 9.54383 5.98934 9.53079 6.00977 9.5166H6.01074C6.05588 9.48536 6.10355 9.45773 6.15332 9.43457C6.17122 9.42619 6.1873 9.42004 6.19531 9.41699C6.23498 9.40073 6.27592 9.38783 6.31738 9.37695C6.32744 9.37398 6.33914 9.37016 6.35254 9.36719L14.0312 7.66016V4.6875C14.0312 4.43057 14.1338 4.18461 14.3154 4.00293L14.3857 3.93848C14.5582 3.79705 14.775 3.71875 15 3.71875C15.2569 3.71875 15.5029 3.82125 15.6846 4.00293C15.8662 4.18461 15.9688 4.43057 15.9688 4.6875V7.22949L23.2246 5.61719C23.2475 5.61198 23.2672 5.60895 23.2803 5.60742C23.2843 5.60695 23.2879 5.60674 23.291 5.60645C23.2852 5.60707 23.2773 5.60881 23.2676 5.61035C23.3041 5.60388 23.3409 5.59894 23.3779 5.59668H23.3789C23.38 5.59656 23.3842 5.59621 23.3896 5.5957H23.3936L23.4297 5.59375H23.4404C23.4928 5.59404 23.545 5.59865 23.5967 5.60742H23.5977L23.6465 5.61816C23.6483 5.61862 23.6502 5.61885 23.6514 5.61914H23.6504L23.7627 5.65137L23.8174 5.67285L23.8203 5.67383C23.8547 5.68873 23.8885 5.70585 23.9209 5.72461H23.9219C23.9241 5.7259 23.9265 5.72721 23.9287 5.72852H23.9277L23.9668 5.75195L24.0977 5.85352C24.1084 5.86352 24.117 5.87249 24.123 5.87891C24.1249 5.88086 24.1264 5.88307 24.1279 5.88477ZM26.7168 16.0234C26.645 17.8634 24.2758 18.2812 23.4375 18.2812V17.7812C23.8004 17.7812 24.5256 17.6864 25.1504 17.3906C25.7379 17.1124 26.1475 16.706 26.209 16.1006L23.4375 9.16992L20.665 16.1006C20.7265 16.7061 21.1371 17.1124 21.7246 17.3906C22.3494 17.6864 23.0746 17.7812 23.4375 17.7812V18.2812C22.5992 18.2812 20.23 17.8634 20.1582 16.0234L23.4375 7.82422L26.7168 16.0234ZM6.19922 9.41602C6.19828 9.41637 6.19686 9.4164 6.19531 9.41699L6.20312 9.41406L6.19922 9.41602ZM6.28613 9.38574C6.28232 9.38708 6.27973 9.38912 6.27832 9.38965C6.27956 9.38918 6.28154 9.38768 6.28418 9.38672L6.28613 9.38574ZM23.2959 5.60645H23.293C23.2973 5.606 23.3021 5.6056 23.3037 5.60547C23.3029 5.60553 23.2996 5.60612 23.2959 5.60645Z" fill="white"/>
</svg>
