<svg width="20" height="20" viewBox="0 0 20 20" fill="none" xmlns="http://www.w3.org/2000/svg">
<g opacity="0.56">
<path d="M12.5 10C12.5 8.61929 11.3807 7.5 10 7.5C8.61929 7.5 7.5 8.61929 7.5 10C7.5 11.3807 8.61929 12.5 10 12.5C11.3807 12.5 12.5 11.3807 12.5 10ZM13.75 10C13.75 12.0711 12.0711 13.75 10 13.75C7.92893 13.75 6.25 12.0711 6.25 10C6.25 7.92893 7.92893 6.25 10 6.25C12.0711 6.25 13.75 7.92893 13.75 10Z" fill="#131313"/>
<path d="M12.5 9.99997V6.87497C12.5 6.52979 12.7798 6.24997 13.125 6.24997C13.4701 6.24997 13.75 6.52979 13.75 6.87497V9.99997C13.75 10.8033 13.8985 11.4526 14.164 11.8798C14.4063 12.2694 14.7563 12.5 15.3125 12.5C15.8686 12.5 16.2186 12.2694 16.4609 11.8798C16.7265 11.4526 16.875 10.8033 16.875 9.99997C16.875 8.64036 16.472 7.31114 15.7168 6.18063C14.9613 5.05004 13.8871 4.16876 12.6308 3.6484C11.3747 3.12812 9.99261 2.99165 8.65915 3.2568C7.32553 3.52208 6.10012 4.17715 5.13864 5.13864C4.17715 6.10012 3.52208 7.32553 3.2568 8.65915C2.99165 9.99261 3.12812 11.3747 3.6484 12.6308C4.16876 13.8871 5.05004 14.9613 6.18063 15.7168C7.31114 16.472 8.64036 16.875 9.99997 16.875C11.4256 16.875 12.9554 16.4432 14.0293 15.7295C14.3167 15.5385 14.7044 15.6169 14.8955 15.9043C15.0864 16.1917 15.0081 16.5794 14.7207 16.7705C13.418 17.6363 11.6415 18.125 9.99997 18.125C8.39312 18.125 6.82238 17.6485 5.48629 16.7558C4.15014 15.863 3.10809 14.594 2.49313 13.1093C1.8782 11.6247 1.71775 9.99105 2.03122 8.415C2.34472 6.83891 3.11855 5.39115 4.25485 4.25485C5.39115 3.11855 6.83891 2.34472 8.415 2.03122C9.99105 1.71775 11.6247 1.8782 13.1093 2.49313C14.594 3.10809 15.863 4.15014 16.7558 5.48629C17.6485 6.82238 18.125 8.39312 18.125 9.99997C18.125 10.9225 17.961 11.8362 17.5234 12.54C17.0626 13.2813 16.3186 13.75 15.3125 13.75C14.3063 13.75 13.5624 13.2813 13.1015 12.54C12.664 11.8362 12.5 10.9225 12.5 9.99997Z" fill="#131313"/>
</g>
</svg>
