<svg width="43" height="30" viewBox="0 0 43 30" fill="none" xmlns="http://www.w3.org/2000/svg">
<path d="M0.0345655 3.89766C-0.143083 1.97313 1.3314 0.0308323 3.34476 0.0663621C9.45588 -0.0283841 15.5788 -0.0106307 21.6959 0.0545072C23.3421 -0.0757687 24.3251 1.33359 25.1719 2.512C26.4036 2.77255 27.9373 2.84953 28.5946 4.12268C29.9092 6.26039 30.9277 8.56982 32.0706 10.8082C34.6643 11.7793 37.3704 12.4426 39.9404 13.4729C41.1307 13.8934 41.9479 15.0777 41.942 16.339C42.0426 18.2813 42.1433 20.2591 41.7702 22.1777C41.409 23.5338 39.9582 23.9779 38.8331 24.5109C38.762 23.8358 38.6791 23.1726 38.5844 22.5153C40.3846 20.7921 39.8457 18.0207 39.4963 15.8238C36.648 14.4618 33.5273 13.8046 30.5665 12.7268C28.8196 9.97326 28.1564 6.26631 25.2074 4.46613C24.9943 10.3463 25.2548 16.2324 25.0475 22.1126C26.3503 22.1007 27.6471 22.1007 28.9558 22.0948C28.7545 22.841 28.5828 23.5989 28.4406 24.3628C24.1178 24.3391 19.7951 24.3391 15.4723 24.3628C15.3242 23.5989 15.1525 22.8469 14.963 22.1008C17.5744 22.1304 20.1977 22.1659 22.8032 21.858C22.8032 15.4981 23.0283 9.12053 22.6966 2.77253C21.5123 2.01457 20.0201 2.31658 18.6936 2.23368C13.5833 2.36988 8.46104 2.09747 3.35659 2.3521C2.0183 2.44685 2.34992 4.14045 2.25518 5.06422C2.32032 10.216 2.19004 15.3738 2.30847 20.5256C2.08937 22.3791 4.33959 22.0238 5.52391 22.2192C5.35218 22.9476 5.21008 23.6818 5.09164 24.4279C3.10198 24.4812 0.460924 23.9898 0.147078 21.6033C-0.13716 15.7172 0.0878602 9.79561 0.0345655 3.89766Z" fill="black"/>
<path d="M17.1073 0.0151056L21.6962 0.0541681C23.3421 -0.0758331 24.325 1.33387 25.1718 2.51218C26.4034 2.77272 27.9373 2.84945 28.5946 4.12253C29.9092 6.26017 30.9274 8.56976 32.0702 10.8081C34.6639 11.7792 37.3703 12.4427 39.9403 13.4731C41.1305 13.8936 41.9482 15.078 41.9423 16.3393C42.0429 18.2815 42.1434 20.2597 41.7704 22.1782L41.6903 22.4214C41.2293 23.5897 39.8878 24.0115 38.8329 24.5112C38.7618 23.8361 38.6786 23.1724 38.5839 22.5151C40.3841 20.7919 39.8454 18.0206 39.496 15.8237C36.8257 14.5469 33.9159 13.8895 31.1229 12.9243L30.5663 12.727C28.8194 9.97346 28.1559 6.26645 25.2069 4.46628C24.9938 10.3464 25.255 16.2326 25.0477 22.1128C26.3504 22.1009 27.6474 22.1011 28.9559 22.0952C28.7546 22.8412 28.5824 23.599 28.4403 24.3628C24.1177 24.3391 19.7951 24.3391 15.4725 24.3628L15.3563 23.7924C15.2367 23.2237 15.1049 22.6607 14.9628 22.101C17.5742 22.1307 20.1981 22.1658 22.8036 21.8579C22.8036 15.4982 23.0278 9.12076 22.6962 2.77292C21.5119 2.01501 20.0197 2.31676 18.6932 2.23386C13.583 2.37004 8.46069 2.09739 3.35633 2.35202C2.01833 2.44687 2.34943 4.14014 2.25477 5.06393C2.31991 10.2158 2.19005 15.374 2.30848 20.5258L2.29481 20.6928C2.22862 22.3572 4.37587 22.0301 5.52332 22.2192C5.35161 22.9475 5.21011 23.6821 5.09168 24.4282L4.7118 24.4311C2.84545 24.413 0.597236 23.8782 0.183481 21.8217L0.147348 21.603C-0.136862 15.7171 0.0873521 9.79567 0.0340672 3.89792C-0.143581 1.9734 1.33128 0.0303819 3.34461 0.0658868C7.92801 -0.00517352 12.5181 -0.0129275 17.1073 0.0151056ZM21.6903 0.554168C15.5757 0.489057 9.45754 0.471234 3.35243 0.565887L3.34364 0.566863L3.33582 0.565887C1.72686 0.537495 0.458682 2.06615 0.522348 3.69382L0.532114 3.85202L0.534067 3.87253V3.89304C0.587602 9.81759 0.363406 15.6869 0.645395 21.5551C0.778531 22.5225 1.36538 23.1111 2.19129 23.4721C2.92389 23.7924 3.81994 23.9165 4.66688 23.9292C4.74003 23.5032 4.82151 23.0804 4.912 22.6596C4.77284 22.6506 4.62223 22.6423 4.45985 22.6323C4.08576 22.6092 3.65982 22.5753 3.2704 22.4799C2.88404 22.3853 2.46911 22.2153 2.17274 21.8716C1.86944 21.5198 1.75163 21.0585 1.8075 20.5112C1.69042 15.3817 1.81925 10.1714 1.75477 5.07077V5.04147L1.7577 5.01315C1.77833 4.81201 1.77583 4.56803 1.77918 4.25827C1.78235 3.96701 1.79085 3.62989 1.84657 3.311C1.90188 2.99452 2.01113 2.64491 2.25184 2.36179C2.50711 2.06153 2.86821 1.88506 3.32118 1.853H3.33192C5.89959 1.72492 8.46866 1.72926 11.0263 1.7485C13.5882 1.76779 16.1361 1.80167 18.6806 1.73386L18.702 1.73288L18.7245 1.73483C19.0344 1.7542 19.3585 1.75138 19.705 1.74655C20.0451 1.7418 20.4088 1.73493 20.7694 1.75046C21.4919 1.78159 22.265 1.90273 22.9657 2.35104L23.1825 2.48971L23.1962 2.74655C23.5287 9.11158 23.3036 15.522 23.3036 21.8579V22.3022L22.8622 22.3549C20.4365 22.6416 17.9993 22.6319 15.6014 22.6059C15.7007 23.0211 15.7931 23.4392 15.8798 23.8608C19.9296 23.84 23.9794 23.84 28.0292 23.8608C28.114 23.4373 28.2075 23.0157 28.3104 22.5971C27.2195 22.6009 26.1385 22.6029 25.0516 22.6128L24.5292 22.6176L24.5477 22.0952C24.651 19.1667 24.6375 16.2348 24.6249 13.2915C24.6123 10.3515 24.6009 7.39957 24.7079 4.44772L24.7382 3.59421L25.4677 4.03952C27.0625 5.01305 28.0177 6.49129 28.7841 8.01413C29.165 8.77121 29.5132 9.56874 29.8602 10.3169C30.1868 11.0208 30.5213 11.6939 30.9022 12.3149C32.3154 12.821 33.7577 13.2345 35.2225 13.6909C36.7339 14.1617 38.2541 14.6755 39.7118 15.3725L39.9491 15.4858L39.9901 15.7456C40.1617 16.8243 40.3946 18.1231 40.3456 19.3667C40.2991 20.5459 39.9978 21.7361 39.1122 22.6909C39.1621 23.0493 39.2079 23.4097 39.2509 23.7729C39.6286 23.605 39.9866 23.442 40.3202 23.2309C40.805 22.9241 41.1436 22.5664 41.2821 22.061C41.6367 20.219 41.5431 18.3101 41.4423 16.3647V16.3364C41.4471 15.2836 40.7588 14.2929 39.7733 13.9448L39.7538 13.937C38.4887 13.4298 37.1864 13.0113 35.8641 12.5952C34.5473 12.1808 33.2075 11.7681 31.8954 11.2768L31.7138 11.2085L31.6249 11.0356C30.4644 8.76283 29.4699 6.49995 28.1688 4.38425L28.1591 4.36862L28.1503 4.35202C27.9022 3.87155 27.487 3.59776 26.9374 3.41061C26.3543 3.21209 25.7455 3.1447 25.0682 3.00143L24.8788 2.96139L24.7655 2.80417C24.3328 2.20195 23.9104 1.60771 23.4061 1.17038C22.9172 0.746373 22.387 0.501617 21.7352 0.553191L21.7128 0.555145L21.6903 0.554168Z" fill="white"/>
<path d="M5.5255 22.3924C6.63877 20.8054 8.3442 19.4197 10.3931 19.55C12.3117 19.5085 13.8513 20.8409 14.9646 22.2739C15.1541 23.0201 15.3258 23.7721 15.4739 24.536C15.7048 27.5501 12.8683 30.2741 9.87198 29.978C7.18948 29.8122 4.86821 27.3073 5.09323 24.6011C5.21167 23.855 5.35377 23.1207 5.5255 22.3924ZM9.34496 21.9838C7.12435 22.6233 6.65062 25.975 8.62845 27.183C10.1385 28.3673 12.4953 27.4317 13.046 25.667C13.875 23.553 11.4708 21.1251 9.34496 21.9838Z" fill="#2BAC62"/>
<path d="M28.956 22.0951C30.1521 20.4962 31.9701 19.1165 34.0841 19.3948C36.056 19.4895 37.5423 20.97 38.5845 22.5155C38.6793 23.1728 38.7622 23.836 38.8332 24.5111C39.0346 27.5785 35.9909 30.2491 32.9708 29.7754C30.3771 29.4616 28.2572 26.9923 28.4408 24.3631C28.5829 23.5992 28.7546 22.8412 28.956 22.0951ZM32.5267 21.8878C30.5193 22.6695 30.0574 25.648 31.8753 26.8975C33.5807 28.4727 36.6955 26.939 36.5297 24.6354C36.7192 22.628 34.3269 20.9996 32.5267 21.8878Z" fill="#2BAC62"/>
</svg>
