<svg width="41" height="32" viewBox="0 0 41 32" fill="none" xmlns="http://www.w3.org/2000/svg">
<path d="M38.7201 11.7457L37.8483 10.8226L34.7885 2.57479C34.2671 1.18162 32.9338 0.258547 31.4466 0.25H9.59188C8.1047 0.25 6.77137 1.18162 6.25 2.57479L3.23291 10.7201L1.9765 11.8825C0.882479 12.8141 0.25 14.1816 0.25 15.6175V27.6346C0.258547 29.6004 1.85684 31.1902 3.82265 31.1902H6.07906C8.04487 31.1902 9.64316 29.6004 9.65171 27.6346V25.891H30.8483V27.6346C30.8568 29.6004 32.4551 31.1902 34.4209 31.1902H36.6774C38.6432 31.1902 40.2415 29.6004 40.25 27.6346V15.3013C40.2415 13.9594 39.6944 12.6774 38.7201 11.7457ZM7.85684 3.15598C8.13034 2.42949 8.82265 1.9594 9.59188 1.9594H31.4551C32.2244 1.9594 32.9167 2.43803 33.1902 3.15598L35.8568 10.3355H33.8654C33.3953 7.13034 30.4124 4.91667 27.2073 5.3953C24.6517 5.77137 22.6432 7.77991 22.2671 10.3355H5.19017L7.85684 3.15598ZM32.1218 10.3355H23.9936C24.4637 8.08761 26.6688 6.65171 28.9167 7.12179C30.5235 7.46368 31.7799 8.72009 32.1218 10.3355ZM7.94231 27.6346C7.93376 28.6603 7.1047 29.4808 6.07906 29.4808H3.82265C2.79701 29.4808 1.96795 28.6603 1.9594 27.6346V25.3953C2.47222 25.7286 3.14744 25.891 3.82265 25.891H7.94231V27.6346ZM38.5406 27.6346C38.5321 28.6603 37.703 29.4808 36.6774 29.4808H34.4209C33.3953 29.4808 32.5662 28.6517 32.5577 27.6346V25.891H36.6774C37.3526 25.891 38.0278 25.7286 38.5406 25.3953V27.6346ZM36.6774 24.1816H3.82265C2.80556 24.1902 1.96795 23.3782 1.9594 22.3526V15.6175C1.9594 14.6774 2.37821 13.7799 3.09615 13.1731C3.1047 13.1645 3.12179 13.1474 3.13034 13.1389L4.29274 12.0449H36.6603L37.4808 12.9252C37.4893 12.9423 37.515 12.9509 37.5235 12.9679C38.1645 13.5748 38.5321 14.4209 38.5321 15.3013V22.3526H38.5406C38.5321 23.3697 37.6944 24.1902 36.6774 24.1816Z" fill="black"/>
<path d="M31.4482 0L31.7441 0.0126953C33.1153 0.126038 34.3274 0.965755 34.9082 2.21387L35.0225 2.4873V2.48828L38.0654 10.6885L38.9014 11.5742C39.9194 12.5523 40.4911 13.8949 40.5 15.2998V27.6357C40.4908 29.7392 38.7809 31.4402 36.6777 31.4404H34.4209C32.3176 31.4404 30.6078 29.7393 30.5986 27.6357V26.1406H9.90137V27.6357C9.8922 29.7393 8.18238 31.4404 6.0791 31.4404H3.82227C1.71914 31.4402 0.00916706 29.7392 0 27.6357V15.6172C9.82723e-05 14.1081 0.664897 12.6713 1.81445 11.6924L3.01758 10.5771L6.01562 2.48828V2.4873C6.57324 0.997287 7.99955 3.50357e-05 9.5918 0H31.4482ZM2.0957 25.1855C2.55841 25.4863 3.18286 25.6406 3.82227 25.6406H8.19238V27.6367C8.18268 28.7999 7.24169 29.7304 6.0791 29.7305H3.82227C2.65984 29.7303 1.71868 28.7998 1.70898 27.6367V24.9346L2.0957 25.1855ZM38.791 27.6367C38.7813 28.7998 37.8402 29.7303 36.6777 29.7305H34.4209C33.2575 29.7304 32.3173 28.7906 32.3076 27.6367V25.6406H36.6777C37.3171 25.6406 37.9416 25.4863 38.4043 25.1855L38.791 24.9346V27.6367ZM2.20898 27.6328L2.21875 27.7969C2.30689 28.6065 2.98931 29.2303 3.82227 29.2305H6.0791C6.96701 29.2304 7.6838 28.5218 7.69238 27.6348V26.1406H3.82227C3.26461 26.1406 2.69909 26.0333 2.20898 25.8115V27.6328ZM38.291 25.8115C37.8009 26.0333 37.2354 26.1406 36.6777 26.1406H32.8076V27.6328L32.8174 27.7959C32.9058 28.5999 33.5886 29.2304 34.4209 29.2305H36.6777C37.5655 29.2303 38.2824 28.5217 38.291 27.6348V25.8115ZM38.2822 15.3018C38.2822 14.4908 37.9433 13.7096 37.3516 13.1494L37.3193 13.1201C37.3109 13.1123 37.2998 13.1008 37.2881 13.0859L36.5518 12.2949H4.3916L3.30176 13.3213L3.30078 13.3203C3.29727 13.3238 3.29409 13.329 3.29004 13.333C3.28367 13.3394 3.27671 13.3454 3.27246 13.3496L3.26562 13.3574L3.25781 13.3643C2.59584 13.9238 2.20908 14.7511 2.20898 15.6172V22.3506L2.21875 22.5146C2.30764 23.3218 2.99517 23.9385 3.82031 23.9316H36.6797C37.51 23.9385 38.2012 23.306 38.2822 22.4961V15.3018ZM31.4551 1.70898C32.2739 1.70898 33.0153 2.18681 33.3604 2.91797L33.4238 3.06738L33.4248 3.06934L36.0908 10.248L36.2168 10.5859H33.6494L33.6182 10.3721C33.1822 7.39975 30.4887 5.31808 27.5312 5.60742L27.2441 5.64258C24.7977 6.00258 22.8747 7.92567 22.5146 10.3721L22.4834 10.5859H4.83105L4.95605 10.248L7.62207 3.06934L7.62305 3.06836C7.93374 2.24308 8.72 1.70902 9.5918 1.70898H31.4551ZM23.749 10.2842C24.2476 7.9007 26.5854 6.3788 28.9678 6.87695H28.9688C30.6724 7.23943 32.0039 8.5723 32.3662 10.2842L32.4307 10.5859H23.6855L23.749 10.2842ZM9.5918 2.20898C8.9252 2.20902 8.32712 2.61648 8.09082 3.24414L5.5498 10.0859H22.0557C22.5253 7.52364 24.5772 5.53041 27.1699 5.14844L27.4824 5.10938C30.6325 4.80092 33.5064 6.96261 34.0762 10.0859H35.4971L32.9561 3.24316V3.24219C32.7187 2.62237 32.1194 2.20898 31.4551 2.20898H9.5918ZM28.8643 7.36523C26.8536 6.94553 24.8812 8.14884 24.3145 10.0859H31.7998C31.3944 8.71378 30.2728 7.66589 28.8643 7.36621V7.36523ZM0.5 27.6338L0.504883 27.8037C0.600944 29.5523 2.05121 30.9402 3.82227 30.9404H6.0791C7.90698 30.9404 9.39275 29.4622 9.40137 27.6348V25.6406H31.0986V27.6338L31.1035 27.8037C31.1996 29.5524 32.6497 30.9404 34.4209 30.9404H36.6777C38.5055 30.9402 39.9914 29.4621 40 27.6348V15.3027C39.9924 14.1076 39.5353 12.9629 38.7158 12.0957L38.5381 11.918L38.7197 11.7461L38.5381 11.917L37.667 10.9941L37.6318 10.957L37.6143 10.9092L34.5537 2.66211V2.66113C34.099 1.44768 32.9812 0.617481 31.7031 0.511719L31.4453 0.5H9.5918C8.29606 0.500033 7.12501 1.26147 6.58398 2.4248L6.48438 2.66211L3.46777 10.8066L3.44629 10.8633L3.40234 10.9033L2.14648 12.0664L2.13867 12.0732C1.10052 12.9574 0.500098 14.2549 0.5 15.6172V27.6338ZM38.7822 22.1025H38.793L38.791 22.3545C38.7813 23.5094 37.8312 24.439 36.6777 24.4307V24.4316H3.82227V24.4307C2.66955 24.439 1.71869 23.5187 1.70898 22.3545V15.6172C1.70908 14.6102 2.15502 13.6499 2.91895 12.9961C2.92319 12.9918 2.93015 12.9859 2.93652 12.9795C2.94287 12.9731 2.94885 12.9662 2.95312 12.9619L2.95898 12.957L4.12109 11.8633L4.19336 11.7949H36.7686L36.8428 11.874L37.6641 12.7549L37.667 12.7588C37.6718 12.7627 37.6781 12.7674 37.6846 12.7734C37.6925 12.7808 37.7029 12.7911 37.7139 12.8047C38.3926 13.4569 38.7822 14.3607 38.7822 15.3018V22.1025Z" fill="white"/>
<path d="M11.5306 15.4639H5.12033C4.65024 15.4639 4.26562 15.8485 4.26562 16.3186V20.763C4.26562 21.2331 4.65024 21.6177 5.12033 21.6177H11.5306C12.0007 21.6177 12.3853 21.2331 12.3853 20.763V16.3186C12.3853 15.8485 12.0007 15.4639 11.5306 15.4639ZM10.6759 19.9083H5.97503V17.1733H10.6759V19.9083Z" fill="#2BAC62"/>
<path d="M12.1357 16.3184C12.1356 15.9864 11.8622 15.7139 11.5303 15.7139H5.12012C4.78827 15.714 4.51574 15.9865 4.51562 16.3184V20.7627C4.51562 21.0946 4.7882 21.368 5.12012 21.3682H11.5303C11.8623 21.3682 12.1357 21.0947 12.1357 20.7627V16.3184ZM10.9258 16.9229V20.1582H5.72461V16.9229H10.9258ZM6.22461 19.6582H10.4258V17.4229H6.22461V19.6582ZM12.6357 20.7627C12.6357 21.3709 12.1384 21.8682 11.5303 21.8682H5.12012C4.51206 21.8681 4.01562 21.3708 4.01562 20.7627V16.3184C4.01574 15.7104 4.51213 15.214 5.12012 15.2139H11.5303C12.1384 15.2139 12.6356 15.7103 12.6357 16.3184V20.7627Z" fill="white"/>
<path d="M35.3782 15.4639H28.968C28.4979 15.4639 28.1133 15.8485 28.1133 16.3186V20.763C28.1133 21.2331 28.4979 21.6177 28.968 21.6177H35.3782C35.8483 21.6177 36.2329 21.2331 36.2329 20.763V16.3186C36.2329 15.8485 35.8483 15.4639 35.3782 15.4639ZM34.5235 19.9083H29.8227V17.1733H34.5235V19.9083Z" fill="#2BAC62"/>
<path d="M35.9834 16.3184C35.9833 15.9864 35.7099 15.7139 35.3779 15.7139H28.9678C28.6359 15.714 28.3634 15.9865 28.3633 16.3184V20.7627C28.3633 21.0946 28.6359 21.368 28.9678 21.3682H35.3779C35.7099 21.3682 35.9834 21.0947 35.9834 20.7627V16.3184ZM34.7734 16.9229V20.1582H29.5723V16.9229H34.7734ZM30.0723 19.6582H34.2734V17.4229H30.0723V19.6582ZM36.4834 20.7627C36.4834 21.3709 35.9861 21.8682 35.3779 21.8682H28.9678C28.3597 21.8681 27.8633 21.3708 27.8633 20.7627V16.3184C27.8634 15.7104 28.3598 15.214 28.9678 15.2139H35.3779C35.986 15.2139 36.4833 15.7103 36.4834 16.3184V20.7627Z" fill="white"/>
<path d="M24.3767 19.0537H16.1203C15.6502 19.0537 15.2656 19.4383 15.2656 19.9084C15.2656 20.3785 15.6502 20.7631 16.1203 20.7631H24.3767C24.8468 20.7631 25.2314 20.3785 25.2314 19.9084C25.2314 19.4383 24.8468 19.0537 24.3767 19.0537Z" fill="black"/>
<path d="M24.9814 19.9082C24.9813 19.5764 24.7088 19.3038 24.377 19.3037H16.1201C15.7883 19.3038 15.5157 19.5764 15.5156 19.9082C15.5156 20.2401 15.7882 20.5126 16.1201 20.5127H24.377C24.7089 20.5126 24.9814 20.2401 24.9814 19.9082ZM25.4814 19.9082C25.4814 20.5163 24.985 21.0126 24.377 21.0127H16.1201C15.5121 21.0126 15.0156 20.5163 15.0156 19.9082C15.0157 19.3002 15.5121 18.8038 16.1201 18.8037H24.377C24.9849 18.8038 25.4813 19.3002 25.4814 19.9082Z" fill="white"/>
<path d="M24.3767 16.4043H16.1203C15.6502 16.4043 15.2656 16.7889 15.2656 17.259C15.2656 17.7291 15.6502 18.1137 16.1203 18.1137H24.3767C24.8468 18.1137 25.2314 17.7291 25.2314 17.259C25.2314 16.7889 24.8468 16.4043 24.3767 16.4043Z" fill="black"/>
<path d="M24.9814 17.2588C24.9813 16.9269 24.7088 16.6544 24.377 16.6543H16.1201C15.7883 16.6544 15.5157 16.9269 15.5156 17.2588C15.5156 17.5907 15.7882 17.8632 16.1201 17.8633H24.377C24.7089 17.8632 24.9814 17.5907 24.9814 17.2588ZM25.4814 17.2588C25.4814 17.8669 24.985 18.3632 24.377 18.3633H16.1201C15.5121 18.3632 15.0156 17.8669 15.0156 17.2588C15.0157 16.6508 15.5121 16.1544 16.1201 16.1543H24.377C24.9849 16.1544 25.4813 16.6508 25.4814 17.2588Z" fill="white"/>
</svg>
