<svg width="65" height="45" viewBox="0 0 65 45" fill="none" xmlns="http://www.w3.org/2000/svg">
<path d="M63.1745 32.864H60.0549C59.8936 32.864 59.7389 32.7999 59.6249 32.6859C59.5108 32.5719 59.4468 32.4172 59.4468 32.2559C59.4468 32.0946 59.5108 31.94 59.6249 31.8259C59.7389 31.7119 59.8936 31.6478 60.0549 31.6478H62.5664V20.6915L58.4866 14.0631H49.2123V31.6478H51.6995C51.8608 31.6478 52.0154 31.7119 52.1295 31.8259C52.2435 31.94 52.3076 32.0946 52.3076 32.2559C52.3076 32.4172 52.2435 32.5719 52.1295 32.6859C52.0154 32.7999 51.8608 32.864 51.6995 32.864H48.6042C48.4429 32.864 48.2882 32.7999 48.1742 32.6859C48.0602 32.5719 47.9961 32.4172 47.9961 32.2559V13.4538C47.9961 13.2925 48.0602 13.1379 48.1742 13.0238C48.2882 12.9098 48.4429 12.8457 48.6042 12.8457H58.8265C58.9303 12.8458 59.0323 12.8724 59.1229 12.9231C59.2135 12.9738 59.2896 13.0468 59.344 13.1352L63.6926 20.2008C63.7513 20.2967 63.7824 20.407 63.7826 20.5194V32.2559C63.7826 32.4172 63.7185 32.5719 63.6045 32.6859C63.4904 32.7999 63.3358 32.864 63.1745 32.864Z" fill="black"/>
<path d="M60.1364 21.9921H51.6472C51.4859 21.9921 51.3312 21.9281 51.2172 21.814C51.1031 21.7 51.0391 21.5453 51.0391 21.384V16.4948C51.0391 16.3335 51.1031 16.1789 51.2172 16.0648C51.3312 15.9508 51.4859 15.8867 51.6472 15.8867H57.1323C57.2361 15.8868 57.3381 15.9134 57.4287 15.9641C57.5193 16.0148 57.5954 16.0878 57.6498 16.1762L60.6545 21.0654C60.7112 21.1575 60.7422 21.2631 60.7445 21.3713C60.7468 21.4795 60.7201 21.5863 60.6673 21.6808C60.6145 21.7752 60.5375 21.8538 60.4441 21.9086C60.3508 21.9633 60.2446 21.9922 60.1364 21.9921ZM52.2553 20.7759H59.0491L56.7918 17.1029H52.2553V20.7759Z" fill="black"/>
<path d="M48.6058 32.8621L28.6081 33.0234C28.4468 33.0234 28.2922 32.9593 28.1781 32.8453C28.0641 32.7312 28 32.5765 28 32.4153C28 32.254 28.0641 32.0993 28.1781 31.9853C28.2922 31.8712 28.4468 31.8071 28.6081 31.8071L47.9977 31.6459V9.7783C47.9977 9.61702 47.9336 9.46235 47.8196 9.34831C47.7055 9.23426 47.5508 9.1702 47.3896 9.1702H45.2004C45.0391 9.1702 44.8844 9.10613 44.7704 8.99208C44.6563 8.87804 44.5923 8.72337 44.5923 8.56209C44.5923 8.40081 44.6563 8.24613 44.7704 8.13209C44.8844 8.01805 45.0391 7.95398 45.2004 7.95398H47.3896C47.8734 7.95398 48.3374 8.14618 48.6796 8.48831C49.0217 8.83044 49.2139 9.29446 49.2139 9.7783V32.254C49.2139 32.4153 49.1498 32.5699 49.0358 32.684C48.9217 32.798 48.7671 32.8621 48.6058 32.8621Z" fill="black"/>
<path d="M34.8816 9.17032H33.112C32.9507 9.17032 32.7961 9.10625 32.682 8.99221C32.568 8.87816 32.5039 8.72349 32.5039 8.56221C32.5039 8.40093 32.568 8.24625 32.682 8.13221C32.7961 8.01817 32.9507 7.9541 33.112 7.9541H34.8816C35.0429 7.9541 35.1976 8.01817 35.3116 8.13221C35.4256 8.24625 35.4897 8.40093 35.4897 8.56221C35.4897 8.72349 35.4256 8.87816 35.3116 8.99221C35.1976 9.10625 35.0429 9.17032 34.8816 9.17032Z" fill="#2BAC62"/>
<path d="M23.3777 9.1702H21.6081C21.4468 9.1702 21.2922 9.10613 21.1781 8.99209C21.0641 8.87804 21 8.72337 21 8.56209C21 8.40081 21.0641 8.24613 21.1781 8.13209C21.2922 8.01805 21.4468 7.95398 21.6081 7.95398H23.3777C23.539 7.95398 23.6937 8.01805 23.8077 8.13209C23.9217 8.24613 23.9858 8.40081 23.9858 8.56209C23.9858 8.72337 23.9217 8.87804 23.8077 8.99209C23.6937 9.10613 23.539 9.1702 23.3777 9.1702Z" fill="#2BAC62"/>
<path d="M12.3777 9.1702H10.6081C10.4468 9.1702 10.2922 9.10613 10.1781 8.99209C10.0641 8.87804 10 8.72337 10 8.56209C10 8.40081 10.0641 8.24613 10.1781 8.13209C10.2922 8.01805 10.4468 7.95398 10.6081 7.95398H12.3777C12.539 7.95398 12.6937 8.01805 12.8077 8.13209C12.9217 8.24613 12.9858 8.40081 12.9858 8.56209C12.9858 8.72337 12.9217 8.87804 12.8077 8.99209C12.6937 9.10613 12.539 9.1702 12.3777 9.1702Z" fill="#2BAC62"/>
<path d="M7.16014 32.8621H2.82432C2.34048 32.8621 1.87646 32.6699 1.53433 32.3278C1.19221 31.9856 1 31.5216 1 31.0378V9.7783C1 9.29446 1.19221 8.83044 1.53433 8.48831C1.87646 8.14618 2.34048 7.95398 2.82432 7.95398H8.63784C8.79912 7.95398 8.95379 8.01805 9.06784 8.13209C9.18188 8.24613 9.24595 8.40081 9.24595 8.56209C9.24595 8.72337 9.18188 8.87804 9.06784 8.99208C8.95379 9.10613 8.79912 9.1702 8.63784 9.1702H2.82432C2.66304 9.1702 2.50837 9.23426 2.39433 9.34831C2.28028 9.46235 2.21622 9.61702 2.21622 9.7783V31.0378C2.21622 31.199 2.28028 31.3537 2.39433 31.4678C2.50837 31.5818 2.66304 31.6459 2.82432 31.6459H7.16014C7.32142 31.6459 7.47609 31.7099 7.59013 31.824C7.70418 31.938 7.76824 32.0927 7.76824 32.254C7.76824 32.4153 7.70418 32.5699 7.59013 32.684C7.47609 32.798 7.32142 32.8621 7.16014 32.8621Z" fill="black"/>
<path d="M40.9454 9.17032H39.1394C38.9781 9.17032 38.8234 9.10625 38.7094 8.99221C38.5953 8.87816 38.5312 8.72349 38.5312 8.56221C38.5312 8.40093 38.5953 8.24625 38.7094 8.13221C38.8234 8.01817 38.9781 7.9541 39.1394 7.9541H40.9454C41.1067 7.9541 41.2614 8.01817 41.3754 8.13221C41.4895 8.24625 41.5535 8.40093 41.5535 8.56221C41.5535 8.72349 41.4895 8.87816 41.3754 8.99221C41.2614 9.10625 41.1067 9.17032 40.9454 9.17032Z" fill="#2BAC62"/>
<path d="M29.4415 9.17032H27.6355C27.4742 9.17032 27.3195 9.10625 27.2055 8.99221C27.0914 8.87816 27.0273 8.72349 27.0273 8.56221C27.0273 8.40093 27.0914 8.24625 27.2055 8.13221C27.3195 8.01817 27.4742 7.9541 27.6355 7.9541H29.4415C29.6028 7.9541 29.7575 8.01817 29.8715 8.13221C29.9856 8.24625 30.0496 8.40093 30.0496 8.56221C30.0496 8.72349 29.9856 8.87816 29.8715 8.99221C29.7575 9.10625 29.6028 9.17032 29.4415 9.17032Z" fill="#2BAC62"/>
<path d="M18.4415 9.17032H16.6355C16.4742 9.17032 16.3195 9.10625 16.2055 8.99221C16.0914 8.87816 16.0273 8.72349 16.0273 8.56221C16.0273 8.40093 16.0914 8.24625 16.2055 8.13221C16.3195 8.01817 16.4742 7.9541 16.6355 7.9541H18.4415C18.6028 7.9541 18.7575 8.01817 18.8715 8.13221C18.9856 8.24625 19.0496 8.40093 19.0496 8.56221C19.0496 8.72349 18.9856 8.87816 18.8715 8.99221C18.7575 9.10625 18.6028 9.17032 18.4415 9.17032Z" fill="#2BAC62"/>
<path d="M53.4458 24.9829H51.8112C51.65 24.9829 51.4953 24.9189 51.3812 24.8048C51.2672 24.6908 51.2031 24.5361 51.2031 24.3748C51.2031 24.2136 51.2672 24.0589 51.3812 23.9448C51.4953 23.8308 51.65 23.7667 51.8112 23.7667H53.4458C53.6071 23.7667 53.7618 23.8308 53.8758 23.9448C53.9899 24.0589 54.0539 24.2136 54.0539 24.3748C54.0539 24.5361 53.9899 24.6908 53.8758 24.8048C53.7618 24.9189 53.6071 24.9829 53.4458 24.9829Z" fill="black"/>
<path d="M55.8787 37.0441C54.9316 37.0443 54.0058 36.7635 53.2183 36.2375C52.4308 35.7114 51.817 34.9636 51.4545 34.0887C51.092 33.2138 50.9971 32.251 51.1818 31.3221C51.3665 30.3933 51.8225 29.54 52.4921 28.8703C53.1617 28.2006 54.0149 27.7445 54.9437 27.5597C55.8726 27.3749 56.8354 27.4697 57.7103 27.8321C58.5853 28.1945 59.3332 28.8082 59.8593 29.5956C60.3855 30.3831 60.6663 31.3088 60.6663 32.2559C60.665 33.5253 60.1602 34.7424 59.2627 35.6401C58.3651 36.5377 57.1481 37.0427 55.8787 37.0441ZM55.8787 28.6845C55.1722 28.6844 54.4815 28.8938 53.894 29.2862C53.3064 29.6787 52.8485 30.2365 52.5781 30.8893C52.3076 31.542 52.2369 32.2603 52.3747 32.9532C52.5125 33.6462 52.8527 34.2827 53.3523 34.7823C53.8519 35.2819 54.4884 35.6221 55.1814 35.7599C55.8743 35.8977 56.5926 35.8269 57.2453 35.5565C57.8981 35.2861 58.4559 34.8282 58.8484 34.2406C59.2408 33.6531 59.4502 32.9624 59.4501 32.2559C59.449 31.309 59.0724 30.4013 58.4028 29.7318C57.7333 29.0622 56.8256 28.6856 55.8787 28.6845Z" fill="black"/>
<path d="M55.8805 34.8733C55.3633 34.8733 54.8578 34.7199 54.4278 34.4326C53.9977 34.1453 53.6626 33.7369 53.4647 33.2591C53.2668 32.7813 53.215 32.2555 53.3159 31.7483C53.4168 31.2411 53.6658 30.7751 54.0315 30.4094C54.3972 30.0437 54.8631 29.7947 55.3704 29.6938C55.8776 29.5929 56.4034 29.6447 56.8812 29.8426C57.359 30.0405 57.7673 30.3757 58.0547 30.8057C58.342 31.2357 58.4954 31.7412 58.4954 32.2584C58.4941 32.9515 58.2182 33.6159 57.7281 34.106C57.238 34.5961 56.5736 34.872 55.8805 34.8733ZM55.8805 30.8555C55.6039 30.8555 55.3335 30.9375 55.1034 31.0912C54.8734 31.2449 54.6942 31.4634 54.5883 31.7189C54.4824 31.9745 54.4548 32.2557 54.5087 32.527C54.5627 32.7983 54.6959 33.0476 54.8915 33.2432C55.0871 33.4388 55.3363 33.572 55.6076 33.6259C55.8789 33.6799 56.1602 33.6522 56.4157 33.5463C56.6713 33.4405 56.8897 33.2612 57.0434 33.0312C57.1971 32.8012 57.2791 32.5308 57.2791 32.2542C57.2783 31.8835 57.1307 31.5282 56.8686 31.2661C56.6065 31.0039 56.2512 30.8563 55.8805 30.8555Z" fill="#2BAC62"/>
<path d="M12.7889 37.0441C11.8418 37.0443 10.916 36.7635 10.1285 36.2375C9.34098 35.7114 8.72716 34.9636 8.36466 34.0887C8.00216 33.2138 7.90725 32.251 8.09193 31.3221C8.27662 30.3933 8.73261 29.54 9.40223 28.8703C10.0719 28.2006 10.925 27.7445 11.8539 27.5597C12.7827 27.3749 13.7455 27.4697 14.6205 27.8321C15.4955 28.1945 16.2433 28.8082 16.7695 29.5956C17.2956 30.3831 17.5765 31.3088 17.5765 32.2559C17.5752 33.5253 17.0704 34.7424 16.1728 35.6401C15.2753 36.5377 14.0583 37.0427 12.7889 37.0441ZM12.7889 28.6845C12.0823 28.6844 11.3916 28.8938 10.8041 29.2862C10.2166 29.6787 9.75867 30.2365 9.48824 30.8893C9.21781 31.542 9.14702 32.2603 9.28482 32.9532C9.42263 33.6462 9.76285 34.2827 10.2624 34.7823C10.762 35.2819 11.3986 35.6221 12.0915 35.7599C12.7845 35.8977 13.5028 35.8269 14.1555 35.5565C14.8082 35.2861 15.3661 34.8282 15.7585 34.2406C16.151 33.6531 16.3604 32.9624 16.3603 32.2559C16.3591 31.309 15.9825 30.4013 15.313 29.7318C14.6435 29.0622 13.7357 28.6856 12.7889 28.6845Z" fill="black"/>
<path d="M23.7889 37.0441C22.8418 37.0443 21.916 36.7635 21.1285 36.2375C20.341 35.7114 19.7272 34.9636 19.3647 34.0887C19.0022 33.2138 18.9072 32.251 19.0919 31.3221C19.2766 30.3933 19.7326 29.54 20.4022 28.8703C21.0719 28.2006 21.925 27.7445 22.8539 27.5597C23.7827 27.3749 24.7455 27.4697 25.6205 27.8321C26.4955 28.1945 27.2433 28.8082 27.7695 29.5956C28.2956 30.3831 28.5765 31.3088 28.5765 32.2559C28.5752 33.5253 28.0704 34.7424 27.1728 35.6401C26.2753 36.5377 25.0583 37.0427 23.7889 37.0441ZM23.7889 28.6845C23.0823 28.6844 22.3916 28.8938 21.8041 29.2862C21.2166 29.6787 20.7587 30.2365 20.4882 30.8893C20.2178 31.542 20.147 32.2603 20.2848 32.9532C20.4226 33.6462 20.7628 34.2827 21.2624 34.7823C21.762 35.2819 22.3986 35.6221 23.0915 35.7599C23.7845 35.8977 24.5028 35.8269 25.1555 35.5565C25.8082 35.2861 26.3661 34.8282 26.7585 34.2406C27.151 33.6531 27.3604 32.9624 27.3603 32.2559C27.3591 31.309 26.9825 30.4013 26.313 29.7318C25.6435 29.0622 24.7357 28.6856 23.7889 28.6845Z" fill="black"/>
<path d="M12.7867 34.8733C12.2696 34.8733 11.764 34.7199 11.334 34.4326C10.904 34.1453 10.5688 33.7369 10.3709 33.2591C10.173 32.7813 10.1212 32.2555 10.2221 31.7483C10.323 31.2411 10.5721 30.7751 10.9378 30.4094C11.3034 30.0437 11.7694 29.7947 12.2766 29.6938C12.7838 29.5929 13.3096 29.6447 13.7874 29.8426C14.2652 30.0405 14.6736 30.3757 14.9609 30.8057C15.2482 31.2357 15.4016 31.7412 15.4016 32.2584C15.4003 32.9515 15.1244 33.6159 14.6343 34.106C14.1442 34.5961 13.4798 34.872 12.7867 34.8733ZM12.7867 30.8555C12.5101 30.8555 12.2397 30.9375 12.0097 31.0912C11.7797 31.2449 11.6004 31.4634 11.4946 31.7189C11.3887 31.9745 11.361 32.2557 11.415 32.527C11.4689 32.7983 11.6021 33.0476 11.7977 33.2432C11.9934 33.4388 12.2426 33.572 12.5139 33.6259C12.7852 33.6799 13.0664 33.6522 13.322 33.5463C13.5775 33.4405 13.796 33.2612 13.9497 33.0312C14.1034 32.8012 14.1854 32.5308 14.1854 32.2542C14.1846 31.8835 14.037 31.5282 13.7748 31.2661C13.5127 31.0039 13.1574 30.8563 12.7867 30.8555Z" fill="#2BAC62"/>
<path d="M23.7867 34.8733C23.2696 34.8733 22.764 34.7199 22.334 34.4326C21.904 34.1453 21.5688 33.7369 21.3709 33.2591C21.173 32.7813 21.1212 32.2555 21.2221 31.7483C21.323 31.2411 21.5721 30.7751 21.9378 30.4094C22.3034 30.0437 22.7694 29.7947 23.2766 29.6938C23.7838 29.5929 24.3096 29.6447 24.7874 29.8426C25.2652 30.0405 25.6736 30.3757 25.9609 30.8057C26.2482 31.2357 26.4016 31.7412 26.4016 32.2584C26.4003 32.9515 26.1244 33.6159 25.6343 34.106C25.1442 34.5961 24.4798 34.872 23.7867 34.8733ZM23.7867 30.8555C23.5101 30.8555 23.2397 30.9375 23.0097 31.0912C22.7797 31.2449 22.6004 31.4634 22.4946 31.7189C22.3887 31.9745 22.361 32.2557 22.415 32.527C22.4689 32.7983 22.6021 33.0476 22.7977 33.2432C22.9934 33.4388 23.2426 33.572 23.5139 33.6259C23.7852 33.6799 24.0664 33.6522 24.322 33.5463C24.5775 33.4405 24.796 33.2612 24.9497 33.0312C25.1034 32.8012 25.1854 32.5308 25.1854 32.2542C25.1846 31.8835 25.037 31.5282 24.7748 31.2661C24.5127 31.0039 24.1574 30.8563 23.7867 30.8555Z" fill="#2BAC62"/>
<path d="M47.9574 26H2.04257C1.76606 26 1.50088 25.9473 1.30536 25.8536C1.10984 25.7598 1 25.6326 1 25.5C1 25.3674 1.10984 25.2402 1.30536 25.1464C1.50088 25.0527 1.76606 25 2.04257 25H47.9574C48.2339 25 48.4991 25.0527 48.6946 25.1464C48.8902 25.2402 49 25.3674 49 25.5C49 25.6326 48.8902 25.7598 48.6946 25.8536C48.4991 25.9473 48.2339 26 47.9574 26Z" fill="black"/>
</svg>
