<svg width="15" height="15" viewBox="0 0 15 15" fill="none" xmlns="http://www.w3.org/2000/svg">
<g clip-path="url(#clip0_10925_13064)">
<path d="M10.4727 8.43L10.8927 5.715H8.28266V3.96C8.28266 3.54 8.39266 3.205 8.61266 2.955C8.88266 2.645 9.28266 2.49 9.81266 2.49H10.9977V0.18L10.3377 0.0900002C9.80766 0.0300007 9.32766 0 8.89766 0C8.17766 0 7.55266 0.1425 7.02266 0.427501C6.49266 0.712501 6.08266 1.13 5.79266 1.68C5.50266 2.23 5.35766 2.89 5.35766 3.66V5.715H2.97266V8.43H5.35766V15H8.28266V8.43H10.4727Z" fill="#1877F2"/>
</g>
<defs>
<clipPath id="clip0_10925_13064">
<rect width="15" height="15" fill="white" transform="matrix(1 0 0 -1 0 15)"/>
</clipPath>
</defs>
</svg>
