<svg width="20" height="20" viewBox="0 0 20 20" fill="none" xmlns="http://www.w3.org/2000/svg">
<path d="M17.5 9.25C17.9142 9.25 18.25 9.58579 18.25 10C18.25 10.4142 17.9142 10.75 17.5 10.75H2.5C2.08579 10.75 1.75 10.4142 1.75 10C1.75 9.58579 2.08579 9.25 2.5 9.25H17.5Z" fill="#131313"/>
<path d="M16.75 10C16.75 6.27208 13.7279 3.25 10 3.25C6.27208 3.25 3.25 6.27208 3.25 10C3.25 13.7279 6.27208 16.75 10 16.75C13.7279 16.75 16.75 13.7279 16.75 10ZM18.25 10C18.25 14.5563 14.5563 18.25 10 18.25C5.44365 18.25 1.75 14.5563 1.75 10C1.75 5.44365 5.44365 1.75 10 1.75C14.5563 1.75 18.25 5.44365 18.25 10Z" fill="#131313"/>
<path d="M10.4688 18.0862C10.1948 18.3054 9.80516 18.3054 9.53125 18.0862L10 17.5003L10.4688 18.0862ZM12.375 10.0003C12.375 7.66444 11.647 5.92521 10.9268 4.77275C10.5921 4.23733 10.2579 3.82911 10 3.54716C9.74213 3.82911 9.40788 4.23733 9.07324 4.77275C8.35297 5.92521 7.625 7.66444 7.625 10.0003C7.625 12.3361 8.35297 14.0754 9.07324 15.2278C9.40767 15.7629 9.7422 16.1705 10 16.4524C10.2578 16.1705 10.5923 15.7629 10.9268 15.2278C11.647 14.0754 12.375 12.3361 12.375 10.0003ZM13.875 10.0003C13.875 12.6644 13.0405 14.6752 12.1982 16.0227C11.7781 16.695 11.3562 17.2018 11.0352 17.5442C10.8745 17.7156 10.7391 17.8467 10.6406 17.9368C10.5913 17.9819 10.5506 18.0164 10.5215 18.0413C10.507 18.0537 10.4953 18.0642 10.4863 18.0716C10.4821 18.0751 10.4785 18.078 10.4756 18.0804C10.4743 18.0814 10.4727 18.0825 10.4717 18.0833L10.4697 18.0852H10.4688C10.4656 18.0819 10.4305 18.0384 10 17.5003C9.56949 18.0384 9.53436 18.0819 9.53125 18.0852H9.53027L9.52832 18.0833C9.52729 18.0825 9.52574 18.0814 9.52441 18.0804C9.52151 18.078 9.51792 18.0751 9.51367 18.0716C9.50474 18.0642 9.49302 18.0537 9.47852 18.0413C9.44937 18.0164 9.40866 17.9819 9.35938 17.9368C9.26085 17.8467 9.12547 17.7156 8.96484 17.5442C8.64382 17.2018 8.22192 16.695 7.80176 16.0227C6.95955 14.6752 6.125 12.6644 6.125 10.0003C6.125 7.3362 6.95955 5.32536 7.80176 3.97782C8.22192 3.30558 8.64382 2.79876 8.96484 2.45634C9.12547 2.285 9.26085 2.15384 9.35938 2.06376C9.40866 2.0187 9.44937 1.98414 9.47852 1.95927C9.49302 1.9469 9.50474 1.93637 9.51367 1.929C9.51792 1.92549 9.52151 1.92257 9.52441 1.92021C9.52574 1.91913 9.52729 1.91811 9.52832 1.91728L9.53027 1.91532H9.53125C9.53312 1.91732 9.5464 1.93398 9.65039 2.06376L9.53125 1.91435C9.80516 1.69522 10.1948 1.69522 10.4688 1.91435L10 2.50029C10.4305 1.96215 10.4656 1.91865 10.4688 1.91532H10.4697L10.4717 1.91728C10.4727 1.91811 10.4743 1.91913 10.4756 1.92021C10.4785 1.92257 10.4821 1.92549 10.4863 1.929C10.4953 1.93637 10.507 1.9469 10.5215 1.95927C10.5506 1.98414 10.5913 2.0187 10.6406 2.06376C10.7391 2.15384 10.8745 2.285 11.0352 2.45634C11.3562 2.79876 11.7781 3.30558 12.1982 3.97782C13.0405 5.32536 13.875 7.3362 13.875 10.0003Z" fill="#131313"/>
</svg>
