<svg width="20" height="20" viewBox="0 0 20 20" fill="none" xmlns="http://www.w3.org/2000/svg">
<path d="M16.875 10C16.875 6.20304 13.797 3.125 10 3.125C6.20304 3.125 3.125 6.20304 3.125 10C3.125 13.797 6.20304 16.875 10 16.875C13.797 16.875 16.875 13.797 16.875 10ZM18.125 10C18.125 14.4873 14.4873 18.125 10 18.125C5.51269 18.125 1.875 14.4873 1.875 10C1.875 5.51269 5.51269 1.875 10 1.875C14.4873 1.875 18.125 5.51269 18.125 10Z" fill="#131313"/>
<path d="M11.2966 2.12604C11.5979 1.95809 11.978 2.06612 12.1462 2.36725L12.9656 3.83502C13.1042 4.08159 13.1552 4.36825 13.1101 4.64752C13.0649 4.92658 12.9266 5.18188 12.7175 5.37213L12.7165 5.37408L10.613 7.27447L10.6121 7.2735C10.5409 7.33884 10.4625 7.39532 10.3777 7.44147L10.3787 7.44244L9.41869 7.97076L9.41772 7.96979C9.23347 8.07173 9.02675 8.12517 8.81615 8.12506V8.12604H7.50951L6.46947 9.94147C6.29783 10.2407 5.91633 10.3443 5.61693 10.1729C5.31745 10.0014 5.21409 9.61989 5.38549 9.32037L6.42553 7.50299L6.4265 7.50104C6.53637 7.31074 6.69511 7.15275 6.88549 7.04303C7.07561 6.93348 7.29107 6.87584 7.51049 6.87604H8.81518L8.81615 6.87506L9.77611 6.34674L11.8757 4.44733V4.44635L11.0554 2.97662C10.8872 2.67522 10.9952 2.29428 11.2966 2.12604Z" fill="#131313"/>
<path d="M4.71932 3.91479C4.85379 3.59688 5.22075 3.44829 5.53866 3.58276C5.85644 3.71723 6.005 4.08328 5.87069 4.40112L4.95077 6.5769L5.84823 8.97143H5.8492V8.97241L7.52401 9.33178H7.52303C7.70875 9.37161 7.88335 9.45381 8.0328 9.57104C8.18206 9.6882 8.30248 9.83784 8.38534 10.0085L8.38631 10.0095L8.68319 10.6238H9.76131C10.1063 10.624 10.3863 10.9037 10.3863 11.2488C10.3862 11.5937 10.1062 11.8735 9.76131 11.8738H8.68319C8.4485 11.8738 8.21804 11.8079 8.01912 11.6833C7.82016 11.5587 7.66061 11.38 7.55819 11.1687L7.55721 11.1677L7.26034 10.5544L5.58651 10.1941V10.1931C5.38232 10.1493 5.19213 10.0558 5.03377 9.91967C4.87517 9.78318 4.75311 9.60863 4.67928 9.41284V9.41186L3.78084 7.01538C3.66861 6.71603 3.67509 6.38511 3.7994 6.09057L4.71932 3.91479Z" fill="#131313"/>
<path d="M9.837 10.1578C10.073 10.0263 10.3456 9.97508 10.6134 10.0113L12.3956 10.2516H12.3966C12.5681 10.2751 12.7331 10.3343 12.8809 10.4244L12.8829 10.4254L16.9757 12.942C17.2696 13.1229 17.3606 13.5084 17.1798 13.8023C16.9989 14.0961 16.6143 14.1881 16.3204 14.0074L12.2306 11.4908L12.2266 11.4898V11.4889L10.4454 11.2496L9.37509 13.65L10.9073 15.2281L10.9161 15.2379C11.0498 15.3816 11.1479 15.5551 11.2022 15.7438C11.2565 15.9323 11.2654 16.1311 11.2286 16.3238V16.3248L10.9815 17.61C10.916 17.9487 10.5879 18.1704 10.2491 18.1051C9.91017 18.0397 9.68864 17.7116 9.75399 17.3727L10.0001 16.0885L8.46786 14.5113C8.4645 14.5079 8.46137 14.5041 8.45809 14.5006C8.29183 14.3211 8.18168 14.0964 8.14169 13.8551C8.10172 13.6138 8.13401 13.3657 8.23348 13.1422L9.3038 10.7408C9.41384 10.494 9.60094 10.2894 9.837 10.1578Z" fill="#131313"/>
</svg>
