<svg width="19" height="18" viewBox="0 0 19 18" fill="none" xmlns="http://www.w3.org/2000/svg">
<path d="M13.3405 -0.00041008C12.5473 -0.00041008 11.7883 0.173784 11.0637 0.522171C10.3391 0.870558 9.73272 1.33895 9.24456 1.92733C8.77165 1.30798 8.1767 0.831848 7.45972 0.498945C6.74273 0.166042 5.97235 -0.00041008 5.14858 -0.00041008C4.21802 -0.00041008 3.34848 0.231848 2.53996 0.696365C1.76196 1.1454 1.14413 1.75701 0.686477 2.5312C0.228826 3.3054 0 4.14153 0 5.03959C0 6.72733 0.450024 8.39185 1.35007 10.0331C2.06706 11.3493 3.06626 12.6267 4.34769 13.8654C5.26299 14.7635 6.28508 15.5918 7.41395 16.3506C8.11568 16.846 8.63436 17.1712 8.96997 17.326C9.03099 17.388 9.12252 17.4189 9.24456 17.4189C9.3666 17.4189 9.49627 17.388 9.63356 17.326C9.99968 17.1402 10.5184 16.8151 11.1896 16.3506C12.3032 15.5918 13.3253 14.7635 14.2558 13.8654C15.522 12.6267 16.5136 11.3493 17.2306 10.0331C18.1306 8.39185 18.5806 6.72733 18.5806 5.03959C18.5806 4.14153 18.3442 3.3054 17.8713 2.5312C17.3984 1.75701 16.7577 1.14153 15.9492 0.684752C15.1406 0.227978 14.2711 -0.00041008 13.3405 -0.00041008ZM9.24456 15.8628C8.26823 15.2589 7.36819 14.6164 6.54441 13.9351C5.09519 12.7428 3.95106 11.5118 3.11203 10.2422C1.98316 8.55443 1.41872 6.8512 1.41872 5.13249C1.41872 4.46669 1.59034 3.8512 1.93358 3.28604C2.27682 2.72088 2.73447 2.27185 3.30653 1.93894C3.8786 1.60604 4.49261 1.43959 5.14858 1.43959C5.91133 1.43959 6.60162 1.64088 7.21945 2.04346C7.83728 2.44604 8.29112 2.98798 8.58096 3.66927C8.64198 3.82411 8.76021 3.93249 8.93564 3.99443C9.11108 4.05637 9.29414 4.05637 9.48482 3.99443C9.67551 3.93249 9.81662 3.82411 9.90815 3.66927C10.198 2.98798 10.6556 2.44604 11.2811 2.04346C11.9066 1.64088 12.593 1.43959 13.3405 1.43959C14.027 1.43959 14.6563 1.60604 15.2283 1.93894C15.8004 2.27185 16.2504 2.72088 16.5784 3.28604C16.9064 3.8512 17.0704 4.46669 17.0704 5.13249C17.0704 6.82024 16.506 8.50798 15.3771 10.1957C14.5228 11.4654 13.3787 12.7041 11.9447 13.9118C11.0904 14.6241 10.1904 15.2744 9.24456 15.8628Z" fill="#D3D3D3"/>
</svg>
