<svg width="26" height="26" viewBox="0 0 26 26" fill="none" xmlns="http://www.w3.org/2000/svg">
<path d="M6.66016 6.4078C5.88016 6.4078 5.15649 6.6028 4.48916 6.9928C3.82182 7.3828 3.29316 7.91146 2.90316 8.5788C2.51316 9.24613 2.31816 9.9698 2.31816 10.7498C2.31816 12.5351 2.82949 14.2338 3.85216 15.8458C4.68416 17.1978 5.84549 18.4631 7.33616 19.6418C8.67082 20.7338 10.2048 21.6958 11.9382 22.5278L12.0682 22.5798C13.8535 21.7305 15.4482 20.7425 16.8522 19.6158L16.8002 19.6418C18.2908 18.4631 19.4522 17.1978 20.2842 15.8458C21.3068 14.2338 21.8182 12.5351 21.8182 10.7498C21.8182 9.9698 21.6232 9.24613 21.2332 8.5788C20.8432 7.91146 20.3145 7.3828 19.6472 6.9928C18.9798 6.6028 18.2562 6.4078 17.4762 6.4078C16.7828 6.4078 16.1285 6.55946 15.5132 6.8628C14.8978 7.16613 14.3778 7.58213 13.9532 8.1108C13.5285 8.63946 13.2555 9.23313 13.1342 9.8918C13.0822 10.1345 12.9565 10.3381 12.7572 10.5028C12.5578 10.6675 12.3282 10.7498 12.0682 10.7498C11.8082 10.7498 11.5785 10.6675 11.3792 10.5028C11.1798 10.3381 11.0542 10.1345 11.0022 9.8918C10.8808 9.23313 10.6078 8.63946 10.1832 8.1108C9.75849 7.58213 9.23849 7.16613 8.62316 6.8628C8.00782 6.55946 7.35349 6.4078 6.66016 6.4078ZM12.0682 24.8418C11.9122 24.8245 11.7562 24.7898 11.6002 24.7378C11.5135 24.7031 11.3662 24.6338 11.1582 24.5298C9.25149 23.6285 7.50949 22.5451 5.93216 21.2798L5.98416 21.3318C4.30282 20.0145 2.97682 18.5758 2.00616 17.0158C0.77549 15.0398 0.160156 12.9511 0.160156 10.7498C0.160156 9.57113 0.45049 8.48346 1.03116 7.4868C1.61182 6.49013 2.40049 5.70146 3.39716 5.1208C4.39382 4.54013 5.48149 4.2498 6.66016 4.2498C7.75216 4.2498 8.77049 4.4968 9.71516 4.9908C10.6598 5.4848 11.4442 6.15646 12.0682 7.0058V7.0318C12.6922 6.16513 13.4765 5.4848 14.4212 4.9908C15.3658 4.4968 16.3842 4.2498 17.4762 4.2498C18.6548 4.2498 19.7425 4.54013 20.7392 5.1208C21.7358 5.70146 22.5245 6.49013 23.1052 7.4868C23.6858 8.48346 23.9762 9.57113 23.9762 10.7498C23.9762 12.9511 23.3608 15.0398 22.1302 17.0158C21.1595 18.5758 19.8335 20.0145 18.1522 21.3318C16.6095 22.5451 14.9368 23.5938 13.1342 24.4778L12.9782 24.5298C12.5622 24.7378 12.2588 24.8418 12.0682 24.8418Z" fill="white"/>
</svg>
