<svg width="20" height="20" viewBox="0 0 20 20" fill="none" xmlns="http://www.w3.org/2000/svg">
<path d="M17.373 6.76904C17.3729 6.38929 17.2976 6.01344 17.1523 5.6626C17.0069 5.31165 16.794 4.9927 16.5253 4.72412C16.2567 4.45548 15.9378 4.24257 15.5868 4.09717C15.236 3.95182 14.8601 3.87652 14.4804 3.87646C14.1005 3.87646 13.7239 3.95177 13.373 4.09717C13.0221 4.24256 12.703 4.45552 12.4345 4.72412L11.5751 5.5835C11.2822 5.87623 10.8074 5.87622 10.5146 5.5835C10.2217 5.29064 10.2218 4.81585 10.5146 4.52295L11.3739 3.66357C11.7818 3.25559 12.2658 2.93126 12.7987 2.71045C13.3317 2.48966 13.9035 2.37646 14.4804 2.37646C15.0571 2.37652 15.6283 2.48975 16.161 2.71045C16.694 2.93125 17.178 3.25561 17.5858 3.66357C17.9938 4.0714 18.3172 4.55549 18.538 5.08838C18.7588 5.62124 18.8729 6.19226 18.873 6.76904C18.873 7.34594 18.7588 7.91772 18.538 8.45068C18.3172 8.98352 17.9937 9.4677 17.5858 9.87549L14.8739 12.5884C14.4656 12.9967 13.9807 13.3207 13.4472 13.5415C12.9135 13.7623 12.3411 13.8749 11.7636 13.8745C11.1861 13.8741 10.6142 13.7602 10.081 13.5386C9.54786 13.317 9.06377 12.9923 8.65616 12.5835C8.23445 12.1616 7.90277 11.6574 7.68253 11.103C7.46218 10.5483 7.35751 9.95451 7.37491 9.35791C7.38701 8.94388 7.73237 8.61731 8.14639 8.62939C8.56043 8.64149 8.88603 8.98782 8.87393 9.40186C8.86253 9.79408 8.93124 10.1846 9.07608 10.5493C9.1848 10.8229 9.33519 11.0778 9.52042 11.3052L9.71768 11.5229L9.71866 11.5239C9.98714 11.7933 10.306 12.0079 10.6571 12.1538C11.0081 12.2996 11.3845 12.3742 11.7646 12.3745C12.1448 12.3748 12.5216 12.3002 12.873 12.1548C13.2242 12.0094 13.5436 11.7966 13.8124 11.5278L16.5253 8.81494C16.7939 8.54643 17.0069 8.22732 17.1523 7.87646C17.2976 7.52552 17.373 7.14892 17.373 6.76904Z" fill="#252432"/>
<path d="M8.23242 6.125C8.80912 6.125 9.38028 6.23833 9.91309 6.45898C10.4453 6.67948 10.9294 7.00298 11.3369 7.41016C11.7608 7.83212 12.0939 8.33699 12.3154 8.89258C12.5369 9.44839 12.6425 10.0445 12.625 10.6426C12.6127 11.0564 12.2674 11.3822 11.8535 11.3701C11.4396 11.358 11.114 11.0125 11.126 10.5986C11.1375 10.2055 11.0684 9.81364 10.9229 9.44824C10.7773 9.08286 10.558 8.75113 10.2793 8.47363L10.2773 8.47266C10.0089 8.20419 9.69054 7.99108 9.33985 7.8457C8.9889 7.70031 8.6123 7.625 8.23242 7.625C7.85255 7.625 7.47595 7.70031 7.125 7.8457C6.77431 7.99108 6.45592 8.20419 6.1875 8.47266H6.18653L3.47461 11.1846C2.93262 11.7265 2.62765 12.4621 2.62695 13.2285C2.62635 13.9947 2.92992 14.7297 3.47071 15.2725L3.68164 15.4639C3.90106 15.6444 4.14582 15.7929 4.40918 15.9023C4.76036 16.0483 5.13728 16.1228 5.51758 16.123C5.89782 16.1233 6.27463 16.0487 6.62598 15.9033C6.9772 15.7579 7.29664 15.5452 7.56543 15.2764V15.2754L8.42481 14.416C8.71763 14.1235 9.19252 14.1235 9.48535 14.416C9.77825 14.7089 9.77825 15.1846 9.48535 15.4775L8.62598 16.3369C8.2177 16.7452 7.73273 17.0693 7.19922 17.29C6.66578 17.5108 6.09391 17.6234 5.5166 17.623C4.9392 17.6226 4.36719 17.5087 3.83399 17.2871C3.30073 17.0655 2.8159 16.741 2.4082 16.332C1.58669 15.5077 1.1259 14.3904 1.12695 13.2266C1.12808 12.0628 1.59111 10.9468 2.41406 10.124L5.12598 7.41211C5.53385 7.00413 6.01879 6.67979 6.55176 6.45898C7.08457 6.23832 7.65573 6.125 8.23242 6.125Z" fill="#252432"/>
</svg>
