<svg width="32" height="28" viewBox="0 0 32 28" fill="none" xmlns="http://www.w3.org/2000/svg">
    <path d="M28.5828 0H3.41722C1.53642 0 0 1.51536 0 3.38202V24.618C0 26.4794 1.53642 28 3.41722 28H28.5828C30.4636 28 32 26.4794 32 24.618V3.38202C32 1.51536 30.4636 0 28.5828 0ZM1.53642 7.52959H30.4636V24.618C30.4583 25.6404 29.6159 26.4794 28.5828 26.4794H3.41722C2.38411 26.4742 1.54172 25.6404 1.53642 24.618V7.52959ZM3.41722 1.5206H28.5828C29.6159 1.52584 30.4636 2.35955 30.4636 3.38202V6.00899H1.53642V3.38202C1.54172 2.35955 2.38411 1.52584 3.41722 1.5206Z" fill="#FACC15"/>
    <path d="M9.59879 17.12C11.5432 17.12 13.1273 15.5522 13.1273 13.6279C13.1273 11.7035 11.5432 10.1357 9.59879 10.1357C7.65442 10.1357 6.07031 11.7035 6.07031 13.6279C6.07561 15.5522 7.65972 17.1148 9.59879 17.12ZM11.5961 13.6331C11.5961 14.7185 10.7008 15.6046 9.60409 15.6046C8.5074 15.6046 7.61203 14.7185 7.61203 13.6331C7.61203 12.5477 8.5074 11.6616 9.60409 11.6616C10.7008 11.6616 11.5961 12.5425 11.5961 13.6331Z" fill="#FACC15"/>
    <path d="M5.00789 23.4136H14.1999C14.6238 23.4136 14.9682 23.0728 14.9682 22.6533C14.9682 21.1432 14.4119 19.7537 13.3999 18.7312C12.4198 17.7297 11.0476 17.1582 9.63835 17.1582H9.60126H9.56418C8.15491 17.1582 6.78802 17.7297 5.80259 18.7312C4.79067 19.7485 4.23438 21.1432 4.23438 22.6533C4.23967 23.0728 4.58404 23.4136 5.00789 23.4136ZM5.83967 21.893C5.96683 21.1065 6.34298 20.3672 6.90457 19.7957C7.61451 19.0878 8.59464 18.6788 9.60656 18.6788C10.6185 18.6788 11.5986 19.0878 12.3033 19.7957C12.8648 20.3672 13.241 21.1065 13.3682 21.893H5.83967Z" fill="#FACC15"/>
    <path d="M18.5729 21.1495H26.9491C27.3729 21.1495 27.7173 20.8087 27.7173 20.3892C27.7173 19.9697 27.3729 19.6289 26.9491 19.6289H18.5729C18.1491 19.6289 17.8047 19.9697 17.8047 20.3892C17.8047 20.8087 18.1491 21.1495 18.5729 21.1495Z" fill="#FACC15"/>
    <path d="M18.5729 13.5206H26.9491C27.3729 13.5206 27.7173 13.1798 27.7173 12.7603C27.7173 12.3408 27.3729 12 26.9491 12H18.5729C18.1491 12 17.8047 12.3408 17.8047 12.7603C17.8047 13.1798 18.1491 13.5206 18.5729 13.5206Z" fill="#FACC15"/>
    <path d="M18.5729 17.3331H26.9491C27.3729 17.3331 27.7173 16.9923 27.7173 16.5728C27.7173 16.1533 27.3729 15.8125 26.9491 15.8125H18.5729C18.1491 15.8125 17.8047 16.1533 17.8047 16.5728C17.8047 16.9923 18.1491 17.3331 18.5729 17.3331Z" fill="#FACC15"/>
</svg>
