<svg width="32" height="34" viewBox="0 0 32 34" fill="none" xmlns="http://www.w3.org/2000/svg">
    <path d="M19.7599 33.1252H28.3774C30.3808 33.1252 32.0274 31.506 32.0274 29.4751V17.2899C32.0274 16.8508 31.6707 16.5214 31.259 16.5214H27.7736V14.8199C27.7736 13.1458 26.6209 11.6913 24.9743 11.2796L24.8096 11.2521V0.768439C24.8096 0.329331 24.4528 0 24.0412 0H0.768439C0.356775 0 0 0.356775 0 0.768439V27.6913C0 28.1304 0.356775 28.4597 0.768439 28.4597H16.1098V29.4751C16.1098 31.4786 17.7564 33.1252 19.7599 33.1252ZM26.9777 21.6261C27.4168 21.6261 27.7461 21.2693 27.7461 20.8576V18.0583H30.4631V29.4751C30.4631 30.6278 29.53 31.5609 28.3774 31.5609H19.7599C18.6072 31.5609 17.6741 30.6278 17.6741 29.4751V18.0583H20.3911V20.8576C20.3911 21.2967 20.7479 21.6261 21.1595 21.6261C21.5712 21.6261 21.928 21.2693 21.928 20.8576V18.0583H26.2093V20.8576C26.2093 21.2693 26.5386 21.6261 26.9777 21.6261ZM24.0686 12.7341C25.2487 12.7341 26.2093 13.6672 26.2093 14.8199V16.494H21.928V14.8199C21.928 13.6672 22.8885 12.7341 24.0686 12.7341ZM1.56432 26.9228V1.56432H23.2727V11.2796L23.1081 11.307C21.4888 11.7461 20.3911 13.1732 20.3911 14.8199V16.494H16.8782C16.4391 16.494 16.1098 16.8508 16.1098 17.2624V26.8954H1.56432V26.9228Z" fill="#363636"/>
    <path d="M4.091 6.25704L4.88688 7.24503C5.0241 7.4097 5.24366 7.51947 5.46321 7.54692H5.49066C5.71021 7.54692 5.90232 7.46458 6.06699 7.29992L7.96064 5.26904C8.26253 4.96716 8.23508 4.47316 7.9332 4.17127C7.63131 3.89683 7.10987 3.89683 6.83543 4.19872L5.54555 5.57093L5.32599 5.29649C5.18877 5.10438 4.96922 4.9946 4.72222 4.9946C4.55755 4.9946 4.36544 5.04949 4.22822 5.15927C3.89889 5.43371 3.844 5.90026 4.091 6.25704Z" fill="#363636"/>
    <path d="M20.0897 4.93945H11.3075C10.8684 4.93945 10.5391 5.29623 10.5391 5.70789C10.5391 6.147 10.8958 6.47633 11.3075 6.47633H20.0897C20.5288 6.47633 20.8581 6.11956 20.8581 5.70789C20.8855 5.29623 20.5288 4.93945 20.0897 4.93945Z" fill="#363636"/>
    <path d="M4.091 12.2121L4.88688 13.2001C5.02411 13.3648 5.24366 13.4746 5.46321 13.502H5.49066C5.71021 13.502 5.90232 13.4197 6.06699 13.255L7.96064 11.2241C8.09786 11.0595 8.18019 10.8673 8.18019 10.6752C8.18019 10.4557 8.09786 10.2636 7.9332 10.1264C7.63131 9.85191 7.10987 9.85191 6.83543 10.1538L5.54555 11.526L5.32599 11.2516C5.18877 11.0595 4.96922 10.9497 4.72222 10.9497C4.55755 10.9497 4.36544 11.0046 4.22822 11.1143C3.89889 11.3888 3.844 11.8828 4.091 12.2121Z" fill="#363636"/>
    <path d="M16.8237 10.8955H11.3348C10.8957 10.8955 10.5664 11.2523 10.5664 11.6639C10.5664 12.1031 10.9232 12.4324 11.3348 12.4324H16.8237C17.2628 12.4324 17.5921 12.0756 17.5921 11.6639C17.5921 11.2523 17.2628 10.8955 16.8237 10.8955Z" fill="#363636"/>
    <path d="M4.091 18.1682L4.88688 19.1562C5.02411 19.3208 5.24366 19.4306 5.46321 19.458H5.49066C5.71021 19.458 5.90232 19.3757 6.06699 19.2111L7.96064 17.1802C8.09786 17.0155 8.18019 16.8234 8.18019 16.6313C8.18019 16.4117 8.09786 16.2196 7.9332 16.0824C7.63131 15.808 7.10987 15.808 6.83543 16.1099L5.54555 17.4821L5.32599 17.2076C5.18877 17.0155 4.96922 16.9057 4.72222 16.9057C4.55755 16.9057 4.36544 16.9606 4.22822 17.0704C3.89889 17.3448 3.844 17.8388 4.091 18.1682Z" fill="#363636"/>
    <path d="M12.9542 16.8516H11.3075C10.8684 16.8516 10.5391 17.2083 10.5391 17.62C10.5391 18.0317 10.8958 18.3884 11.3075 18.3884H12.9542C13.3933 18.3884 13.7226 18.0317 13.7226 17.62C13.7226 17.2083 13.3933 16.8516 12.9542 16.8516Z" fill="#363636"/>
</svg>
