<svg width="30" height="26" viewBox="0 0 30 26" fill="none" xmlns="http://www.w3.org/2000/svg">
<path d="M3.28999 1.89127C6.94102 -1.11307 11.6941 -0.292904 14.749 2.63052C17.7995 -0.294434 22.4811 -1.07755 26.1826 1.88541C30.0781 5.00379 30.5563 10.3335 27.5449 14.0661C26.3577 15.5373 24.0091 17.7813 21.7128 19.8688C19.4022 21.9694 17.0954 23.9554 15.957 24.9264H15.956C15.8379 25.0271 15.7169 25.1317 15.6054 25.2126C15.4848 25.3 15.3362 25.3908 15.1474 25.445C14.8829 25.5208 14.5976 25.521 14.333 25.445C14.1443 25.3908 13.9957 25.3001 13.875 25.2126C13.7634 25.1316 13.6426 25.0273 13.5244 24.9264C12.3861 23.9555 10.0785 21.9697 7.76753 19.8688C5.4713 17.7813 3.12358 15.5373 1.93648 14.0661C-1.08214 10.3249 -0.527072 5.03239 3.28999 1.89127ZM14.1894 4.20865C11.5988 1.29164 7.37411 0.473106 4.24312 3.04947C1.04603 5.6804 0.613862 10.0391 3.10347 13.1247C4.20627 14.4914 6.46832 16.6594 8.7773 18.7585C11.0715 20.844 13.365 22.8194 14.498 23.7858C14.6202 23.89 14.6894 23.9468 14.7402 23.985C14.791 23.9467 14.8607 23.8904 14.9834 23.7858C16.1163 22.8194 18.4098 20.8441 20.7041 18.7585C23.0129 16.6595 25.274 14.4913 26.3769 13.1247C28.8735 10.0305 28.4841 5.64919 25.2451 3.0563C22.0466 0.496089 17.8958 1.29763 15.3105 4.20865C15.1682 4.36879 14.9642 4.4606 14.75 4.4606C14.5357 4.4606 14.3317 4.36879 14.1894 4.20865Z" fill="#363636"/>
</svg>
