<svg width="31" height="31" viewBox="0 0 31 31" fill="none" xmlns="http://www.w3.org/2000/svg">
    <path d="M15.5723 0C15.564 0.00830582 15.5474 0.00830582 15.5224 0.00830582C7.11695 0.00830582 0.28125 6.844 0.28125 15.2495C0.28125 18.6798 1.45237 22.0104 3.59527 24.6932L1.37762 29.8428C1.19489 30.2664 1.39423 30.7565 1.80952 30.9309C1.95903 30.9973 2.12514 31.0139 2.28295 30.989L10.4144 29.5604C12.0423 30.1501 13.7533 30.4491 15.4809 30.4408C23.8864 30.4408 30.7221 23.6051 30.7221 15.1997C30.7387 6.81908 23.9529 0.00830582 15.5723 0ZM15.4892 28.788C13.8862 28.788 12.2998 28.4973 10.7964 27.9325C10.6552 27.8743 10.5057 27.866 10.3562 27.891L3.51222 29.087L5.32289 24.8759C5.44747 24.5852 5.39764 24.2447 5.18999 24.0038C4.20991 22.8659 3.42916 21.5702 2.88097 20.1665C2.26634 18.5967 1.95072 16.9273 1.95072 15.2412C1.95072 7.74933 8.0472 1.66116 15.5308 1.66116C22.9977 1.64455 29.0609 7.68289 29.0692 15.1498C29.0692 15.1664 29.0692 15.183 29.0692 15.1997C29.0692 22.6998 22.9728 28.788 15.4892 28.788Z" fill="#363636"/>
    <path d="M14.8392 12.1846H10.354C9.8972 12.1846 9.52344 12.5583 9.52344 13.0152C9.52344 13.472 9.8972 13.8457 10.354 13.8457H14.8392C15.296 13.8457 15.6697 13.472 15.6697 13.0152C15.6697 12.5583 15.296 12.1846 14.8392 12.1846Z" fill="#363636"/>
    <path d="M20.6532 16.3379H10.354C9.8972 16.3379 9.52344 16.7117 9.52344 17.1685C9.52344 17.6253 9.8972 17.9991 10.354 17.9991H20.6532C21.1101 17.9991 21.4838 17.6253 21.4838 17.1685C21.4838 16.7117 21.1101 16.3379 20.6532 16.3379Z" fill="#363636"/>
</svg>
