<svg width="32" height="32" viewBox="0 0 32 32" fill="none" xmlns="http://www.w3.org/2000/svg">
    <path d="M21.26 20.8027C20.7204 20.8027 20.2617 21.2344 20.2617 21.801C20.2617 22.3407 20.6934 22.7994 21.26 22.7994C21.8266 22.7994 22.2583 22.3677 22.2583 21.801C22.2583 21.2344 21.8266 20.8027 21.26 20.8027Z" fill="#363636"/>
    <path d="M27.0624 20.1551C27.5211 20.1551 27.8988 19.7774 27.8988 19.3187V16.7555C27.8988 14.1653 25.7943 12.0607 23.204 12.0607H21.2074V7.09612C21.2074 3.18381 17.9427 0 13.9494 0C9.92917 0 6.6914 3.18381 6.6914 7.09612V12.0877H4.69477C2.10455 12.0877 0 14.1922 0 16.7825V27.3322C0 29.9224 2.10455 32.027 4.69477 32.027H14.8398C15.2985 32.027 15.6762 31.6492 15.6762 31.1906C15.6762 30.7319 15.2985 30.3541 14.8398 30.3541H4.69477C3.02192 30.3541 1.67285 29.0051 1.67285 27.3322V16.7825C1.67285 15.1096 3.02192 13.7605 4.69477 13.7605H23.204C24.8769 13.7605 26.226 15.1096 26.226 16.7825V19.3457C26.226 19.8044 26.6037 20.1551 27.0624 20.1551ZM19.5346 12.0877H8.33727V7.09612C8.33727 4.10118 10.8465 1.64587 13.9494 1.64587C17.0523 1.64587 19.5616 4.0742 19.5616 7.09612V12.0877H19.5346Z" fill="#363636"/>
    <path d="M17.1608 27.1972L21.262 31.1905C21.8016 31.7031 22.5031 31.9729 23.2316 31.9729C23.2856 31.9729 23.3396 31.9729 23.4205 31.9729C24.203 31.919 24.9584 31.5412 25.4441 30.9207L25.4711 30.8667L31.8387 22.0168C31.9736 21.8279 32.0276 21.6121 31.9736 21.3962C31.9466 21.1804 31.8117 20.9915 31.6498 20.8566C31.5149 20.7487 31.353 20.7217 31.1912 20.7217C30.9213 20.7217 30.6515 20.8566 30.5166 21.0455L24.176 29.8954C23.8792 30.2461 23.5014 30.3271 23.3126 30.3271C23.2856 30.3271 23.2586 30.3271 23.2316 30.3271C22.9348 30.3271 22.638 30.2191 22.4222 30.0033L18.321 26.01C18.1591 25.8482 17.9702 25.7672 17.7544 25.7672C17.5385 25.7672 17.3227 25.8482 17.1608 26.01C16.9989 26.1719 16.918 26.3878 16.918 26.6036C16.918 26.8465 16.9989 27.0623 17.1608 27.1972Z" fill="#363636"/>
    <path d="M16.3772 20.8027C15.8376 20.8027 15.3789 21.2344 15.3789 21.801C15.3789 22.3407 15.8106 22.7994 16.3772 22.7994C16.9168 22.7994 17.3755 22.3677 17.3755 21.801C17.3755 21.2344 16.9168 20.8027 16.3772 20.8027Z" fill="#363636"/>
    <path d="M6.74441 20.8027C6.20478 20.8027 5.74609 21.2344 5.74609 21.801C5.74609 22.3407 6.1778 22.7994 6.74441 22.7994C7.31102 22.7994 7.74272 22.3677 7.74272 21.801C7.71574 21.2344 7.28404 20.8027 6.74441 20.8027Z" fill="#363636"/>
    <path d="M11.5764 20.8027C11.0368 20.8027 10.5781 21.2344 10.5781 21.801C10.5781 22.3407 11.0098 22.7994 11.5764 22.7994C12.143 22.7994 12.5748 22.3677 12.5748 21.801C12.5478 21.2344 12.1161 20.8027 11.5764 20.8027Z" fill="#363636"/>
</svg>
