<svg width="33" height="33" viewBox="0 0 33 33" fill="none" xmlns="http://www.w3.org/2000/svg">
    <path d="M22.2391 12.913C22.6351 12.913 22.9566 12.5916 22.9566 12.1956V3.58693C22.9565 1.60983 21.3481 0 19.3696 0H3.58693C1.60841 0 0 1.60983 0 3.58693V29.413C0 31.3901 1.60841 32.9999 3.58693 32.9999H19.3696C21.3481 32.9999 22.9565 31.3901 22.9565 29.413V20.8043C22.9565 20.4083 22.6351 20.0869 22.2391 20.0869C21.8431 20.0869 21.5217 20.4083 21.5217 20.8043V29.413C21.5217 30.5996 20.5561 31.5652 19.3696 31.5652H3.58693C2.40035 31.5652 1.43476 30.5996 1.43476 29.413V3.58693C1.43476 2.40035 2.40035 1.43476 3.58693 1.43476H19.3696C20.5561 1.43476 21.5217 2.40035 21.5217 3.58693V12.1956C21.5217 12.5916 21.8431 12.913 22.2391 12.913Z" fill="#363636"/>
    <path d="M32.2833 15.7832H9.32679C8.93079 15.7832 8.60938 16.1046 8.60938 16.5006C8.60938 16.8966 8.93079 17.218 9.32679 17.218H32.2833C32.6793 17.218 33.0007 16.8965 33.0007 16.5005C33.0007 16.1045 32.6793 15.7832 32.2833 15.7832Z" fill="#363636"/>
    <path d="M32.7903 15.9947L28.486 11.6903C28.2062 11.4105 27.7513 11.4105 27.4716 11.6903C27.1918 11.9701 27.1918 12.4249 27.4716 12.7047L31.268 16.5012L27.4716 20.2976C27.1918 20.5774 27.1918 21.0322 27.4716 21.312C27.6122 21.4511 27.7958 21.5215 27.9795 21.5215C28.1631 21.5215 28.3467 21.4512 28.486 21.3135L32.7903 17.0091C33.0701 16.7293 33.0701 16.2744 32.7903 15.9947Z" fill="#363636"/>
</svg>
