<svg width="90" height="32" viewBox="0 0 90 32" fill="none" xmlns="http://www.w3.org/2000/svg">
<g clip-path="url(#clip0_2371_4190)">
<path d="M14.1969 14.6013H8.07631L16.669 0.0332031H11.3476L0.0507812 19.1855H11.494L14.1969 14.6013Z" fill="#6D94C5"/>
<path d="M14.5972 8.05615L11.8943 12.6392H18.0149L9.42969 27.1961H14.7498L26.0392 8.05615H14.5972Z" fill="#6D94C5"/>
<path d="M75.1669 7.89746L72.3672 12.7473H81.0777L72.6923 27.2682H78.3662L89.5488 7.89746H75.1669Z" fill="#252432"/>
<path d="M43.3535 20.9431H50.5389L53.3411 16.0908H46.1532L43.3535 20.9431Z" fill="#252432"/>
<path d="M32.8484 16.0905L34.7782 12.7473H45.3515L48.1524 7.89746H31.9065L29.1068 12.7473L27.1771 16.0905L24.3749 20.9428L20.7227 27.2682H26.394L30.0463 20.9428H40.6196L43.4205 16.0905H32.8484Z" fill="#252432"/>
<path d="M70.5142 16.0905L71.811 14.0143H66.1384L64.8428 16.0905H61.8173L63.747 12.7473L66.5467 7.89746H60.8754L58.0757 12.7473L56.1447 16.0905L53.3438 20.9428H62.0407L58.3872 27.2682H64.061L67.7145 20.9428H71.0081L73.8103 16.0905H70.5142Z" fill="#252432"/>
</g>
<defs>
<clipPath id="clip0_2371_4190">
<rect width="89.6" height="32" fill="white"/>
</clipPath>
</defs>
</svg>
