<svg width="217" height="44" viewBox="0 0 217 44" fill="none" xmlns="http://www.w3.org/2000/svg">
<path d="M27.9424 20.8597L32.8829 12.7627H20.3697L15.4697 20.8597L28.1044 41.6807H40.6176L27.9424 20.8597Z" fill="#FACC15"/>
<path d="M42.2773 20.8601L36.6079 30.191L42.8443 40.4858L54.75 20.8601L42.8443 1.23438L36.5674 11.4521L42.2773 20.8601Z" fill="#FACC15"/>
<path d="M18.9116 10.2949H34.381L40.6173 1.16334e-06L12.6752 0L0 20.8595L12.6752 41.6805H25.148L12.5133 20.8595L18.9116 10.2949Z" fill="#FACC15"/>
<path d="M27.9425 20.8597L32.8829 12.7627H20.3697L15.4697 20.8597H27.9425Z" fill="#363636"/>
<path d="M42.2773 20.8601H54.75L42.8443 1.23438L36.5674 11.4521L42.2773 20.8601Z" fill="#363636"/>
<path d="M18.9116 10.2949H34.3811L40.6174 1.16334e-06L12.6752 0L0 20.8595H12.5132L18.9116 10.2949Z" fill="#363636"/>
<path d="M69.8125 18.1742V1.47852H81.4442V4.38885H73.5186V7.64972H76.3687C77.7553 7.64972 78.9506 7.86439 79.9549 8.29373C80.9649 8.71765 81.7438 9.3182 82.2916 10.0954C82.8393 10.8726 83.1132 11.7883 83.1132 12.8426C83.1132 13.8915 82.8393 14.8182 82.2916 15.6226C81.7438 16.4214 80.9649 17.0464 79.9549 17.4975C78.9506 17.9486 77.7553 18.1742 76.3687 18.1742H69.8125ZM73.5186 15.3372H76.3687C77.0306 15.3372 77.5898 15.2231 78.0463 14.9948C78.5027 14.7611 78.848 14.4541 79.0819 14.0737C79.3216 13.6878 79.4414 13.2665 79.4414 12.81C79.4414 12.147 79.1761 11.5872 78.6454 11.1307C78.1204 10.6687 77.3616 10.4377 76.3687 10.4377H73.5186V15.3372ZM87.4034 18.4024V15.5328H88.3535C88.8271 15.5328 89.2093 15.4785 89.5003 15.3698C89.7914 15.2557 90.0224 15.09 90.1937 14.8725C90.3705 14.6497 90.5188 14.3726 90.6386 14.041L90.8527 13.4949L84.4848 1.47852H88.3192L92.4446 9.69595L95.8939 1.47852H99.6769L93.6343 14.897C93.3433 15.5166 92.9981 16.0927 92.5986 16.6253C92.205 17.1579 91.7 17.5873 91.0837 17.9133C90.4675 18.2394 89.6801 18.4024 88.7215 18.4024H87.4034ZM98.7234 22.2013V15.3617H99.913C100.318 15.0845 100.689 14.6932 101.026 14.1878C101.362 13.6769 101.65 12.9731 101.89 12.0763C102.129 11.1742 102.301 9.99486 102.404 8.53831L102.9 1.47852H114.498V15.3617H116.415V22.1851H112.854V18.1742H102.284V22.2013H98.7234ZM104.192 15.3617H110.937V4.38885H106.238L105.965 8.53831C105.89 9.64152 105.768 10.6199 105.596 11.4731C105.43 12.3264 105.229 13.0736 104.989 13.715C104.755 14.3508 104.489 14.8997 104.192 15.3617ZM119.267 1.47852H121.801L127.758 15.3372H127.963L133.92 1.47852H136.454V18.1742H134.467V5.48939H134.297L128.819 18.1742H126.901L121.424 5.48939H121.252V18.1742H119.267V1.47852ZM141.429 18.1742H139.204L145.64 1.47852H147.831L154.267 18.1742H152.042L146.804 4.11983H146.666L141.429 18.1742ZM142.25 11.6524H151.22V13.4459H142.25V11.6524ZM156.997 18.1742V1.47852H162.92C164.295 1.47852 165.42 1.71493 166.292 2.18776C167.171 2.65515 167.822 3.2883 168.244 4.08722C168.666 4.88612 168.877 5.77743 168.877 6.76113C168.877 7.74482 168.666 8.63885 168.244 9.44319C167.827 10.2476 167.182 10.8888 166.309 11.3671C165.437 11.8399 164.318 12.0763 162.954 12.0763H158.709V10.2829H162.886C163.827 10.2829 164.583 10.128 165.154 9.81819C165.725 9.50841 166.139 9.08993 166.395 8.56275C166.658 8.03015 166.788 7.42961 166.788 6.76113C166.788 6.09265 166.658 5.49483 166.395 4.96765C166.139 4.44048 165.722 4.02744 165.145 3.72852C164.569 3.42418 163.805 3.27199 162.852 3.27199H159.12V18.1742H156.997ZM182.601 18.1742L176.576 10.5111H174.419V18.1742H172.297V1.47852H174.419V8.71765H175.344L182.361 1.47852H184.895L177.808 8.81548L185.135 18.1742H182.601ZM187.878 18.1742V1.47852H198.457V3.27199H190.001V8.9133H197.909V10.7068H190.001V16.3807H198.594V18.1742H187.878ZM201.325 3.27199V1.47852H214.47V3.27199H208.959V18.1742H206.836V3.27199H201.325Z" fill="white"/>
<path d="M68.7598 31.5646V24.6081H71.9266C72.483 24.6081 72.9501 24.6794 73.3282 24.8221C73.7086 24.9647 73.9951 25.1663 74.1876 25.4267C74.3826 25.6872 74.48 25.9939 74.48 26.3473C74.48 26.6031 74.4207 26.8363 74.3018 27.047C74.1853 27.2576 74.0212 27.4342 73.8096 27.5769C73.598 27.7172 73.3507 27.8146 73.0678 27.869V27.9369C73.3817 27.9482 73.667 28.0241 73.9238 28.1645C74.1805 28.3026 74.3849 28.494 74.5372 28.7386C74.6893 28.9809 74.7653 29.2662 74.7653 29.5945C74.7653 29.975 74.6608 30.3135 74.4515 30.6101C74.2447 30.9068 73.9499 31.14 73.5672 31.3099C73.1843 31.4797 72.7279 31.5646 72.1977 31.5646H68.7598ZM70.7427 30.0565H71.6698C72.0027 30.0565 72.2524 29.9976 72.4188 29.8798C72.5852 29.7599 72.6685 29.5832 72.6685 29.35C72.6685 29.1869 72.6292 29.0488 72.5508 28.9355C72.4723 28.8223 72.3605 28.7363 72.2155 28.6774C72.0728 28.6185 71.9005 28.5891 71.6984 28.5891H70.7427V30.0565ZM70.7427 27.4206H71.5557C71.7293 27.4206 71.8826 27.3946 72.0158 27.3424C72.149 27.2904 72.2524 27.2157 72.3261 27.1183C72.4021 27.0187 72.4402 26.8975 72.4402 26.7548C72.4402 26.5397 72.3593 26.3755 72.1977 26.2623C72.036 26.1468 71.8315 26.0891 71.5843 26.0891H70.7427V27.4206ZM78.1355 31.6597C77.5411 31.6597 77.0323 31.5476 76.6092 31.3235C76.186 31.097 75.8614 30.7823 75.6355 30.3792C75.4097 29.9738 75.2968 29.5039 75.2968 28.9695C75.2968 28.4351 75.4097 27.9664 75.6355 27.5633C75.8614 27.1579 76.186 26.8431 76.6092 26.6189C77.0323 26.3925 77.5411 26.2793 78.1355 26.2793C78.6728 26.2793 79.1376 26.3721 79.5299 26.5578C79.9245 26.7413 80.2301 27.0016 80.4464 27.3391C80.6627 27.6743 80.7721 28.0682 80.7745 28.5212H78.9486C78.9225 28.2471 78.8392 28.0388 78.6989 27.8962C78.561 27.7513 78.3828 27.6788 78.164 27.6788C77.9928 27.6788 77.8431 27.7263 77.7146 27.8214C77.5863 27.9142 77.4865 28.0558 77.4151 28.246C77.3438 28.4339 77.3081 28.6706 77.3081 28.9559C77.3081 29.2412 77.3438 29.479 77.4151 29.6693C77.4865 29.8572 77.5863 29.9987 77.7146 30.0939C77.8431 30.1867 77.9928 30.2331 78.164 30.2331C78.3091 30.2331 78.4374 30.2014 78.5492 30.138C78.6609 30.0724 78.7512 29.9772 78.8202 29.8526C78.8915 29.7259 78.9343 29.5719 78.9486 29.3907H80.7745C80.7674 29.8504 80.6568 30.2512 80.4428 30.5932C80.2289 30.9328 79.9257 31.1955 79.5334 31.3812C79.1435 31.5669 78.6775 31.6597 78.1355 31.6597ZM84.2115 31.6597C83.6266 31.6597 83.1226 31.5533 82.6994 31.3404C82.2786 31.1253 81.954 30.8173 81.7258 30.4165C81.5 30.0134 81.387 29.5312 81.387 28.9695C81.387 28.4306 81.5011 27.9596 81.7294 27.5565C81.9576 27.1534 82.2798 26.8398 82.6958 26.6156C83.1119 26.3914 83.6028 26.2793 84.1687 26.2793C84.5823 26.2793 84.9568 26.3405 85.292 26.4627C85.6273 26.585 85.9138 26.7628 86.1515 26.996C86.3893 27.227 86.5724 27.5078 86.7007 27.8384C86.8291 28.169 86.8933 28.5415 86.8933 28.9559V29.3907H82.0004V28.3581H85.0817C85.0792 28.2087 85.0389 28.0773 84.9603 27.9641C84.8843 27.8486 84.7809 27.7591 84.6501 27.6958C84.5218 27.6301 84.3756 27.5973 84.2115 27.5973C84.0522 27.5973 83.906 27.6301 83.7728 27.6958C83.6396 27.7591 83.5327 27.8475 83.4519 27.9606C83.3734 28.0739 83.3318 28.2064 83.327 28.3581V29.4722C83.327 29.6398 83.3639 29.7892 83.4376 29.9206C83.5113 30.052 83.617 30.155 83.755 30.2297C83.8929 30.3044 84.0593 30.3418 84.2542 30.3418C84.3898 30.3418 84.5134 30.3237 84.6251 30.2875C84.7393 30.2512 84.8367 30.1991 84.9176 30.1312C84.9984 30.061 85.0579 29.9772 85.0959 29.8798H86.8933C86.8315 30.2421 86.6852 30.5569 86.4547 30.8242C86.224 31.089 85.9185 31.2952 85.5381 31.4424C85.1601 31.5873 84.7179 31.6597 84.2115 31.6597ZM99.0551 30.1651L98.941 33.0592H97.2006V31.5646H96.6586V30.1651H99.0551ZM89.6972 26.3473H91.5517V30.1516H92.7499V26.3473H94.6044V30.1516H95.8027V26.3473H97.6571V31.5646H89.6972V26.3473ZM102.329 31.6597C101.736 31.6597 101.227 31.5476 100.804 31.3235C100.38 31.097 100.056 30.7823 99.8298 30.3792C99.604 29.9738 99.491 29.5039 99.491 28.9695C99.491 28.4351 99.604 27.9664 99.8298 27.5633C100.056 27.1579 100.38 26.8431 100.804 26.6189C101.227 26.3925 101.736 26.2793 102.329 26.2793C102.924 26.2793 103.433 26.3925 103.856 26.6189C104.28 26.8431 104.604 27.1579 104.83 27.5633C105.056 27.9664 105.168 28.4351 105.168 28.9695C105.168 29.5039 105.056 29.9738 104.83 30.3792C104.604 30.7823 104.28 31.097 103.856 31.3235C103.433 31.5476 102.924 31.6597 102.329 31.6597ZM102.344 30.2739C102.51 30.2739 102.655 30.2206 102.775 30.1142C102.897 30.0078 102.991 29.8561 103.057 29.659C103.124 29.462 103.157 29.2276 103.157 28.9559C103.157 28.682 103.124 28.4475 103.057 28.2528C102.991 28.0558 102.897 27.9041 102.775 27.7976C102.655 27.6912 102.51 27.638 102.344 27.638C102.168 27.638 102.017 27.6912 101.891 27.7976C101.765 27.9041 101.669 28.0558 101.602 28.2528C101.536 28.4475 101.503 28.682 101.503 28.9559C101.503 29.2276 101.536 29.462 101.602 29.659C101.669 29.8561 101.765 30.0078 101.891 30.1142C102.017 30.2206 102.168 30.2739 102.344 30.2739ZM107.968 31.5646V26.3473H113.075V31.5646H111.22V27.7467H109.794V31.5646H107.968ZM116.717 31.6597C116.123 31.6597 115.614 31.5476 115.191 31.3235C114.767 31.097 114.443 30.7823 114.217 30.3792C113.991 29.9738 113.878 29.5039 113.878 28.9695C113.878 28.4351 113.991 27.9664 114.217 27.5633C114.443 27.1579 114.767 26.8431 115.191 26.6189C115.614 26.3925 116.123 26.2793 116.717 26.2793C117.311 26.2793 117.82 26.3925 118.244 26.6189C118.667 26.8431 118.991 27.1579 119.217 27.5633C119.443 27.9664 119.555 28.4351 119.555 28.9695C119.555 29.5039 119.443 29.9738 119.217 30.3792C118.991 30.7823 118.667 31.097 118.244 31.3235C117.82 31.5476 117.311 31.6597 116.717 31.6597ZM116.731 30.2739C116.898 30.2739 117.042 30.2206 117.163 30.1142C117.284 30.0078 117.378 29.8561 117.444 29.659C117.511 29.462 117.544 29.2276 117.544 28.9559C117.544 28.682 117.511 28.4475 117.444 28.2528C117.378 28.0558 117.284 27.9041 117.163 27.7976C117.042 27.6912 116.898 27.638 116.731 27.638C116.556 27.638 116.404 27.6912 116.278 27.7976C116.152 27.9041 116.056 28.0558 115.989 28.2528C115.923 28.4475 115.89 28.682 115.89 28.9559C115.89 29.2276 115.923 29.462 115.989 29.659C116.056 29.8561 116.152 30.0078 116.278 30.1142C116.404 30.2206 116.556 30.2739 116.731 30.2739ZM119.936 27.7467V26.3473H125.243V27.7467H123.503V31.5646H121.648V27.7467H119.936ZM125.974 33.5212V26.3473H127.929V27.2576H127.971C128.042 27.0809 128.147 26.919 128.285 26.7718C128.423 26.6224 128.594 26.5035 128.799 26.4152C129.003 26.3246 129.24 26.2793 129.512 26.2793C129.873 26.2793 130.216 26.371 130.542 26.5545C130.87 26.7378 131.136 27.0266 131.341 27.4206C131.548 27.8146 131.652 28.3264 131.652 28.9559C131.652 29.5583 131.553 30.0576 131.355 30.4539C131.16 30.8502 130.899 31.1457 130.571 31.3404C130.246 31.5352 129.887 31.6325 129.497 31.6325C129.24 31.6325 129.011 31.5929 128.81 31.5136C128.61 31.4321 128.438 31.3223 128.295 31.1842C128.156 31.0438 128.047 30.8853 127.971 30.7086H127.943V33.5212H125.974ZM127.9 28.9559C127.9 29.2096 127.934 29.4292 128.003 29.6148C128.074 29.7983 128.175 29.941 128.302 30.0429C128.434 30.1426 128.59 30.1923 128.77 30.1923C128.951 30.1923 129.104 30.1436 129.23 30.0462C129.359 29.9467 129.456 29.8051 129.523 29.6217C129.592 29.436 129.626 29.2141 129.626 28.9559C129.626 28.6977 129.592 28.477 129.523 28.2936C129.456 28.1078 129.359 27.9664 129.23 27.869C129.104 27.7693 128.951 27.7195 128.77 27.7195C128.59 27.7195 128.434 27.7693 128.302 27.869C128.175 27.9664 128.074 28.1078 128.003 28.2936C127.934 28.477 127.9 28.6977 127.9 28.9559ZM132.476 31.5646V26.3473H134.444V31.5646H132.476ZM133.46 25.8038C133.194 25.8038 132.966 25.72 132.775 25.5524C132.586 25.3848 132.49 25.1833 132.49 24.9478C132.49 24.7123 132.586 24.5108 132.775 24.3432C132.966 24.1756 133.194 24.0918 133.46 24.0918C133.729 24.0918 133.957 24.1756 134.145 24.3432C134.335 24.5108 134.43 24.7123 134.43 24.9478C134.43 25.1833 134.335 25.3848 134.145 25.5524C133.957 25.72 133.729 25.8038 133.46 25.8038ZM140.326 24.4586L140.811 25.7086C140.664 25.8083 140.507 25.8864 140.34 25.943C140.175 25.9974 139.966 26.0358 139.717 26.0585C139.467 26.0789 139.142 26.0891 138.743 26.0891C138.292 26.0891 137.927 26.1389 137.652 26.2385C137.376 26.3382 137.168 26.5069 137.027 26.7446C136.888 26.9824 136.793 27.3073 136.746 27.7195H136.788C136.938 27.407 137.153 27.1568 137.431 26.9688C137.711 26.7809 138.092 26.6869 138.572 26.6869C139.064 26.6869 139.489 26.7865 139.845 26.9858C140.202 27.1828 140.475 27.4602 140.665 27.818C140.858 28.1758 140.954 28.5959 140.954 29.0782C140.954 29.5991 140.842 30.053 140.616 30.4403C140.39 30.8275 140.065 31.1276 139.641 31.3404C139.219 31.5533 138.709 31.6597 138.115 31.6597C137.52 31.6597 137.012 31.5487 136.588 31.3268C136.166 31.1049 135.841 30.7788 135.615 30.3486C135.389 29.9184 135.277 29.3907 135.277 28.7657V28.4261C135.277 27.1036 135.565 26.1366 136.144 25.5252C136.723 24.9138 137.566 24.6081 138.671 24.6081C138.928 24.6081 139.161 24.6081 139.37 24.6081C139.582 24.6081 139.768 24.5979 139.927 24.5775C140.088 24.5571 140.222 24.5175 140.326 24.4586ZM138.13 30.2739C138.296 30.2739 138.439 30.2308 138.561 30.1448C138.682 30.0565 138.776 29.9296 138.843 29.7644C138.909 29.5968 138.942 29.3952 138.942 29.1597C138.942 28.9196 138.909 28.7159 138.843 28.5483C138.776 28.3807 138.682 28.2528 138.561 28.1645C138.439 28.0762 138.296 28.032 138.13 28.032C137.998 28.032 137.881 28.057 137.777 28.1067C137.672 28.1565 137.583 28.2302 137.509 28.3276C137.438 28.4226 137.383 28.5404 137.345 28.6808C137.307 28.8189 137.287 28.9786 137.287 29.1597C137.287 29.513 137.362 29.787 137.509 29.9818C137.659 30.1765 137.866 30.2739 138.13 30.2739ZM145.692 28.2358V29.6353H142.938V28.2358H145.692ZM143.637 26.3473V31.5646H141.784V26.3473H143.637ZM146.847 26.3473V31.5646H145.007V26.3473H146.847ZM150.424 31.6597C149.83 31.6597 149.321 31.5476 148.898 31.3235C148.475 31.097 148.15 30.7823 147.925 30.3792C147.699 29.9738 147.585 29.5039 147.585 28.9695C147.585 28.4351 147.699 27.9664 147.925 27.5633C148.15 27.1579 148.475 26.8431 148.898 26.6189C149.321 26.3925 149.83 26.2793 150.424 26.2793C151.019 26.2793 151.528 26.3925 151.951 26.6189C152.373 26.8431 152.699 27.1579 152.924 27.5633C153.15 27.9664 153.263 28.4351 153.263 28.9695C153.263 29.5039 153.15 29.9738 152.924 30.3792C152.699 30.7823 152.373 31.097 151.951 31.3235C151.528 31.5476 151.019 31.6597 150.424 31.6597ZM150.438 30.2739C150.605 30.2739 150.749 30.2206 150.87 30.1142C150.992 30.0078 151.085 29.8561 151.152 29.659C151.218 29.462 151.252 29.2276 151.252 28.9559C151.252 28.682 151.218 28.4475 151.152 28.2528C151.085 28.0558 150.992 27.9041 150.87 27.7976C150.749 27.6912 150.605 27.638 150.438 27.638C150.262 27.638 150.112 27.6912 149.985 27.7976C149.86 27.9041 149.763 28.0558 149.697 28.2528C149.63 28.4475 149.597 28.682 149.597 28.9559C149.597 29.2276 149.63 29.462 149.697 29.659C149.763 29.8561 149.86 30.0078 149.985 30.1142C150.112 30.2206 150.262 30.2739 150.438 30.2739ZM155.735 33.1135V30.1516H156.133C156.26 30.104 156.358 29.9919 156.43 29.8153C156.504 29.6364 156.559 29.427 156.597 29.1869C156.637 28.9469 156.667 28.7045 156.683 28.46C156.702 28.2132 156.719 27.998 156.733 27.8146L156.847 26.3473H161.526V30.1516H162.382V33.1135H160.527V31.5646H157.646V33.1135H155.735ZM158.016 30.1516H159.7V27.7059H158.473V27.8146C158.445 28.3784 158.397 28.8484 158.331 29.2243C158.264 29.5979 158.159 29.907 158.016 30.1516ZM162.9 31.5646L162.886 30.1516H163.057C163.164 30.1516 163.258 30.1222 163.339 30.0633C163.421 30.0043 163.492 29.9138 163.549 29.7915C163.608 29.6693 163.654 29.5141 163.688 29.3262C163.723 29.1382 163.747 28.9152 163.756 28.657L163.841 26.3473H168.349V31.5646H166.494V27.7467H165.581L165.496 29.1597C165.472 29.6036 165.406 29.9795 165.296 30.2875C165.19 30.5954 165.047 30.8434 164.868 31.0314C164.691 31.217 164.484 31.3528 164.248 31.4389C164.013 31.5227 163.754 31.5646 163.47 31.5646H162.9ZM172.444 31.5646V27.7467H171.703C171.456 27.7467 171.274 27.801 171.157 27.9098C171.04 28.0184 170.985 28.1271 170.99 28.2358C170.985 28.3513 171.044 28.46 171.168 28.5619C171.292 28.6616 171.484 28.7113 171.745 28.7113H173.143V29.8391H171.745C171.211 29.8391 170.747 29.7677 170.355 29.6251C169.963 29.4825 169.661 29.2854 169.45 29.034C169.238 28.7827 169.133 28.494 169.135 28.1679C169.133 27.8146 169.235 27.501 169.442 27.227C169.652 26.9529 169.949 26.7378 170.333 26.5816C170.721 26.4253 171.178 26.3473 171.703 26.3473H174.271V31.5646H172.444ZM169.078 31.5646L170.577 28.7657H172.388L170.89 31.5646H169.078ZM73.667 34.0238L74.1519 35.2738C74.0046 35.3735 73.8477 35.4516 73.6812 35.5083C73.5148 35.5626 73.3068 35.601 73.0571 35.6237C72.8075 35.6441 72.483 35.6543 72.0836 35.6543C71.6319 35.6543 71.2681 35.7042 70.9923 35.8037C70.7165 35.9034 70.5085 36.0721 70.3682 36.3098C70.2279 36.5476 70.134 36.8726 70.0864 37.2847H70.1293C70.279 36.9722 70.493 36.722 70.7712 36.534C71.0517 36.3461 71.4321 36.2522 71.9124 36.2522C72.4045 36.2522 72.8289 36.3517 73.1855 36.5511C73.5422 36.748 73.8155 37.0254 74.0057 37.3832C74.1983 37.741 74.2946 38.1611 74.2946 38.6435C74.2946 39.1643 74.1817 39.6183 73.9558 40.0055C73.73 40.3927 73.4055 40.6928 72.9823 40.9056C72.5591 41.1186 72.0502 41.2249 71.4559 41.2249C70.8615 41.2249 70.3527 41.114 69.9295 40.892C69.5064 40.6701 69.1818 40.3441 68.9559 39.9138C68.7301 39.4836 68.6172 38.956 68.6172 38.331V37.9913C68.6172 36.6688 68.906 35.7019 69.4838 35.0905C70.0639 34.479 70.9067 34.1733 72.0123 34.1733C72.269 34.1733 72.5019 34.1733 72.7112 34.1733C72.9228 34.1733 73.1082 34.1631 73.2676 34.1427C73.4292 34.1224 73.5623 34.0828 73.667 34.0238ZM71.4702 39.8391C71.6366 39.8391 71.7804 39.7961 71.9017 39.71C72.0229 39.6217 72.1168 39.4949 72.1834 39.3296C72.25 39.162 72.2832 38.9605 72.2832 38.725C72.2832 38.4849 72.25 38.2811 72.1834 38.1135C72.1168 37.946 72.0229 37.818 71.9017 37.7297C71.7804 37.6414 71.6366 37.5972 71.4702 37.5972C71.3394 37.5972 71.2217 37.6222 71.1171 37.6719C71.0125 37.7218 70.9234 37.7954 70.8496 37.8928C70.7783 37.9879 70.7236 38.1056 70.6856 38.246C70.6476 38.3841 70.6285 38.5438 70.6285 38.725C70.6285 39.0782 70.7022 39.3522 70.8496 39.547C70.9994 39.7417 71.2063 39.8391 71.4702 39.8391ZM76.322 43.0864C76.0962 43.0864 75.881 43.0694 75.6765 43.0354C75.472 43.0037 75.2926 42.9596 75.138 42.9029L75.566 41.5714C75.7276 41.6258 75.875 41.6609 76.0082 41.6767C76.1437 41.6926 76.2591 41.6835 76.3542 41.6495C76.4516 41.6156 76.5218 41.551 76.5646 41.4559L76.6073 41.3608L74.6816 35.9125H76.7357L77.6201 39.5266H77.6772L78.5759 35.9125H80.6444L78.6472 41.5646C78.5474 41.8522 78.4023 42.1104 78.2121 42.3391C78.0243 42.5701 77.7771 42.7524 77.4704 42.8859C77.1637 43.0195 76.7809 43.0864 76.322 43.0864ZM80.4446 42.6787V39.7168H80.844C80.97 39.6692 81.0688 39.5571 81.1401 39.3806C81.2138 39.2016 81.2696 38.9922 81.3077 38.7521C81.348 38.5121 81.3766 38.2697 81.3932 38.0253C81.4123 37.7784 81.4289 37.5633 81.4431 37.3798L81.5573 35.9125H86.2362V39.7168H87.0921V42.6787H85.2376V41.1298H82.3561V42.6787H80.4446ZM82.727 39.7168H84.4103V37.2711H83.1835V37.3798C83.155 37.9437 83.1074 38.4136 83.0408 38.7895C82.9743 39.1631 82.8697 39.4722 82.727 39.7168ZM87.8241 41.1298V35.9125H89.7926V41.1298H87.8241ZM88.8083 35.369C88.5421 35.369 88.3139 35.2852 88.1236 35.1176C87.9334 34.95 87.8383 34.7485 87.8383 34.513C87.8383 34.2775 87.9334 34.076 88.1236 33.9084C88.3139 33.7408 88.5421 33.657 88.8083 33.657C89.077 33.657 89.3052 33.7408 89.493 33.9084C89.6832 34.076 89.7784 34.2775 89.7784 34.513C89.7784 34.7485 89.6832 34.95 89.493 35.1176C89.3052 35.2852 89.077 35.369 88.8083 35.369ZM90.7957 41.1298V35.9125H93.1922C93.9268 35.9125 94.5046 36.0313 94.9254 36.2691C95.3486 36.5069 95.5602 36.8636 95.5602 37.339C95.5602 37.5972 95.4412 37.8259 95.2035 38.0253C94.9681 38.2245 94.6258 38.3581 94.1765 38.426C94.5901 38.4441 94.9254 38.5166 95.1821 38.6435C95.4412 38.768 95.6302 38.9242 95.7492 39.1122C95.8705 39.2979 95.931 39.4904 95.931 39.6896C95.931 40.0067 95.8407 40.2727 95.66 40.4878C95.4793 40.7007 95.2131 40.8615 94.8612 40.9702C94.5093 41.0767 94.0766 41.1298 93.5631 41.1298H90.7957ZM92.6216 39.8119H93.5631C93.7224 39.8119 93.8472 39.7757 93.9375 39.7032C94.0303 39.6308 94.0766 39.5311 94.0766 39.4043C94.0766 39.2729 94.0303 39.1699 93.9375 39.0952C93.8472 39.0204 93.7224 38.9831 93.5631 38.9831H92.6216V39.8119ZM92.6216 38.032H93.2493C93.3515 38.032 93.4383 38.0173 93.5096 37.9879C93.5809 37.9562 93.6356 37.912 93.6737 37.8554C93.714 37.7988 93.7342 37.7308 93.7342 37.6515C93.7342 37.5316 93.6855 37.4387 93.588 37.373C93.4929 37.3051 93.3609 37.2711 93.1922 37.2711H92.6216V38.032ZM100.598 37.8011V39.2005H97.8452V37.8011H100.598ZM98.5442 35.9125V41.1298H96.6897V35.9125H98.5442ZM101.754 35.9125V41.1298H99.9137V35.9125H101.754ZM105.317 41.2249C104.732 41.2249 104.227 41.1186 103.805 40.9056C103.384 40.6905 103.059 40.3825 102.83 39.9817C102.604 39.5787 102.492 39.0964 102.492 38.5347C102.492 37.9958 102.607 37.5248 102.834 37.1217C103.062 36.7186 103.385 36.405 103.801 36.1808C104.217 35.9566 104.707 35.8445 105.274 35.8445C105.688 35.8445 106.062 35.9057 106.398 36.0279C106.732 36.1502 107.019 36.328 107.256 36.5612C107.494 36.7922 107.677 37.073 107.806 37.4036C107.934 37.7342 107.998 38.1068 107.998 38.5211V38.956H103.106V37.9233H106.187C106.185 37.7739 106.143 37.6426 106.065 37.5293C105.99 37.4139 105.886 37.3243 105.755 37.261C105.626 37.1953 105.481 37.1625 105.317 37.1625C105.157 37.1625 105.011 37.1953 104.878 37.261C104.745 37.3243 104.638 37.4127 104.557 37.5259C104.478 37.6391 104.437 37.7716 104.432 37.9233V39.0374C104.432 39.205 104.469 39.3544 104.543 39.4858C104.616 39.6172 104.722 39.7202 104.86 39.7949C104.998 39.8696 105.164 39.907 105.359 39.907C105.495 39.907 105.618 39.8889 105.73 39.8527C105.844 39.8164 105.942 39.7643 106.023 39.6964C106.103 39.6262 106.163 39.5424 106.201 39.445H107.998C107.936 39.8074 107.79 40.1221 107.559 40.3894C107.33 40.6543 107.023 40.8604 106.644 41.0076C106.265 41.1525 105.823 41.2249 105.317 41.2249ZM113.908 35.9125V39.9614H114.85V42.8011H112.952V41.1298H108.802V35.9125H110.656V39.7304H112.083V35.9125H113.908ZM115.278 37.3119V35.9125H120.585V37.3119H118.844V41.1298H116.989V37.3119H115.278ZM121.316 41.1298V35.9125H123.712C124.447 35.9125 125.025 36.0313 125.445 36.2691C125.868 36.5069 126.08 36.8636 126.08 37.339C126.08 37.5972 125.961 37.8259 125.723 38.0253C125.488 38.2245 125.146 38.3581 124.696 38.426C125.11 38.4441 125.445 38.5166 125.702 38.6435C125.961 38.768 126.15 38.9242 126.269 39.1122C126.39 39.2979 126.451 39.4904 126.451 39.6896C126.451 40.0067 126.36 40.2727 126.18 40.4878C126 40.7007 125.733 40.8615 125.381 40.9702C125.03 41.0767 124.597 41.1298 124.083 41.1298H121.316ZM123.142 39.8119H124.083C124.242 39.8119 124.367 39.7757 124.457 39.7032C124.55 39.6308 124.597 39.5311 124.597 39.4043C124.597 39.2729 124.55 39.1699 124.457 39.0952C124.367 39.0204 124.242 38.9831 124.083 38.9831H123.142V39.8119ZM123.142 38.032H123.769C123.872 38.032 123.958 38.0173 124.029 37.9879C124.101 37.9562 124.156 37.912 124.194 37.8554C124.234 37.7988 124.254 37.7308 124.254 37.6515C124.254 37.5316 124.205 37.4387 124.108 37.373C124.013 37.3051 123.881 37.2711 123.712 37.2711H123.142V38.032ZM128.736 41.2113C128.387 41.2113 128.077 41.157 127.809 41.0483C127.542 40.9374 127.333 40.7698 127.182 40.5456C127.029 40.3214 126.953 40.0361 126.953 39.6896C126.953 39.4043 127.004 39.1608 127.106 38.9593C127.209 38.7556 127.351 38.5891 127.534 38.46C127.717 38.331 127.93 38.2324 128.173 38.1645C128.418 38.0965 128.681 38.0524 128.964 38.032C129.271 38.0094 129.518 37.9822 129.702 37.9505C129.89 37.9165 130.026 37.8701 130.109 37.8112C130.192 37.7501 130.234 37.6697 130.234 37.5701V37.5565C130.234 37.4206 130.179 37.3165 130.07 37.244C129.96 37.1715 129.82 37.1353 129.649 37.1353C129.461 37.1353 129.308 37.1749 129.189 37.2542C129.073 37.3311 129.002 37.45 128.978 37.6108H127.167C127.191 37.2938 127.296 37.0017 127.484 36.7344C127.675 36.465 127.952 36.2499 128.315 36.0891C128.679 35.9261 129.133 35.8445 129.677 35.8445C130.07 35.8445 130.421 35.8887 130.733 35.977C131.045 36.063 131.31 36.1841 131.528 36.3404C131.747 36.4944 131.914 36.6756 132.028 36.8839C132.145 37.09 132.203 37.3142 132.203 37.5565V41.1298H130.362V40.3962H130.32C130.21 40.5909 130.077 40.7483 129.92 40.8683C129.766 40.9883 129.589 41.0755 129.389 41.1298C129.191 41.1842 128.974 41.2113 128.736 41.2113ZM129.378 40.0293C129.528 40.0293 129.668 39.9999 129.799 39.941C129.932 39.8821 130.04 39.7972 130.123 39.6863C130.206 39.5753 130.249 39.4405 130.249 39.282V38.8472C130.195 38.8676 130.14 38.8869 130.081 38.905C130.024 38.923 129.961 38.9401 129.895 38.956C129.831 38.9717 129.762 38.9865 129.688 39C129.617 39.0136 129.542 39.0262 129.463 39.0374C129.312 39.0601 129.186 39.0974 129.089 39.1496C128.994 39.1994 128.923 39.2617 128.875 39.3364C128.83 39.4089 128.808 39.4904 128.808 39.5809C128.808 39.7259 128.861 39.8368 128.968 39.9138C129.075 39.9908 129.211 40.0293 129.378 40.0293Z" fill="#363636"/>
</svg>
