<svg width="55" height="44" viewBox="0 0 55 44" fill="none" xmlns="http://www.w3.org/2000/svg">
<path d="M27.8238 21.8079L32.7434 13.3428L20.2832 13.3428L15.4039 21.8079L27.9851 43.5753L40.4453 43.5753L27.8238 21.8079Z" fill="#FACC15"/>
<path d="M42.0987 21.8078L36.4533 31.5629L42.6632 42.3256L54.5186 21.8078L42.6632 1.29004L36.4129 11.9722L42.0987 21.8078Z" fill="#FACC15"/>
<path d="M18.8315 10.7628L34.2354 10.7628L40.4453 2.38308e-06L12.6215 1.16686e-06L4.10084e-05 21.8077L12.6215 43.5751L25.0414 43.5751L12.4603 21.8077L18.8315 10.7628Z" fill="#FACC15"/>
<path d="M27.8236 21.8079L32.7432 13.3428L20.2829 13.3428L15.4037 21.8079L27.8236 21.8079Z" fill="#363636"/>
<path d="M42.0987 21.8078L54.5186 21.8078L42.6632 1.29004L36.4129 11.9722L42.0987 21.8078Z" fill="#363636"/>
<path d="M18.8315 10.7628L34.2354 10.7628L40.4453 2.38308e-06L12.6215 1.16686e-06L4.10084e-05 21.8077L12.4603 21.8077L18.8315 10.7628Z" fill="#363636"/>
</svg>
