<svg width="86" height="18" viewBox="0 0 86 18" fill="none" xmlns="http://www.w3.org/2000/svg">
<g clip-path="url(#clip0_10925_13045)">
<path fill-rule="evenodd" clip-rule="evenodd" d="M71.9428 13.9453L71.7471 13.7758C71.2704 13.364 71.1866 12.6133 71.6211 12.131L76.7203 6.23525C77.1273 5.753 77.8694 5.66825 78.3461 6.10775L78.5418 6.278C79.0185 6.689 79.1023 7.4405 78.6679 7.922L73.5687 13.8178C73.1616 14.3 72.4477 14.3563 71.9428 13.9453Z" fill="white"/>
<path opacity="0.4" fill-rule="evenodd" clip-rule="evenodd" d="M77.7153 9.02742L77.9258 8.78667C77.9399 8.75817 77.9674 8.72967 77.9814 8.70117C77.7575 8.95617 77.5196 9.22617 77.2949 9.49467C77.4632 9.31092 77.6033 9.15492 77.7153 9.02742Z" fill="url(#paint0_radial_10925_13045)"/>
<path fill-rule="evenodd" clip-rule="evenodd" d="M78.6969 6.4192L73.5962 0.524204C73.19 0.0412038 72.4471 -0.0442962 71.9711 0.396704L71.7754 0.565454C71.2987 0.976454 71.2149 1.72795 71.6494 2.20945L75.9501 7.14145L76.048 7.25545C77.3232 8.54545 76.8887 9.82045 76.567 10.359C76.819 10.0612 77.0711 9.76345 77.3091 9.4942C77.5337 9.22495 77.7717 8.9557 77.9956 8.7007C78.2202 8.4457 78.43 8.20495 78.5702 8.0482C79.0602 7.5667 79.1306 6.9007 78.6962 6.4192H78.6969Z" fill="white"/>
<path fill-rule="evenodd" clip-rule="evenodd" d="M78.416 13.9453L78.2202 13.7758C77.7435 13.364 77.6598 12.6133 78.0942 12.131L83.1934 6.23525C83.5997 5.753 84.3426 5.66825 84.8185 6.10775L85.015 6.278C85.4909 6.689 85.5755 7.4405 85.141 7.922L80.0411 13.8178C79.6348 14.3 78.9208 14.3563 78.416 13.9453Z" fill="white"/>
<path opacity="0.4" fill-rule="evenodd" clip-rule="evenodd" d="M84.1743 9.02742L84.3848 8.78667C84.3982 8.75817 84.4263 8.72967 84.4404 8.70117C84.2165 8.95617 83.9785 9.22617 83.7539 9.49467C83.9222 9.31092 84.0764 9.15492 84.1743 9.02742Z" fill="url(#paint1_radial_10925_13045)"/>
<path fill-rule="evenodd" clip-rule="evenodd" d="M85.1552 6.4192L80.0552 0.524204C79.649 0.0412038 78.9068 -0.0442962 78.4301 0.396704L78.2344 0.565454C77.7577 0.977204 77.6739 1.7287 78.1084 2.2102L82.4091 7.1422L82.507 7.2562C83.7821 8.5462 83.3477 9.8212 83.0259 10.3597C83.278 10.062 83.5301 9.7642 83.7681 9.49495C83.992 9.2257 84.2307 8.95645 84.4546 8.70145C84.6785 8.44645 84.889 8.2057 85.0291 8.04895C85.5192 7.56745 85.5896 6.9007 85.1552 6.4192Z" fill="white"/>
<path fill-rule="evenodd" clip-rule="evenodd" d="M22.6411 0.0566406C23.9718 0.0566406 25.1484 0.353641 26.1292 0.920641C27.1242 1.51614 27.8804 2.35239 28.4127 3.41514C28.9457 4.49289 29.2119 5.76789 29.2119 7.22814C29.2119 8.80089 28.9035 10.1756 28.2726 11.2954C27.6565 12.4294 26.7602 13.2514 25.5969 13.7764C26.1997 13.9744 26.6897 14.4281 27.096 15.0941L27.7966 16.1569C27.9367 16.3984 28.0205 16.6249 28.0205 16.8656C28.0205 17.1634 27.9093 17.4184 27.6706 17.6029C27.4326 17.7874 27.1516 17.9006 26.8439 17.9006C26.606 17.9006 26.3813 17.8436 26.1715 17.7304C25.975 17.6171 25.7934 17.4469 25.6525 17.2346L24.5041 15.3071C24.3218 14.9951 24.0838 14.7679 23.7895 14.6261C23.4951 14.4844 23.117 14.3996 22.6403 14.3996C21.2821 14.3996 20.1189 14.1019 19.124 13.5349C18.1298 12.9401 17.3728 12.1039 16.8405 11.0404C16.3082 9.94914 16.042 8.67339 16.042 7.22814C16.042 5.76789 16.3223 4.50639 16.8405 3.41514C17.3728 2.33814 18.1431 1.51614 19.124 0.920641C20.1189 0.325891 21.2814 0.0566406 22.6418 0.0566406H22.6411ZM56.1959 0.0701406C56.5317 0.0701406 56.7979 0.212641 57.0359 0.509641L61.0571 5.55564L65.0635 0.509641C65.3008 0.226141 65.5958 0.0843906 65.9317 0.0843906C66.226 0.0843906 66.4922 0.198391 66.7301 0.439141C66.9689 0.679891 67.0808 0.934891 67.0808 1.27539C67.0808 1.53039 66.983 1.79964 66.7865 2.04039L62.3175 7.55364V13.0676C62.3175 13.4786 62.2055 13.7899 61.9668 14.0314C61.7288 14.2714 61.4345 14.3711 61.0697 14.3711C60.6916 14.3711 60.3699 14.2579 60.1319 14.0314C59.8931 13.8041 59.7812 13.4929 59.7812 13.0676V7.55364L55.3403 2.02614C55.1439 1.78614 55.046 1.53039 55.046 1.26114C55.046 0.949141 55.158 0.665641 55.3959 0.424891C55.6347 0.184141 55.9149 0.0701406 56.1944 0.0701406H56.1959ZM38.0098 0.184141C39.4948 0.184141 40.644 0.552391 41.4706 1.31739C42.2972 2.05464 42.7176 3.11739 42.7176 4.46439C42.7176 5.81064 42.2972 6.87339 41.4706 7.62489C40.644 8.38989 39.4948 8.75889 38.0098 8.75889H34.4935V13.0391C34.4935 13.4501 34.3815 13.7621 34.1436 13.9886C33.9048 14.2294 33.5972 14.3426 33.2042 14.3426C32.8261 14.3291 32.5044 14.2151 32.2938 13.9751C32.0558 13.7336 31.9439 13.4216 31.9439 13.0249V1.38864C31.9439 1.00614 32.0551 0.708391 32.2797 0.496141C32.5044 0.297391 32.7987 0.184141 33.1768 0.184141H38.0098ZM12.1609 0.0701406C12.539 0.0701406 12.8756 0.184141 13.0995 0.424891C13.3382 0.665641 13.4502 0.963391 13.4502 1.34589V13.0249C13.4502 13.4074 13.3382 13.7336 13.0995 13.9744C12.8615 14.2151 12.5531 14.3291 12.1609 14.3291C11.7969 14.3291 11.4885 14.2151 11.2505 13.9744C11.0125 13.7336 10.8998 13.4216 10.8998 13.0249V1.34589C10.8998 0.963391 11.0125 0.665641 11.2505 0.424891C11.4885 0.184141 11.7828 0.0701406 12.1609 0.0701406ZM49.2603 0.0566406C49.5405 0.0566406 49.7926 0.127141 50.0313 0.254641C50.2686 0.397141 50.4509 0.595141 50.577 0.864391L56.0276 12.6701C56.0832 12.8546 56.1255 13.0106 56.1255 13.1951C56.1255 13.4929 55.9994 13.7479 55.7614 13.9751C55.5227 14.1731 55.2425 14.2864 54.9207 14.2864C54.7243 14.2864 54.5144 14.2294 54.3321 14.1161C54.1497 14.0029 53.9955 13.8184 53.8976 13.5911L52.707 10.9271H45.8136L44.623 13.5919C44.511 13.8326 44.3709 14.0029 44.1885 14.1161C44.0061 14.2294 43.8104 14.2864 43.5865 14.2864C43.2922 14.2864 42.9978 14.1731 42.7599 13.9744C42.5078 13.7764 42.3951 13.5064 42.3951 13.1944C42.3951 13.0249 42.4374 12.8404 42.5071 12.6701L47.9436 0.864391C48.0548 0.609391 48.2379 0.396391 48.49 0.254641C48.728 0.112891 48.9793 0.0566406 49.2603 0.0566406ZM1.27525 0.0843906C1.65335 0.0843906 1.98919 0.198391 2.21383 0.439141C2.45182 0.679891 2.56376 0.977641 2.56376 1.36014V12.1174H8.06999C8.85437 12.1174 9.26064 12.4721 9.26064 13.1666C9.26064 13.8611 8.85437 14.2151 8.06999 14.2151H1.20482C0.826712 14.2151 0.532384 14.1026 0.322574 13.8896C0.126108 13.6909 0.0141602 13.3931 0.0141602 13.0249V1.36014C0.0141602 0.977641 0.126108 0.679891 0.364091 0.439141C0.602815 0.198391 0.897143 0.0843906 1.27525 0.0843906ZM22.6121 2.06964C21.3236 2.06964 20.3287 2.50914 19.6147 3.38814C18.9001 4.28064 18.536 5.52789 18.536 7.20039C18.536 8.87289 18.8993 10.1201 19.6147 11.0126C20.3287 11.9059 21.3377 12.3454 22.6129 12.3454C23.8881 12.3454 24.8822 11.9059 25.5969 11.0126C26.3116 10.1201 26.6756 8.84514 26.6756 7.20039C26.6756 5.52789 26.3116 4.28064 25.5969 3.38814C24.8822 2.49489 23.9007 2.06964 22.6121 2.06964ZM49.2603 3.04764L46.6684 8.94339H51.8662L49.2603 3.04764ZM37.6873 2.18214H34.4935V6.78864L37.6881 6.80289C39.4251 6.80289 40.3081 6.02289 40.3081 4.49289C40.3081 2.96214 39.4251 2.18289 37.6881 2.18289L37.6873 2.18214Z" fill="white"/>
</g>
<defs>
<radialGradient id="paint0_radial_10925_13045" cx="0" cy="0" r="1" gradientUnits="userSpaceOnUse" gradientTransform="translate(-161.702 100.713) scale(341.604 345.483)">
<stop offset="0.4185" stop-color="#123F06" stop-opacity="0"/>
<stop offset="1" stop-color="#123F06"/>
</radialGradient>
<radialGradient id="paint1_radial_10925_13045" cx="0" cy="0" r="1" gradientUnits="userSpaceOnUse" gradientTransform="translate(-154.665 100.713) scale(341.604 345.483)">
<stop offset="0.4185" stop-color="#123F06" stop-opacity="0"/>
<stop offset="1" stop-color="#123F06"/>
</radialGradient>
<clipPath id="clip0_10925_13045">
<rect width="86" height="18" fill="white"/>
</clipPath>
</defs>
</svg>
