<svg width="20" height="20" viewBox="0 0 20 20" fill="none" xmlns="http://www.w3.org/2000/svg">
<path d="M3.25 14.875H16.75V5.125H3.25V14.875ZM18.25 15C18.25 15.3647 18.1055 15.7148 17.8477 15.9727C17.5898 16.2305 17.2397 16.375 16.875 16.375H3.125C2.76033 16.375 2.41021 16.2305 2.15234 15.9727C1.89448 15.7148 1.75 15.3647 1.75 15V4.375C1.75 3.96079 2.08579 3.625 2.5 3.625H17.5C17.9142 3.625 18.25 3.96079 18.25 4.375V15Z" fill="#252432"/>
<path d="M16.9931 3.82218C17.2984 3.54231 17.7727 3.56282 18.0526 3.86808C18.3325 4.17339 18.312 4.64774 18.0067 4.92765L10.5067 11.8026C10.22 12.0655 9.77982 12.0655 9.49308 11.8026L1.99308 4.92765C1.68782 4.64774 1.66731 4.17339 1.94718 3.86808C2.22708 3.56282 2.70144 3.54231 3.00675 3.82218L9.99991 10.2323L16.9931 3.82218Z" fill="#252432"/>
</svg>
