<svg width="26" height="21" viewBox="0 0 26 21" fill="none" xmlns="http://www.w3.org/2000/svg">
<path d="M21.924 0.000429153H3.276C2.69733 0.000429153 2.156 0.140429 1.652 0.420429C1.148 0.70043 0.746667 1.0831 0.448 1.56843C0.149333 2.05376 0 2.58576 0 3.16443V17.1644C0 17.7431 0.144667 18.2844 0.434 18.7884C0.723333 19.2924 1.11533 19.6938 1.61 19.9924C2.10467 20.2911 2.66 20.4404 3.276 20.4404H21.924C22.5027 20.4404 23.044 20.2958 23.548 20.0064C24.052 19.7171 24.4533 19.3251 24.752 18.8304C25.0507 18.3358 25.2 17.7804 25.2 17.1644V3.16443C25.2 2.58576 25.0507 2.05376 24.752 1.56843C24.4533 1.0831 24.052 0.70043 23.548 0.420429C23.044 0.140429 22.5027 0.000429153 21.924 0.000429153ZM3.276 1.76443H21.924C22.3347 1.76443 22.6707 1.90443 22.932 2.18443C23.1933 2.46443 23.324 2.7911 23.324 3.16443V3.86443L13.3 10.2764C13.0573 10.3884 12.8053 10.4444 12.544 10.4444C12.2827 10.4444 12.0307 10.3884 11.788 10.2764L1.876 3.86443V3.16443C1.876 2.75376 2.00667 2.41776 2.268 2.15643C2.52933 1.8951 2.86533 1.76443 3.276 1.76443ZM21.924 18.6764H3.276C2.884 18.6764 2.55267 18.5318 2.282 18.2424C2.01133 17.9531 1.876 17.6311 1.876 17.2764V5.96443L10.976 11.7884C11.368 12.1058 11.9093 12.2644 12.6 12.2644C13.2907 12.2644 13.832 12.1058 14.224 11.7884L23.324 5.96443V17.1644C23.324 17.5751 23.1933 17.9298 22.932 18.2284C22.6707 18.5271 22.3347 18.6764 21.924 18.6764Z" fill="white"/>
</svg>
