<svg width="20" height="20" viewBox="0 0 20 20" fill="none" xmlns="http://www.w3.org/2000/svg">
<path d="M3.25 7.90117V15.4998H16.75V7.90117L10 3.40116L3.25 7.90117ZM18.25 15.6248C18.25 15.9895 18.1055 16.3396 17.8477 16.5975C17.5898 16.8553 17.2397 16.9998 16.875 16.9998H3.125C2.76033 16.9998 2.41021 16.8553 2.15234 16.5975C1.89448 16.3396 1.75 15.9895 1.75 15.6248V7.4998C1.75 7.24903 1.87534 7.01487 2.08398 6.87577L9.58398 1.87577L9.68164 1.82109C9.91672 1.71075 10.1955 1.72877 10.416 1.87577L17.916 6.87577C18.1247 7.01487 18.25 7.24903 18.25 7.4998V15.6248Z" fill="#131313"/>
<path d="M17.0643 6.88946C17.4014 6.64905 17.8696 6.72721 18.1101 7.06427C18.3506 7.40145 18.2724 7.86964 17.9353 8.11017L11.7996 12.4852C11.6726 12.5758 11.5201 12.6248 11.3641 12.6248H8.63652C8.48043 12.6248 8.32806 12.5758 8.20097 12.4852L2.06425 8.11017C1.72721 7.86966 1.64906 7.40145 1.88945 7.06427C2.12996 6.72722 2.59816 6.64908 2.93534 6.88946L8.87577 11.1248H11.1248L17.0643 6.88946Z" fill="#131313"/>
</svg>
