<svg width="32" height="20" viewBox="0 0 32 20" fill="none" xmlns="http://www.w3.org/2000/svg">
<g clip-path="url(#clip0_10925_13026)">
<mask id="mask0_10925_13026" style="mask-type:luminance" maskUnits="userSpaceOnUse" x="0" y="0" width="32" height="20">
<path d="M32 0.266602H0V19.9999H32V0.266602Z" fill="white"/>
</mask>
<g mask="url(#mask0_10925_13026)">
<path d="M9.86667 19.9999C15.3159 19.9999 19.7333 15.5825 19.7333 10.1333C19.7333 4.68406 15.3159 0.266602 9.86667 0.266602C4.41745 0.266602 0 4.68406 0 10.1333C0 15.5825 4.41745 19.9999 9.86667 19.9999Z" fill="white"/>
<path d="M22.1333 19.9999C27.5825 19.9999 31.9999 15.5825 31.9999 10.1333C31.9999 4.68406 27.5825 0.266602 22.1333 0.266602C16.6841 0.266602 12.2666 4.68406 12.2666 10.1333C12.2666 15.5825 16.6841 19.9999 22.1333 19.9999Z" fill="white"/>
<path fill-rule="evenodd" clip-rule="evenodd" d="M16.0001 17.9995C20.2667 14.6661 21.0667 8.39941 17.7334 4.13275C17.2001 3.46608 16.6667 2.93275 16.0001 2.39941C11.7334 5.73275 10.9334 11.9994 14.2667 16.2661C14.8001 16.9328 15.3334 17.4661 16.0001 17.9995Z" fill="#2BA961" fill-opacity="0.25"/>
</g>
</g>
<defs>
<clipPath id="clip0_10925_13026">
<rect width="32" height="20" fill="white"/>
</clipPath>
</defs>
</svg>
