<svg width="13" height="6" viewBox="0 0 13 6" fill="none" xmlns="http://www.w3.org/2000/svg">
<path d="M12.544 2.57626C12.544 2.54826 12.5323 2.52259 12.509 2.49926C12.4857 2.47592 12.46 2.46426 12.432 2.46426L10.094 0.126257C10.0007 0.0422578 9.89333 0.000257492 9.772 0.000257492C9.65067 0.000257492 9.54333 0.0422578 9.45 0.126257C9.35667 0.210258 9.31233 0.317591 9.317 0.448257C9.32167 0.578924 9.366 0.686258 9.45 0.770257L11.032 2.35226H0.462C0.340667 2.35226 0.233333 2.39426 0.14 2.47826C0.0466667 2.56226 0 2.67659 0 2.82126C0 2.96592 0.042 3.07792 0.126 3.15726C0.21 3.23659 0.322 3.27626 0.462 3.27626H11.088L9.506 4.85826C9.422 4.94226 9.38 5.04726 9.38 5.17326C9.38 5.29926 9.422 5.40892 9.506 5.50226C9.534 5.53026 9.576 5.55592 9.632 5.57926C9.688 5.60259 9.744 5.61426 9.8 5.61426C9.856 5.61426 9.912 5.60259 9.968 5.57926C10.024 5.55592 10.066 5.53026 10.094 5.50226L12.432 3.16426C12.4507 3.14559 12.4693 3.12226 12.488 3.09426C12.5067 3.06626 12.5253 3.05226 12.544 3.05226C12.572 2.93092 12.586 2.83759 12.586 2.77226C12.586 2.70692 12.572 2.64159 12.544 2.57626Z" fill="#363636"/>
</svg>
