<svg width="20" height="20" viewBox="0 0 20 20" fill="none" xmlns="http://www.w3.org/2000/svg">
<path d="M3.125 9.375C2.77982 9.375 2.5 9.65482 2.5 10C2.5 10.3452 2.77982 10.625 3.125 10.625H16.875C17.2202 10.625 17.5 10.3452 17.5 10C17.5 9.65482 17.2202 9.375 16.875 9.375H3.125Z" fill="#242B3A"/>
<path d="M11.6919 3.93306C11.4479 3.68898 11.0513 3.68898 10.8072 3.93306C10.5631 4.17714 10.5631 4.57375 10.8072 4.81782L15.9898 10.0004L10.8072 15.1831C10.5631 15.4271 10.5631 15.8237 10.8072 16.0678C11.0513 16.3119 11.4479 16.3119 11.6919 16.0678L17.3169 10.4428C17.561 10.1987 17.561 9.80214 17.3169 9.55806L11.6919 3.93306Z" fill="#242B3A"/>
</svg>
