<svg width="57" height="20" viewBox="0 0 57 20" fill="none" xmlns="http://www.w3.org/2000/svg">
<g clip-path="url(#clip0_2076_20920)">
<rect width="57" height="20" fill="white"/>
<path fill-rule="evenodd" clip-rule="evenodd" d="M24.9512 3.39276C24.9512 3.39276 24.9512 3.39276 26.1501 3.39276C26.5869 3.39276 26.807 3.60481 26.807 4.08352C26.807 4.08352 26.807 4.08352 26.807 5.77991C26.807 5.77991 26.807 5.77991 29.1555 5.77991C29.1555 5.77991 29.1555 5.77991 29.1555 4.08352C29.1555 3.60481 29.3723 3.39276 29.865 3.39276C29.865 3.39276 29.865 3.39276 31.0113 3.39276C31.0113 3.39276 31.0113 3.39276 31.0113 4.50762C31.0113 4.50762 31.0113 4.50762 30.5219 4.50762L30.4661 4.56224C30.4661 4.56224 30.4661 4.56224 30.4661 9.33654C30.4661 9.33654 30.4661 9.33654 29.1555 9.33654C29.1555 9.33654 29.1555 9.33654 29.1555 6.94939C29.1555 6.94939 29.1555 6.94939 26.807 6.94939C26.807 6.94939 26.807 6.94939 26.807 9.33654C26.807 9.33654 26.807 9.33654 25.4964 9.33654C25.4964 9.33654 25.4964 9.33654 25.4964 4.56224C25.4964 4.56224 25.4964 4.50762 25.4406 4.50762C25.4406 4.50762 25.4406 4.50762 24.9512 4.50762C24.9512 4.50762 24.9512 4.50762 24.9512 3.39276Z" fill="#EA580C"/>
<path fill-rule="evenodd" clip-rule="evenodd" d="M34.4515 3.28711L34.4811 3.29032V4.51442L34.4515 4.50799C33.4694 4.50799 32.7041 5.30478 32.7041 6.31362C32.7041 7.37386 33.4694 8.22205 34.4515 8.22205L34.4811 8.21563V9.43972L34.4515 9.44293C32.7041 9.44293 31.2852 8.06462 31.2852 6.31362C31.2852 4.61402 32.7041 3.28711 34.4515 3.28711Z" fill="#EA580C"/>
<path fill-rule="evenodd" clip-rule="evenodd" d="M34.4805 3.28992L35.0881 3.34775C36.5301 3.62406 37.6173 4.82566 37.6173 6.31321C37.6173 7.84253 36.5301 9.09233 35.0881 9.37827L34.4805 9.43932V8.21522L35.1473 8.07385C35.791 7.7847 36.2542 7.10679 36.2542 6.31321C36.2542 5.55498 35.791 4.91883 35.1473 4.64895L34.4805 4.51401V3.28992Z" fill="#EA580C"/>
<path fill-rule="evenodd" clip-rule="evenodd" d="M37.8906 3.39276C37.8906 3.39276 37.8906 3.39276 39.7202 3.39276H40.5939V4.50762H40.5118C40.4034 4.50762 40.1833 4.50762 39.7464 4.50762C39.7464 4.50762 39.7464 4.50762 39.7464 5.7285C39.7464 5.7285 39.7464 5.7285 40.1176 5.7285H40.5939V6.78875H40.3147C40.1767 6.78875 39.9928 6.78875 39.7464 6.78875C39.7464 6.78875 39.7464 6.78875 39.7464 8.11565C39.7464 8.17027 39.7464 8.17027 39.8023 8.17027C39.8023 8.17027 39.8023 8.17027 40.1932 8.17027H40.5939V9.33654H40.4789C40.2818 9.33654 39.8844 9.33654 39.0928 9.33654C38.6559 9.33654 38.4392 9.12449 38.4392 8.64577V4.50762C38.4392 4.50762 38.4392 4.50762 37.8906 4.50762C37.8906 4.50762 37.8906 4.50762 37.8906 3.39276Z" fill="#EA580C"/>
<path fill-rule="evenodd" clip-rule="evenodd" d="M40.5938 3.39276H40.62C41.8222 3.39276 42.5317 4.02891 42.5317 4.98634C42.5317 5.56786 42.2591 5.94055 41.9864 6.20722C42.4791 6.41927 42.8043 6.94939 42.8043 7.53091C42.8043 8.64577 41.9306 9.33654 40.6759 9.33654C40.6759 9.33654 40.6759 9.33654 40.6529 9.33654H40.5938V8.17027H40.7284C41.1653 8.17027 41.4412 7.9036 41.4412 7.47951C41.4412 7.05541 41.1653 6.78875 40.7284 6.78875C40.7284 6.78875 40.7284 6.78875 40.6069 6.78875H40.5938V5.7285H40.62C41.0043 5.7285 41.2211 5.46184 41.2211 5.09236C41.2211 4.71967 41.0043 4.50762 40.62 4.50762C40.62 4.50762 40.62 4.50762 40.6069 4.50762H40.5938V3.39276Z" fill="#EA580C"/>
<path fill-rule="evenodd" clip-rule="evenodd" d="M45.3171 3.39276C45.3171 3.39276 45.3171 3.39276 45.8689 3.39276H45.9707V5.09236C45.9182 5.19838 45.8623 5.35581 45.8623 5.51646C45.8623 5.51646 45.8623 5.51646 45.4255 6.73734C45.4255 6.73734 45.4255 6.73734 45.8886 6.73734H45.9707V7.84899H45.6751C45.5076 7.84899 45.3171 7.84899 45.1003 7.84899C45.1003 7.84899 45.1003 7.84899 44.716 8.80642C44.6076 9.17589 44.3908 9.33654 43.954 9.33654C43.954 9.33654 43.954 9.33654 43.1328 9.33654C43.1328 9.33654 43.1328 9.33654 43.1328 8.17027C43.1328 8.17027 43.1328 8.17027 43.4054 8.17027C43.5171 8.17027 43.5171 8.17027 43.5697 8.11565C43.5697 8.11565 43.5697 8.11565 45.3171 3.39276Z" fill="#EA580C"/>
<path fill-rule="evenodd" clip-rule="evenodd" d="M45.9707 3.39276H46.6276C46.6276 3.39276 46.6276 3.39276 48.3751 8.11565C48.4276 8.17027 48.4276 8.17027 48.536 8.17027C48.536 8.17027 48.536 8.17027 48.7561 8.17027C48.7561 8.17027 48.7561 8.17027 48.7561 9.33654C48.7561 9.33654 48.7561 9.33654 47.9908 9.33654C47.5539 9.33654 47.3371 9.17589 47.2254 8.7518C47.2254 8.7518 47.2254 8.7518 46.8444 7.84899C46.8444 7.84899 46.8444 7.84899 46.1087 7.84899H45.9707V6.73734H46.516C46.516 6.73734 46.516 6.73734 46.0824 5.51646C46.0824 5.35581 46.0265 5.19838 45.9707 5.09236V3.39276Z" fill="#EA580C"/>
<path fill-rule="evenodd" clip-rule="evenodd" d="M24.9512 11.0332C24.9512 11.0332 24.9512 11.0332 29.7008 11.0332C30.1376 11.0332 30.4102 11.2453 30.4102 11.724C30.4102 11.724 30.4102 11.724 30.4102 15.7561C30.4102 15.8075 30.4102 15.8075 30.4661 15.8075C30.4661 15.8075 30.4661 15.8075 30.9029 15.8075C30.9029 15.8075 30.9029 15.8075 30.9029 16.977C30.9029 16.977 30.9029 16.977 29.7566 16.977C29.2639 16.977 29.0471 16.7649 29.0471 16.2862C29.0471 16.2862 29.0471 16.2862 29.0471 12.2027C29.0471 12.2027 29.0471 12.1481 28.9913 12.1481C28.9913 12.1481 28.9913 12.1481 26.807 12.1481C26.807 12.1481 26.807 12.1481 26.807 16.977C26.807 16.977 26.807 16.977 25.4964 16.977C25.4964 16.977 25.4964 16.977 25.4964 12.1481C25.4964 12.1481 25.4964 12.1481 24.9512 12.1481C24.9512 12.1481 24.9512 12.1481 24.9512 11.0332Z" fill="#EA580C"/>
<path fill-rule="evenodd" clip-rule="evenodd" d="M34.3424 10.9269L34.3686 10.9302V12.1543L34.3424 12.1478C33.357 12.1478 32.5949 12.9446 32.5949 13.9534C32.5949 15.0137 33.357 15.8619 34.3424 15.8619L34.3686 15.8555V17.0796L34.3424 17.0828C32.5949 17.0828 31.2285 15.7012 31.2285 13.9534C31.2285 12.2538 32.5949 10.9269 34.3424 10.9269Z" fill="#EA580C"/>
<path fill-rule="evenodd" clip-rule="evenodd" d="M34.3691 10.9297L34.9965 10.9875C36.4647 11.2638 37.5092 12.4654 37.5092 13.953C37.5092 15.4823 36.4647 16.7321 34.9965 17.018L34.3691 17.0791V15.855L35.0622 15.7136C35.7158 15.4245 36.1461 14.7466 36.1461 13.953C36.1461 13.1947 35.7158 12.5586 35.0622 12.2887L34.3691 12.1538V10.9297Z" fill="#EA580C"/>
<path fill-rule="evenodd" clip-rule="evenodd" d="M37.7812 11.0332C37.7812 11.0332 37.7813 11.0332 38.9834 11.0332C39.4203 11.0332 39.6371 11.2453 39.6371 11.724C39.6371 11.724 39.6371 11.724 39.6371 15.7561C39.6371 15.8075 39.6371 15.8075 39.6929 15.8075C39.6929 15.8075 39.6929 15.8075 41.2761 15.8075C41.2761 15.8075 41.2761 15.8075 41.2761 11.0332C41.2761 11.0332 41.2761 11.0332 42.5867 11.0332C42.5867 11.0332 42.5867 11.0332 42.5867 15.8075C42.5867 15.8075 42.5867 15.8075 44.1699 15.8075C44.2257 15.8075 44.2257 15.8075 44.2257 15.7561C44.2257 15.7561 44.2257 15.7561 44.2257 11.724C44.2257 11.2453 44.4425 11.0332 44.8794 11.0332C44.8794 11.0332 44.8794 11.0332 46.0815 11.0332C46.0815 11.0332 46.0815 11.0332 46.0815 12.1481C46.0815 12.1481 46.0815 12.1481 45.5888 12.1481C45.533 12.1481 45.533 12.2027 45.533 12.2027C45.533 12.2027 45.533 12.2027 45.533 16.2862C45.533 16.7649 45.3162 16.977 44.8794 16.977C44.8794 16.977 44.8794 16.977 39.036 16.977C38.5466 16.977 38.3265 16.7649 38.3265 16.2862C38.3265 16.2862 38.3265 16.2862 38.3265 12.2027C38.3265 12.2027 38.3265 12.1481 38.2739 12.1481C38.2739 12.1481 38.2739 12.1481 37.7812 12.1481C37.7812 12.1481 37.7812 12.1481 37.7812 11.0332Z" fill="#EA580C"/>
<path fill-rule="evenodd" clip-rule="evenodd" d="M47.1167 11.0332C47.1167 11.0332 47.1167 11.0332 51.2127 11.0332C51.7054 11.0332 51.8696 11.2453 51.8696 11.6693C51.8696 11.6693 51.8696 11.6693 51.8696 12.6782H50.6674C50.6674 12.6782 50.6674 12.6782 50.6674 12.2027C50.6674 12.1481 50.6674 12.1481 50.6116 12.1481C50.6116 12.1481 50.6116 12.1481 49.8495 12.1481C49.8495 12.1481 49.8495 12.1481 49.8495 16.977C49.8495 16.977 49.8495 16.977 48.5357 16.977C48.5357 16.977 48.5357 16.977 48.5357 12.1481C48.5357 12.1481 48.5357 12.1481 47.7736 12.1481C47.7178 12.1481 47.7178 12.1481 47.7178 12.2027C47.7178 12.2027 47.7178 12.2027 47.7178 12.6782C47.7178 12.6782 47.7178 12.6782 46.5156 12.6782C46.5156 12.6782 46.5156 12.6782 46.5156 11.6693C46.5156 11.2453 46.6799 11.0332 47.1167 11.0332Z" fill="#EA580C"/>
<path fill-rule="evenodd" clip-rule="evenodd" d="M53.5612 11.0332C53.5612 11.0332 53.5612 11.0332 54.1131 11.0332H54.2149V12.7328C54.159 12.8388 54.1065 12.9963 54.1065 13.1569C54.1065 13.1569 54.1065 13.1569 53.6696 14.3778C53.6696 14.3778 53.6696 14.3778 54.1295 14.3778H54.2149V15.4894H53.9193C53.7517 15.4894 53.5612 15.4894 53.3412 15.4894C53.3412 15.4894 53.3412 15.4894 52.9601 16.3922C52.8518 16.8163 52.6317 16.977 52.1948 16.977C52.1948 16.977 52.1948 16.977 51.377 16.977C51.377 16.977 51.377 16.977 51.377 15.8075C51.377 15.8075 51.377 15.8075 51.6496 15.8075C51.7613 15.8075 51.7613 15.8075 51.8138 15.7561C51.8138 15.7561 51.8138 15.7561 53.5612 11.0332Z" fill="#EA580C"/>
<path fill-rule="evenodd" clip-rule="evenodd" d="M54.2148 11.0332H54.8685C54.8685 11.0332 54.8685 11.0332 56.6192 15.7561C56.6718 15.8075 56.6718 15.8075 56.7834 15.8075H57.0002C57.0002 15.8075 57.0002 15.8075 57.0002 16.977C57.0002 16.977 57.0002 16.977 56.2349 16.977C55.798 16.977 55.5813 16.8163 55.4696 16.3922C55.4696 16.3922 55.4696 16.3922 55.0886 15.4894C55.0886 15.4894 55.0886 15.4894 54.3528 15.4894H54.2148V14.3778H54.7601C54.7601 14.3778 54.7601 14.3778 54.3232 13.1569C54.3232 12.9963 54.2707 12.8388 54.2148 12.7328V11.0332Z" fill="#EA580C"/>
<path fill-rule="evenodd" clip-rule="evenodd" d="M16.5354 5.92079C16.5978 5.90151 16.6799 5.94007 16.7621 6.04609C16.7621 6.04609 16.7621 6.04609 20.4737 9.59951C20.6905 9.81155 20.6905 10.1328 20.4737 10.2903C20.4737 10.2903 20.4737 10.2903 16.7621 13.8983C16.6799 14.0043 16.5978 14.03 16.5354 13.9979C16.473 13.9658 16.4336 13.8726 16.4336 13.7377V6.15212C16.4336 6.02039 16.473 5.94007 16.5354 5.92079Z" fill="#EA580C"/>
<path fill-rule="evenodd" clip-rule="evenodd" d="M10.1865 0H10.4493L10.7022 0.102812C10.7022 0.102812 10.7022 0.102811 14.5223 3.81687C14.6865 4.02892 14.6306 4.18956 14.358 4.18956C14.358 4.18956 14.358 4.18956 12.7748 4.18956C12.5022 4.18956 12.2854 4.40161 12.2854 4.66827C12.2854 4.66827 12.2854 4.66827 12.2854 7.4249C12.2854 7.69157 12.0653 7.90361 11.7369 7.90361C11.7369 7.90361 11.7369 7.90361 8.95479 7.90361C8.68217 7.90361 8.46209 7.69157 8.46209 7.4249C8.46209 7.4249 8.46209 7.4249 8.46209 4.66827C8.46209 4.40161 8.24531 4.18956 7.9694 4.18956H6.27781C6.00518 4.18956 5.94934 4.02892 6.11358 3.81687C6.11358 3.81687 6.11358 3.81687 9.9369 0.102812L10.1865 0Z" fill="#EA580C"/>
<path fill-rule="evenodd" clip-rule="evenodd" d="M4.2027 5.841C4.27167 5.87313 4.31437 5.9663 4.31437 6.10124V13.8442C4.31437 13.9792 4.27167 14.0595 4.2027 14.0852C4.137 14.1109 4.04175 14.0852 3.93007 14.0049C3.93007 14.0049 3.93007 14.0049 0.16259 10.2908C-0.0541966 10.1334 -0.0541966 9.81209 0.16259 9.60004C0.16259 9.60004 0.16259 9.60004 3.93007 5.9406C4.04175 5.83458 4.137 5.80888 4.2027 5.841Z" fill="#EA580C"/>
<path fill-rule="evenodd" clip-rule="evenodd" d="M8.95466 11.9357C8.95466 11.9357 8.95466 11.9357 11.7367 11.9357C12.0652 11.9357 12.2853 12.1478 12.2853 12.4144C12.2853 12.4144 12.2853 12.4144 12.2853 15.3317C12.2853 15.6498 12.5021 15.8618 12.7747 15.8618H14.2495C14.5221 15.8618 14.6305 16.0193 14.4137 16.1799C14.4137 16.1799 14.4137 16.1799 10.7021 19.8393C10.5904 19.9454 10.4557 20 10.3178 20C10.1831 20 10.0452 19.9454 9.93676 19.8393C9.93676 19.8393 9.93676 19.8393 6.22512 16.1799C6.00505 16.0193 6.11344 15.8618 6.38607 15.8618C6.38607 15.8618 6.38607 15.8618 7.96926 15.8618C8.24517 15.8618 8.46196 15.6498 8.46196 15.3317C8.46196 15.3317 8.46196 15.3317 8.46196 12.4144C8.46196 12.1478 8.68203 11.9357 8.95466 11.9357Z" fill="#EA580C"/>
</g>
<defs>
<clipPath id="clip0_2076_20920">
<rect width="57" height="20" fill="white"/>
</clipPath>
</defs>
</svg>
