<svg width="20" height="20" viewBox="0 0 20 20" fill="none" xmlns="http://www.w3.org/2000/svg">
<path d="M13.1496 12.5345L13.5292 12.1571L12.6478 11.2707L12.2683 11.6481L13.1496 12.5345ZM14.8039 11.999L16.396 12.8645L16.993 11.7663L15.4009 10.9008L14.8039 11.999ZM16.7025 14.5847L15.5186 15.7618L16.4 16.6482L17.5838 15.4711L16.7025 14.5847ZM14.7973 16.1408C13.589 16.2533 10.463 16.153 7.07852 12.7877L6.19716 13.6741C9.89054 17.3465 13.4058 17.5258 14.9133 17.3853L14.7973 16.1408ZM7.07852 12.7877C3.85237 9.57984 3.31797 6.88179 3.25144 5.71129L2.00346 5.78222C2.08717 7.25541 2.7489 10.2454 6.19716 13.6741L7.07852 12.7877ZM8.22462 7.63743L8.46362 7.39977L7.58229 6.51338L7.34328 6.75103L8.22462 7.63743ZM8.65387 4.37043L7.60308 2.96676L6.60242 3.71588L7.65321 5.11955L8.65387 4.37043ZM4.0689 2.66124L2.7609 3.96182L3.64227 4.84822L4.95027 3.54764L4.0689 2.66124ZM7.78396 7.19423C7.34328 6.75103 7.34268 6.75162 7.34208 6.75222C7.34188 6.75242 7.34128 6.75303 7.34087 6.75344C7.34006 6.75426 7.33922 6.75509 7.33838 6.75595C7.33669 6.75768 7.33494 6.75947 7.33314 6.76134C7.32953 6.76508 7.32571 6.76913 7.3217 6.77349C7.31366 6.78222 7.30483 6.7922 7.29538 6.80348C7.27649 6.82602 7.25508 6.85378 7.23258 6.88699C7.18747 6.95356 7.13832 7.04159 7.09661 7.15229C7.01151 7.37816 6.96588 7.67592 7.02308 8.04463C7.13495 8.76569 7.63154 9.71817 8.90362 10.983L9.78496 10.0966C8.59454 8.91291 8.31096 8.19258 8.25829 7.85299C8.23321 7.69139 8.25921 7.61184 8.26637 7.59301C8.27071 7.58136 8.27279 7.58017 8.26746 7.58813C8.26479 7.59202 8.26037 7.59811 8.25346 7.60632C8.25004 7.61043 8.24596 7.61508 8.24121 7.62026C8.23879 7.62285 8.23629 7.62558 8.23346 7.62844C8.23212 7.62987 8.23071 7.63133 8.22921 7.63283C8.22846 7.63358 8.22771 7.63434 8.22696 7.6351C8.22662 7.63549 8.22604 7.63607 8.22579 7.63626C8.22521 7.63684 8.22462 7.63743 7.78396 7.19423ZM8.90362 10.983C10.1761 12.2483 11.133 12.7407 11.8553 12.8515C12.2244 12.9081 12.522 12.8629 12.7477 12.7788C12.8584 12.7376 12.9465 12.689 13.0132 12.6443C13.0465 12.622 13.0744 12.6008 13.097 12.582C13.1083 12.5727 13.1183 12.5639 13.127 12.5559C13.1315 12.5519 13.1355 12.5482 13.1393 12.5446C13.1412 12.5428 13.143 12.541 13.1447 12.5393C13.1455 12.5385 13.1464 12.5377 13.1472 12.5368C13.1476 12.5364 13.1483 12.5358 13.1485 12.5357C13.149 12.5351 13.1496 12.5345 12.709 12.0913C12.2683 11.6481 12.2689 11.6475 12.2695 11.6469C12.2696 11.6468 12.2702 11.6462 12.2706 11.6458C12.2714 11.645 12.2721 11.6443 12.2729 11.6435C12.2745 11.6421 12.2759 11.6407 12.2773 11.6393C12.2802 11.6365 12.283 11.634 12.2855 11.6316C12.2907 11.6269 12.2954 11.6228 12.2995 11.6195C12.3077 11.6127 12.3138 11.6083 12.3175 11.6058C12.3253 11.6006 12.3237 11.6029 12.3114 11.6075C12.291 11.6151 12.2092 11.6412 12.0449 11.6159C11.7005 11.5632 10.975 11.2798 9.78496 10.0966L8.90362 10.983ZM7.60308 2.96676C6.75366 1.8321 5.08334 1.65256 4.0689 2.66124L4.95027 3.54764C5.39333 3.10709 6.18023 3.15193 6.60242 3.71588L7.60308 2.96676ZM3.25144 5.71129C3.23505 5.42287 3.36733 5.12159 3.64227 4.84822L2.7609 3.96182C2.31313 4.40704 1.96112 5.03729 2.00346 5.78222L3.25144 5.71129ZM15.5186 15.7618C15.2896 15.9895 15.0441 16.1178 14.7973 16.1408L14.9133 17.3853C15.5255 17.3283 16.027 17.019 16.4 16.6482L15.5186 15.7618ZM8.46362 7.39977C9.28404 6.584 9.34504 5.29367 8.65387 4.37043L7.65321 5.11955C7.98946 5.5687 7.93946 6.15824 7.58229 6.51338L8.46362 7.39977ZM16.396 12.8645C17.0775 13.235 17.1836 14.1062 16.7025 14.5847L17.5838 15.4711C18.7007 14.3605 18.3563 12.5074 16.993 11.7663L16.396 12.8645ZM13.5292 12.1571C13.8492 11.8389 14.3643 11.7601 14.8039 11.999L15.4009 10.9008C14.4979 10.4099 13.3772 10.5455 12.6478 11.2707L13.5292 12.1571Z" fill="#1C274C"/>
</svg>
