<svg width="20" height="20" viewBox="0 0 20 20" fill="none" xmlns="http://www.w3.org/2000/svg">
<g opacity="0.56">
<path d="M10 5.03906C10.6688 5.03906 11.2109 5.58122 11.2109 6.25C11.2109 6.91878 10.6688 7.46094 10 7.46094C9.33122 7.46094 8.78906 6.91878 8.78906 6.25C8.78906 5.58122 9.33122 5.03906 10 5.03906Z" fill="#131313" stroke="#131313" stroke-width="0.078125"/>
<path d="M14.375 6.25C14.375 10.625 10 13.125 10 13.125C10 13.125 5.625 10.625 5.625 6.25C5.625 5.08968 6.08594 3.97688 6.90641 3.15641C7.72688 2.33594 8.83968 1.875 10 1.875C11.1603 1.875 12.2731 2.33594 13.0936 3.15641C13.9141 3.97688 14.375 5.08968 14.375 6.25Z" stroke="#131313" stroke-width="1.25" stroke-linecap="round" stroke-linejoin="round"/>
<path d="M15.625 12.1211C17.1656 12.6898 18.125 13.4898 18.125 14.3758C18.125 16.1016 14.4875 17.5008 10 17.5008C5.5125 17.5008 1.875 16.1016 1.875 14.3758C1.875 13.4898 2.83438 12.6898 4.375 12.1211" stroke="#131313" stroke-width="1.25" stroke-linecap="round" stroke-linejoin="round"/>
</g>
</svg>
