<svg width="71" height="20" viewBox="0 0 71 20" fill="none" xmlns="http://www.w3.org/2000/svg">
<mask id="mask0_10925_13034" style="mask-type:luminance" maskUnits="userSpaceOnUse" x="0" y="0" width="71" height="20">
<path d="M70.3302 0.800781H0V19.4674H70.3302V0.800781Z" fill="white"/>
</mask>
<g mask="url(#mask0_10925_13034)">
<path d="M8.89151 0.951172H3.49953C3.13113 0.951172 2.81297 1.21783 2.76274 1.58449L0.585853 15.3178C0.535617 15.5844 0.753306 15.8344 1.03798 15.8344H3.61675C3.98514 15.8344 4.3033 15.5679 4.35354 15.2012L4.93962 11.5012C4.98986 11.1345 5.30802 10.8678 5.67642 10.8678H7.36769C10.9177 10.8678 12.9606 9.16785 13.4965 5.76785C13.7309 4.28451 13.5132 3.11783 12.8099 2.30117C12.0396 1.4345 10.6833 0.951172 8.89151 0.951172ZM9.51109 5.9845C9.20967 7.90117 7.73609 7.90117 6.31274 7.90117H5.49222L6.06156 4.31783C6.09505 4.10117 6.27925 3.93451 6.49693 3.93451H6.86533C7.83656 3.93451 8.75755 3.9345 9.22642 4.4845C9.52783 4.81783 9.61156 5.30117 9.51109 5.9845Z" fill="white"/>
<path d="M24.9838 5.91797H22.405C22.1873 5.91797 22.0031 6.08465 21.9696 6.30132L21.8524 7.018L21.6682 6.7513C21.1156 5.9513 19.8597 5.66797 18.6206 5.66797C15.7739 5.66797 13.3458 7.81797 12.8602 10.8346C12.609 12.3346 12.9607 13.768 13.8147 14.7847C14.6017 15.7014 15.7236 16.0846 17.0633 16.0846C19.3574 16.0846 20.63 14.618 20.63 14.618L20.5128 15.3346C20.4625 15.6012 20.6802 15.8514 20.9482 15.8514H23.2758C23.6441 15.8514 23.9623 15.5847 24.0125 15.218L25.4024 6.43466C25.4694 6.168 25.2517 5.91797 24.9838 5.91797ZM21.3835 10.918C21.1324 12.3846 19.9602 13.368 18.4699 13.368C17.7163 13.368 17.1302 13.1346 16.7451 12.668C16.36 12.218 16.226 11.5846 16.3432 10.868C16.5776 9.41798 17.7666 8.40132 19.2401 8.40132C19.9769 8.40132 20.563 8.65133 20.9649 9.10133C21.3333 9.55133 21.5008 10.2013 21.3835 10.918Z" fill="white"/>
<path d="M38.715 5.91797H36.1195C35.8683 5.91797 35.6338 6.03464 35.4999 6.2513L31.9331 11.4846L30.4261 6.45132C30.3256 6.13465 30.0409 5.91797 29.706 5.91797H27.1607C26.8593 5.91797 26.6416 6.21797 26.7421 6.5013L29.5888 14.8346L26.9095 18.6013C26.6919 18.9013 26.9095 19.3013 27.2779 19.3013H29.8735C30.1246 19.3013 30.3423 19.1846 30.493 18.9846L39.1169 6.60133C39.2843 6.318 39.0666 5.91797 38.715 5.91797Z" fill="white"/>
<path d="M47.2885 0.951172H41.8965C41.5281 0.951172 41.21 1.21783 41.1597 1.58449L38.9828 15.3178C38.9326 15.5844 39.1503 15.8344 39.4182 15.8344H42.1979C42.4491 15.8344 42.6668 15.6511 42.717 15.4011L43.3366 11.5012C43.3868 11.1345 43.705 10.8678 44.0734 10.8678H45.7814C49.3314 10.8678 51.3743 9.16785 51.9102 5.76785C52.1446 4.28451 51.9269 3.11783 51.2236 2.30117C50.4534 1.4345 49.097 0.951172 47.2885 0.951172ZM47.9081 5.9845C47.6067 7.90117 46.1331 7.90117 44.7097 7.90117H43.906L44.4753 4.31783C44.5088 4.10117 44.693 3.93451 44.9107 3.93451H45.2791C46.2503 3.93451 47.1713 3.9345 47.6402 4.4845C47.9248 4.81783 48.0085 5.30117 47.9081 5.9845Z" fill="white"/>
<path d="M63.3807 5.91797H60.802C60.5843 5.91797 60.4001 6.08465 60.3666 6.30132L60.2494 7.018L60.0652 6.7513C59.5126 5.9513 58.2567 5.66797 57.0175 5.66797C54.1708 5.66797 51.7428 7.81797 51.2572 10.8346C51.006 12.3346 51.3576 13.768 52.2116 14.7847C52.9987 15.7014 54.1206 16.0846 55.4602 16.0846C57.7543 16.0846 59.027 14.618 59.027 14.618L58.9098 15.3346C58.8595 15.6012 59.0772 15.8514 59.3619 15.8514H61.6895C62.0579 15.8514 62.376 15.5847 62.4263 15.218L63.8161 6.43466C63.8664 6.168 63.6487 5.91797 63.3807 5.91797ZM59.7805 10.918C59.5293 12.3846 58.3572 13.368 56.8668 13.368C56.1133 13.368 55.5272 13.1346 55.1421 12.668C54.7569 12.218 54.623 11.5846 54.7402 10.868C54.9746 9.41798 56.1635 8.40132 57.6371 8.40132C58.3739 8.40132 58.96 8.65133 59.3619 9.10133C59.747 9.55133 59.8977 10.2013 59.7805 10.918Z" fill="white"/>
<path d="M66.4115 1.3346L64.2011 15.3346C64.1509 15.6013 64.3686 15.8513 64.6365 15.8513H66.8636C67.232 15.8513 67.5502 15.5846 67.6004 15.218L69.7773 1.48461C69.8275 1.21794 69.6098 0.967946 69.3419 0.967946H66.8469C66.6459 0.951279 66.4617 1.11794 66.4115 1.3346Z" fill="white"/>
</g>
</svg>
