<svg width="20" height="20" viewBox="0 0 20 20" fill="none" xmlns="http://www.w3.org/2000/svg">
<path d="M16.875 9.375C17.2202 9.375 17.5 9.65482 17.5 10C17.5 10.3452 17.2202 10.625 16.875 10.625H3.125C2.77982 10.625 2.5 10.3452 2.5 10C2.5 9.65482 2.77982 9.375 3.125 9.375H16.875Z" fill="#242B3A"/>
<path d="M8.30806 3.93306C8.55214 3.68898 8.94875 3.68898 9.19282 3.93306C9.4369 4.17714 9.4369 4.57375 9.19282 4.81782L4.01021 10.0004L9.19282 15.1831C9.4369 15.4271 9.4369 15.8237 9.19282 16.0678C8.94875 16.3119 8.55214 16.3119 8.30806 16.0678L2.68306 10.4428C2.43898 10.1987 2.43898 9.80214 2.68306 9.55806L8.30806 3.93306Z" fill="#242B3A"/>
</svg>
