<svg width="37" height="37" viewBox="0 0 37 37" fill="none" xmlns="http://www.w3.org/2000/svg">
<path d="M9.23783 2.16681C9.07402 1.07476 9.98817 0.0056026 11.089 0.0108867C16.3732 -0.00320428 21.6573 0.00560248 26.9414 0.00560248C27.9965 -0.0807049 29.0938 0.842256 28.9776 1.93959C28.9688 5.30911 28.9864 8.67862 28.9705 12.0499C28.6165 12.411 28.1039 12.4127 27.7499 12.0517C27.727 8.5518 27.7587 5.05194 27.7358 1.55033C27.5051 1.38828 27.2726 1.19101 26.9678 1.24033C21.7348 1.23857 16.5017 1.24209 11.2687 1.23857C10.9605 1.18749 10.7227 1.383 10.4919 1.55033C10.4831 1.76169 10.4778 1.9713 10.4743 2.18266C10.115 2.55784 9.59011 2.53846 9.23783 2.16681Z" fill="black"/>
<path d="M5.56912 5.05867C5.86503 4.31889 6.56077 3.69712 7.39038 3.70593C12.6763 3.68832 17.9622 3.70065 23.248 3.69888C24.3084 3.61258 25.3987 4.54963 25.2789 5.64873C25.2754 7.78352 25.2772 9.92007 25.2789 12.0549C24.939 12.4107 24.1992 12.497 24.0653 11.9175C24.0142 9.69637 24.0636 7.46999 24.0371 5.2489C23.8046 5.08157 23.5721 4.88253 23.2639 4.93361C18.332 4.93009 13.4002 4.94242 8.46658 4.93009C7.8959 4.95651 7.23362 4.79094 6.78799 5.2489C6.77214 7.51403 6.79504 9.77915 6.77742 12.0443C6.42339 12.4124 5.91083 12.4124 5.55503 12.0478C5.54974 9.71751 5.53389 7.38721 5.56912 5.05867Z" fill="black"/>
<path d="M11.715 6.86827C11.6586 6.43497 12.0743 6.10207 12.49 6.17253C14.4363 6.17957 16.3844 6.15315 18.3307 6.17253C18.6319 6.12849 18.8661 6.31872 19.0881 6.48958C18.993 7.77538 19.7275 9.08408 20.9322 9.58255C21.5223 9.89608 22.2674 9.73755 22.8011 10.1797C22.7958 10.782 22.8468 11.3862 22.7729 11.9868C22.4999 12.4501 21.9186 12.3638 21.5839 12.0238C21.5804 11.705 21.5769 11.3862 21.5734 11.0674C19.7046 10.7979 18.1951 9.24965 17.8833 7.40373C16.2311 7.4143 14.5807 7.40549 12.9303 7.40373C12.6256 9.24965 11.1108 10.7891 9.24903 11.0692C9.24551 11.388 9.24198 11.7068 9.24022 12.0256C8.88971 12.4008 8.3701 12.4025 8.01959 12.0273C8.0143 11.4109 8.0143 10.7961 8.01959 10.1797C8.43703 9.78863 9.03062 9.87846 9.53966 9.71466C10.7726 9.35886 11.7079 8.15936 11.715 6.86827Z" fill="#2BAC62"/>
<path d="M2.38294 7.65342C2.99942 7.46143 3.78852 7.18138 4.32045 7.69922C4.31869 7.85951 4.31869 8.18008 4.31693 8.34036C3.86426 8.75781 3.18965 8.58343 2.67181 8.86701C1.4406 9.35844 0.882247 10.9824 1.47759 12.1502C1.85453 13.0908 2.90255 13.5981 3.87835 13.5681C13.0674 13.5628 22.2548 13.5699 31.4439 13.5646C31.4315 12.0252 31.4562 10.4875 31.4368 8.94804C31.0705 8.63979 30.5632 8.62218 30.1845 8.33508C30.2356 8.03388 30.1352 7.56536 30.528 7.46672C31.5372 7.19371 32.6786 8.12195 32.6716 9.16116C32.6892 10.6266 32.6751 12.0921 32.6733 13.5576C33.6949 13.4131 34.8715 13.938 35.1128 15.0125C35.1815 16.4814 35.1252 17.9557 35.1304 19.4282C34.8028 19.7594 34.2075 19.8686 33.9468 19.393C33.8482 17.9716 33.9362 16.5396 33.901 15.1146C33.6703 14.9508 33.4378 14.7518 33.133 14.8011C23.3785 14.8028 13.624 14.8046 3.86954 14.8011C2.92016 14.8152 1.94612 14.5069 1.25037 13.8447C1.22219 20.3318 1.24333 26.819 1.23805 33.3061C1.21162 34.6201 2.37237 35.7808 3.68636 35.7579C13.499 35.7632 23.3098 35.7562 33.1225 35.7615C33.4307 35.8125 33.6667 35.61 33.901 35.4479C33.9204 34.0917 33.8939 32.7337 33.9116 31.3792C33.8622 31.0057 34.2762 30.8948 34.5298 30.7521C34.7324 30.8772 34.9332 31.0075 35.1322 31.1414C35.1428 32.5012 35.1428 33.8609 35.1357 35.2225C35.1498 36.2564 34.1088 37.0754 33.1101 36.9944C23.301 36.9927 13.4902 37.0032 3.68107 36.9909C1.69953 37.0191 -0.0371908 35.2648 0.00508217 33.2867C-0.00196333 25.8889 -0.00196296 18.4912 0.00684392 11.0934C0.0086053 9.60679 0.956225 8.14133 2.38294 7.65342Z" fill="black"/>
<path d="M25.6172 21.0713C25.9377 20.9991 26.2653 20.9727 26.5947 20.9674C29.4182 20.9568 32.2434 20.9639 35.0687 20.9692C36.0445 20.9216 36.9551 21.7213 36.9815 22.7076C37.0009 24.4179 37.0009 26.13 36.9851 27.842C36.9622 28.8302 36.0427 29.6422 35.0634 29.5999C32.7137 29.5981 30.3623 29.5893 28.0126 29.6052C26.954 29.5823 25.8461 29.6985 24.8545 29.2476C23.1724 28.6047 22.0909 26.7905 22.2124 25.0115C22.3128 23.1286 23.7589 21.4289 25.6172 21.0713ZM25.633 22.3272C24.1446 22.7076 23.2005 24.3299 23.4806 25.8165C23.6655 26.706 24.1887 27.5831 25.0359 27.9794C25.6172 28.3106 26.2953 28.3828 26.9523 28.3669C29.6595 28.344 32.3685 28.3793 35.0775 28.3564C35.4632 28.4004 35.805 28.0569 35.7556 27.6694C35.7627 26.0771 35.7715 24.4831 35.7503 22.8891C35.7979 22.491 35.4491 22.1546 35.0528 22.2056C32.7067 22.1704 30.3605 22.2039 28.0161 22.2021C27.2218 22.2092 26.408 22.1105 25.633 22.3272Z" fill="#2BAC62"/>
<path d="M25.9513 23.5231C27.253 23.0246 28.6867 24.3897 28.3027 25.7125C28.0526 26.963 26.3969 27.5584 25.407 26.7534C24.2005 25.9626 24.5598 23.8894 25.9513 23.5231ZM26.2948 24.7102C25.8861 24.8318 25.7752 25.4183 26.0675 25.7089C26.3494 26.0189 26.9465 25.9185 27.0786 25.5099C27.3005 25.0379 26.7686 24.5059 26.2948 24.7102Z" fill="#2BAC62"/>
</svg>
