<svg width="50" height="35" viewBox="0 0 50 35" fill="none" xmlns="http://www.w3.org/2000/svg">
<path d="M50 14.166L50 30.8326C50 33.1302 48.1309 34.9993 45.8333 34.9993L15.8333 34.9993C13.5358 34.9993 11.6666 33.1302 11.6666 30.8326L11.6666 15.8326H13.3333L13.3333 30.8326C13.3333 32.211 14.455 33.3326 15.8333 33.3326L45.8333 33.3326C47.2116 33.3326 48.3333 32.211 48.3333 30.8326L48.3333 14.1659C48.3333 12.7876 47.2116 11.6659 45.8333 11.6659L21.6666 11.6659V9.99934L45.8333 9.99934C48.1309 9.99934 50 11.8685 50 14.166Z" fill="black"/>
<path d="M27.8028 2.00754L38.0195 10.1825L36.9778 11.4851L26.762 3.31008C25.437 2.24924 23.772 1.66594 22.0745 1.66672L1.66621 1.66672L1.66621 13.8583C1.66621 18.1633 5.16875 21.6666 9.47451 21.6666H12.4995V23.3333H9.47451C4.25039 23.3333 -0.000488281 19.0824 -0.000488281 13.8583L-0.000488281 0.833319C-0.000488281 0.372478 0.371975 1.52588e-05 0.832813 1.52588e-05L22.0736 1.52588e-05C24.147 -0.000862122 26.182 0.711637 27.8028 2.00754Z" fill="black"/>
<path d="M30.3475 20.8363C30.3308 20.2513 30.0875 19.7071 29.6625 19.3063L17.7625 8.10709L18.905 6.89293L30.8059 18.0938C31.5551 18.8013 31.9842 19.7589 32.0134 20.7888C32.0484 21.8297 31.6693 22.7988 30.97 23.5388C30.9609 23.548 30.8976 23.6147 30.8884 23.623C29.4601 25.0471 27.2184 25.143 25.67 23.8438L17.195 16.6663H14.6167C10.0117 16.6672 5.8342 13.7713 4.21926 9.45875L5.7801 8.87379C7.15256 12.5388 10.7034 15.0005 14.6167 14.9997H17.5C17.6967 14.9997 17.8884 15.0697 18.0392 15.1971L26.745 22.5696C27.6234 23.3071 28.8992 23.2529 29.75 22.4029C30.1517 21.978 30.3509 21.423 30.3475 20.8363Z" fill="black"/>
<path d="M48.3359 14.9996V16.6663L27.5026 16.6663V14.9996L48.3359 14.9996Z" fill="black"/>
<path d="M22.5 19.1666V20.8333H12.5V19.1666H22.5Z" fill="black"/>
<path d="M49.168 19.1666V20.8333L30.8347 20.8333V19.1666L49.168 19.1666Z" fill="black"/>
<path d="M45.8359 29.1666V30.8333H35.0026V29.1666H45.8359Z" fill="#2BAC62"/>
<path d="M45.8359 24.9996V26.6663H39.1692V24.9996H45.8359Z" fill="#2BAC62"/>
<path d="M22.5 25V30C22.5 30.46 22.1275 30.8333 21.6667 30.8333H16.6667C16.2059 30.8333 15.8334 30.46 15.8334 30V25C15.8334 24.54 16.2059 24.1667 16.6667 24.1667H21.6667C22.1275 24.1667 22.5 24.54 22.5 25ZM17.5 25.8333V29.1666H20.8333V25.8333H17.5Z" fill="#2BAC62"/>
</svg>
