<svg width="50" height="50" viewBox="0 0 50 50" fill="none" xmlns="http://www.w3.org/2000/svg">
<g clip-path="url(#clip0_2076_26908)">
<path d="M9.42578 44.8427H40.5678V22.6562H9.42578V44.8427ZM35.3583 24.2232H39.0111V29.4948H35.3583V24.2232ZM35.3481 31.0514H39.0008V36.4579H35.3481V31.0514ZM35.3481 38.0145H39.0008V43.2861H35.3481V38.0145ZM30.1387 24.2128H33.7915V29.4845H30.1387V24.2128ZM30.1387 31.0514H33.7915V36.4579H30.1387V31.0514ZM30.1387 38.0145H33.7915V43.2861H30.1387V38.0145ZM16.1917 24.2232H28.5821V29.4948H16.1917V24.2232ZM16.1917 31.0514H28.5821V36.4579H16.1917V31.0514ZM16.1917 38.0145H28.5821V43.2861H16.1917V38.0145ZM10.9824 24.2128H14.6351V29.4845H10.9824V24.2128ZM10.9824 31.0514H14.6351V36.4579H10.9824V31.0514ZM10.9824 38.0145H14.6351V43.2861H10.9824V38.0145Z" fill="black"/>
<path d="M33.5936 5.51289V3.70726H29.9512C29.5984 2.42049 28.7474 1.34125 27.5333 0.677113C25.9871 -0.225704 24.0051 -0.225704 22.4692 0.677113C21.2551 1.34125 20.4042 2.42049 20.0513 3.70726H16.4089V5.51289H5.12891L5.26381 50H44.8736V5.51289H33.5936ZM23.2061 2.04691L23.2372 2.02615C24.3061 1.39314 25.6759 1.39314 26.7447 2.02615L26.7759 2.04691C27.4815 2.43086 28.0108 3.01199 28.3013 3.70726H21.6807C21.9815 3.01199 22.5108 2.42049 23.2061 2.04691ZM17.9551 5.26384H32.037V7.18363H17.9551V5.26384ZM6.79964 48.4434L6.67511 7.06947H16.3882V8.75058H33.5832V7.06947H43.2963V48.4434H6.79964Z" fill="black"/>
<path d="M12.716 14.7189C13.276 14.7189 13.684 14.8289 13.94 15.0489C14.196 15.2689 14.324 15.5789 14.324 15.9789C14.324 16.1549 14.294 16.3249 14.234 16.4889C14.178 16.6489 14.084 16.7929 13.952 16.9209C13.82 17.0489 13.644 17.1509 13.424 17.2269C13.204 17.2989 12.934 17.3349 12.614 17.3349H12.122V19.0029H11.582V14.7189H12.716ZM12.668 15.1809H12.122V16.8729H12.554C12.826 16.8729 13.052 16.8449 13.232 16.7889C13.412 16.7289 13.546 16.6349 13.634 16.5069C13.722 16.3789 13.766 16.2109 13.766 16.0029C13.766 15.7269 13.678 15.5209 13.502 15.3849C13.326 15.2489 13.048 15.1809 12.668 15.1809ZM17.604 19.0029L17.088 17.6769H15.39L14.88 19.0029H14.334L16.008 14.7009H16.494L18.162 19.0029H17.604ZM16.446 15.9009C16.434 15.8689 16.414 15.8109 16.386 15.7269C16.358 15.6429 16.33 15.5569 16.302 15.4689C16.278 15.3769 16.258 15.3069 16.242 15.2589C16.222 15.3389 16.2 15.4209 16.176 15.5049C16.156 15.5849 16.134 15.6589 16.11 15.7269C16.09 15.7949 16.072 15.8529 16.056 15.9009L15.57 17.1969H16.926L16.446 15.9009ZM21.658 19.0029H21.046L19.912 17.1429L18.76 19.0029H18.19L19.612 16.7709L18.28 14.7189H18.88L19.93 16.3989L20.986 14.7189H21.556L20.23 16.7589L21.658 19.0029ZM24.0576 17.7849C23.9296 18.0689 23.7996 18.3069 23.6676 18.4989C23.5396 18.6869 23.3876 18.8289 23.2116 18.9249C23.0356 19.0169 22.8116 19.0629 22.5396 19.0629C22.4276 19.0629 22.3216 19.0549 22.2216 19.0389C22.1256 19.0229 22.0376 19.0009 21.9576 18.9729V18.4389C22.0376 18.4749 22.1236 18.5049 22.2156 18.5289C22.3076 18.5489 22.4036 18.5589 22.5036 18.5589C22.6516 18.5589 22.7776 18.5389 22.8816 18.4989C22.9896 18.4549 23.0836 18.3849 23.1636 18.2889C23.2476 18.1929 23.3256 18.0649 23.3976 17.9049L21.7476 14.7189H22.3416L23.5356 17.0769C23.5516 17.1049 23.5676 17.1389 23.5836 17.1789C23.5996 17.2149 23.6156 17.2529 23.6316 17.2929C23.6516 17.3329 23.6676 17.3709 23.6796 17.4069H23.7036C23.7156 17.3789 23.7276 17.3469 23.7396 17.3109C23.7556 17.2709 23.7696 17.2329 23.7816 17.1969C23.7976 17.1569 23.8116 17.1229 23.8236 17.0949L24.8556 14.7189H25.4256L24.0576 17.7849ZM29.2838 19.0029H28.7438V17.0049H26.5478V19.0029H26.0078V14.7189H26.5478V16.5309H28.7438V14.7189H29.2838V19.0029ZM34.193 16.8549C34.193 17.1869 34.151 17.4889 34.067 17.7609C33.983 18.0289 33.857 18.2609 33.689 18.4569C33.525 18.6529 33.319 18.8029 33.071 18.9069C32.827 19.0109 32.543 19.0629 32.219 19.0629C31.883 19.0629 31.591 19.0109 31.343 18.9069C31.095 18.7989 30.889 18.6489 30.725 18.4569C30.561 18.2609 30.439 18.0269 30.359 17.7549C30.279 17.4829 30.239 17.1809 30.239 16.8489C30.239 16.4089 30.311 16.0249 30.455 15.6969C30.599 15.3689 30.817 15.1129 31.109 14.9289C31.405 14.7449 31.777 14.6529 32.225 14.6529C32.653 14.6529 33.013 14.7449 33.305 14.9289C33.597 15.1089 33.817 15.3649 33.965 15.6969C34.117 16.0249 34.193 16.4109 34.193 16.8549ZM30.809 16.8549C30.809 17.2149 30.859 17.5249 30.959 17.7849C31.059 18.0449 31.213 18.2449 31.421 18.3849C31.633 18.5249 31.899 18.5949 32.219 18.5949C32.543 18.5949 32.807 18.5249 33.011 18.3849C33.219 18.2449 33.373 18.0449 33.473 17.7849C33.573 17.5249 33.623 17.2149 33.623 16.8549C33.623 16.3149 33.511 15.8929 33.287 15.5889C33.063 15.2809 32.709 15.1269 32.225 15.1269C31.901 15.1269 31.633 15.1969 31.421 15.3369C31.213 15.4729 31.059 15.6709 30.959 15.9309C30.859 16.1869 30.809 16.4949 30.809 16.8549ZM38.2685 19.0029H37.6205L35.6825 16.8309V19.0029H35.1425V14.7189H35.6825V16.7949L37.5725 14.7189H38.1845L36.3245 16.8009L38.2685 19.0029Z" fill="#2BAC62"/>
</g>
<defs>
<clipPath id="clip0_2076_26908">
<rect width="50" height="50" fill="white"/>
</clipPath>
</defs>
</svg>
