<svg width="86" height="77" viewBox="0 0 86 77" fill="none" xmlns="http://www.w3.org/2000/svg">
<path opacity="0.05" d="M86 0.732191L83.7835 16.0999C79.252 15.7058 75.6564 16.4939 72.9966 18.4642C70.3368 20.3359 68.5143 23.0449 67.5292 26.5913C66.6426 30.0392 66.4949 33.9796 67.0859 38.4126H86V76.3885H49.5017V36.9349C49.5017 24.03 52.5556 14.2774 58.6632 7.67722C64.7709 0.978469 73.8832 -1.33654 86 0.732191ZM36.4983 0.732191L34.2818 16.0999C29.7503 15.7058 26.1546 16.4939 23.4948 18.4642C20.8351 20.3359 19.0126 23.0449 18.0275 26.5913C17.1409 30.0392 16.9931 33.9796 17.5842 38.4126H36.4983V76.3885H0V36.9349C0 24.03 3.05384 14.2774 9.16151 7.67722C15.2692 0.978469 24.3814 -1.33654 36.4983 0.732191Z" fill="black"/>
</svg>
