<svg width="20" height="20" viewBox="0 0 20 20" fill="none" xmlns="http://www.w3.org/2000/svg">
<path d="M9.68149 0.740797C7.17516 0.734026 4.76492 1.70473 2.96288 3.44665V0.740754C2.96288 0.33164 2.63124 0 2.22213 0C1.81302 0 1.48142 0.33164 1.48142 0.740754V5.18519C1.48133 5.50415 1.68546 5.78736 1.9881 5.88814L6.43254 7.3696C6.82117 7.4989 7.24104 7.28861 7.3703 6.89998C7.49959 6.51136 7.28931 6.09148 6.90068 5.96223L3.61922 4.87039C6.65051 1.5694 11.7839 1.35073 15.0849 4.38202C18.3859 7.41331 18.6045 12.5467 15.5732 15.8477C12.5419 19.1487 7.40858 19.3673 4.10759 16.336C2.08381 14.4776 1.13789 11.7213 1.59405 9.01183C1.6658 8.60905 1.39748 8.22442 0.994746 8.15263C0.592013 8.08084 0.207335 8.3492 0.135547 8.75193C0.134765 8.75632 0.134027 8.76075 0.133333 8.76513C0.0446613 9.2956 4.34027e-05 9.83249 0 10.3703C0.00603297 15.6861 4.31379 19.9938 9.62954 20C14.9478 20.0143 19.2708 15.7146 19.2851 10.3964C19.2994 5.07811 14.9998 0.755163 9.68149 0.740797Z" fill="white"/>
</svg>
