<svg width="26" height="26" viewBox="0 0 26 26" fill="none" xmlns="http://www.w3.org/2000/svg">
<path d="M22.904 22.2044L18.796 18.0964C19.5067 17.2644 20.0613 16.3241 20.46 15.2754C20.8587 14.2267 21.058 13.1391 21.058 12.0124C21.058 10.2964 20.6247 8.70173 19.758 7.2284C18.926 5.78973 17.7907 4.64573 16.352 3.7964C14.8787 2.92973 13.2753 2.4964 11.542 2.4964C9.80867 2.4964 8.20533 2.92973 6.732 3.7964C5.29333 4.6284 4.14933 5.75507 3.3 7.1764C2.43333 8.66707 2 10.2747 2 11.9994C2 13.7241 2.43333 15.3231 3.3 16.7964C4.132 18.2351 5.25867 19.3791 6.68 20.2284C8.17067 21.1124 9.78267 21.5544 11.516 21.5544C12.6427 21.5544 13.7303 21.3551 14.779 20.9564C15.8277 20.5577 16.768 20.0031 17.6 19.2924L21.708 23.4004C21.76 23.4524 21.838 23.5001 21.942 23.5434C22.046 23.5867 22.15 23.6084 22.254 23.6084C22.358 23.6084 22.462 23.5867 22.566 23.5434C22.67 23.5001 22.748 23.4524 22.8 23.4004C23.008 23.1924 23.1163 22.9844 23.125 22.7764C23.1337 22.5684 23.06 22.3777 22.904 22.2044ZM3.716 11.9084C3.716 10.4871 4.07133 9.16973 4.782 7.9564C5.47533 6.79507 6.40267 5.86773 7.564 5.1744C8.77733 4.46373 10.0947 4.1084 11.516 4.1084C12.9373 4.1084 14.2547 4.4724 15.468 5.2004C16.6467 5.89373 17.5827 6.8384 18.276 8.0344C18.9693 9.2304 19.316 10.5304 19.316 11.9344C19.316 13.3384 18.952 14.6471 18.224 15.8604C17.5307 17.0391 16.586 17.9751 15.39 18.6684C14.194 19.3617 12.9027 19.7084 11.516 19.7084C10.112 19.7431 8.79467 19.4051 7.564 18.6944C6.40267 18.0184 5.471 17.0737 4.769 15.8604C4.067 14.6471 3.716 13.3297 3.716 11.9084Z" fill="#4FAE47"/>
</svg>
