<svg width="20" height="20" viewBox="0 0 20 20" fill="none" xmlns="http://www.w3.org/2000/svg">
<path d="M3.125 3.125V16.875H16.875V3.125H3.125ZM18.125 16.875C18.125 17.5654 17.5654 18.125 16.875 18.125H3.125C2.43464 18.125 1.875 17.5654 1.875 16.875V3.125C1.875 2.43464 2.43464 1.875 3.125 1.875H16.875C17.5654 1.875 18.125 2.43464 18.125 3.125V16.875Z" fill="#242B3A"/>
<path d="M8.75 13.75V8.75C8.75 8.40482 9.02982 8.125 9.375 8.125C9.72018 8.125 10 8.40482 10 8.75V13.75C10 14.0952 9.72018 14.375 9.375 14.375C9.02982 14.375 8.75 14.0952 8.75 13.75Z" fill="#242B3A"/>
<path d="M6.25 13.75V8.75C6.25 8.40482 6.52982 8.125 6.875 8.125C7.22018 8.125 7.5 8.40482 7.5 8.75V13.75C7.5 14.0952 7.22018 14.375 6.875 14.375C6.52982 14.375 6.25 14.0952 6.25 13.75Z" fill="#343330"/>
<path d="M13.125 13.75V10.9375C13.125 10.5231 12.96 10.126 12.667 9.83301C12.374 9.53998 11.9769 9.375 11.5625 9.375C11.1481 9.375 10.751 9.53998 10.458 9.83301C10.165 10.126 10 10.5231 10 10.9375C10 11.2827 9.72018 11.5625 9.375 11.5625C9.02982 11.5625 8.75 11.2827 8.75 10.9375C8.75 10.1916 9.04677 9.47667 9.57422 8.94922C10.1017 8.42177 10.8166 8.125 11.5625 8.125C12.3084 8.125 13.0233 8.42177 13.5508 8.94922C14.0782 9.47667 14.375 10.1916 14.375 10.9375V13.75C14.375 14.0952 14.0952 14.375 13.75 14.375C13.4048 14.375 13.125 14.0952 13.125 13.75Z" fill="#343330"/>
<path d="M6.875 7.5C7.39277 7.5 7.8125 7.08027 7.8125 6.5625C7.8125 6.04473 7.39277 5.625 6.875 5.625C6.35723 5.625 5.9375 6.04473 5.9375 6.5625C5.9375 7.08027 6.35723 7.5 6.875 7.5Z" fill="#343330"/>
</svg>
