<svg width="20" height="20" viewBox="0 0 20 20" fill="none" xmlns="http://www.w3.org/2000/svg">
<path d="M16.875 10C16.875 6.20304 13.797 3.125 10 3.125C6.20304 3.125 3.125 6.20304 3.125 10C3.125 13.797 6.20304 16.875 10 16.875C13.797 16.875 16.875 13.797 16.875 10ZM18.125 10C18.125 14.4873 14.4873 18.125 10 18.125C5.51269 18.125 1.875 14.4873 1.875 10C1.875 5.51269 5.51269 1.875 10 1.875C14.4873 1.875 18.125 5.51269 18.125 10Z" fill="#242B3A"/>
<path d="M9.375 17.5V8.75C9.375 8.08696 9.63858 7.45126 10.1074 6.98242C10.5763 6.51358 11.212 6.25 11.875 6.25H13.125C13.4702 6.25 13.75 6.52982 13.75 6.875C13.75 7.22018 13.4702 7.5 13.125 7.5H11.875C11.5435 7.5 11.2256 7.63179 10.9912 7.86621C10.7568 8.10063 10.625 8.41848 10.625 8.75V17.5C10.625 17.8452 10.3452 18.125 10 18.125C9.65482 18.125 9.375 17.8452 9.375 17.5Z" fill="#242B3A"/>
<path d="M12.5 10.625C12.8452 10.625 13.125 10.9048 13.125 11.25C13.125 11.5952 12.8452 11.875 12.5 11.875H7.5C7.15482 11.875 6.875 11.5952 6.875 11.25C6.875 10.9048 7.15482 10.625 7.5 10.625H12.5Z" fill="#343330"/>
</svg>
