<svg width="20" height="20" viewBox="0 0 20 20" fill="none" xmlns="http://www.w3.org/2000/svg">
<path d="M7.50001 2.5C7.7136 2.5 7.91261 2.60893 8.02735 2.78906L16.7774 16.5391C16.8998 16.7315 16.9076 16.9758 16.7979 17.1758C16.6881 17.3757 16.4781 17.5 16.25 17.5H12.5C12.2864 17.5 12.0874 17.3911 11.9727 17.2109L3.22267 3.46094C3.1002 3.26849 3.09239 3.02418 3.20216 2.82422C3.31193 2.62427 3.52191 2.5 3.75001 2.5H7.50001ZM12.8438 16.25H15.1113L7.15626 3.75H4.88868L12.8438 16.25Z" fill="#242B3A"/>
<path d="M8.43479 10.7922C8.66697 10.5372 9.0623 10.5183 9.3176 10.7502C9.57302 10.9824 9.59178 11.3786 9.35959 11.634L4.21311 17.2951C3.98092 17.5506 3.58473 17.5693 3.32932 17.3371C3.07429 17.105 3.0554 16.7096 3.28733 16.4543L8.43479 10.7922Z" fill="#343330"/>
<path d="M15.7864 2.70432C16.0185 2.44929 16.4139 2.4304 16.6692 2.66233C16.9246 2.89452 16.9433 3.2907 16.7112 3.54612L11.5647 9.20725C11.3325 9.46266 10.9363 9.48143 10.6809 9.24924C10.4259 9.01706 10.407 8.62173 10.6389 8.36643L15.7864 2.70432Z" fill="#343330"/>
</svg>
