<svg width="20" height="20" viewBox="0 0 20 20" fill="none" xmlns="http://www.w3.org/2000/svg">
<path d="M3.125 10C3.125 8.07539 3.44184 6.05369 4.47949 4.49707C5.54708 2.89569 7.31793 1.875 10 1.875C11.6862 1.875 13.0261 2.27725 14.0615 2.99805C15.0958 3.71815 15.7772 4.72209 16.208 5.8418C16.3319 6.16386 16.1716 6.52538 15.8496 6.64941C15.5275 6.7733 15.166 6.61298 15.042 6.29102C14.6806 5.35159 14.1342 4.57161 13.3467 4.02344C12.5601 3.47603 11.4831 3.125 10 3.125C7.68221 3.125 6.32794 3.97943 5.52051 5.19043C4.68328 6.44627 4.375 8.17471 4.375 10C4.375 11.8253 4.68328 13.5537 5.52051 14.8096C6.32794 16.0206 7.68221 16.875 10 16.875C13.4571 16.875 15 14.6047 15 13.125C15 12.0649 14.5777 11.3 13.9521 10.7705C13.8789 10.7086 13.8018 10.6497 13.7227 10.5938C13.5115 12.9975 12.0209 14.3329 10.415 14.6006C9.57448 14.7406 8.70317 14.5835 8.02539 14.1191C7.33087 13.6432 6.875 12.8657 6.875 11.875C6.875 10.6724 7.541 9.78443 8.45215 9.24707C9.34603 8.71991 10.4951 8.50993 11.6104 8.5957C11.8467 8.61389 12.084 8.64862 12.3203 8.69434C12.2177 8.36188 12.0792 8.08906 11.918 7.86914C11.5827 7.41205 11.127 7.13703 10.6299 7.0127C9.58806 6.75224 8.47332 7.16773 8.02051 7.84668C7.82909 8.13381 7.4405 8.21179 7.15332 8.02051C6.86619 7.82909 6.78821 7.4405 6.97949 7.15332C7.77673 5.95746 9.4746 5.4354 10.9326 5.7998C11.6853 5.98797 12.4018 6.4163 12.9258 7.13086C13.3163 7.66345 13.5823 8.33162 13.6924 9.13477C14.0741 9.31505 14.4345 9.54107 14.7588 9.81543C15.6564 10.5749 16.25 11.6854 16.25 13.125C16.25 15.3953 14.0429 18.125 10 18.125C7.31793 18.125 5.54708 17.1043 4.47949 15.5029C3.44184 13.9463 3.125 11.9246 3.125 10ZM8.125 11.875C8.125 12.4467 8.37234 12.8412 8.73242 13.0879C9.10928 13.346 9.64439 13.4624 10.21 13.3682C11.2858 13.1888 12.4923 12.2268 12.499 10.0186C12.182 9.92734 11.8505 9.86764 11.5146 9.8418C10.5987 9.77134 9.71645 9.95199 9.08691 10.3232C8.47464 10.6843 8.125 11.2026 8.125 11.875Z" fill="#242B3A"/>
</svg>
