<svg width="20" height="20" viewBox="0 0 20 20" fill="none" xmlns="http://www.w3.org/2000/svg">
<path d="M17.4999 6.76904C17.4998 6.37296 17.4219 5.98068 17.2704 5.61475C17.1187 5.24863 16.8963 4.91544 16.6161 4.63525C16.3359 4.35499 16.0027 4.13264 15.6366 3.98096C15.2706 3.82938 14.8784 3.75152 14.4823 3.75146C14.086 3.75146 13.6931 3.82929 13.327 3.98096C12.961 4.13258 12.6286 4.35514 12.3485 4.63525L11.4891 5.49463C11.245 5.73871 10.8484 5.73871 10.6044 5.49463C10.3607 5.25056 10.3605 4.85481 10.6044 4.61084L11.4637 3.75146C11.8599 3.35514 12.3308 3.04118 12.8485 2.82666C13.3663 2.61214 13.9218 2.50146 14.4823 2.50146C15.0426 2.50152 15.5974 2.61219 16.1151 2.82666C16.6329 3.04118 17.1036 3.35512 17.4999 3.75146C17.8962 4.14771 18.2102 4.61847 18.4247 5.13623C18.6391 5.65392 18.7498 6.20869 18.7499 6.76904C18.7499 7.32952 18.6392 7.88503 18.4247 8.40283C18.2101 8.92054 17.8962 9.39139 17.4999 9.7876L17.4989 9.78662L14.787 12.4995C14.3904 12.8962 13.9195 13.2108 13.4012 13.4253C12.8828 13.6398 12.3266 13.7499 11.7655 13.7495C11.2045 13.7491 10.6488 13.6386 10.1307 13.4233C9.61268 13.208 9.14202 12.892 8.74596 12.4946C8.33653 12.0849 8.01452 11.5954 7.80065 11.0571C7.58649 10.5181 7.48488 9.94059 7.50182 9.36084C7.51213 9.01612 7.79964 8.74447 8.1444 8.75439C8.48943 8.76448 8.76092 9.05292 8.75084 9.39795C8.7389 9.80732 8.81156 10.2146 8.96275 10.5952C9.09512 10.9284 9.28552 11.2351 9.52525 11.5005L9.63072 11.6118L9.6317 11.6128C9.91175 11.8937 10.2449 12.1168 10.6112 12.269C10.9774 12.4212 11.37 12.4992 11.7665 12.4995C12.1631 12.4998 12.5562 12.4226 12.9227 12.271C13.2893 12.1193 13.6227 11.8963 13.9032 11.6157L16.6161 8.90283L16.8153 8.68311C17.003 8.45429 17.1567 8.19874 17.2704 7.92432C17.422 7.5582 17.4999 7.16533 17.4999 6.76904Z" fill="#242B3A"/>
<path d="M8.23047 6.25C8.79084 6.25 9.34557 6.36076 9.86328 6.5752C10.3806 6.7895 10.8511 7.10323 11.2471 7.49902C11.659 7.90908 11.9831 8.39951 12.1982 8.93945C12.4133 9.47932 12.5151 10.0578 12.498 10.6387C12.4879 10.9835 12.2003 11.255 11.8555 11.2451C11.5104 11.235 11.2389 10.9466 11.249 10.6016C11.261 10.1916 11.1889 9.78338 11.0371 9.40234C10.8852 9.02106 10.6561 8.67433 10.3652 8.38477L10.3643 8.38379C10.0842 8.10365 9.7517 7.88115 9.38574 7.72949C9.01963 7.57781 8.62677 7.5 8.23047 7.5C7.83418 7.5 7.44131 7.57781 7.0752 7.72949C6.80079 7.84321 6.5452 7.99683 6.31641 8.18457L6.09668 8.38379L3.38379 11.0967C2.8185 11.662 2.50073 12.4291 2.5 13.2285C2.49939 14.0279 2.81565 14.7951 3.37988 15.3613C3.65998 15.6423 3.99301 15.8653 4.35938 16.0176C4.72573 16.1698 5.1189 16.2477 5.51563 16.248C5.91227 16.2483 6.30537 16.1712 6.67188 16.0195C7.03836 15.8679 7.37091 15.6447 7.65137 15.3643L8.51074 14.5049C8.75482 14.2608 9.15143 14.2608 9.39551 14.5049C9.63929 14.7489 9.63926 15.1446 9.39551 15.3887L8.53613 16.248C8.13942 16.6448 7.66786 16.9593 7.14942 17.1738C6.63107 17.3883 6.07563 17.4984 5.51465 17.498C4.95367 17.4976 4.39792 17.3871 3.87988 17.1719C3.36177 16.9565 2.89123 16.6405 2.49512 16.2432C1.69698 15.4422 1.24897 14.3573 1.25 13.2266C1.25113 12.0961 1.70066 11.0122 2.5 10.2129L5.21289 7.5C5.60911 7.10373 6.07996 6.78968 6.59766 6.5752C7.11537 6.36075 7.6701 6.25 8.23047 6.25Z" fill="#242B3A"/>
</svg>
