<svg width="33" height="33" viewBox="0 0 33 33" fill="none" xmlns="http://www.w3.org/2000/svg">
<path fill-rule="evenodd" clip-rule="evenodd" d="M16.5 3.78125C9.47563 3.78125 3.78125 9.47563 3.78125 16.5C3.78125 23.5243 9.47563 29.2187 16.5 29.2187C23.5243 29.2187 29.2187 23.5243 29.2187 16.5C29.2187 9.47563 23.5243 3.78125 16.5 3.78125ZM1.71875 16.5C1.71875 8.33654 8.33654 1.71875 16.5 1.71875C24.6635 1.71875 31.2812 8.33654 31.2812 16.5C31.2812 24.6635 24.6635 31.2812 16.5 31.2812C8.33654 31.2812 1.71875 24.6635 1.71875 16.5ZM11.7609 22.5466C13.098 21.5555 14.7331 20.9687 16.5 20.9687C18.2669 20.9687 19.902 21.5555 21.2391 22.5466C21.6967 22.8856 21.7926 23.5315 21.4534 23.9891C21.1144 24.4467 20.4685 24.5427 20.0109 24.2034C19.0094 23.4612 17.8006 23.0312 16.5 23.0312C15.1994 23.0312 13.9906 23.4612 12.9891 24.2034C12.5315 24.5427 11.8857 24.4467 11.5465 23.9891C11.2074 23.5315 11.3034 22.8856 11.7609 22.5466Z" fill="#D3D3D3"/>
<path d="M22 14.4375C22 15.5766 21.3844 16.5 20.625 16.5C19.8656 16.5 19.25 15.5766 19.25 14.4375C19.25 13.2984 19.8656 12.375 20.625 12.375C21.3844 12.375 22 13.2984 22 14.4375Z" fill="#D3D3D3"/>
<path d="M13.75 14.4375C13.75 15.5766 13.1344 16.5 12.375 16.5C11.6156 16.5 11 15.5766 11 14.4375C11 13.2984 11.6156 12.375 12.375 12.375C13.1344 12.375 13.75 13.2984 13.75 14.4375Z" fill="#D3D3D3"/>
</svg>
