<svg width="33" height="33" viewBox="0 0 33 33" fill="none" xmlns="http://www.w3.org/2000/svg">
<path fill-rule="evenodd" clip-rule="evenodd" d="M16.5 3.78125C9.47563 3.78125 3.78125 9.47563 3.78125 16.5C3.78125 23.5243 9.47563 29.2188 16.5 29.2188C23.5243 29.2188 29.2188 23.5243 29.2188 16.5C29.2188 9.47563 23.5243 3.78125 16.5 3.78125ZM1.71875 16.5C1.71875 8.33654 8.33654 1.71875 16.5 1.71875C24.6635 1.71875 31.2813 8.33654 31.2813 16.5C31.2813 24.6635 24.6635 31.2812 16.5 31.2812C8.33654 31.2812 1.71875 24.6635 1.71875 16.5ZM11.5465 21.3859C11.8857 20.9283 12.5315 20.8323 12.9891 21.1716C13.9906 21.9138 15.1994 22.3438 16.5 22.3438C17.8006 22.3438 19.0094 21.9138 20.0109 21.1716C20.4685 20.8323 21.1144 20.9283 21.4534 21.3859C21.7927 21.8435 21.6967 22.4894 21.2391 22.8284C19.902 23.8195 18.2669 24.4062 16.5 24.4062C14.7331 24.4062 13.098 23.8195 11.7609 22.8284C11.3034 22.4894 11.2074 21.8435 11.5465 21.3859Z" fill="#4FAE47"/>
<path d="M22 14.4375C22 15.5766 21.3844 16.5 20.625 16.5C19.8656 16.5 19.25 15.5766 19.25 14.4375C19.25 13.2984 19.8656 12.375 20.625 12.375C21.3844 12.375 22 13.2984 22 14.4375Z" fill="#4FAE47"/>
<path d="M13.75 14.4375C13.75 15.5766 13.1344 16.5 12.375 16.5C11.6156 16.5 11 15.5766 11 14.4375C11 13.2984 11.6156 12.375 12.375 12.375C13.1344 12.375 13.75 13.2984 13.75 14.4375Z" fill="#4FAE47"/>
</svg>
