<svg width="33" height="33" viewBox="0 0 33 33" fill="none" xmlns="http://www.w3.org/2000/svg">
<path fill-rule="evenodd" clip-rule="evenodd" d="M16.5 3.78125C9.47563 3.78125 3.78125 9.47563 3.78125 16.5C3.78125 23.5243 9.47563 29.2187 16.5 29.2187C23.5243 29.2187 29.2187 23.5243 29.2187 16.5C29.2187 9.47563 23.5243 3.78125 16.5 3.78125ZM1.71875 16.5C1.71875 8.33654 8.33654 1.71875 16.5 1.71875C24.6635 1.71875 31.2812 8.33654 31.2812 16.5C31.2812 24.6635 24.6635 31.2812 16.5 31.2812C8.33654 31.2812 1.71875 24.6635 1.71875 16.5ZM11.3437 22C11.3437 21.4305 11.8055 20.9687 12.375 20.9687H20.625C21.1945 20.9687 21.6562 21.4305 21.6562 22C21.6562 22.5695 21.1945 23.0312 20.625 23.0312H12.375C11.8055 23.0312 11.3437 22.5695 11.3437 22Z" fill="#D3D3D3"/>
<path d="M22 14.4375C22 15.5766 21.3844 16.5 20.625 16.5C19.8656 16.5 19.25 15.5766 19.25 14.4375C19.25 13.2984 19.8656 12.375 20.625 12.375C21.3844 12.375 22 13.2984 22 14.4375Z" fill="#D3D3D3"/>
<path d="M13.75 14.4375C13.75 15.5766 13.1344 16.5 12.375 16.5C11.6156 16.5 11 15.5766 11 14.4375C11 13.2984 11.6156 12.375 12.375 12.375C13.1344 12.375 13.75 13.2984 13.75 14.4375Z" fill="#D3D3D3"/>
</svg>
