<svg width="25" height="25" viewBox="0 0 25 25" fill="none" xmlns="http://www.w3.org/2000/svg">
<path d="M22.1832 14.9236C20.9699 14.7929 19.9619 14.5223 19.1592 14.1116C18.5806 13.8876 17.9879 13.8456 17.3812 13.9856C16.7746 14.1256 16.2379 14.4009 15.7712 14.8116L14.7072 15.9876C12.3552 14.4569 10.4139 12.5156 8.88323 10.1636L9.94723 9.09959C10.3952 8.65159 10.6799 8.12425 10.8012 7.51759C10.9226 6.91092 10.8712 6.30892 10.6472 5.71159C10.3112 4.83425 10.0779 3.82625 9.94723 2.68759C9.81656 1.92225 9.43856 1.28292 8.81323 0.769587C8.18789 0.256254 7.47389 -0.000413895 6.67123 -0.000413895H2.94723C2.36856 0.0369205 1.85056 0.223587 1.39323 0.559587C0.935892 0.895586 0.581226 1.32492 0.329226 1.84759C0.0772258 2.37025 -0.0301075 2.92092 0.00722581 3.49959C0.193892 5.36625 0.604559 7.19092 1.23923 8.97359C1.87389 10.7563 2.71389 12.4316 3.75923 13.9996C5.62589 16.9489 8.03389 19.3569 10.9832 21.2236C12.5699 22.2129 14.2499 23.0249 16.0232 23.6596C17.7966 24.2943 19.6166 24.7329 21.4832 24.9756H21.8472C22.2392 24.9756 22.6312 24.8916 23.0232 24.7236C23.4152 24.5556 23.7606 24.3269 24.0592 24.0376C24.3579 23.7483 24.5866 23.4076 24.7452 23.0156C24.9039 22.6236 24.9832 22.2223 24.9832 21.8116V18.3116C24.9832 17.4529 24.7219 16.7063 24.1992 16.0716C23.6766 15.4369 23.0046 15.0543 22.1832 14.9236ZM23.1072 18.1996V21.6996C23.1072 22.0916 22.9579 22.4463 22.6592 22.7636C22.3232 23.0623 21.9686 23.2116 21.5952 23.2116H21.4832C19.7659 23.0436 18.0952 22.6703 16.4712 22.0916C14.7912 21.4943 13.2326 20.7009 11.7952 19.7116C10.4699 18.8529 9.23323 17.8496 8.08523 16.7016C6.93723 15.5536 5.92456 14.3076 5.04723 12.9636C4.11389 11.5076 3.35323 9.95825 2.76523 8.31559C2.17723 6.67292 1.77123 4.99292 1.54723 3.27559C1.60323 2.84625 1.77123 2.48692 2.05123 2.19759C2.33123 1.90825 2.66723 1.76359 3.05923 1.76359H6.67123C7.02589 1.76359 7.34789 1.88959 7.63723 2.14159C7.92656 2.39359 8.07123 2.68759 8.07123 3.02359C8.10856 3.50892 8.20189 4.05025 8.35123 4.64759C8.44456 5.02092 8.59389 5.56225 8.79923 6.27159L8.88323 6.52359C8.99523 6.82225 9.02323 7.10692 8.96723 7.37759C8.91123 7.64825 8.77123 7.87692 8.54723 8.06359L7.25923 9.46359C7.09123 9.57559 6.99323 9.72959 6.96523 9.92559C6.93723 10.1216 6.95123 10.3129 7.00723 10.4996C7.88456 12.0116 8.95323 13.3976 10.2132 14.6576C11.4732 15.9176 12.8592 16.9863 14.3712 17.8636C14.5392 17.9756 14.7259 18.0129 14.9312 17.9756C15.1366 17.9383 15.2952 17.8543 15.4072 17.7236L16.9472 16.2116C17.1339 16.0249 17.3766 15.8943 17.6752 15.8196C17.9739 15.7449 18.2352 15.7636 18.4592 15.8756C19.5419 16.3049 20.7086 16.5756 21.9592 16.6876C22.3139 16.7436 22.6126 16.9256 22.8552 17.2336C23.0979 17.5416 23.1819 17.8636 23.1072 18.1996ZM14.7072 1.62359C16.2192 1.77292 17.5912 2.23959 18.8232 3.02359C20.0552 3.80759 21.0632 4.81559 21.8472 6.04759C22.6312 7.27959 23.0979 8.65159 23.2472 10.1636C23.2472 10.3876 23.3359 10.5789 23.5132 10.7376C23.6906 10.8963 23.8726 10.9756 24.0592 10.9756H24.1712C24.3952 10.9756 24.5866 10.8776 24.7452 10.6816C24.9039 10.4856 24.9832 10.2663 24.9832 10.0236C24.7966 8.26892 24.2272 6.65425 23.2752 5.17959C22.3606 3.74225 21.1706 2.56625 19.7052 1.65159C18.2399 0.736919 16.6206 0.186253 14.8472 -0.000413895C14.6046 -0.000413895 14.3852 0.0789204 14.1892 0.237587C13.9932 0.396254 13.8952 0.578253 13.8952 0.783587C13.8952 0.98892 13.9746 1.18025 14.1332 1.35759C14.2919 1.53492 14.4832 1.62359 14.7072 1.62359ZM13.8952 5.37559C13.8392 5.59959 13.8859 5.81425 14.0352 6.01959C14.1846 6.22492 14.3712 6.35559 14.5952 6.41159C15.5659 6.59825 16.4106 7.05559 17.1292 7.78359C17.8479 8.51159 18.3286 9.37959 18.5712 10.3876C18.6272 10.6116 18.7299 10.7843 18.8792 10.9056C19.0286 11.0269 19.1966 11.0876 19.3832 11.0876H19.4952C19.7379 11.0316 19.9292 10.9009 20.0692 10.6956C20.2092 10.4903 20.2512 10.2663 20.1952 10.0236C19.9712 8.69825 19.3786 7.55025 18.4172 6.57959C17.4559 5.60892 16.3032 4.97425 14.9592 4.67559C14.7166 4.61959 14.4926 4.65225 14.2872 4.77359C14.0819 4.89492 13.9512 5.09559 13.8952 5.37559Z" fill="white"/>
</svg>
