<svg width="20" height="20" viewBox="0 0 20 20" fill="none" xmlns="http://www.w3.org/2000/svg">
<g opacity="0.56">
<path d="M12.0344 3.14575C13.1926 3.45074 14.2491 4.05768 15.0959 4.90454C15.9428 5.7514 16.5498 6.80791 16.8547 7.96606C16.9426 8.29986 16.7432 8.64184 16.4094 8.72974C16.0756 8.81763 15.7337 8.61822 15.6458 8.28442C15.3971 7.34022 14.9026 6.47874 14.2122 5.78833C13.5217 5.09792 12.6603 4.60338 11.7161 4.35474C11.3823 4.26684 11.1829 3.92486 11.2708 3.59106C11.3587 3.25727 11.7006 3.05785 12.0344 3.14575Z" fill="#131313"/>
<path d="M11.411 5.6463C12.9174 6.04937 13.9503 7.0822 14.3533 8.58868C14.4423 8.92203 14.2443 9.26415 13.9109 9.35333C13.5776 9.44234 13.2355 9.24429 13.1463 8.91095C12.8587 7.83647 12.1632 7.14091 11.0887 6.85333C10.7553 6.76415 10.5573 6.42203 10.6463 6.08868C10.7355 5.75534 11.0776 5.5573 11.411 5.6463Z" fill="#131313"/>
<path d="M5.70117 2.50873C5.96935 2.47687 6.24083 2.53271 6.47461 2.66791C6.70521 2.80129 6.88641 3.0051 6.99317 3.24897H6.99414L8.64453 6.93647L8.64844 6.94525V6.94623C8.72944 7.13552 8.76306 7.34171 8.74512 7.54682C8.72714 7.75195 8.6586 7.94967 8.5459 8.12201C8.53223 8.1429 8.51704 8.16346 8.50098 8.18256L6.87695 10.1122C7.46115 11.3002 8.71622 12.5397 9.91113 13.1201L11.8135 11.5029L11.8721 11.4589C12.0451 11.3438 12.2442 11.2736 12.4512 11.2548C12.6063 11.2407 12.7623 11.2558 12.9111 11.2988L13.0576 11.3515L13.0664 11.3554L16.751 13.0058H16.75C16.9942 13.1125 17.1985 13.2944 17.332 13.5253C17.4671 13.7591 17.5231 14.0307 17.4912 14.2988L17.4902 14.3076C17.3488 15.3648 16.8274 16.3349 16.0244 17.0371C15.2717 17.6951 14.319 18.0757 13.3242 18.1201L13.125 18.1249C10.1414 18.1249 7.27969 16.9397 5.16992 14.83C3.19202 12.8521 2.02663 10.2131 1.88867 7.43256L1.875 6.87494C1.87422 5.80836 2.2608 4.77747 2.96289 3.97455C3.665 3.17169 4.63524 2.65117 5.69238 2.50971L5.70117 2.50873ZM3.125 6.87494C3.12509 9.52684 4.17863 12.07 6.05371 13.9453C7.92908 15.8206 10.4728 16.8749 13.125 16.8749C13.8887 16.8755 14.6273 16.5983 15.2021 16.0956C15.7747 15.5949 16.1461 14.9038 16.249 14.1503L16.2393 14.1464V14.1454L12.5674 12.5009L10.667 14.1191C10.6496 14.1338 10.6312 14.1473 10.6123 14.1601C10.4331 14.2811 10.2254 14.3538 10.0098 14.3701C9.79414 14.3863 9.57814 14.3456 9.38281 14.2529L9.37891 14.2519C7.92774 13.5519 6.45746 12.0996 5.74902 10.6494L5.74707 10.6454C5.65405 10.4514 5.61308 10.2362 5.62793 10.0214C5.64282 9.80666 5.71311 9.59932 5.83203 9.41986C5.84514 9.40009 5.85974 9.38138 5.875 9.36322L7.49707 7.43256L5.85254 3.75971L5.84863 3.74994C5.09537 3.85301 4.40493 4.22533 3.9043 4.79779C3.40164 5.37263 3.12446 6.11036 3.125 6.87397V6.87494Z" fill="#131313"/>
</g>
</svg>
