<svg width="17" height="18" viewBox="0 0 17 18" fill="none" xmlns="http://www.w3.org/2000/svg">
<path d="M10.8094 11.5926L10.4173 12.0106C10.4173 12.0106 9.48529 13.0043 6.94138 10.2921C4.39749 7.57988 5.32946 6.58624 5.32946 6.58624L5.57638 6.32299C6.18466 5.67449 6.242 4.63333 5.7113 3.87324L4.62574 2.31841C3.96891 1.37765 2.69969 1.25338 1.94684 2.05603L0.5956 3.49667C0.222304 3.89466 -0.0278511 4.41057 0.0024864 4.9829C0.080095 6.44709 0.697924 9.59735 4.14546 13.273C7.8014 17.1708 11.2318 17.3257 12.6346 17.1855C13.0783 17.1411 13.4641 16.8989 13.7751 16.5673L14.998 15.2635C15.8235 14.3834 15.5908 12.8746 14.5345 12.2589L12.8898 11.3002C12.1963 10.896 11.3514 11.0147 10.8094 11.5926Z" fill="#363636"/>
<path d="M8.83239 0.549083C8.88938 0.192616 9.22211 -0.0491929 9.57412 0.00851097C9.5959 0.0127392 9.66606 0.0260078 9.70274 0.0342899C9.77626 0.0508626 9.8787 0.0763626 10.0065 0.11405C10.262 0.189408 10.6189 0.31356 11.0473 0.512442C11.905 0.910641 13.0463 1.6072 14.2307 2.80661C15.4151 4.00603 16.103 5.16186 16.4961 6.03041C16.6926 6.46423 16.8152 6.82567 16.8896 7.0844C16.9267 7.21379 16.952 7.31755 16.9683 7.39194C16.9765 7.42914 16.9825 7.459 16.9867 7.48107L16.9917 7.50827C17.0486 7.8647 16.812 8.21568 16.46 8.2734C16.109 8.33094 15.7783 8.09023 15.72 7.7355C15.7182 7.72591 15.7132 7.70037 15.7079 7.67622C15.6972 7.62792 15.6789 7.55136 15.6498 7.45009C15.5915 7.24755 15.4904 6.94649 15.3223 6.57539C14.9867 5.8341 14.3833 4.81046 13.3176 3.73129C12.252 2.65213 11.2411 2.04102 10.5091 1.70117C10.1426 1.53103 9.84539 1.42856 9.64532 1.36956C9.54537 1.34007 9.41968 1.31086 9.37199 1.30011C9.02161 1.24097 8.77557 0.90453 8.83239 0.549083Z" fill="#363636"/>
<path fill-rule="evenodd" clip-rule="evenodd" d="M9.0289 3.55646C9.12687 3.20924 9.48422 3.00818 9.82711 3.10739L9.64977 3.73608C9.82711 3.10739 9.82711 3.10739 9.82711 3.10739L9.8284 3.10775L9.8297 3.10814L9.83254 3.10898L9.83925 3.111L9.8563 3.11637C9.86921 3.12058 9.88548 3.12605 9.90476 3.133C9.94342 3.1469 9.99455 3.16665 10.0572 3.19385C10.1827 3.24829 10.354 3.33234 10.5645 3.4585C10.9859 3.71104 11.5611 4.13053 12.2369 4.81486C12.9127 5.4992 13.3269 6.08171 13.5763 6.50843C13.7008 6.72159 13.7838 6.89513 13.8376 7.02214C13.8645 7.08561 13.884 7.13736 13.8977 7.17651C13.9046 7.19608 13.9099 7.2125 13.9142 7.22565L13.9194 7.2429L13.9214 7.24965L13.9222 7.25256L13.9226 7.2539C13.9226 7.2539 13.923 7.25516 13.3022 7.43478L13.923 7.25516C14.021 7.60237 13.8224 7.96424 13.4796 8.06345C13.1396 8.16178 12.7854 7.96502 12.6839 7.62322L12.6807 7.61382C12.6761 7.60072 12.6666 7.57493 12.6507 7.53727C12.6189 7.462 12.5611 7.33887 12.465 7.17446C12.2731 6.84602 11.9264 6.34976 11.3238 5.73954C10.7212 5.12933 10.2311 4.77825 9.90683 4.58387C9.74447 4.48656 9.62291 4.42806 9.54853 4.39581C9.51134 4.37967 9.48586 4.37005 9.47295 4.3654L9.46365 4.36218C9.12618 4.25942 8.93179 3.90072 9.0289 3.55646Z" fill="#363636"/>
</svg>
