<svg width="56" height="56" viewBox="0 0 56 56" fill="none" xmlns="http://www.w3.org/2000/svg">
<g opacity="0.2">
<path d="M45.985 55.0467C34.0341 56.3217 21.9815 56.3217 10.0307 55.0467C7.70998 54.8016 5.54335 53.7685 3.89207 52.1195C2.24077 50.4705 1.20458 48.3053 0.956252 45.985C-0.318751 34.0341 -0.318751 21.9815 0.956252 10.0307C1.20132 7.70998 2.23447 5.54335 3.88345 3.89207C5.53243 2.24077 7.69759 1.20458 10.018 0.956252C21.9688 -0.318751 34.0214 -0.318751 45.9723 0.956252C48.293 1.20132 50.4596 2.23447 52.1109 3.88345C53.7622 5.53243 54.7983 7.69759 55.0467 10.018C56.3217 21.9688 56.3217 34.0214 55.0467 45.9723C54.8016 48.293 53.7685 50.4596 52.1195 52.1109C50.4705 53.7622 48.3053 54.7983 45.985 55.0467Z" fill="#D77655"/>
<path d="M45.985 55.0467C34.0341 56.3217 21.9815 56.3217 10.0307 55.0467C7.70998 54.8016 5.54335 53.7685 3.89207 52.1195C2.24077 50.4705 1.20458 48.3053 0.956252 45.985C-0.318751 34.0341 -0.318751 21.9815 0.956252 10.0307C1.20132 7.70998 2.23447 5.54335 3.88345 3.89207C5.53243 2.24077 7.69759 1.20458 10.018 0.956252C21.9688 -0.318751 34.0214 -0.318751 45.9723 0.956252C48.293 1.20132 50.4596 2.23447 52.1109 3.88345C53.7622 5.53243 54.7983 7.69759 55.0467 10.018C56.3217 21.9688 56.3217 34.0214 55.0467 45.9723C54.8016 48.293 53.7685 50.4596 52.1195 52.1109C50.4705 53.7622 48.3053 54.7983 45.985 55.0467Z" fill="#252432"/>
</g>
<path d="M43.416 51.1833C33.1723 52.2761 22.8415 52.2761 12.5978 51.1833C10.6086 50.9732 8.75149 50.0877 7.33609 48.6743C5.92068 47.2608 5.03251 45.4049 4.81965 43.416C3.72678 33.1723 3.72678 22.8415 4.81965 12.5978C5.02971 10.6086 5.91528 8.75149 7.3287 7.33609C8.74212 5.92068 10.598 5.03251 12.5869 4.81965C22.8306 3.72678 33.1615 3.72678 43.4051 4.81965C45.3943 5.02971 47.2514 5.91528 48.6669 7.3287C50.0823 8.74212 50.9704 10.598 51.1833 12.5869C52.2761 22.8306 52.2761 33.1615 51.1833 43.4051C50.9732 45.3943 50.0877 47.2514 48.6743 48.6669C47.2608 50.0823 45.4049 50.9704 43.416 51.1833Z" fill="#D77655"/>
<path d="M43.416 51.1833C33.1723 52.2761 22.8415 52.2761 12.5978 51.1833C10.6086 50.9732 8.75149 50.0877 7.33609 48.6743C5.92068 47.2608 5.03251 45.4049 4.81965 43.416C3.72678 33.1723 3.72678 22.8415 4.81965 12.5978C5.02971 10.6086 5.91528 8.75149 7.3287 7.33609C8.74212 5.92068 10.598 5.03251 12.5869 4.81965C22.8306 3.72678 33.1615 3.72678 43.4051 4.81965C45.3943 5.02971 47.2514 5.91528 48.6669 7.3287C50.0823 8.74212 50.9704 10.598 51.1833 12.5869C52.2761 22.8306 52.2761 33.1615 51.1833 43.4051C50.9732 45.3943 50.0877 47.2514 48.6743 48.6669C47.2608 50.0823 45.4049 50.9704 43.416 51.1833Z" fill="#252432"/>
<path d="M18.2751 33.2801L24.572 29.7492L24.6778 29.4426L24.572 29.2721L24.2652 29.272L23.2128 29.2071L19.615 29.1099L16.4947 28.9804L13.4717 28.8184L12.711 28.6565L11.998 27.7171L12.0715 27.2485L12.7111 26.8188L13.6273 26.8986L15.652 27.0368L18.6901 27.2463L20.8943 27.3759L24.1594 27.7149H24.6778L24.7514 27.5055L24.5741 27.3759L24.4358 27.2463L21.2918 25.117L17.8884 22.8667L16.1057 21.5709L15.142 20.9145L14.6558 20.299L14.4463 18.9558L15.3214 17.9927L16.4969 18.0726L16.7973 18.1525L17.988 19.0681L20.5313 21.0355L23.8524 23.4801L24.3386 23.8839L24.5331 23.7458L24.5569 23.6486L24.3386 23.2836L22.5322 20.0205L20.6047 16.7014L19.7468 15.3257L19.5199 14.5008C19.44 14.1618 19.3817 13.8767 19.3817 13.529L20.3778 12.1771L20.9288 12L22.2577 12.1771L22.8175 12.663L23.6429 14.5505L24.9805 17.5221L27.0549 21.5626L27.6622 22.7611L27.9862 23.8711L28.1073 24.2101L28.3167 24.2101V24.0157L28.4874 21.7395L28.8029 18.9451L29.1097 15.3495L29.2156 14.3367L29.7168 13.1229L30.713 12.4665L31.4909 12.838L32.1305 13.7535L32.0419 14.3453L31.6616 16.8158L30.9161 20.6856L30.4299 23.2771H30.7132L31.0373 22.9532L32.3489 21.2126L34.5531 18.4592L35.5255 17.3665L36.6599 16.1593L37.388 15.5848L38.7645 15.5848L39.7779 17.0899L39.3242 18.6448L37.9066 20.4415L36.7311 21.964L35.0456 24.2315L33.9933 26.0455L34.0906 26.1902L34.3412 26.1664L38.1487 25.3566L40.2057 24.9852L42.6605 24.5641L43.7712 25.0824L43.8923 25.6093L43.4558 26.6869L40.8303 27.3348L37.7511 27.9503L33.1657 29.0345L33.1096 29.0755L33.1744 29.1553L35.2402 29.3497L36.1239 29.3972H38.2869L42.3147 29.6975L43.367 30.3928L43.998 31.2437L43.8922 31.8916L42.2716 32.7165L40.0848 32.1982L34.9808 30.9846L33.2304 30.5483L32.9885 30.5483V30.693L34.4471 32.1183L37.12 34.5305L40.4672 37.6402L40.6379 38.4091L40.2079 39.0158L39.7542 38.9511L36.8132 36.7397L35.6787 35.7442L33.1095 33.5824L32.9388 33.5824V33.8091L33.5309 34.6751L36.6577 39.3721L36.8197 40.8125L36.5929 41.2812L35.7825 41.5641L34.8922 41.4021L33.062 38.8344L31.1734 35.9428L29.65 33.3513L29.4642 33.4571L28.5653 43.134L28.1439 43.6285L27.1715 44L26.3612 43.3845L25.9312 42.389L26.3612 40.4216L26.8798 37.854L27.3011 35.8132L27.6815 33.2779L27.9084 32.4356L27.8932 32.3795L27.7075 32.4032L25.795 35.027L22.8865 38.9553L20.5852 41.4172L20.0342 41.6353L19.079 41.1407L19.1677 40.2575L19.7014 39.4715L22.8865 35.4224L24.8075 32.9129L26.0478 31.4638L26.0392 31.2544H25.9658L17.5061 36.7439L15.9999 36.9383L15.3516 36.3314L15.4316 35.3359L15.7385 35.012L18.2817 33.2627L18.2731 33.2714L18.2751 33.2801Z" fill="#FCF2EE"/>
<path d="M18.2751 33.2801L24.572 29.7492L24.6778 29.4426L24.572 29.2721L24.2652 29.272L23.2128 29.2071L19.615 29.1099L16.4947 28.9804L13.4717 28.8184L12.711 28.6565L11.998 27.7171L12.0715 27.2485L12.7111 26.8188L13.6273 26.8986L15.652 27.0368L18.6901 27.2463L20.8943 27.3759L24.1594 27.7149H24.6778L24.7514 27.5055L24.5741 27.3759L24.4358 27.2463L21.2918 25.117L17.8884 22.8667L16.1057 21.5709L15.142 20.9145L14.6558 20.299L14.4463 18.9558L15.3214 17.9927L16.4969 18.0726L16.7973 18.1525L17.988 19.0681L20.5313 21.0355L23.8524 23.4801L24.3386 23.8839L24.5331 23.7458L24.5569 23.6486L24.3386 23.2836L22.5322 20.0205L20.6047 16.7014L19.7468 15.3257L19.5199 14.5008C19.44 14.1618 19.3817 13.8767 19.3817 13.529L20.3778 12.1771L20.9288 12L22.2577 12.1771L22.8175 12.663L23.6429 14.5505L24.9805 17.5221L27.0549 21.5626L27.6622 22.7611L27.9862 23.8711L28.1073 24.2101L28.3167 24.2101V24.0157L28.4874 21.7395L28.8029 18.9451L29.1097 15.3495L29.2156 14.3367L29.7168 13.1229L30.713 12.4665L31.4909 12.838L32.1305 13.7535L32.0419 14.3453L31.6616 16.8158L30.9161 20.6856L30.4299 23.2771H30.7132L31.0373 22.9532L32.3489 21.2126L34.5531 18.4592L35.5255 17.3665L36.6599 16.1593L37.388 15.5848L38.7645 15.5848L39.7779 17.0899L39.3242 18.6448L37.9066 20.4415L36.7311 21.964L35.0456 24.2315L33.9933 26.0455L34.0906 26.1902L34.3412 26.1664L38.1487 25.3566L40.2057 24.9852L42.6605 24.5641L43.7712 25.0824L43.8923 25.6093L43.4558 26.6869L40.8303 27.3348L37.7511 27.9503L33.1657 29.0345L33.1096 29.0755L33.1744 29.1553L35.2402 29.3497L36.1239 29.3972H38.2869L42.3147 29.6975L43.367 30.3928L43.998 31.2437L43.8922 31.8916L42.2716 32.7165L40.0848 32.1982L34.9808 30.9846L33.2304 30.5483L32.9885 30.5483V30.693L34.4471 32.1183L37.12 34.5305L40.4672 37.6402L40.6379 38.4091L40.2079 39.0158L39.7542 38.9511L36.8132 36.7397L35.6787 35.7442L33.1095 33.5824L32.9388 33.5824V33.8091L33.5309 34.6751L36.6577 39.3721L36.8197 40.8125L36.5929 41.2812L35.7825 41.5641L34.8922 41.4021L33.062 38.8344L31.1734 35.9428L29.65 33.3513L29.4642 33.4571L28.5653 43.134L28.1439 43.6285L27.1715 44L26.3612 43.3845L25.9312 42.389L26.3612 40.4216L26.8798 37.854L27.3011 35.8132L27.6815 33.2779L27.9084 32.4356L27.8932 32.3795L27.7075 32.4032L25.795 35.027L22.8865 38.9553L20.5852 41.4172L20.0342 41.6353L19.079 41.1407L19.1677 40.2575L19.7014 39.4715L22.8865 35.4224L24.8075 32.9129L26.0478 31.4638L26.0392 31.2544H25.9658L17.5061 36.7439L15.9999 36.9383L15.3516 36.3314L15.4316 35.3359L15.7385 35.012L18.2817 33.2627L18.2731 33.2714L18.2751 33.2801Z" fill="white"/>
</svg>
