<svg width="56" height="56" viewBox="0 0 56 56" fill="none" xmlns="http://www.w3.org/2000/svg">
<g opacity="0.2">
<path d="M45.985 55.0467C34.0341 56.3217 21.9815 56.3217 10.0307 55.0467C7.70998 54.8016 5.54335 53.7685 3.89207 52.1195C2.24077 50.4705 1.20458 48.3053 0.956252 45.985C-0.318751 34.0341 -0.318751 21.9815 0.956252 10.0307C1.20132 7.70998 2.23447 5.54335 3.88345 3.89207C5.53243 2.24077 7.69759 1.20458 10.018 0.956252C21.9688 -0.318751 34.0214 -0.318751 45.9723 0.956252C48.293 1.20132 50.4596 2.23447 52.1109 3.88345C53.7622 5.53243 54.7983 7.69759 55.0467 10.018C56.3217 21.9688 56.3217 34.0214 55.0467 45.9723C54.8016 48.293 53.7685 50.4596 52.1195 52.1109C50.4705 53.7622 48.3053 54.7983 45.985 55.0467Z" fill="black"/>
<path d="M45.985 55.0467C34.0341 56.3217 21.9815 56.3217 10.0307 55.0467C7.70998 54.8016 5.54335 53.7685 3.89207 52.1195C2.24077 50.4705 1.20458 48.3053 0.956252 45.985C-0.318751 34.0341 -0.318751 21.9815 0.956252 10.0307C1.20132 7.70998 2.23447 5.54335 3.88345 3.89207C5.53243 2.24077 7.69759 1.20458 10.018 0.956252C21.9688 -0.318751 34.0214 -0.318751 45.9723 0.956252C48.293 1.20132 50.4596 2.23447 52.1109 3.88345C53.7622 5.53243 54.7983 7.69759 55.0467 10.018C56.3217 21.9688 56.3217 34.0214 55.0467 45.9723C54.8016 48.293 53.7685 50.4596 52.1195 52.1109C50.4705 53.7622 48.3053 54.7983 45.985 55.0467Z" fill="#252432"/>
</g>
<path d="M43.416 51.1833C33.1723 52.2761 22.8415 52.2761 12.5978 51.1833C10.6086 50.9732 8.75149 50.0876 7.33609 48.6743C5.92068 47.2608 5.03251 45.4049 4.81965 43.416C3.72678 33.1723 3.72678 22.8415 4.81965 12.5978C5.02971 10.6086 5.91528 8.75149 7.3287 7.33609C8.74212 5.92068 10.598 5.03251 12.5869 4.81965C22.8306 3.72678 33.1615 3.72678 43.4051 4.81965C45.3943 5.02971 47.2514 5.91528 48.6669 7.3287C50.0823 8.74212 50.9704 10.598 51.1833 12.5869C52.2761 22.8306 52.2761 33.1615 51.1833 43.4051C50.9732 45.3943 50.0876 47.2514 48.6743 48.6669C47.2608 50.0823 45.4049 50.9704 43.416 51.1833Z" fill="black"/>
<path d="M43.416 51.1833C33.1723 52.2761 22.8415 52.2761 12.5978 51.1833C10.6086 50.9732 8.75149 50.0876 7.33609 48.6743C5.92068 47.2608 5.03251 45.4049 4.81965 43.416C3.72678 33.1723 3.72678 22.8415 4.81965 12.5978C5.02971 10.6086 5.91528 8.75149 7.3287 7.33609C8.74212 5.92068 10.598 5.03251 12.5869 4.81965C22.8306 3.72678 33.1615 3.72678 43.4051 4.81965C45.3943 5.02971 47.2514 5.91528 48.6669 7.3287C50.0823 8.74212 50.9704 10.598 51.1833 12.5869C52.2761 22.8306 52.2761 33.1615 51.1833 43.4051C50.9732 45.3943 50.0876 47.2514 48.6743 48.6669C47.2608 50.0823 45.4049 50.9704 43.416 51.1833Z" fill="#252432"/>
<path d="M41.8905 25.0966C42.1644 24.2845 42.3041 23.4342 42.3042 22.5783C42.3042 21.1621 41.9218 19.7715 41.1966 18.5493C39.7393 16.0464 37.0359 14.5011 34.1101 14.5011C33.5345 14.5011 32.9579 14.5611 32.3952 14.6803C31.6372 13.8375 30.7067 13.1629 29.6651 12.7009C28.6235 12.2389 27.4945 12 26.3525 12H26.3012C26.2959 12.0002 26.2879 12.0002 26.282 12.0002C22.7383 12.0002 19.5958 14.2563 18.5064 17.5824C16.2252 18.0426 14.2559 19.4542 13.1045 21.4498C12.3815 22.6794 12.0005 24.0755 12 25.497C12.0003 27.4947 12.7519 29.4212 14.1092 30.9035C13.8352 31.7156 13.6955 32.5659 13.6954 33.4218C13.6955 34.838 14.0778 36.2286 14.803 37.4507C16.2601 39.9544 18.9638 41.4988 21.8899 41.4988C22.466 41.4988 23.0405 41.4388 23.6038 41.3196C24.362 42.1624 25.2926 42.837 26.3342 43.299C27.3759 43.761 28.505 43.9999 29.6471 44H29.6984L29.7192 43.9999C33.2648 43.9999 36.4063 41.7438 37.4957 38.4147C39.777 37.9542 41.7463 36.5427 42.8977 34.547C43.6199 33.3186 44.0002 31.9237 44 30.5035C43.9998 28.5058 43.2482 26.5793 41.8908 25.097L41.8905 25.0966ZM29.7005 41.9079H29.6921C28.2734 41.9075 26.8997 41.4164 25.8099 40.5201C25.8746 40.4858 25.9386 40.45 26.0017 40.4129L32.4592 36.7325C32.6204 36.642 32.7544 36.511 32.8476 36.3529C32.9408 36.1947 32.9899 36.0151 32.99 35.8321V26.8433L35.7194 28.3984C35.7485 28.4127 35.7684 28.4404 35.7725 28.4722V35.9112C35.7687 39.2184 33.0526 41.9014 29.7005 41.9079ZM16.6422 36.4052C16.1088 35.4951 15.8278 34.4625 15.8275 33.4113C15.8275 33.0684 15.8579 32.7247 15.917 32.3869C15.965 32.4153 16.0487 32.4657 16.1088 32.4997L22.5663 36.1801C22.7274 36.2727 22.9104 36.3215 23.0968 36.3215C23.2832 36.3214 23.4663 36.2726 23.6273 36.18L31.5112 31.6883V34.7984C31.5121 34.8143 31.509 34.8301 31.5022 34.8445C31.4954 34.8589 31.4851 34.8714 31.4722 34.881L24.9443 38.5998C24.0206 39.1243 22.9736 39.4005 21.9079 39.4009C20.841 39.4007 19.793 39.1238 18.8688 38.598C17.9446 38.0721 17.1768 37.3158 16.6423 36.4048L16.6422 36.4052ZM14.9435 22.4956C15.6526 21.2801 16.7725 20.3493 18.1071 19.8663C18.1071 19.9212 18.1038 20.0184 18.1038 20.0859V27.4466L18.1038 27.4527C18.1038 27.6355 18.1528 27.815 18.2459 27.973C18.339 28.131 18.4728 28.2619 18.6338 28.3523L26.5178 32.8434L23.7883 34.3984C23.7749 34.4072 23.7594 34.4125 23.7433 34.4139C23.7273 34.4153 23.7111 34.4128 23.6963 34.4066L17.1678 30.6845C16.2449 30.157 15.4787 29.3995 14.946 28.4877C14.4133 27.576 14.1328 26.5421 14.1327 25.4897C14.1331 24.439 14.4128 23.4067 14.9438 22.4959L14.9435 22.4956ZM37.3683 27.6446L29.4844 23.153L32.2138 21.5985C32.2273 21.5898 32.2427 21.5844 32.2588 21.583C32.2748 21.5815 32.291 21.584 32.3059 21.5903L38.8343 25.3091C40.7135 26.3803 41.8728 28.361 41.8728 30.503C41.8728 33.0154 40.2839 35.2636 37.8948 36.1313V28.5504C37.8952 28.5476 37.8952 28.5447 37.8952 28.542C37.8952 28.1714 37.6939 27.8289 37.3683 27.6446ZM40.085 23.6103C40.037 23.5812 39.9532 23.5314 39.8931 23.4974L33.4356 19.817C33.2746 19.7244 33.0916 19.6756 32.9052 19.6755C32.719 19.6755 32.5358 19.7245 32.3749 19.817L24.491 24.3086V21.1985L24.4909 21.1932C24.4909 21.1782 24.4944 21.1634 24.5012 21.15C24.508 21.1365 24.5179 21.1249 24.53 21.1159L31.0579 17.4002C31.9813 16.8749 33.0284 16.5984 34.0942 16.5983C37.4506 16.5983 40.1726 19.2841 40.1726 22.5958C40.1724 22.9357 40.1431 23.2749 40.085 23.6099V23.6103ZM23.0071 29.1535L20.277 27.5985C20.2627 27.5914 20.2503 27.581 20.2411 27.5681C20.2318 27.5553 20.2259 27.5403 20.224 27.5247V20.0857C20.2254 16.7757 22.9473 14.0922 26.3023 14.0922C27.7233 14.0925 29.0993 14.5837 30.1915 15.4804C30.1269 15.5149 30.0629 15.5507 29.9997 15.5877L23.5422 19.268C23.3811 19.3585 23.2471 19.4894 23.1539 19.6475C23.0607 19.8056 23.0116 19.9852 23.0115 20.1681V20.1741L23.0071 29.1535ZM24.4897 25.9993L28.0011 23.9983L31.5124 25.998V29.9989L28.0011 31.9986L24.4897 29.9989V25.9993Z" fill="white"/>
</svg>
