<svg width="56" height="56" viewBox="0 0 56 56" fill="none" xmlns="http://www.w3.org/2000/svg">
<g opacity="0.2">
<path d="M45.985 55.0467C34.0341 56.3217 21.9815 56.3217 10.0307 55.0467C7.70998 54.8016 5.54335 53.7685 3.89207 52.1195C2.24077 50.4705 1.20458 48.3053 0.956252 45.985C-0.318751 34.0341 -0.318751 21.9815 0.956252 10.0307C1.20132 7.70998 2.23447 5.54335 3.88345 3.89207C5.53243 2.24077 7.69759 1.20458 10.018 0.956252C21.9688 -0.318751 34.0214 -0.318751 45.9723 0.956252C48.293 1.20132 50.4596 2.23447 52.1109 3.88345C53.7622 5.53243 54.7983 7.69759 55.0467 10.018C56.3217 21.9688 56.3217 34.0214 55.0467 45.9723C54.8016 48.293 53.7685 50.4596 52.1195 52.1109C50.4705 53.7622 48.3053 54.7983 45.985 55.0467Z" fill="#222222"/>
<path d="M45.985 55.0467C34.0341 56.3217 21.9815 56.3217 10.0307 55.0467C7.70998 54.8016 5.54335 53.7685 3.89207 52.1195C2.24077 50.4705 1.20458 48.3053 0.956252 45.985C-0.318751 34.0341 -0.318751 21.9815 0.956252 10.0307C1.20132 7.70998 2.23447 5.54335 3.88345 3.89207C5.53243 2.24077 7.69759 1.20458 10.018 0.956252C21.9688 -0.318751 34.0214 -0.318751 45.9723 0.956252C48.293 1.20132 50.4596 2.23447 52.1109 3.88345C53.7622 5.53243 54.7983 7.69759 55.0467 10.018C56.3217 21.9688 56.3217 34.0214 55.0467 45.9723C54.8016 48.293 53.7685 50.4596 52.1195 52.1109C50.4705 53.7622 48.3053 54.7983 45.985 55.0467Z" fill="#252432"/>
</g>
<path d="M43.416 51.1833C33.1723 52.2761 22.8415 52.2761 12.5978 51.1833C10.6086 50.9732 8.75149 50.0876 7.33609 48.6743C5.92068 47.2608 5.03251 45.4049 4.81965 43.416C3.72678 33.1723 3.72678 22.8415 4.81965 12.5978C5.02971 10.6086 5.91528 8.75149 7.3287 7.33609C8.74212 5.92068 10.598 5.03251 12.5869 4.81965C22.8306 3.72678 33.1615 3.72678 43.4051 4.81965C45.3943 5.02971 47.2514 5.91528 48.6669 7.3287C50.0823 8.74212 50.9704 10.598 51.1833 12.5869C52.2761 22.8306 52.2761 33.1615 51.1833 43.4051C50.9732 45.3943 50.0876 47.2514 48.6743 48.6669C47.2608 50.0823 45.4049 50.9704 43.416 51.1833Z" fill="#222222"/>
<path d="M43.416 51.1833C33.1723 52.2761 22.8415 52.2761 12.5978 51.1833C10.6086 50.9732 8.75149 50.0876 7.33609 48.6743C5.92068 47.2608 5.03251 45.4049 4.81965 43.416C3.72678 33.1723 3.72678 22.8415 4.81965 12.5978C5.02971 10.6086 5.91528 8.75149 7.3287 7.33609C8.74212 5.92068 10.598 5.03251 12.5869 4.81965C22.8306 3.72678 33.1615 3.72678 43.4051 4.81965C45.3943 5.02971 47.2514 5.91528 48.6669 7.3287C50.0823 8.74212 50.9704 10.598 51.1833 12.5869C52.2761 22.8306 52.2761 33.1615 51.1833 43.4051C50.9732 45.3943 50.0876 47.2514 48.6743 48.6669C47.2608 50.0823 45.4049 50.9704 43.416 51.1833Z" fill="#252432"/>
<path d="M36.8468 15.138L30.1413 20.8083H36.8468V15.138ZM28.6861 19.8753L38.5025 11.5744V20.8083H41.6384V34.7571H37.8715V43.5107L28.6863 35.0822V43.2466H27.0307V35.0861L17.636 43.4742V34.7571H13.9941V20.8083H17.7611V11.5107L27.0307 19.7736V11.6856H28.6863L28.6861 19.8753ZM25.8453 22.4639C22.4457 22.4659 19.0477 22.4639 15.6498 22.4639V33.1015H17.6353V30.4638L25.8453 22.4639ZM29.8762 22.4639L37.8715 30.4706V33.1015H39.9828V22.4639C36.616 22.4639 33.2454 22.4659 29.8762 22.4639ZM25.7063 20.8083L19.4168 15.2018V20.8083H25.7063ZM27.0307 32.8757V23.6167L19.2916 31.1558V39.7856L27.0307 32.8757ZM28.7086 23.634V32.8602L36.2159 39.749C36.2159 36.8813 36.2148 34.0163 36.2148 31.149L28.7086 23.634Z" fill="white"/>
</svg>
