<svg width="56" height="56" viewBox="0 0 56 56" fill="none" xmlns="http://www.w3.org/2000/svg">
<g opacity="0.2">
<path d="M45.985 55.0467C34.0341 56.3217 21.9815 56.3217 10.0307 55.0467C7.70998 54.8016 5.54335 53.7685 3.89207 52.1195C2.24077 50.4705 1.20458 48.3053 0.956252 45.985C-0.318751 34.0341 -0.318751 21.9815 0.956252 10.0307C1.20132 7.70998 2.23447 5.54335 3.88345 3.89207C5.53243 2.24077 7.69759 1.20458 10.018 0.956252C21.9688 -0.318751 34.0214 -0.318751 45.9723 0.956252C48.293 1.20132 50.4596 2.23447 52.1109 3.88345C53.7622 5.53243 54.7983 7.69759 55.0467 10.018C56.3217 21.9688 56.3217 34.0214 55.0467 45.9723C54.8016 48.293 53.7685 50.4596 52.1195 52.1109C50.4705 53.7622 48.3053 54.7983 45.985 55.0467Z" fill="url(#paint0_linear_2371_2826)"/>
<path d="M45.985 55.0467C34.0341 56.3217 21.9815 56.3217 10.0307 55.0467C7.70998 54.8016 5.54335 53.7685 3.89207 52.1195C2.24077 50.4705 1.20458 48.3053 0.956252 45.985C-0.318751 34.0341 -0.318751 21.9815 0.956252 10.0307C1.20132 7.70998 2.23447 5.54335 3.88345 3.89207C5.53243 2.24077 7.69759 1.20458 10.018 0.956252C21.9688 -0.318751 34.0214 -0.318751 45.9723 0.956252C48.293 1.20132 50.4596 2.23447 52.1109 3.88345C53.7622 5.53243 54.7983 7.69759 55.0467 10.018C56.3217 21.9688 56.3217 34.0214 55.0467 45.9723C54.8016 48.293 53.7685 50.4596 52.1195 52.1109C50.4705 53.7622 48.3053 54.7983 45.985 55.0467Z" fill="#252432"/>
</g>
<path d="M43.416 51.1833C33.1723 52.2761 22.8415 52.2761 12.5978 51.1833C10.6086 50.9732 8.75149 50.0877 7.33609 48.6743C5.92068 47.2608 5.03251 45.4049 4.81965 43.416C3.72678 33.1723 3.72678 22.8415 4.81965 12.5978C5.02971 10.6086 5.91528 8.75149 7.3287 7.33609C8.74212 5.92068 10.598 5.03251 12.5869 4.81965C22.8306 3.72678 33.1615 3.72678 43.4051 4.81965C45.3943 5.02971 47.2514 5.91528 48.6669 7.3287C50.0823 8.74212 50.9704 10.598 51.1833 12.5869C52.2761 22.8306 52.2761 33.1615 51.1833 43.4051C50.9732 45.3943 50.0877 47.2514 48.6743 48.6669C47.2608 50.0823 45.4049 50.9704 43.416 51.1833Z" fill="url(#paint1_linear_2371_2826)"/>
<path d="M43.416 51.1833C33.1723 52.2761 22.8415 52.2761 12.5978 51.1833C10.6086 50.9732 8.75149 50.0877 7.33609 48.6743C5.92068 47.2608 5.03251 45.4049 4.81965 43.416C3.72678 33.1723 3.72678 22.8415 4.81965 12.5978C5.02971 10.6086 5.91528 8.75149 7.3287 7.33609C8.74212 5.92068 10.598 5.03251 12.5869 4.81965C22.8306 3.72678 33.1615 3.72678 43.4051 4.81965C45.3943 5.02971 47.2514 5.91528 48.6669 7.3287C50.0823 8.74212 50.9704 10.598 51.1833 12.5869C52.2761 22.8306 52.2761 33.1615 51.1833 43.4051C50.9732 45.3943 50.0877 47.2514 48.6743 48.6669C47.2608 50.0823 45.4049 50.9704 43.416 51.1833Z" fill="#252432"/>
<path d="M28.4473 12.4473C28.7826 12.4473 29.075 12.6766 29.1569 13.002C29.407 13.9974 29.7366 14.9712 30.1426 15.9138C31.2038 18.3794 32.6599 20.5373 34.5086 22.3859C36.3583 24.2351 38.5156 25.6913 40.9807 26.7524C41.9236 27.1583 42.8975 27.4879 43.893 27.7382C44.2185 27.82 44.4473 28.1119 44.4473 28.4473C44.4473 28.7826 44.2185 29.075 43.8925 29.1569C42.8971 29.407 41.9234 29.7366 40.9807 30.1426C38.5151 31.2038 36.3578 32.6599 34.5086 34.5086C32.6599 36.3583 31.2038 38.5156 30.1426 40.9807C29.7366 41.9236 29.4068 42.8975 29.1564 43.893C29.1167 44.0511 29.0255 44.1915 28.897 44.2919C28.7686 44.3923 28.6103 44.447 28.4473 44.4473C28.1119 44.4473 27.82 44.2185 27.7382 43.8925C27.4878 42.8971 27.158 41.9234 26.7519 40.9807C25.6913 38.5151 24.2356 36.3578 22.3859 34.5086C20.5368 32.6599 18.3794 31.2038 15.9138 30.1426C14.9711 29.7366 13.9974 29.4068 13.002 29.1564C12.8439 29.1168 12.7034 29.0257 12.6029 28.8973C12.5025 28.769 12.4477 28.6108 12.4473 28.4478C12.4473 28.1124 12.6766 27.8205 13.002 27.7387C13.9974 27.4884 14.9712 27.1586 15.9138 26.7524C18.3794 25.6918 20.5373 24.2356 22.3859 22.3864C24.2351 20.5378 25.6913 18.3799 26.7524 15.9143C27.1582 14.9716 27.4879 13.9979 27.7382 13.0025C27.7776 12.8442 27.8688 12.7036 27.9973 12.603C28.1257 12.5024 28.2841 12.4476 28.4473 12.4473Z" fill="white"/>
<defs>
<linearGradient id="paint0_linear_2371_2826" x1="15.9196" y1="37.4711" x2="45.0076" y2="12.9483" gradientUnits="userSpaceOnUse">
<stop stop-color="#4893FC"/>
<stop offset="0.27" stop-color="#4893FC"/>
<stop offset="0.777" stop-color="#969DFF"/>
<stop offset="1" stop-color="#BD99FE"/>
</linearGradient>
<linearGradient id="paint1_linear_2371_2826" x1="17.6455" y1="36.1183" x2="42.5783" y2="15.0987" gradientUnits="userSpaceOnUse">
<stop stop-color="#4893FC"/>
<stop offset="0.27" stop-color="#4893FC"/>
<stop offset="0.777" stop-color="#969DFF"/>
<stop offset="1" stop-color="#BD99FE"/>
</linearGradient>
</defs>
</svg>
