<svg width="20" height="20" viewBox="0 0 20 20" fill="none" xmlns="http://www.w3.org/2000/svg">
<path d="M17.5619 1.76159C17.6732 1.78048 17.7793 1.82179 17.8734 1.88268L17.9633 1.94909L18.0424 2.02819C18.1168 2.11194 18.1738 2.21019 18.2094 2.31725C18.2566 2.45967 18.2646 2.61222 18.2318 2.75866L18.2309 2.76354L15.0551 16.5575C15.0018 16.7897 14.889 17.004 14.7279 17.1796C14.5669 17.355 14.3628 17.4855 14.1361 17.5585C13.9093 17.6314 13.6672 17.6442 13.434 17.5956C13.2007 17.5469 12.9838 17.4388 12.8051 17.2811V17.2801L5.90664 11.2333L1.49648 10.369L1.4916 10.368C1.22933 10.3149 0.990792 10.1773 0.812887 9.97741C0.635178 9.77756 0.526651 9.52516 0.504294 9.25866C0.482009 8.99218 0.546901 8.72551 0.688864 8.49889L0.745505 8.41588C0.883744 8.23056 1.07182 8.08711 1.28847 8.0028L17.1215 1.80651L17.2289 1.77331C17.3376 1.74701 17.4509 1.74277 17.5619 1.76159ZM2.67422 9.07018L6.39394 9.80065L6.48965 9.82604C6.58301 9.85756 6.66995 9.90714 6.74453 9.97253L13.6391 16.0174L16.4828 3.66686L2.67422 9.07018Z" fill="#131313"/>
<path d="M17.0164 1.89724C17.3531 1.65595 17.822 1.73341 18.0633 2.07009C18.3043 2.40675 18.227 2.87475 17.8904 3.11599L6.6863 11.1463C6.34974 11.3871 5.88165 11.3097 5.6404 10.9734C5.39911 10.6367 5.47658 10.1678 5.81325 9.92653L17.0164 1.89724Z" fill="#131313"/>
<path d="M5.5 10.5371C5.5 10.1229 5.83579 9.78711 6.25 9.78711C6.66421 9.78711 7 10.1229 7 10.5371V15.3145L9.17676 13.0566C9.46421 12.7585 9.9391 12.7497 10.2373 13.0371C10.5352 13.3246 10.5441 13.7995 10.2568 14.0977L7.86523 16.5791C7.67515 16.7763 7.42995 16.9115 7.16211 16.9688C6.89428 17.026 6.61538 17.0027 6.36133 16.9004C6.10722 16.7981 5.88981 16.6214 5.73633 16.3945C5.58299 16.1678 5.50049 15.9007 5.5 15.627V10.5371Z" fill="#131313"/>
</svg>
