<svg width="18" height="23" viewBox="0 0 18 23" fill="none" xmlns="http://www.w3.org/2000/svg">
<path d="M16.9748 22.5663H15.111V17.8666C15.1102 17.136 14.8196 16.4356 14.3031 15.9189C13.7864 15.4022 13.0859 15.1117 12.3553 15.1109H4.81975C4.08911 15.1117 3.38862 15.4022 2.87199 15.9189C2.35536 16.4356 2.06478 17.136 2.06405 17.8666V22.5663H0.200195V17.8666C0.201668 16.6419 0.688851 15.4678 1.55486 14.6017C2.42087 13.7358 3.59501 13.2486 4.81975 13.2471H12.3553C13.58 13.2486 14.7541 13.7358 15.6202 14.6017C16.4862 15.4678 16.9733 16.6419 16.9748 17.8666V22.5663Z" fill="white"/>
<path d="M16.9746 17.8662C16.973 16.6416 16.4861 15.4675 15.6201 14.6016C14.8082 13.7897 13.7254 13.3108 12.584 13.2529L12.3555 13.2471V13.0469C13.6331 13.0484 14.8582 13.5566 15.7617 14.46C16.6652 15.3634 17.1732 16.5886 17.1748 17.8662V22.7666H14.9111V17.8672L14.8984 17.6143C14.8399 17.0296 14.5811 16.4798 14.1621 16.0605C13.683 15.5814 13.033 15.3113 12.3555 15.3105H4.82031L4.56738 15.3232C3.9825 15.3818 3.43295 15.6413 3.01367 16.0605C2.53449 16.5398 2.26435 17.1895 2.26367 17.8672V22.7666H0V17.8662C0.00158174 16.5886 0.509676 15.3634 1.41309 14.46C2.3165 13.5566 3.5417 13.0485 4.81934 13.0469H12.3555V13.2471H4.81934C3.59475 13.2487 2.4206 13.7357 1.55469 14.6016C0.68878 15.4675 0.201777 16.6416 0.200195 17.8662V22.5664H2.06445V17.8662C2.06519 17.227 2.28773 16.6112 2.68945 16.1211L2.87207 15.9189C3.3886 15.4024 4.08886 15.1122 4.81934 15.1113H12.3555C13.086 15.1121 13.7861 15.4024 14.3027 15.9189C14.8192 16.4355 15.1105 17.1357 15.1113 17.8662V22.5664H16.9746V17.8662Z" fill="white"/>
<path d="M8.58761 11.3833C7.48179 11.3833 6.40066 11.0553 5.48115 10.4409C4.56162 9.8265 3.84494 8.95327 3.42172 7.93154C2.99852 6.90982 2.88779 5.78554 3.10354 4.7009C3.31929 3.61624 3.85183 2.61992 4.63382 1.83793C5.41581 1.05593 6.41212 0.523389 7.49679 0.307638C8.58146 0.0918867 9.70573 0.202618 10.7274 0.62583C11.7492 1.04904 12.6225 1.76572 13.2369 2.68525C13.8512 3.60477 14.1792 4.68584 14.1792 5.79175C14.1777 7.27427 13.5881 8.69564 12.5398 9.74394C11.4916 10.7923 10.0702 11.3818 8.58761 11.3833ZM8.58761 2.06405C7.85036 2.06405 7.12971 2.28267 6.51668 2.69228C5.90363 3.10189 5.42584 3.68407 5.1437 4.36523C4.86156 5.04637 4.78774 5.79589 4.93157 6.51899C5.07541 7.24209 5.43043 7.90631 5.95176 8.42764C6.47307 8.94897 7.13735 9.30397 7.86043 9.44786C8.58351 9.59166 9.33306 9.51785 10.0142 9.23566C10.6953 8.95356 11.2775 8.47577 11.6871 7.86275C12.0967 7.24973 12.3153 6.52902 12.3153 5.79175C12.3153 4.8031 11.9226 3.85495 11.2236 3.15587C10.5244 2.45679 9.57629 2.06405 8.58761 2.06405Z" fill="white"/>
<path d="M14.1785 5.79177C14.1785 4.75493 13.8907 3.73967 13.3484 2.85916L13.2371 2.68533C12.6611 1.82326 11.8569 1.13959 10.9168 0.708766L10.7273 0.625758C9.70573 0.202582 8.58143 0.0917207 7.49685 0.307399L7.2947 0.351344C6.28846 0.59044 5.36679 1.10444 4.63357 1.83767C3.85157 2.61966 3.31904 3.6163 3.10329 4.70095L3.06716 4.90408C2.90299 5.92521 3.02484 6.97341 3.42165 7.93142C3.84487 8.95309 4.56173 9.8268 5.48122 10.4412C6.34325 11.0171 7.34739 11.3414 8.38064 11.3797L8.58767 11.3826C9.97737 11.3811 11.3135 10.8637 12.3386 9.93533L12.5398 9.74392C13.5225 8.76124 14.1017 7.45051 14.1717 6.06912L14.1785 5.79177ZM12.115 5.79177C12.115 4.85616 11.7433 3.95823 11.0818 3.29666C10.4203 2.63532 9.52308 2.26353 8.58767 2.26345C7.89005 2.26345 7.2078 2.47062 6.62771 2.85818C6.0476 3.24578 5.59491 3.79666 5.3279 4.44119C5.06095 5.08565 4.9917 5.7951 5.12771 6.47927C5.2638 7.16346 5.59933 7.79259 6.09255 8.28591C6.58588 8.77926 7.21489 9.11556 7.89919 9.25173C8.58344 9.3878 9.29272 9.31757 9.93728 9.05056C10.5817 8.78365 11.1327 8.33169 11.5203 7.75173C11.9078 7.17167 12.115 6.4894 12.115 5.79177ZM12.3045 6.06716C12.257 6.70716 12.0454 7.32585 11.6873 7.86209L11.5252 8.08572C11.1301 8.5916 10.6102 8.98827 10.0144 9.23513L9.75564 9.33181C9.2331 9.50426 8.67871 9.55812 8.13259 9.49099L7.86013 9.44802C7.22731 9.3221 6.63942 9.03431 6.1531 8.61502L5.95193 8.42752C5.49572 7.97131 5.16632 7.40564 4.99489 6.78689L4.93142 6.51834C4.80568 5.88584 4.84657 5.23326 5.04763 4.62381L5.14333 4.36502C5.3902 3.76901 5.78675 3.24845 6.29275 2.8533L6.51638 2.69216C7.1294 2.28256 7.85042 2.06423 8.58767 2.06423L8.77224 2.06814C9.69362 2.11385 10.568 2.50065 11.2234 3.15603C11.9223 3.85509 12.3152 4.80323 12.3152 5.79177L12.3045 6.06716ZM14.3787 5.79177C14.3771 7.32724 13.7672 8.79978 12.6814 9.88552C11.5957 10.9713 10.1232 11.5812 8.58767 11.5828C7.44235 11.5828 6.32226 11.2435 5.36989 10.6072C4.41748 9.97081 3.67544 9.06587 3.23708 8.00759C2.79881 6.94943 2.68361 5.78522 2.907 4.66189C3.13047 3.53844 3.682 2.50603 4.49196 1.69607C5.30192 0.886103 6.33432 0.334577 7.45778 0.11111C8.58114 -0.112285 9.74537 0.0028953 10.8035 0.441188C11.8618 0.879538 12.7667 1.62158 13.4031 2.574C14.0393 3.52638 14.3787 4.64635 14.3787 5.79177Z" fill="white"/>
</svg>
