<svg width="20" height="20" viewBox="0 0 20 20" fill="none" xmlns="http://www.w3.org/2000/svg">
<path d="M14.25 7.5C14.25 5.15279 12.3472 3.25 10 3.25C7.65279 3.25 5.75 5.15279 5.75 7.5C5.75 9.84721 7.65279 11.75 10 11.75C12.3472 11.75 14.25 9.84721 14.25 7.5ZM15.75 7.5C15.75 10.6756 13.1756 13.25 10 13.25C6.82436 13.25 4.25 10.6756 4.25 7.5C4.25 4.32436 6.82436 1.75 10 1.75C13.1756 1.75 15.75 4.32436 15.75 7.5Z" fill="#252432"/>
<path d="M10.0004 11.75C13.5249 11.75 16.512 13.6691 18.1498 16.499C18.3573 16.8575 18.2348 17.3169 17.8764 17.5244C17.5179 17.7319 17.0585 17.6094 16.851 17.251C15.4622 14.8513 12.9524 13.25 10.0004 13.25C7.04837 13.25 4.53859 14.8513 3.1498 17.251C2.94229 17.6094 2.48288 17.7319 2.12441 17.5244C1.76599 17.3169 1.64352 16.8575 1.85097 16.499C3.48876 13.6691 6.47588 11.75 10.0004 11.75Z" fill="#252432"/>
</svg>
