<svg width="20" height="20" viewBox="0 0 20 20" fill="none" xmlns="http://www.w3.org/2000/svg">
<path d="M17.5088 6.07727V6.05806C17.3345 5.35193 16.8795 4.62215 16.2827 4.00761C15.5854 3.2867 14.6975 2.7209 13.8496 2.53772H13.8319C11.3031 2.05318 8.70537 2.05318 6.17663 2.53772H6.1589C4.58413 2.87897 2.87493 4.52465 2.49379 6.05806V6.07727C2.02551 8.20319 2.02551 10.4056 2.49379 12.5315V12.5492C2.76561 13.6424 3.71106 14.7917 4.80129 15.486C5.15733 15.718 5.5449 15.8976 5.95208 16.0193V17.73C5.95266 17.8667 5.99393 18.0002 6.07063 18.1133C6.14733 18.2265 6.25599 18.3143 6.38276 18.3654C6.50953 18.4166 6.64867 18.4289 6.78244 18.4007C6.91622 18.3725 7.03857 18.3051 7.1339 18.2072L8.86822 16.4049C9.24345 16.4256 9.62163 16.4374 9.99686 16.4374C11.2813 16.437 12.5629 16.3153 13.8245 16.074H13.8422C15.4125 15.7312 17.1232 14.0856 17.5014 12.5522V12.5344C17.9726 10.4081 17.9751 8.20467 17.5088 6.07727ZM16.1364 12.2153C15.8823 13.2155 14.5853 14.4608 13.5527 14.6898C12.2114 14.9467 10.8464 15.0581 9.48129 15.0222C9.468 15.0213 9.4547 15.0236 9.4424 15.0287C9.43011 15.0338 9.41916 15.0417 9.41038 15.0517L8.14436 16.3517L6.79708 17.733C6.77553 17.7557 6.74764 17.7715 6.71701 17.7783C6.68639 17.785 6.65444 17.7824 6.62531 17.7708C6.59619 17.7592 6.57122 17.7391 6.55365 17.7131C6.53607 17.6871 6.5267 17.6565 6.52674 17.6251V14.7887C6.52678 14.7659 6.51882 14.7438 6.50424 14.7263C6.48967 14.7087 6.4694 14.6969 6.44697 14.6927C6.23159 14.6416 6.02394 14.5621 5.82947 14.4564C4.95197 13.9881 4.06708 13.0278 3.86322 12.2153C3.44096 10.2937 3.44096 8.30325 3.86322 6.38159C4.11583 5.3859 5.42027 4.14352 6.44549 3.91306C8.79325 3.46385 11.2049 3.46385 13.5527 3.91306C14.1214 4.04011 14.7714 4.47295 15.2796 5.00477C15.6977 5.43761 16.0182 5.93693 16.1364 6.38602C16.558 8.30625 16.558 10.2951 16.1364 12.2153Z" fill="#252432"/>
<path d="M13.588 12.3632C13.3961 12.8012 13.0661 13.1644 12.6485 13.3973C12.5174 13.453 12.3814 13.496 12.2422 13.5259C12.0842 13.4786 11.9335 13.4461 11.7991 13.3885C10.6792 12.9527 9.63674 12.3397 8.71155 11.5729C8.43673 11.3385 8.17856 11.0853 7.93894 10.8151C7.34719 10.1336 6.85027 9.37531 6.46166 8.56075C6.27257 8.17518 6.11303 7.77632 5.95053 7.37893C5.8028 7.017 6.02144 6.64029 6.24598 6.36995C6.46578 6.11924 6.73613 5.91786 7.03928 5.77904C7.14595 5.72543 7.26803 5.71085 7.38433 5.73784C7.50063 5.76482 7.60381 5.83166 7.67598 5.92677C8.05342 6.35083 8.38609 6.81271 8.66871 7.30507C8.75774 7.44823 8.78822 7.62017 8.75384 7.78522C8.71946 7.95026 8.62284 8.09573 8.48405 8.19143C8.41019 8.24313 8.33632 8.30222 8.2728 8.35984C8.21018 8.40621 8.15618 8.46321 8.11325 8.52825C8.07622 8.58911 8.05375 8.65771 8.0476 8.7287C8.04145 8.79968 8.05178 8.87112 8.0778 8.93745C8.36291 9.72188 8.79575 10.3763 9.4428 10.8357C9.66178 10.9906 9.89769 11.1199 10.146 11.2213C10.3081 11.3095 10.4903 11.3543 10.6748 11.3513C10.9969 11.3129 11.1033 10.9569 11.3278 10.7737C11.4309 10.6893 11.5584 10.6404 11.6915 10.6343C11.8246 10.6282 11.9561 10.6652 12.0664 10.7397C12.3058 10.8875 12.5362 11.0544 12.7667 11.2169C12.9946 11.3724 13.214 11.5401 13.4241 11.7192C13.5223 11.7905 13.5924 11.8939 13.6224 12.0116C13.6523 12.1292 13.6402 12.2536 13.588 12.3632Z" fill="#252432"/>
<path d="M10.4235 5.28452H10.2344C10.2949 5.28156 10.3585 5.28452 10.4235 5.28452Z" fill="#252432"/>
<path d="M13.6927 9.71124C13.545 9.71124 13.4726 9.58567 13.4623 9.44829C13.4431 9.17795 13.4283 8.90613 13.3914 8.63727C13.3275 8.18364 13.1695 7.74837 12.9275 7.35942C12.6787 6.95423 12.3477 6.60576 11.9558 6.33653C11.564 6.0673 11.1199 5.88332 10.6525 5.79647C10.4398 5.75806 10.2226 5.7492 10.0084 5.72704C9.87249 5.71227 9.69374 5.7034 9.66419 5.53499C9.65978 5.50228 9.6624 5.46901 9.67187 5.43739C9.68134 5.40578 9.69746 5.37655 9.71913 5.35166C9.7408 5.32677 9.76754 5.30679 9.79755 5.29306C9.82757 5.27933 9.86017 5.27216 9.89317 5.27204C9.9286 5.27 9.96411 5.27 9.99953 5.27204C10.6453 5.2775 11.2797 5.44214 11.8466 5.75135C12.4135 6.06057 12.8953 6.50482 13.2495 7.04477C13.5291 7.47997 13.719 7.96666 13.8079 8.47624C13.8641 8.79533 13.8848 9.12329 13.9099 9.44829C13.9149 9.48014 13.9131 9.5127 13.9046 9.54381C13.8961 9.57492 13.8811 9.60387 13.8606 9.62873C13.8401 9.6536 13.8145 9.67381 13.7855 9.68804C13.7566 9.70226 13.7249 9.71017 13.6927 9.71124Z" fill="#252432"/>
<path d="M12.8948 9.02193C12.8939 9.0658 12.888 9.10943 12.8771 9.15193C12.8641 9.19464 12.8384 9.23234 12.8033 9.2599C12.7682 9.28746 12.7255 9.30354 12.681 9.30596C12.6364 9.30839 12.5922 9.29703 12.5543 9.27343C12.5165 9.24983 12.4868 9.21515 12.4693 9.17409C12.4531 9.11443 12.4456 9.05272 12.4472 8.99091C12.4506 8.66048 12.3852 8.33296 12.2551 8.0292C12.2256 7.9642 12.1931 7.89772 12.1561 7.8342C11.9447 7.46972 11.6308 7.17538 11.2535 6.98773C11.0259 6.88025 10.7842 6.80564 10.5356 6.76613C10.4263 6.74841 10.3169 6.73807 10.2076 6.72329C10.1792 6.72186 10.1513 6.71461 10.1258 6.70199C10.1002 6.68937 10.0775 6.67164 10.0591 6.6499C10.0407 6.62816 10.027 6.60287 10.0187 6.5756C10.0104 6.54834 10.0079 6.51966 10.0111 6.49136C10.0112 6.46241 10.0173 6.43379 10.0292 6.40738C10.041 6.38097 10.0583 6.35736 10.0799 6.33811C10.1016 6.31886 10.127 6.3044 10.1546 6.29567C10.1822 6.28695 10.2114 6.28417 10.2401 6.2875C10.6739 6.30424 11.0988 6.41514 11.4855 6.6125C11.9576 6.85008 12.3427 7.23056 12.586 7.69977C12.7231 7.97374 12.8148 8.26807 12.8578 8.57136C12.8658 8.61092 12.8717 8.65086 12.8756 8.69102C12.883 8.77966 12.8859 8.86829 12.8933 8.97761C12.8933 8.98795 12.8948 9.00125 12.8948 9.02193Z" fill="#252432"/>
<path d="M11.8832 8.81722C11.8748 8.85467 11.8555 8.88876 11.8275 8.91509C11.7996 8.94142 11.7645 8.95879 11.7266 8.96495H11.6941C11.6457 8.96809 11.5976 8.95536 11.5571 8.9287C11.5166 8.90205 11.4858 8.86291 11.4696 8.81722C11.4604 8.793 11.4544 8.76767 11.4518 8.74188C11.4441 8.64247 11.4293 8.54374 11.4075 8.44643C11.3636 8.24943 11.2517 8.0742 11.0914 7.95154C11.0139 7.8959 10.9275 7.85393 10.8358 7.82745C10.7191 7.79347 10.5965 7.80234 10.4813 7.77427C10.4243 7.76418 10.3737 7.73192 10.3405 7.68458C10.3072 7.63723 10.2941 7.57865 10.304 7.52166C10.315 7.46706 10.3455 7.41835 10.3898 7.38463C10.4341 7.35091 10.4892 7.3345 10.5448 7.33847C11.2214 7.38722 11.7266 7.71222 11.8566 8.43756C11.87 8.50491 11.8794 8.57298 11.8847 8.64143C11.893 8.69977 11.8925 8.75903 11.8832 8.81722Z" fill="#252432"/>
</svg>
