<svg width="48" height="18" viewBox="0 0 48 18" fill="none" xmlns="http://www.w3.org/2000/svg">
<g clip-path="url(#clip0_10925_13020)">
<mask id="mask0_10925_13020" style="mask-type:luminance" maskUnits="userSpaceOnUse" x="0" y="0" width="48" height="18">
<path d="M48 0.831055H0V17.4464H48V0.831055Z" fill="white"/>
</mask>
<g mask="url(#mask0_10925_13020)">
<path d="M42.1333 6.78512L42.9333 11.2159H39.7332L41.3332 6.92358L41.5999 6.09281L41.7332 5.4005C41.7332 5.53896 42.1333 6.78512 42.1333 6.78512ZM11.8666 16.6159L17.7333 1.52358H13.7333L10.1332 11.9082L9.73324 9.69281L8.39991 2.76973C8.26657 1.93896 7.59991 1.38512 6.53324 1.38512H0.533236L0.399902 1.66204C1.9999 1.93896 3.1999 2.49281 4.3999 3.32358L7.86657 16.7543H11.9999L11.8666 16.6159ZM20.7999 16.6159L23.1999 1.52358H19.4666L17.0666 16.8928H20.7999V16.6159ZM34.2666 11.7697C34.2666 10.1082 33.1999 8.72358 31.0666 7.47743C29.4666 6.78512 28.6666 6.23127 28.6666 5.67743C28.6666 4.84666 29.4666 4.43127 31.0666 4.43127C31.9999 4.43127 32.9333 4.43127 33.7332 5.12358H34.2666L34.6666 1.66204C33.4666 1.10819 32.3999 0.969727 31.1999 0.969727C29.9999 0.969727 28.9333 1.24665 27.9999 1.66204C27.0666 2.07743 26.2666 2.63127 25.5999 3.46204C25.0666 4.29281 24.7999 5.12358 24.7999 6.09281C24.7999 7.75435 25.8666 9.13896 28.2666 10.3851C29.4666 11.0774 30.1333 11.6313 30.1333 12.1851C30.1333 13.1543 29.3333 13.8467 27.8666 13.8467C26.6666 13.8467 25.3333 13.5697 24.2666 13.0159L23.7332 12.739L23.0666 16.062C24.3999 16.6159 25.8666 17.0313 27.3333 17.0313C29.0666 17.1697 30.6666 16.6159 31.9999 15.7851C33.5999 14.6774 34.2666 13.2928 34.2666 11.7697ZM47.5999 16.6159L44.5333 1.52358H41.5999C40.6666 1.52358 39.9999 1.8005 39.7332 2.76973L33.9999 16.8928H37.9999L38.6666 14.6774H43.7332L44.2666 17.0313H47.7332V16.6159H47.5999Z" fill="white"/>
</g>
</g>
<defs>
<clipPath id="clip0_10925_13020">
<rect width="48" height="18" fill="white"/>
</clipPath>
</defs>
</svg>
