<svg width="20" height="20" viewBox="0 0 20 20" fill="none" xmlns="http://www.w3.org/2000/svg">
<path d="M15.7314 4.26746C14.3789 2.90143 12.5827 2.06368 10.6669 1.90534C8.75111 1.74699 6.84177 2.27847 5.2833 3.40391C3.72484 4.52935 2.61985 6.17466 2.16764 8.04306C1.71543 9.91146 1.94578 11.88 2.81713 13.5935L1.96179 17.7461C1.95291 17.7874 1.95266 17.8301 1.96105 17.8716C1.96944 17.913 1.98629 17.9523 2.01054 17.9869C2.04607 18.0394 2.09678 18.0799 2.15591 18.1029C2.21504 18.1258 2.27977 18.1302 2.34145 18.1154L6.41133 17.1508C8.12004 18.0001 10.0746 18.2156 11.9273 17.759C13.7801 17.3024 15.4107 16.2034 16.5291 14.6574C17.6475 13.1114 18.1812 11.2187 18.0351 9.31617C17.8891 7.41364 17.0727 5.62462 15.7314 4.26746ZM14.4625 14.3956C13.5267 15.3288 12.3216 15.9448 11.0171 16.1569C9.71265 16.3689 8.37453 16.1662 7.19133 15.5775L6.62406 15.2968L4.12895 15.8877L4.13633 15.8567L4.65338 13.3453L4.37565 12.7972C3.77109 11.6099 3.55783 10.2617 3.7664 8.94575C3.97498 7.6298 4.5947 6.41362 5.53679 5.47144C6.72054 4.28806 8.32582 3.62327 9.99963 3.62327C11.6734 3.62327 13.2787 4.28806 14.4625 5.47144C14.4726 5.483 14.4834 5.49386 14.495 5.50394C15.664 6.69037 16.3167 8.29086 16.3106 9.95649C16.3045 11.6221 15.6402 13.2178 14.4625 14.3956Z" fill="#252432"/>
<path d="M14.2413 12.5534C13.9355 13.035 13.4524 13.6244 12.8452 13.7706C11.7816 14.0277 10.1492 13.7795 8.11796 11.8856L8.09284 11.8635C6.30682 10.2075 5.84296 8.82916 5.95523 7.73598C6.01728 7.11552 6.53432 6.55416 6.97012 6.1878C7.03901 6.12899 7.12072 6.08713 7.20869 6.06555C7.29666 6.04397 7.38846 6.04327 7.47675 6.06351C7.56504 6.08375 7.64737 6.12437 7.71715 6.18212C7.78694 6.23987 7.84224 6.31315 7.87864 6.39609L8.53603 7.87337C8.57874 7.96915 8.59458 8.07476 8.58182 8.17886C8.56907 8.28297 8.52822 8.38163 8.46364 8.46427L8.13125 8.89564C8.05993 8.98471 8.0169 9.09308 8.00768 9.20681C7.99847 9.32054 8.0235 9.43443 8.07955 9.53382C8.26568 9.8603 8.71182 10.3404 9.20671 10.7851C9.76216 11.2873 10.3782 11.7468 10.7682 11.9034C10.8725 11.946 10.9873 11.9564 11.0976 11.9332C11.2079 11.9101 11.3088 11.8544 11.3872 11.7734L11.7727 11.3848C11.8471 11.3115 11.9396 11.2592 12.0409 11.2332C12.1421 11.2073 12.2483 11.2086 12.3489 11.2371L13.9103 11.6803C13.9965 11.7067 14.0754 11.7525 14.1412 11.8141C14.2069 11.8757 14.2577 11.9515 14.2896 12.0358C14.3215 12.12 14.3338 12.2105 14.3254 12.3002C14.317 12.3899 14.2882 12.4765 14.2413 12.5534Z" fill="#252432"/>
</svg>
