<svg width="138" height="35" viewBox="0 0 138 35" fill="none" xmlns="http://www.w3.org/2000/svg">
<g clip-path="url(#clip0_2435_1224)">
<g opacity="0.5">
<path d="M48.9134 21.9792L42.4079 22.2064L41.2717 25.2523L37.9489 25.3683L43.7049 11.1383L46.9076 11.0265L53.6622 24.8196L50.2593 24.9385L48.9134 21.9792ZM47.8066 19.5528L45.3974 14.2658L43.3628 19.708L47.8066 19.5528ZM64.1361 17.2189L67.0986 17.1154L67.2971 22.8003C66.5565 23.4007 65.6912 23.8718 64.701 24.2137C63.7109 24.5556 62.7087 24.7442 61.6945 24.7796C60.24 24.8304 58.9215 24.5692 57.739 23.9958C56.5561 23.4092 55.612 22.5804 54.9065 21.5094C54.214 20.4246 53.8434 19.1883 53.795 17.8005C53.7465 16.4126 54.0301 15.1602 54.6458 14.0431C55.2744 12.9121 56.1651 12.0193 57.318 11.3644C58.4704 10.6962 59.7806 10.3365 61.2485 10.2852C62.4762 10.2423 63.5977 10.4102 64.613 10.789C65.6283 11.1677 66.49 11.7389 67.1981 12.5024L65.1834 14.4968C64.1457 13.4775 62.9196 12.9926 61.5051 13.0419C60.611 13.0732 59.8235 13.2877 59.1426 13.6856C58.4618 14.0835 57.9397 14.6295 57.5765 15.3236C57.2133 16.0177 57.047 16.8051 57.0778 17.6858C57.1081 18.5532 57.3286 19.3205 57.7394 19.9875C58.1501 20.6546 58.7025 21.1698 59.3966 21.533C60.1036 21.8824 60.8975 22.0417 61.7782 22.011C62.7123 21.9784 63.5461 21.7488 64.2794 21.3224L64.1361 17.2189ZM79.291 23.9246L76.4524 20.1157L76.2922 20.1213L73.4698 20.2198L73.6062 24.1232L70.3634 24.2364L69.8741 10.2245L75.9392 10.0127C77.1803 9.96934 78.2618 10.1387 79.1837 10.5207C80.1189 10.9022 80.8467 11.4647 81.367 12.2081C81.8873 12.9515 82.1656 13.8436 82.202 14.8845C82.2383 15.9254 82.0162 16.835 81.5357 17.6134C81.068 18.3779 80.3808 18.9764 79.474 19.4089L82.774 23.803L79.291 23.9246ZM78.9192 14.9991C78.8917 14.2118 78.6172 13.6201 78.0956 13.2242C77.5736 12.8148 76.8255 12.6272 75.8514 12.6612L73.2091 12.7535L73.3797 17.6376L76.0219 17.5454C76.9961 17.5114 77.7293 17.272 78.2214 16.8272C78.7136 16.3825 78.9462 15.7731 78.9192 14.9991ZM84.5935 9.71046L87.8363 9.59722L88.3256 23.6091L85.0829 23.7224L84.5935 9.71046ZM98.3652 23.4991C96.9373 23.5489 95.6322 23.2872 94.4497 22.7139C93.2802 22.1268 92.3427 21.2977 91.6373 20.2267C90.9447 19.142 90.5742 17.9057 90.5257 16.5178C90.4772 15.13 90.7608 13.8775 91.3765 12.7604C92.0051 11.6295 92.8825 10.7371 94.0087 10.0831C95.1478 9.41538 96.4379 9.05635 97.8791 9.00602C99.0935 8.96361 100.195 9.13892 101.184 9.53193C102.187 9.92447 103.036 10.5094 103.731 11.2868L101.716 13.2812C100.73 12.22 99.5369 11.7138 98.1357 11.7628C97.2683 11.7931 96.5011 12.0136 95.834 12.4244C95.1665 12.8218 94.6511 13.3675 94.2879 14.0616C93.938 14.7553 93.7782 15.5358 93.8085 16.4032C93.8388 17.2706 94.0526 18.038 94.4501 18.7056C94.8608 19.3726 95.4133 19.8878 96.1073 20.251C96.801 20.6009 97.5815 20.7607 98.4489 20.7304C99.8501 20.6815 101.005 20.0867 101.914 18.946L104.063 20.7949C103.424 21.6322 102.618 22.2817 101.646 22.7432C100.673 23.2047 99.5796 23.4566 98.3652 23.4991ZM112.832 22.9938C111.378 23.0446 110.052 22.7769 108.856 22.1908C107.673 21.6041 106.729 20.7753 106.024 19.7043C105.331 18.6195 104.961 17.3899 104.913 16.0154C104.865 14.6409 105.149 13.3951 105.764 12.278C106.393 11.1471 107.277 10.2478 108.416 9.58002C109.568 8.91181 110.872 8.55231 112.326 8.50151C113.781 8.45072 115.1 8.71865 116.283 9.30531C117.465 9.89196 118.41 10.7274 119.116 11.8118C119.821 12.8827 120.198 14.1055 120.246 15.48C120.294 16.8545 120.004 18.1072 119.375 19.2381C118.746 20.3556 117.862 21.2483 116.723 21.916C115.584 22.5838 114.287 22.9431 112.832 22.9938ZM112.736 20.2315C113.563 20.2026 114.304 19.9897 114.958 19.5927C115.612 19.1824 116.114 18.6305 116.464 17.9368C116.827 17.2427 116.993 16.462 116.963 15.5946C116.933 14.7272 116.712 13.96 116.302 13.2929C115.904 12.6254 115.365 12.1164 114.685 11.7661C114.004 11.4024 113.25 11.235 112.423 11.2639C111.595 11.2928 110.855 11.5123 110.201 11.9226C109.547 12.3196 109.038 12.8651 108.675 13.5592C108.325 14.2528 108.165 15.0334 108.196 15.9008C108.226 16.7682 108.44 17.5356 108.837 18.2032C109.248 18.8702 109.794 19.3856 110.475 19.7493C111.155 20.0997 111.909 20.2604 112.736 20.2315ZM135.289 7.94013L135.779 21.9521L133.116 22.045L125.833 13.7817L126.13 22.289L122.928 22.4008L122.438 8.38889L125.121 8.29523L132.384 16.5592L132.087 8.05197L135.289 7.94013Z" fill="#797A7C"/>
<path d="M48.9134 21.9792L42.4079 22.2064L41.2717 25.2523L37.9489 25.3683L43.7049 11.1383L46.9076 11.0265L53.6622 24.8196L50.2593 24.9385L48.9134 21.9792ZM47.8066 19.5528L45.3974 14.2658L43.3628 19.708L47.8066 19.5528ZM64.1361 17.2189L67.0986 17.1154L67.2971 22.8003C66.5565 23.4007 65.6912 23.8718 64.701 24.2137C63.7109 24.5556 62.7087 24.7442 61.6945 24.7796C60.24 24.8304 58.9215 24.5692 57.739 23.9958C56.5561 23.4092 55.612 22.5804 54.9065 21.5094C54.214 20.4246 53.8434 19.1883 53.795 17.8005C53.7465 16.4126 54.0301 15.1602 54.6458 14.0431C55.2744 12.9121 56.1651 12.0193 57.318 11.3644C58.4704 10.6962 59.7806 10.3365 61.2485 10.2852C62.4762 10.2423 63.5977 10.4102 64.613 10.789C65.6283 11.1677 66.49 11.7389 67.1981 12.5024L65.1834 14.4968C64.1457 13.4775 62.9196 12.9926 61.5051 13.0419C60.611 13.0732 59.8235 13.2877 59.1426 13.6856C58.4618 14.0835 57.9397 14.6295 57.5765 15.3236C57.2133 16.0177 57.047 16.8051 57.0778 17.6858C57.1081 18.5532 57.3286 19.3205 57.7394 19.9875C58.1501 20.6546 58.7025 21.1698 59.3966 21.533C60.1036 21.8824 60.8975 22.0417 61.7782 22.011C62.7123 21.9784 63.5461 21.7488 64.2794 21.3224L64.1361 17.2189ZM79.291 23.9246L76.4524 20.1157L76.2922 20.1213L73.4698 20.2198L73.6062 24.1232L70.3634 24.2364L69.8741 10.2245L75.9392 10.0127C77.1803 9.96934 78.2618 10.1387 79.1837 10.5207C80.1189 10.9022 80.8467 11.4647 81.367 12.2081C81.8873 12.9515 82.1656 13.8436 82.202 14.8845C82.2383 15.9254 82.0162 16.835 81.5357 17.6134C81.068 18.3779 80.3808 18.9764 79.474 19.4089L82.774 23.803L79.291 23.9246ZM78.9192 14.9991C78.8917 14.2118 78.6172 13.6201 78.0956 13.2242C77.5736 12.8148 76.8255 12.6272 75.8514 12.6612L73.2091 12.7535L73.3797 17.6376L76.0219 17.5454C76.9961 17.5114 77.7293 17.272 78.2214 16.8272C78.7136 16.3825 78.9462 15.7731 78.9192 14.9991ZM84.5935 9.71046L87.8363 9.59722L88.3256 23.6091L85.0829 23.7224L84.5935 9.71046ZM98.3652 23.4991C96.9373 23.5489 95.6322 23.2872 94.4497 22.7139C93.2802 22.1268 92.3427 21.2977 91.6373 20.2267C90.9447 19.142 90.5742 17.9057 90.5257 16.5178C90.4772 15.13 90.7608 13.8775 91.3765 12.7604C92.0051 11.6295 92.8825 10.7371 94.0087 10.0831C95.1478 9.41538 96.4379 9.05635 97.8791 9.00602C99.0935 8.96361 100.195 9.13892 101.184 9.53193C102.187 9.92447 103.036 10.5094 103.731 11.2868L101.716 13.2812C100.73 12.22 99.5369 11.7138 98.1357 11.7628C97.2683 11.7931 96.5011 12.0136 95.834 12.4244C95.1665 12.8218 94.6511 13.3675 94.2879 14.0616C93.938 14.7553 93.7782 15.5358 93.8085 16.4032C93.8388 17.2706 94.0526 18.038 94.4501 18.7056C94.8608 19.3726 95.4133 19.8878 96.1073 20.251C96.801 20.6009 97.5815 20.7607 98.4489 20.7304C99.8501 20.6815 101.005 20.0867 101.914 18.946L104.063 20.7949C103.424 21.6322 102.618 22.2817 101.646 22.7432C100.673 23.2047 99.5796 23.4566 98.3652 23.4991ZM112.832 22.9938C111.378 23.0446 110.052 22.7769 108.856 22.1908C107.673 21.6041 106.729 20.7753 106.024 19.7043C105.331 18.6195 104.961 17.3899 104.913 16.0154C104.865 14.6409 105.149 13.3951 105.764 12.278C106.393 11.1471 107.277 10.2478 108.416 9.58002C109.568 8.91181 110.872 8.55231 112.326 8.50151C113.781 8.45072 115.1 8.71865 116.283 9.30531C117.465 9.89196 118.41 10.7274 119.116 11.8118C119.821 12.8827 120.198 14.1055 120.246 15.48C120.294 16.8545 120.004 18.1072 119.375 19.2381C118.746 20.3556 117.862 21.2483 116.723 21.916C115.584 22.5838 114.287 22.9431 112.832 22.9938ZM112.736 20.2315C113.563 20.2026 114.304 19.9897 114.958 19.5927C115.612 19.1824 116.114 18.6305 116.464 17.9368C116.827 17.2427 116.993 16.462 116.963 15.5946C116.933 14.7272 116.712 13.96 116.302 13.2929C115.904 12.6254 115.365 12.1164 114.685 11.7661C114.004 11.4024 113.25 11.235 112.423 11.2639C111.595 11.2928 110.855 11.5123 110.201 11.9226C109.547 12.3196 109.038 12.8651 108.675 13.5592C108.325 14.2528 108.165 15.0334 108.196 15.9008C108.226 16.7682 108.44 17.5356 108.837 18.2032C109.248 18.8702 109.794 19.3856 110.475 19.7493C111.155 20.0997 111.909 20.2604 112.736 20.2315ZM135.289 7.94013L135.779 21.9521L133.116 22.045L125.833 13.7817L126.13 22.289L122.928 22.4008L122.438 8.38889L125.121 8.29523L132.384 16.5592L132.087 8.05197L135.289 7.94013Z" fill="#252432"/>
</g>
<path d="M11.9416 17.4314L15.4147 17.3101C14.8025 14.7898 14.4387 12.1679 14.3447 9.47689C14.3288 9.01954 14.3195 8.56198 14.3235 8.1038C13.1657 11.0578 12.3525 14.1852 11.9416 17.4314Z" fill="#EF3E21"/>
<path d="M11.9416 17.4314L15.4147 17.3101C14.8025 14.7898 14.4387 12.1679 14.3447 9.47689C14.3288 9.01954 14.3195 8.56198 14.3235 8.1038C13.1657 11.0578 12.3525 14.1852 11.9416 17.4314Z" fill="#252432"/>
<path d="M11.6405 21.9015L11.6407 21.9082L17.2022 22.8686C16.5992 21.3766 16.0741 19.8288 15.6534 18.2374L11.8357 18.3707C11.7167 19.5298 11.652 20.7132 11.6405 21.9015Z" fill="#EF3E21"/>
<path d="M11.6405 21.9015L11.6407 21.9082L17.2022 22.8686C16.5992 21.3766 16.0741 19.8288 15.6534 18.2374L11.8357 18.3707C11.7167 19.5298 11.652 20.7132 11.6405 21.9015Z" fill="#252432"/>
<path d="M11.6421 22.8638C11.6391 23.1559 11.649 23.441 11.6592 23.7325C11.7768 27.0996 12.315 30.3525 13.2328 33.4461C14.0332 33.5643 14.8509 33.6021 15.6794 33.5731C18.0786 33.4893 20.3254 32.8334 22.2846 31.7365C20.4488 29.332 18.8904 26.7053 17.651 23.9015L11.6421 22.8638Z" fill="#EF3E21"/>
<path d="M11.6421 22.8638C11.6391 23.1559 11.649 23.441 11.6592 23.7325C11.7768 27.0996 12.315 30.3525 13.2328 33.4461C14.0332 33.5643 14.8509 33.6021 15.6794 33.5731C18.0786 33.4893 20.3254 32.8334 22.2846 31.7365C20.4488 29.332 18.8904 26.7053 17.651 23.9015L11.6421 22.8638Z" fill="#252432"/>
<path d="M0.644531 20.958C1.30827 25.7129 4.23485 29.7053 8.27857 31.8601C8.12385 30.6578 8.0215 29.4403 7.97845 28.2074C7.90809 26.1925 7.99138 24.2054 8.2222 22.2661L0.644531 20.958Z" fill="#EF3E21"/>
<path d="M0.644531 20.958C1.30827 25.7129 4.23485 29.7053 8.27857 31.8601C8.12385 30.6578 8.0215 29.4403 7.97845 28.2074C7.90809 26.1925 7.99138 24.2054 8.2222 22.2661L0.644531 20.958Z" fill="#252432"/>
<path d="M0.511432 19.4295C0.517912 19.6151 0.531064 19.8004 0.537545 19.986L8.33573 21.333C8.47443 20.3659 8.64712 19.4175 8.85305 18.4745L0.508159 18.7659C0.502593 18.9851 0.503563 19.2042 0.511432 19.4295Z" fill="#EF3E21"/>
<path d="M0.511432 19.4295C0.517912 19.6151 0.531064 19.8004 0.537545 19.986L8.33573 21.333C8.47443 20.3659 8.64712 19.4175 8.85305 18.4745L0.508159 18.7659C0.502593 18.9851 0.503563 19.2042 0.511432 19.4295Z" fill="#252432"/>
<path d="M15.1522 4.259L14.5088 4.27466C7.02139 4.60265 1.07558 10.5041 0.541687 17.8293L9.07229 17.5314C10.1462 13.1273 11.9799 9.00857 14.4196 5.32649C14.6592 4.96639 14.8988 4.60619 15.1522 4.259Z" fill="#EF3E21"/>
<path d="M15.1522 4.259L14.5088 4.27466C7.02139 4.60265 1.07558 10.5041 0.541687 17.8293L9.07229 17.5314C10.1462 13.1273 11.9799 9.00857 14.4196 5.32649C14.6592 4.96639 14.8988 4.60619 15.1522 4.259Z" fill="#252432"/>
<path d="M15.8079 4.79292C16.3466 9.1938 17.6135 13.3569 19.4787 17.1674L29.6792 16.8112C28.6967 9.95691 23.0051 4.70081 16.0754 4.2792L15.75 4.27051C15.7692 4.44242 15.7885 4.61434 15.8077 4.78608C15.8077 4.78608 15.8077 4.78608 15.8079 4.79292Z" fill="#EF3E21"/>
<path d="M15.8079 4.79292C16.3466 9.1938 17.6135 13.3569 19.4787 17.1674L29.6792 16.8112C28.6967 9.95691 23.0051 4.70081 16.0754 4.2792L15.75 4.27051C15.7692 4.44242 15.7885 4.61434 15.8077 4.78608C15.8077 4.78608 15.8077 4.78608 15.8079 4.79292Z" fill="#252432"/>
<path d="M26.9565 27.6239C27.4066 27.0174 27.8093 26.3861 28.1574 25.7169L24.6523 25.1094C25.3862 25.9796 26.1521 26.8223 26.9565 27.6239Z" fill="#EF3E21"/>
<path d="M26.9565 27.6239C27.4066 27.0174 27.8093 26.3861 28.1574 25.7169L24.6523 25.1094C25.3862 25.9796 26.1521 26.8223 26.9565 27.6239Z" fill="#252432"/>
<path d="M29.7796 17.7434L19.9434 18.0869C21.0384 20.1789 22.3151 22.152 23.7534 23.9997L28.5871 24.8328C29.4544 22.8715 29.9023 20.6923 29.8225 18.4057C29.8146 18.1803 29.8006 17.9617 29.7796 17.7434Z" fill="#EF3E21"/>
<path d="M29.7796 17.7434L19.9434 18.0869C21.0384 20.1789 22.3151 22.152 23.7534 23.9997L28.5871 24.8328C29.4544 22.8715 29.9023 20.6923 29.8225 18.4057C29.8146 18.1803 29.8006 17.9617 29.7796 17.7434Z" fill="#252432"/>
</g>
<defs>
<clipPath id="clip0_2435_1224">
<rect width="137" height="29.3762" fill="white" transform="translate(0 4.78125) rotate(-2)"/>
</clipPath>
</defs>
</svg>
