<svg width="137" height="30" viewBox="0 0 137 30" fill="none" xmlns="http://www.w3.org/2000/svg">
<g clip-path="url(#clip0_2623_1456)">
<g opacity="0.5">
<path d="M48.2832 18.8932H41.7737L40.5319 21.8975H37.207L43.4562 7.87707H46.6608L52.93 21.8975H49.525L48.2832 18.8932ZM47.2617 16.4296L45.0385 11.0617L42.8152 16.4296H47.2617ZM63.6627 14.667H66.627V20.3553C65.8659 20.9295 64.9847 21.3701 63.9832 21.6772C62.9817 21.9843 61.9736 22.1379 60.9588 22.1379C59.5033 22.1379 58.1947 21.8308 57.033 21.2165C55.8713 20.589 54.9567 19.7277 54.289 18.6328C53.6347 17.5245 53.3076 16.276 53.3076 14.8873C53.3076 13.4986 53.6347 12.2568 54.289 11.1619C54.9567 10.0536 55.878 9.19232 57.0531 8.57809C58.2281 7.95051 59.55 7.63672 61.0189 7.63672C62.2473 7.63672 63.3623 7.84369 64.3637 8.25762C65.3652 8.67156 66.2064 9.27244 66.8874 10.0603L64.8044 11.9831C63.8029 10.9282 62.5945 10.4008 61.1791 10.4008C60.2845 10.4008 59.49 10.5877 58.7956 10.9616C58.1013 11.3355 57.5605 11.8629 57.1732 12.5439C56.786 13.2249 56.5924 14.006 56.5924 14.8873C56.5924 15.7552 56.786 16.5297 57.1732 17.2107C57.5605 17.8917 58.0946 18.4258 58.7756 18.813C59.4699 19.1869 60.2577 19.3739 61.139 19.3739C62.0737 19.3739 62.915 19.1736 63.6627 18.773V14.667ZM78.5744 21.8975L75.8704 17.9918H75.7102H72.8861V21.8975H69.6413V7.87707H75.7102C76.952 7.87707 78.0269 8.08404 78.9349 8.49798C79.8562 8.91191 80.5639 9.49944 81.058 10.2605C81.552 11.0217 81.7991 11.923 81.7991 12.9645C81.7991 14.006 81.5454 14.9073 81.0379 15.6684C80.5439 16.4162 79.8362 16.9904 78.9149 17.391L82.0594 21.8975H78.5744ZM78.5143 12.9645C78.5143 12.1767 78.2606 11.5758 77.7532 11.1619C77.2458 10.7346 76.5047 10.5209 75.5299 10.5209H72.8861V15.4081H75.5299C76.5047 15.4081 77.2458 15.1944 77.7532 14.7671C78.2606 14.3398 78.5143 13.739 78.5143 12.9645ZM84.3697 7.87707H87.6145V21.8975H84.3697V7.87707ZM97.6518 22.1379C96.223 22.1379 94.9278 21.8308 93.7661 21.2165C92.6178 20.589 91.7098 19.7277 91.0422 18.6328C90.3879 17.5245 90.0607 16.276 90.0607 14.8873C90.0607 13.4986 90.3879 12.2568 91.0422 11.1619C91.7098 10.0536 92.6178 9.19232 93.7661 8.57809C94.9278 7.95051 96.2297 7.63672 97.6718 7.63672C98.8869 7.63672 99.9819 7.85036 100.957 8.27765C101.945 8.70494 102.773 9.31918 103.44 10.1203L101.357 12.0432C100.409 10.9482 99.2341 10.4008 97.8321 10.4008C96.9641 10.4008 96.1897 10.5944 95.5087 10.9816C94.8277 11.3555 94.2936 11.8829 93.9063 12.5639C93.5325 13.2449 93.3455 14.0194 93.3455 14.8873C93.3455 15.7552 93.5325 16.5297 93.9063 17.2107C94.2936 17.8917 94.8277 18.4258 95.5087 18.813C96.1897 19.1869 96.9641 19.3739 97.8321 19.3739C99.2341 19.3739 100.409 18.8197 101.357 17.7114L103.44 19.6342C102.773 20.4488 101.945 21.0697 100.957 21.497C99.9685 21.9242 98.8669 22.1379 97.6518 22.1379ZM112.128 22.1379C110.672 22.1379 109.357 21.8241 108.182 21.1965C107.02 20.5689 106.106 19.7077 105.438 18.6127C104.784 17.5045 104.457 16.2626 104.457 14.8873C104.457 13.512 104.784 12.2768 105.438 11.1819C106.106 10.0736 107.02 9.20568 108.182 8.57809C109.357 7.95051 110.672 7.63672 112.128 7.63672C113.583 7.63672 114.892 7.95051 116.054 8.57809C117.215 9.20568 118.13 10.0736 118.798 11.1819C119.465 12.2768 119.799 13.512 119.799 14.8873C119.799 16.2626 119.465 17.5045 118.798 18.6127C118.13 19.7077 117.215 20.5689 116.054 21.1965C114.892 21.8241 113.583 22.1379 112.128 22.1379ZM112.128 19.3739C112.956 19.3739 113.703 19.1869 114.371 18.813C115.039 18.4258 115.56 17.8917 115.933 17.2107C116.321 16.5297 116.514 15.7552 116.514 14.8873C116.514 14.0194 116.321 13.2449 115.933 12.5639C115.56 11.8829 115.039 11.3555 114.371 10.9816C113.703 10.5944 112.956 10.4008 112.128 10.4008C111.3 10.4008 110.552 10.5944 109.885 10.9816C109.217 11.3555 108.69 11.8829 108.302 12.5639C107.928 13.2449 107.741 14.0194 107.741 14.8873C107.741 15.7552 107.928 16.5297 108.302 17.2107C108.69 17.8917 109.217 18.4258 109.885 18.813C110.552 19.1869 111.3 19.3739 112.128 19.3739ZM135.096 7.87707V21.8975H132.432L125.442 13.3851V21.8975H122.238V7.87707H124.921L131.892 16.3895V7.87707H135.096Z" fill="#797A7C"/>
<path d="M48.2832 18.8932H41.7737L40.5319 21.8975H37.207L43.4562 7.87707H46.6608L52.93 21.8975H49.525L48.2832 18.8932ZM47.2617 16.4296L45.0385 11.0617L42.8152 16.4296H47.2617ZM63.6627 14.667H66.627V20.3553C65.8659 20.9295 64.9847 21.3701 63.9832 21.6772C62.9817 21.9843 61.9736 22.1379 60.9588 22.1379C59.5033 22.1379 58.1947 21.8308 57.033 21.2165C55.8713 20.589 54.9567 19.7277 54.289 18.6328C53.6347 17.5245 53.3076 16.276 53.3076 14.8873C53.3076 13.4986 53.6347 12.2568 54.289 11.1619C54.9567 10.0536 55.878 9.19232 57.0531 8.57809C58.2281 7.95051 59.55 7.63672 61.0189 7.63672C62.2473 7.63672 63.3623 7.84369 64.3637 8.25762C65.3652 8.67156 66.2064 9.27244 66.8874 10.0603L64.8044 11.9831C63.8029 10.9282 62.5945 10.4008 61.1791 10.4008C60.2845 10.4008 59.49 10.5877 58.7956 10.9616C58.1013 11.3355 57.5605 11.8629 57.1732 12.5439C56.786 13.2249 56.5924 14.006 56.5924 14.8873C56.5924 15.7552 56.786 16.5297 57.1732 17.2107C57.5605 17.8917 58.0946 18.4258 58.7756 18.813C59.4699 19.1869 60.2577 19.3739 61.139 19.3739C62.0737 19.3739 62.915 19.1736 63.6627 18.773V14.667ZM78.5744 21.8975L75.8704 17.9918H75.7102H72.8861V21.8975H69.6413V7.87707H75.7102C76.952 7.87707 78.0269 8.08404 78.9349 8.49798C79.8562 8.91191 80.5639 9.49944 81.058 10.2605C81.552 11.0217 81.7991 11.923 81.7991 12.9645C81.7991 14.006 81.5454 14.9073 81.0379 15.6684C80.5439 16.4162 79.8362 16.9904 78.9149 17.391L82.0594 21.8975H78.5744ZM78.5143 12.9645C78.5143 12.1767 78.2606 11.5758 77.7532 11.1619C77.2458 10.7346 76.5047 10.5209 75.5299 10.5209H72.8861V15.4081H75.5299C76.5047 15.4081 77.2458 15.1944 77.7532 14.7671C78.2606 14.3398 78.5143 13.739 78.5143 12.9645ZM84.3697 7.87707H87.6145V21.8975H84.3697V7.87707ZM97.6518 22.1379C96.223 22.1379 94.9278 21.8308 93.7661 21.2165C92.6178 20.589 91.7098 19.7277 91.0422 18.6328C90.3879 17.5245 90.0607 16.276 90.0607 14.8873C90.0607 13.4986 90.3879 12.2568 91.0422 11.1619C91.7098 10.0536 92.6178 9.19232 93.7661 8.57809C94.9278 7.95051 96.2297 7.63672 97.6718 7.63672C98.8869 7.63672 99.9819 7.85036 100.957 8.27765C101.945 8.70494 102.773 9.31918 103.44 10.1203L101.357 12.0432C100.409 10.9482 99.2341 10.4008 97.8321 10.4008C96.9641 10.4008 96.1897 10.5944 95.5087 10.9816C94.8277 11.3555 94.2936 11.8829 93.9063 12.5639C93.5325 13.2449 93.3455 14.0194 93.3455 14.8873C93.3455 15.7552 93.5325 16.5297 93.9063 17.2107C94.2936 17.8917 94.8277 18.4258 95.5087 18.813C96.1897 19.1869 96.9641 19.3739 97.8321 19.3739C99.2341 19.3739 100.409 18.8197 101.357 17.7114L103.44 19.6342C102.773 20.4488 101.945 21.0697 100.957 21.497C99.9685 21.9242 98.8669 22.1379 97.6518 22.1379ZM112.128 22.1379C110.672 22.1379 109.357 21.8241 108.182 21.1965C107.02 20.5689 106.106 19.7077 105.438 18.6127C104.784 17.5045 104.457 16.2626 104.457 14.8873C104.457 13.512 104.784 12.2768 105.438 11.1819C106.106 10.0736 107.02 9.20568 108.182 8.57809C109.357 7.95051 110.672 7.63672 112.128 7.63672C113.583 7.63672 114.892 7.95051 116.054 8.57809C117.215 9.20568 118.13 10.0736 118.798 11.1819C119.465 12.2768 119.799 13.512 119.799 14.8873C119.799 16.2626 119.465 17.5045 118.798 18.6127C118.13 19.7077 117.215 20.5689 116.054 21.1965C114.892 21.8241 113.583 22.1379 112.128 22.1379ZM112.128 19.3739C112.956 19.3739 113.703 19.1869 114.371 18.813C115.039 18.4258 115.56 17.8917 115.933 17.2107C116.321 16.5297 116.514 15.7552 116.514 14.8873C116.514 14.0194 116.321 13.2449 115.933 12.5639C115.56 11.8829 115.039 11.3555 114.371 10.9816C113.703 10.5944 112.956 10.4008 112.128 10.4008C111.3 10.4008 110.552 10.5944 109.885 10.9816C109.217 11.3555 108.69 11.8829 108.302 12.5639C107.928 13.2449 107.741 14.0194 107.741 14.8873C107.741 15.7552 107.928 16.5297 108.302 17.2107C108.69 17.8917 109.217 18.4258 109.885 18.813C110.552 19.1869 111.3 19.3739 112.128 19.3739ZM135.096 7.87707V21.8975H132.432L125.442 13.3851V21.8975H122.238V7.87707H124.921L131.892 16.3895V7.87707H135.096Z" fill="#131313"/>
</g>
<path d="M11.4922 13.0581H14.9674C14.4436 10.518 14.1715 7.885 14.1715 5.19233C14.1715 4.7347 14.1782 4.2771 14.1982 3.81934C12.9381 6.73111 12.0162 9.82824 11.4922 13.0581Z" fill="#EF3E21"/>
<path d="M11.4922 13.0581H14.9674C14.4436 10.518 14.1715 7.885 14.1715 5.19233C14.1715 4.7347 14.1782 4.2771 14.1982 3.81934C12.9381 6.73111 12.0162 9.82824 11.4922 13.0581Z" fill="#131313"/>
<path d="M11.0352 17.515V17.5216L16.5597 18.6755C16.0092 17.1635 15.5384 15.5983 15.1735 13.9932H11.3535C11.1941 15.1474 11.0881 16.3278 11.0352 17.515Z" fill="#EF3E21"/>
<path d="M11.0352 17.515V17.5216L16.5597 18.6755C16.0092 17.1635 15.5384 15.5983 15.1735 13.9932H11.3535C11.1941 15.1474 11.0881 16.3278 11.0352 17.515Z" fill="#131313"/>
<path d="M11.0035 18.4766C10.9902 18.7684 10.9902 19.0537 10.9902 19.3453C10.9902 22.7145 11.4146 25.9842 12.2238 29.1079C13.0196 29.254 13.8355 29.3203 14.6645 29.3203C17.0652 29.3203 19.3335 28.7431 21.3298 27.7152C19.579 25.2481 18.1133 22.5687 16.9725 19.7234L11.0035 18.4766Z" fill="#EF3E21"/>
<path d="M11.0035 18.4766C10.9902 18.7684 10.9902 19.0537 10.9902 19.3453C10.9902 22.7145 11.4146 25.9842 12.2238 29.1079C13.0196 29.254 13.8355 29.3203 14.6645 29.3203C17.0652 29.3203 19.3335 28.7431 21.3298 27.7152C19.579 25.2481 18.1133 22.5687 16.9725 19.7234L11.0035 18.4766Z" fill="#131313"/>
<path d="M0.0800781 16.1885C0.57747 20.9636 3.36293 25.0557 7.32899 27.3504C7.21632 26.1434 7.15653 24.923 7.15653 23.6894C7.15653 21.6733 7.30912 19.6903 7.60748 17.7602L0.0800781 16.1885Z" fill="#EF3E21"/>
<path d="M0.0800781 16.1885C0.57747 20.9636 3.36293 25.0557 7.32899 27.3504C7.21632 26.1434 7.15653 24.923 7.15653 23.6894C7.15653 21.6733 7.30912 19.6903 7.60748 17.7602L0.0800781 16.1885Z" fill="#131313"/>
<path d="M0 14.6585C0 14.8441 0.00667641 15.0298 0.00667641 15.2155L7.75311 16.8338C7.92546 15.8722 8.13115 14.9303 8.36987 13.9951H0.0198902C0.00667641 14.214 0 14.433 0 14.6585Z" fill="#EF3E21"/>
<path d="M0 14.6585C0 14.8441 0.00667641 15.0298 0.00667641 15.2155L7.75311 16.8338C7.92546 15.8722 8.13115 14.9303 8.36987 13.9951H0.0198902C0.00667641 14.214 0 14.433 0 14.6585Z" fill="#131313"/>
<path d="M15.1612 0.00582352L14.5176 -0.000976562C7.0233 0.0655022 0.875144 5.75589 0.0859375 13.0579H8.62174C9.84868 8.69405 11.825 4.64179 14.3917 1.04709C14.6437 0.695576 14.8958 0.343954 15.1612 0.00582352Z" fill="#EF3E21"/>
<path d="M15.1612 0.00582352L14.5176 -0.000976562C7.0233 0.0655022 0.875144 5.75589 0.0859375 13.0579H8.62174C9.84868 8.69405 11.825 4.64179 14.3917 1.04709C14.6437 0.695576 14.8958 0.343954 15.1612 0.00582352Z" fill="#131313"/>
<path d="M15.7974 0.562196C16.1822 4.9792 17.3031 9.18395 19.0341 13.0572H29.2409C28.4982 6.17286 22.9935 0.721324 16.0827 0.0581347L15.7578 0.0380859C15.771 0.210569 15.7843 0.383052 15.7974 0.555357C15.7974 0.555357 15.7974 0.555359 15.7974 0.562196Z" fill="#EF3E21"/>
<path d="M15.7974 0.562196C16.1822 4.9792 17.3031 9.18395 19.0341 13.0572H29.2409C28.4982 6.17286 22.9935 0.721324 16.0827 0.0581347L15.7578 0.0380859C15.771 0.210569 15.7843 0.383052 15.7974 0.555357C15.7974 0.555357 15.7974 0.555359 15.7974 0.562196Z" fill="#131313"/>
<path d="M26.1428 23.7691C26.6138 23.1788 27.0382 22.5619 27.4095 21.9053L23.9277 21.1758C24.6307 22.0711 25.3668 22.94 26.1428 23.7691Z" fill="#EF3E21"/>
<path d="M26.1428 23.7691C26.6138 23.1788 27.0382 22.5619 27.4095 21.9053L23.9277 21.1758C24.6307 22.0711 25.3668 22.94 26.1428 23.7691Z" fill="#131313"/>
<path d="M29.309 13.9941H19.4668C20.4881 16.1231 21.6952 18.1395 23.0682 20.0363L27.8698 21.0376C28.8051 19.1077 29.3288 16.9455 29.3288 14.6575C29.3288 14.432 29.3224 14.213 29.309 13.9941Z" fill="#EF3E21"/>
<path d="M29.309 13.9941H19.4668C20.4881 16.1231 21.6952 18.1395 23.0682 20.0363L27.8698 21.0376C28.8051 19.1077 29.3288 16.9455 29.3288 14.6575C29.3288 14.432 29.3224 14.213 29.309 13.9941Z" fill="#131313"/>
</g>
<defs>
<clipPath id="clip0_2623_1456">
<rect width="137" height="29.3762" fill="white"/>
</clipPath>
</defs>
</svg>
