<svg width="50" height="41" viewBox="0 0 50 41" fill="none" xmlns="http://www.w3.org/2000/svg">
<g clip-path="url(#clip0_2623_1673)">
<g opacity="0.5">
<path d="M28.0954 11.2264C28.0954 14.7893 25.1946 17.6901 21.6317 17.6901C18.0687 17.6901 15.168 14.7893 15.168 11.2264C15.168 7.66348 18.0687 4.7627 21.6317 4.7627C25.1946 4.79423 28.0954 7.66348 28.0954 11.2264ZM26.0144 11.2264C26.0144 8.79857 24.0595 6.8437 21.6317 6.8437C19.2038 6.8437 17.249 8.79857 17.249 11.2264C17.249 13.6542 19.2038 15.6091 21.6317 15.6091C24.0595 15.6091 26.0144 13.6542 26.0144 11.2264Z" fill="white"/>
<path d="M28.0954 11.2264C28.0954 14.7893 25.1946 17.6901 21.6317 17.6901C18.0687 17.6901 15.168 14.7893 15.168 11.2264C15.168 7.66348 18.0687 4.7627 21.6317 4.7627C25.1946 4.79423 28.0954 7.66348 28.0954 11.2264ZM26.0144 11.2264C26.0144 8.79857 24.0595 6.8437 21.6317 6.8437C19.2038 6.8437 17.249 8.79857 17.249 11.2264C17.249 13.6542 19.2038 15.6091 21.6317 15.6091C24.0595 15.6091 26.0144 13.6542 26.0144 11.2264Z" fill="#131313"/>
</g>
<g opacity="0.5">
<path d="M49.8822 1.0405V16.5219C49.8822 17.8777 47.8327 17.8777 47.8327 16.5219V15.8282C43.7338 19.6434 36.9863 16.7426 36.9863 11.0987C36.9863 5.48627 43.7023 2.55395 47.8327 6.36912V1.0405C47.8327 0.472955 48.3057 0 48.8732 0C49.4408 0 49.8822 0.472955 49.8822 1.0405ZM47.8327 11.0987C47.8327 8.67082 45.8778 6.71595 43.45 6.71595C41.0222 6.71595 39.0673 8.67082 39.0673 11.0987C39.0673 13.5265 41.0222 15.4814 43.45 15.4814C45.8778 15.4814 47.8327 13.5265 47.8327 11.0987Z" fill="white"/>
<path d="M49.8822 1.0405V16.5219C49.8822 17.8777 47.8327 17.8777 47.8327 16.5219V15.8282C43.7338 19.6434 36.9863 16.7426 36.9863 11.0987C36.9863 5.48627 43.7023 2.55395 47.8327 6.36912V1.0405C47.8327 0.472955 48.3057 0 48.8732 0C49.4408 0 49.8822 0.472955 49.8822 1.0405ZM47.8327 11.0987C47.8327 8.67082 45.8778 6.71595 43.45 6.71595C41.0222 6.71595 39.0673 8.67082 39.0673 11.0987C39.0673 13.5265 41.0222 15.4814 43.45 15.4814C45.8778 15.4814 47.8327 13.5265 47.8327 11.0987Z" fill="#131313"/>
</g>
<g opacity="0.5">
<path d="M12.8979 1.16745C12.8979 0.599908 12.4249 0.126953 11.8574 0.126953C11.2898 0.126953 10.8169 0.599908 10.8169 1.16745V7.91492H2.05142V1.16745C2.05142 -0.188349 0.00195313 -0.188349 0.00195312 1.16745C0.00195312 6.08617 0.00195312 19.9594 0.00195312 24.4367C0.00195312 25.7925 2.05142 25.7925 2.05142 24.4367L2.05142 9.90133H10.8169V24.4367C10.8169 25.7925 12.8663 25.7925 12.8663 24.4367V12.0138C12.8979 12.0138 12.8979 1.16745 12.8979 1.16745Z" fill="white"/>
<path d="M12.8979 1.16745C12.8979 0.599908 12.4249 0.126953 11.8574 0.126953C11.2898 0.126953 10.8169 0.599908 10.8169 1.16745V7.91492H2.05142V1.16745C2.05142 -0.188349 0.00195313 -0.188349 0.00195312 1.16745C0.00195312 6.08617 0.00195312 19.9594 0.00195312 24.4367C0.00195312 25.7925 2.05142 25.7925 2.05142 24.4367L2.05142 9.90133H10.8169V24.4367C10.8169 25.7925 12.8663 25.7925 12.8663 24.4367V12.0138C12.8979 12.0138 12.8979 1.16745 12.8979 1.16745Z" fill="#131313"/>
</g>
<path d="M12.8979 24.4673V34.5255C12.8979 40.4532 5.42515 42.4396 5.42515 39.9487C5.42515 39.3811 5.89811 38.9082 6.46565 38.9082C8.86195 38.9082 10.8169 36.9848 10.8484 34.5885C6.71789 38.4037 0.00195312 35.4714 0.00195312 29.859L0.00195312 24.4358C0.00195313 23.08 2.05142 23.08 2.05142 24.4358V29.859C2.05142 32.2868 4.00629 34.2417 6.43412 34.2417C8.86195 34.2417 10.8169 32.2868 10.8169 29.859V24.4358C10.8484 23.1115 12.8979 23.1115 12.8979 24.4673Z" fill="#262524"/>
<path d="M12.8979 24.4673V34.5255C12.8979 40.4532 5.42515 42.4396 5.42515 39.9487C5.42515 39.3811 5.89811 38.9082 6.46565 38.9082C8.86195 38.9082 10.8169 36.9848 10.8484 34.5885C6.71789 38.4037 0.00195312 35.4714 0.00195312 29.859L0.00195312 24.4358C0.00195313 23.08 2.05142 23.08 2.05142 24.4358V29.859C2.05142 32.2868 4.00629 34.2417 6.43412 34.2417C8.86195 34.2417 10.8169 32.2868 10.8169 29.859V24.4358C10.8484 23.1115 12.8979 23.1115 12.8979 24.4673Z" fill="#131313"/>
<path d="M28.0934 29.8905C28.0934 33.4534 25.1926 36.3542 21.6297 36.3542C18.0667 36.3542 15.166 33.4534 15.166 29.8905C15.166 26.3276 18.0667 23.4268 21.6297 23.4268C25.1926 23.4583 28.0934 26.3276 28.0934 29.8905ZM26.0124 29.8905C26.0124 27.4627 24.0575 25.5078 21.6297 25.5078C19.2018 25.5078 17.247 27.4627 17.247 29.8905C17.247 32.3183 19.2018 34.2732 21.6297 34.2732C24.0575 34.2732 26.0124 32.3183 26.0124 29.8905Z" fill="#262524"/>
<path d="M28.0934 29.8905C28.0934 33.4534 25.1926 36.3542 21.6297 36.3542C18.0667 36.3542 15.166 33.4534 15.166 29.8905C15.166 26.3276 18.0667 23.4268 21.6297 23.4268C25.1926 23.4583 28.0934 26.3276 28.0934 29.8905ZM26.0124 29.8905C26.0124 27.4627 24.0575 25.5078 21.6297 25.5078C19.2018 25.5078 17.247 27.4627 17.247 29.8905C17.247 32.3183 19.2018 34.2732 21.6297 34.2732C24.0575 34.2732 26.0124 32.3183 26.0124 29.8905Z" fill="#131313"/>
<g opacity="0.5">
<path d="M40.9262 25.2244C40.9262 22.166 39.1605 21.2831 36.2913 19.9904C33.5481 18.7292 30.1113 17.1842 30.1113 12.1394V1.22995C30.1113 -0.157379 32.2239 -0.157379 32.2239 1.22995V12.1394C32.2239 15.8284 34.5256 16.8689 37.1741 18.0671C39.9172 19.2967 43.1649 20.9363 42.9757 25.2244C42.9441 26.6748 40.9262 26.5802 40.9262 25.2244Z" fill="white"/>
<path d="M40.9262 25.2244C40.9262 22.166 39.1605 21.2831 36.2913 19.9904C33.5481 18.7292 30.1113 17.1842 30.1113 12.1394V1.22995C30.1113 -0.157379 32.2239 -0.157379 32.2239 1.22995V12.1394C32.2239 15.8284 34.5256 16.8689 37.1741 18.0671C39.9172 19.2967 43.1649 20.9363 42.9757 25.2244C42.9441 26.6748 40.9262 26.5802 40.9262 25.2244Z" fill="#131313"/>
</g>
<path d="M43.0075 24.468V29.8912C43.0075 33.4542 40.1068 36.3549 36.5438 36.3549C32.9809 36.3549 30.0801 33.4542 30.0801 29.8912V24.468C30.0801 23.1122 32.1296 23.1122 32.1296 24.468V29.8912C32.1296 32.3191 34.0845 34.2739 36.5123 34.2739C38.9401 34.2739 40.895 32.3191 40.895 29.8912V24.468C40.9265 23.1122 43.0075 23.1122 43.0075 24.468Z" fill="#262524"/>
<path d="M43.0075 24.468V29.8912C43.0075 33.4542 40.1068 36.3549 36.5438 36.3549C32.9809 36.3549 30.0801 33.4542 30.0801 29.8912V24.468C30.0801 23.1122 32.1296 23.1122 32.1296 24.468V29.8912C32.1296 32.3191 34.0845 34.2739 36.5123 34.2739C38.9401 34.2739 40.895 32.3191 40.895 29.8912V24.468C40.9265 23.1122 43.0075 23.1122 43.0075 24.468Z" fill="#131313"/>
</g>
<defs>
<clipPath id="clip0_2623_1673">
<rect width="50" height="41" fill="white"/>
</clipPath>
</defs>
</svg>
