<svg width="67" height="11" viewBox="0 0 67 11" fill="none" xmlns="http://www.w3.org/2000/svg">
<g clip-path="url(#clip0_10925_12066)">
<path d="M6.39732 0.384754C6.33768 0.26742 6.25193 0.17392 6.14009 0.104254C6.02825 0.0345871 5.90522 -0.000246233 5.77101 -0.000246233C5.6368 -0.000246233 5.51191 0.0345871 5.39634 0.104254C5.28077 0.17392 5.19316 0.26742 5.13351 0.384754L3.73548 3.23375L0.592719 3.68475C0.465965 3.69942 0.350395 3.74892 0.246009 3.83325C0.141623 3.91759 0.0707894 4.02209 0.0335087 4.14675C-0.00377204 4.27142 -0.00750012 4.39792 0.0223244 4.52625C0.052149 4.65459 0.115526 4.76275 0.212456 4.85075L2.48285 7.07275L1.94601 10.1968C1.92364 10.3288 1.93855 10.4534 1.99075 10.5708C2.04294 10.6881 2.12123 10.7871 2.22561 10.8678C2.33 10.9484 2.4493 10.9924 2.58351 10.9998C2.71772 11.0071 2.84447 10.9814 2.96377 10.9228L5.77101 9.44875L8.57825 10.9228C8.69754 10.9814 8.82243 11.0071 8.95292 10.9998C9.0834 10.9924 9.20456 10.9503 9.3164 10.8733C9.42825 10.7963 9.5084 10.6973 9.55686 10.5763C9.60533 10.4553 9.61838 10.3288 9.59601 10.1968L9.04798 7.07275L11.3296 4.85075C11.4265 4.76275 11.4899 4.65459 11.5197 4.52625C11.5495 4.39792 11.5421 4.27142 11.4973 4.14675C11.4526 4.02209 11.3818 3.91759 11.2848 3.83325C11.1879 3.74892 11.0723 3.69942 10.9381 3.68475L7.80654 3.23375L6.39732 0.384754Z" fill="#FACC15"/>
<path d="M19.9964 0.384754C19.9368 0.26742 19.8511 0.17392 19.7392 0.104254C19.6274 0.0345871 19.5043 -0.000246233 19.3701 -0.000246233C19.2359 -0.000246233 19.111 0.0345871 18.9955 0.104254C18.8799 0.17392 18.7923 0.26742 18.7326 0.384754L17.3346 3.23375L14.1918 3.68475C14.0651 3.69942 13.9495 3.74892 13.8451 3.83325C13.7407 3.91759 13.6699 4.02209 13.6326 4.14675C13.5953 4.27142 13.5916 4.39792 13.6214 4.52625C13.6513 4.65459 13.7146 4.76275 13.8116 4.85075L16.082 7.07275L15.5451 10.1968C15.5228 10.3288 15.5377 10.4534 15.5899 10.5708C15.6421 10.6881 15.7203 10.7871 15.8247 10.8678C15.9291 10.9484 16.0484 10.9924 16.1826 10.9998C16.3168 11.0071 16.4436 10.9814 16.5629 10.9228L19.3701 9.44875L22.1774 10.9228C22.2967 10.9814 22.4216 11.0071 22.552 10.9998C22.6825 10.9924 22.8037 10.9503 22.9155 10.8733C23.0274 10.7963 23.1075 10.6973 23.156 10.5763C23.2044 10.4553 23.2175 10.3288 23.1951 10.1968L22.6471 7.07275L24.9287 4.85075C25.0256 4.76275 25.089 4.65459 25.1188 4.52625C25.1486 4.39792 25.1412 4.27142 25.0964 4.14675C25.0517 4.02209 24.9809 3.91759 24.8839 3.83325C24.787 3.74892 24.6714 3.69942 24.5372 3.68475L21.4057 3.23375L19.9964 0.384754Z" fill="#FACC15"/>
<path d="M33.5951 0.384754C33.5354 0.26742 33.4497 0.17392 33.3378 0.104254C33.226 0.0345871 33.103 -0.000246233 32.9688 -0.000246233C32.8346 -0.000246233 32.7097 0.0345871 32.5941 0.104254C32.4785 0.17392 32.3909 0.26742 32.3313 0.384754L30.9332 3.23375L27.7905 3.68475C27.6637 3.69942 27.5481 3.74892 27.4438 3.83325C27.3394 3.91759 27.2685 4.02209 27.2313 4.14675C27.194 4.27142 27.1903 4.39792 27.2201 4.52625C27.2499 4.65459 27.3133 4.76275 27.4102 4.85075L29.6806 7.07275L29.1438 10.1968C29.1214 10.3288 29.1363 10.4534 29.1885 10.5708C29.2407 10.6881 29.319 10.7871 29.4234 10.8678C29.5278 10.9484 29.6471 10.9924 29.7813 10.9998C29.9155 11.0071 30.0422 10.9814 30.1615 10.9228L32.9688 9.44875L35.776 10.9228C35.8953 10.9814 36.0202 11.0071 36.1507 10.9998C36.2812 10.9924 36.4023 10.9503 36.5142 10.8733C36.626 10.7963 36.7062 10.6973 36.7546 10.5763C36.8031 10.4553 36.8161 10.3288 36.7938 10.1968L36.2457 7.07275L38.5273 4.85075C38.6242 4.76275 38.6876 4.65459 38.7174 4.52625C38.7473 4.39792 38.7398 4.27142 38.6951 4.14675C38.6503 4.02209 38.5795 3.91759 38.4826 3.83325C38.3856 3.74892 38.2701 3.69942 38.1359 3.68475L35.0043 3.23375L33.5951 0.384754Z" fill="#FACC15"/>
<path d="M47.1947 0.384754C47.135 0.26742 47.0493 0.17392 46.9375 0.104254C46.8256 0.0345871 46.7026 -0.000246233 46.5684 -0.000246233C46.4342 -0.000246233 46.3093 0.0345871 46.1937 0.104254C46.0781 0.17392 45.9905 0.26742 45.9309 0.384754L44.5328 3.23375L41.3901 3.68475C41.2633 3.69942 41.1478 3.74892 41.0434 3.83325C40.939 3.91759 40.8682 4.02209 40.8309 4.14675C40.7936 4.27142 40.7899 4.39792 40.8197 4.52625C40.8495 4.65459 40.9129 4.76275 41.0098 4.85075L43.2802 7.07275L42.7434 10.1968C42.721 10.3288 42.7359 10.4534 42.7881 10.5708C42.8403 10.6881 42.9186 10.7871 43.023 10.8678C43.1274 10.9484 43.2467 10.9924 43.3809 10.9998C43.5151 11.0071 43.6418 10.9814 43.7611 10.9228L46.5684 9.44875L49.3756 10.9228C49.4949 10.9814 49.6198 11.0071 49.7503 10.9998C49.8808 10.9924 50.0019 10.9503 50.1138 10.8733C50.2256 10.7963 50.3058 10.6973 50.3542 10.5763C50.4027 10.4553 50.4157 10.3288 50.3934 10.1968L49.8453 7.07275L52.1269 4.85075C52.2239 4.76275 52.2872 4.65459 52.3171 4.52625C52.3469 4.39792 52.3394 4.27142 52.2947 4.14675C52.25 4.02209 52.1791 3.91759 52.0822 3.83325C51.9853 3.74892 51.8697 3.69942 51.7355 3.68475L48.6039 3.23375L47.1947 0.384754Z" fill="#FACC15"/>
<path d="M60.7933 0.384754C60.7337 0.26742 60.6479 0.17392 60.5361 0.104254C60.4242 0.0345871 60.3012 -0.000246233 60.167 -0.000246233C60.0328 -0.000246233 59.9079 0.0345871 59.7923 0.104254C59.6768 0.17392 59.5892 0.26742 59.5295 0.384754L58.1315 3.23375L54.9887 3.68475C54.862 3.69942 54.7464 3.74892 54.642 3.83325C54.5376 3.91759 54.4668 4.02209 54.4295 4.14675C54.3922 4.27142 54.3885 4.39792 54.4183 4.52625C54.4481 4.65459 54.5115 4.76275 54.6085 4.85075L56.8788 7.07275L56.342 10.1968C56.3196 10.3288 56.3345 10.4534 56.3867 10.5708C56.4389 10.6881 56.5172 10.7871 56.6216 10.8678C56.726 10.9484 56.8453 10.9924 56.9795 10.9998C57.1137 11.0071 57.2405 10.9814 57.3598 10.9228L60.167 9.44875L62.9742 10.9228C63.0935 10.9814 63.2184 11.0071 63.3489 10.9998C63.4794 10.9924 63.6006 10.9503 63.7124 10.8733C63.8242 10.7963 63.9044 10.6973 63.9529 10.5763C64.0013 10.4553 64.0144 10.3288 63.992 10.1968L63.444 7.07275L65.7256 4.85075C65.8225 4.76275 65.8859 4.65459 65.9157 4.52625C65.9455 4.39792 65.9381 4.27142 65.8933 4.14675C65.8486 4.02209 65.7778 3.91759 65.6808 3.83325C65.5839 3.74892 65.4683 3.69942 65.3341 3.68475L62.2025 3.23375L60.7933 0.384754Z" fill="#FACC15"/>
</g>
<defs>
<clipPath id="clip0_10925_12066">
<rect width="68" height="11" fill="white" transform="matrix(1 0 0 -1 0 11)"/>
</clipPath>
</defs>
</svg>
