<svg width="26" height="26" viewBox="0 0 26 26" fill="none" xmlns="http://www.w3.org/2000/svg">
<path d="M8.75 19.5H6V20.875C6 21.6342 6.61564 22.25 7.375 22.25C8.13433 22.25 8.75 21.6342 8.75 20.875V19.5ZM20 19.5H17.25V20.875C17.25 21.6343 17.8657 22.25 18.625 22.25C19.3843 22.2499 20 21.6342 20 20.875V19.5ZM8.86816 4.5C7.89062 4.5 7.05639 5.20672 6.89551 6.1709L6.08984 11H19.9102L19.1045 6.1709C18.9437 5.20673 18.1094 4.5 17.1318 4.5H8.86816ZM22.5 14C22.5 12.8954 21.6046 12 20.5 12H5.5C4.39542 12 3.5 12.8954 3.5 14V16.5C3.5 17.6046 4.39543 18.5 5.5 18.5H20.5L20.7041 18.4893C21.7128 18.387 22.5 17.5357 22.5 16.5V14ZM23.5 16.5C23.5 17.9865 22.4188 19.2199 21 19.458V20.875C21 22.1865 19.9366 23.2499 18.625 23.25C17.3133 23.25 16.25 22.1865 16.25 20.875V19.5H9.75V20.875C9.75 22.1865 8.68661 23.25 7.375 23.25C6.06336 23.25 5 22.1865 5 20.875V19.458C3.58119 19.2199 2.5 17.9865 2.5 16.5V14C2.5 12.4887 3.61751 11.2383 5.07129 11.0303L5.9082 6.00684C6.1493 4.56028 7.40166 3.5 8.86816 3.5H17.1318C18.5984 3.5 19.8507 4.56026 20.0918 6.00684L20.9277 11.0303C22.382 11.2379 23.5 12.4883 23.5 14V16.5Z" fill="#363636"/>
</svg>
