<svg width="26" height="26" viewBox="0 0 26 26" fill="none" xmlns="http://www.w3.org/2000/svg">
<path d="M23 7.2002V8H10V7.2002H23ZM23.2002 7V3C23.2002 2.88954 23.1105 2.7998 23 2.7998H10C9.88954 2.7998 9.7998 2.88954 9.7998 3V7C9.7998 7.11046 9.88954 7.2002 10 7.2002V8L9.89746 7.99512C9.39333 7.94379 9 7.51768 9 7V3C9 2.44772 9.44772 2 10 2H23C23.5523 2 24 2.44772 24 3V7C24 7.55228 23.5523 8 23 8V7.2002C23.1105 7.2002 23.2002 7.11046 23.2002 7Z" fill="#FACC15"/>
<path d="M11 14.2002V15H3V14.2002H11ZM11.2002 14V10C11.2002 9.88954 11.1105 9.7998 11 9.7998H3C2.88954 9.7998 2.7998 9.88954 2.7998 10V14C2.7998 14.1105 2.88954 14.2002 3 14.2002V15C2.44772 15 2 14.5523 2 14V10C2 9.44772 2.44772 9 3 9H11C11.5523 9 12 9.44772 12 10V14C12 14.5523 11.5523 15 11 15V14.2002C11.1105 14.2002 11.2002 14.1105 11.2002 14Z" fill="#FACC15"/>
<path d="M21 14.2002V15H14V14.2002H21ZM21.2002 14V10C21.2002 9.88954 21.1105 9.7998 21 9.7998H14C13.8895 9.7998 13.7998 9.88954 13.7998 10V14C13.7998 14.1105 13.8895 14.2002 14 14.2002V15L13.8975 14.9951C13.3933 14.9438 13 14.5177 13 14V10C13 9.44772 13.4477 9 14 9H21C21.5523 9 22 9.44772 22 10V14C22 14.5523 21.5523 15 21 15V14.2002C21.1105 14.2002 21.2002 14.1105 21.2002 14Z" fill="#FACC15"/>
<path d="M19 21.2002V22H10V21.2002H19ZM19.2002 21V17C19.2002 16.8895 19.1105 16.7998 19 16.7998H10C9.88954 16.7998 9.7998 16.8895 9.7998 17V21C9.7998 21.1105 9.88954 21.2002 10 21.2002V22L9.89746 21.9951C9.39333 21.9438 9 21.5177 9 21V17C9 16.4477 9.44772 16 10 16H19C19.5523 16 20 16.4477 20 17V21C20 21.5523 19.5523 22 19 22V21.2002C19.1105 21.2002 19.2002 21.1105 19.2002 21Z" fill="#FACC15"/>
<path d="M20.5 23C21.8807 23 23 21.8807 23 20.5L24.0996 20.5C24.0996 22.4882 22.4882 24.0996 20.5 24.0996C18.5118 24.0996 16.9004 22.4882 16.9004 20.5L16.9004 18C16.9004 16.8402 17.8402 15.9004 19 15.9004L22 15.9004C23.1598 15.9004 24.0996 16.8402 24.0996 18L23 18C23 17.4477 22.5523 17 22 17L19 17C18.4823 17 18.0562 17.3933 18.0049 17.8975L18 18L18 20.5L18.0127 20.7559C18.1323 21.9323 19.0677 22.8677 20.2441 22.9873L20.5 23ZM24.0996 20.5L23 20.5L23 18L24.0996 18L24.0996 20.5Z" fill="#363636"/>
<path d="M18.6664 4.37698C19.4574 2.9414 21.5432 2.9414 22.3343 4.37698L22.4095 4.52542L25.7015 11.708C26.6426 13.7614 25.1419 16.0996 22.8831 16.0996H18.1175C15.8587 16.0996 14.358 13.7614 15.2992 11.708L18.5912 4.52542L18.6664 4.37698ZM21.4095 4.98342C21.053 4.20563 19.9476 4.20563 19.5912 4.98342L16.2992 12.167L16.2464 12.291C15.7683 13.5423 16.6452 14.9092 17.9818 14.9961L18.1175 15H22.8831C24.295 15 25.2483 13.584 24.7542 12.291L24.7015 12.167L21.4095 4.98342Z" fill="#363636"/>
<path d="M19.9004 15H21V17H19.9004V15Z" fill="#FACC15"/>
<path d="M19 17L22 17C22.5523 17 23 17.4477 23 18L23 20.5C23 21.8807 21.8807 23 20.5 23L20.2441 22.9873C19.0677 22.8677 18.1323 21.9323 18.0127 20.7559L18 20.5L18.7998 20.5C18.7998 21.4389 19.5611 22.2002 20.5 22.2002C21.4389 22.2002 22.2002 21.4389 22.2002 20.5L22.2002 18C22.2002 17.8895 22.1105 17.7998 22 17.7998L19 17.7998C18.8895 17.7998 18.7998 17.8895 18.7998 18L18 18L18.0049 17.8975C18.0528 17.427 18.427 17.0528 18.8975 17.0049L19 17ZM18.7998 20.5L18 20.5L18 18L18.7998 18L18.7998 20.5Z" fill="#FACC15"/>
<path d="M19.5909 4.98325C19.9474 4.20545 21.0528 4.20545 21.4093 4.98325L24.7013 12.1668C25.3083 13.4916 24.3401 14.9998 22.8829 14.9998V14.2C23.7572 14.2 24.3389 13.2947 23.9747 12.4998L20.6817 5.31626C20.6103 5.16115 20.3899 5.16115 20.3185 5.31626L17.0255 12.4998C16.6613 13.2947 17.243 14.2 18.1173 14.2V14.9998L17.9816 14.9959C16.645 14.909 15.7681 13.5421 16.2462 12.2909L16.2989 12.1668L19.5909 4.98325ZM22.8829 14.2V14.9998H18.1173V14.2H22.8829Z" fill="#FACC15"/>
<path d="M20.2002 15H21V17H20.2002V15Z" fill="#FACC15"/>
</svg>
