<svg width="26" height="26" viewBox="0 0 26 26" fill="none" xmlns="http://www.w3.org/2000/svg">
<path d="M19 23V24H8V23H19ZM23 19V8C23 5.79086 21.2091 4 19 4H8C5.79086 4 4 5.79086 4 8V19C4 21.2091 5.79086 23 8 23V24L7.74316 23.9932C5.10111 23.8595 3 21.6753 3 19V8C3 5.23858 5.23858 3 8 3H19C21.7614 3 24 5.23858 24 8V19C24 21.7614 21.7614 24 19 24V23C21.2091 23 23 21.2091 23 19Z" fill="#363636"/>
<path d="M20 13.5C20 9.91015 17.0899 7 13.5 7C9.91015 7 7 9.91015 7 13.5C7 17.0899 9.91015 20 13.5 20V21C9.35786 21 6 17.6421 6 13.5C6 9.35786 9.35786 6 13.5 6C17.6421 6 21 9.35786 21 13.5C21 17.6421 17.6421 21 13.5 21V20C17.0899 20 20 17.0899 20 13.5Z" fill="#363636"/>
<path d="M12 13.5C12 14.3284 11.5523 15 11 15C10.4477 15 10 14.3284 10 13.5C10 12.6716 10.4477 12 11 12C11.5523 12 12 12.6716 12 13.5Z" fill="#363636"/>
<path d="M17 13.5C17 14.3284 16.5523 15 16 15C15.4477 15 15 14.3284 15 13.5C15 12.6716 15.4477 12 16 12C16.5523 12 17 12.6716 17 13.5Z" fill="#363636"/>
</svg>
