<svg width="26" height="26" viewBox="0 0 26 26" fill="none" xmlns="http://www.w3.org/2000/svg">
<path d="M20.0698 22.0698C21.1487 22.0698 22.0233 21.2369 22.0233 20.2093V5.7907C22.0233 4.76315 21.1487 3.93023 20.0698 3.93023H4.93023C3.85131 3.93023 2.97674 4.76315 2.97674 5.7907V20.2093C2.97674 21.2369 3.85131 22.0698 4.93023 22.0698H20.0698ZM20.0698 23H4.93023C3.31188 23 2 21.7506 2 20.2093V5.7907C2 4.24941 3.31188 3 4.93023 3H20.0698C21.6881 3 23 4.24941 23 5.7907V20.2093C23 21.7506 21.6881 23 20.0698 23Z" fill="#363636"/>
<path d="M13.732 16.5996C13.9242 16.8616 14.0293 17.1771 14.0293 17.5093C14.0293 18.3598 13.3398 19.0493 12.4893 19.0493C11.6387 19.0493 10.9493 18.3599 10.9493 17.5093C10.9493 17.1928 11.0446 16.8915 11.2201 16.6371L10.4956 16.1376C10.2196 16.5378 10.0693 17.013 10.0693 17.5093C10.0693 18.8459 11.1527 19.9293 12.4893 19.9293C13.8258 19.9293 14.9093 18.8459 14.9093 17.5093C14.9093 16.9883 14.7436 16.4908 14.4415 16.0791L13.732 16.5996Z" fill="#363636"/>
<path d="M13.9243 16.9291C14.0452 17.1399 14.3141 17.2128 14.5249 17.0919C14.7357 16.971 14.8086 16.7021 14.6877 16.4913L13.1992 13.8957C12.8498 13.286 12.1287 13.286 11.7792 13.8959L10.2908 16.4913C10.1699 16.7021 10.2428 16.971 10.4536 17.0918C10.6644 17.2127 10.9333 17.1398 11.0542 16.9291L12.4892 14.4267L13.9243 16.9291L13.9243 16.9291Z" fill="#363636"/>
<path d="M15.5711 12.9283C16.0524 13.5852 16.3158 14.3769 16.3158 15.2095C16.3158 17.3414 14.5895 19.0696 12.4603 19.0696C10.3309 19.0696 8.60461 17.3415 8.60461 15.2095C8.60461 14.4164 8.84352 13.6602 9.28313 13.0219L8.55838 12.5228C8.01843 13.3068 7.72461 14.2367 7.72461 15.2095C7.72461 17.8273 9.84475 19.9496 12.4603 19.9496C15.0757 19.9496 17.1958 17.8273 17.1958 15.2095C17.1958 14.1883 16.8718 13.2147 16.2809 12.4082L15.5711 12.9283Z" fill="#363636"/>
<path d="M16.0192 13.6931C16.14 13.9039 16.4089 13.977 16.6197 13.8562C16.8306 13.7354 16.9036 13.4665 16.7828 13.2557L13.1695 6.94782C12.8202 6.33773 12.0995 6.33773 11.7498 6.94767L8.1364 13.2557C8.01562 13.4665 8.08864 13.7354 8.29949 13.8562C8.51034 13.977 8.77919 13.9039 8.9 13.6931L12.4596 7.47894L16.0192 13.6931Z" fill="#363636"/>
</svg>
