<svg width="26" height="26" viewBox="0 0 26 26" fill="none" xmlns="http://www.w3.org/2000/svg">
<path d="M22.7181 25.4281L18.8946 12.4912C18.8629 12.3846 18.792 12.3002 18.7027 12.244C18.5096 9.46661 16.1943 7.26465 13.3683 7.26465C10.5422 7.26465 8.2274 9.46661 8.03379 12.244C7.94457 12.3002 7.87364 12.3846 7.84196 12.4912L4.01843 25.4281C3.97828 25.5628 4.0046 25.7087 4.08891 25.8216C4.17278 25.934 4.30527 26.0005 4.44624 26.0005H22.2903C22.4308 26.0005 22.5633 25.934 22.6476 25.8216C22.7319 25.7087 22.7583 25.5633 22.7181 25.4281ZM13.3683 8.15685C15.6777 8.15685 17.5826 9.92074 17.807 12.1718H8.92956C9.1535 9.92074 11.0588 8.15685 13.3683 8.15685ZM18.6885 25.1087L16.9041 17.4242C16.8487 17.1837 16.6074 17.0347 16.3687 17.0905C16.1287 17.1462 15.9797 17.3858 16.0355 17.6258L17.7731 25.1087H13.8144V19.7368C13.8144 19.4905 13.615 19.2906 13.3683 19.2906C13.1216 19.2906 12.9222 19.4905 12.9222 19.7368V25.1087H8.9425L10.6796 17.6258C10.7354 17.3858 10.5859 17.1462 10.3464 17.0905C10.1073 17.0343 9.86637 17.1837 9.81106 17.4242L8.0271 25.1087H5.04312L8.60346 13.064H18.1335L21.6934 25.1087H18.6885Z" fill="#363636"/>
<path d="M13.8141 1H12.9219V7.26416H13.8141V1Z" fill="#363636"/>
</svg>
