<svg width="26" height="26" viewBox="0 0 26 26" fill="none" xmlns="http://www.w3.org/2000/svg">
<path d="M20.8446 2.6875C20.1893 2.6875 19.5732 2.94291 19.1098 3.40628L18.0545 4.46155H18.0543L14.3282 8.18759C14.0501 8.46594 14.0501 8.91861 14.3282 9.19696L15.4564 10.3251C15.447 10.3328 13.0548 12.7165 13.0548 12.7165L9.38683 9.04859C9.14926 8.81102 8.83472 8.68001 8.50081 8.68001C7.97011 8.68001 7.50699 9.00068 7.32141 9.49667L2.78232 21.6134C2.63549 22.0054 2.68723 22.426 2.92403 22.7675C3.16057 23.1091 3.546 23.3125 3.95433 23.3125C4.09351 23.3125 4.23243 23.289 4.36726 23.2427L16.7645 18.9839C17.1772 18.8422 17.4821 18.5037 17.5805 18.0785C17.6789 17.6533 17.5534 17.2154 17.2447 16.9065L13.6084 13.2702C13.6084 13.2702 15.9919 10.878 15.9998 10.8686L16.79 11.6587C16.9248 11.7938 17.104 11.8677 17.2947 11.8677C17.4856 11.8677 17.6648 11.7938 17.7996 11.6587L21.5185 7.93983L22.5809 6.87743C23.0444 6.41401 23.2997 5.79771 23.2997 5.14261C23.2997 4.48703 23.0443 3.8712 22.5794 3.40628C22.116 2.94291 21.4999 2.6875 20.8446 2.6875ZM16.6909 17.4601C16.8091 17.5784 16.8553 17.7395 16.8175 17.9021C16.7801 18.0647 16.6679 18.1891 16.5099 18.2436L4.11289 22.5025C3.90668 22.5718 3.68926 22.4973 3.5674 22.3215C3.51566 22.2465 3.4397 22.0906 3.51566 21.8877L8.0548 9.77103C8.13966 9.54415 8.34819 9.46311 8.50086 9.46311C8.58907 9.46311 8.71828 9.48756 8.83322 9.60229L12.5012 13.2702L10.1949 15.5765C10.042 15.7294 10.042 15.9772 10.1946 16.1301C10.2711 16.2066 10.3715 16.2448 10.4717 16.2448C10.5719 16.2448 10.6721 16.2065 10.7485 16.1301L13.0548 13.8238L16.6909 17.4601ZM17.2947 11.0562L14.9311 8.6923L18.5592 5.06414L20.9229 7.42803L17.2947 11.0562ZM22.0273 6.32382L21.5186 6.83257L19.1547 4.46868L19.6635 3.95993C20.2946 3.32881 21.3932 3.3273 22.0273 3.96148C22.3429 4.27704 22.5167 4.69607 22.5167 5.14265C22.5167 5.58871 22.3429 6.00825 22.0273 6.32382Z" fill="#363636"/>
</svg>
