<svg width="26" height="26" viewBox="0 0 26 26" fill="none" xmlns="http://www.w3.org/2000/svg">
<path d="M22.8711 5.16992V3.87773C22.8711 2.75117 21.9578 1.83789 20.8312 1.83789H7.41953C6.29297 1.83789 5.38047 2.75117 5.38047 3.87773V5.16992H4.99844C4.05781 5.16992 3.29688 5.93242 3.29688 6.87227V9.72305C3.29688 10.6629 4.05859 11.4254 4.99844 11.4254L12.8398 11.423C13.3188 11.423 13.7094 11.8129 13.7094 12.2926V15.1668H12.0445V25.1629H16.2094V15.1668H14.5422V12.2926C14.5422 11.3527 13.7797 10.5902 12.8398 10.5902H11.8086V10.5926H4.99922C4.52031 10.5926 4.13047 10.2027 4.13047 9.72305V6.87227C4.13047 6.39336 4.52031 6.00273 4.99922 6.00273H5.38125V7.29492C5.38125 8.42148 6.29375 9.33476 7.42031 9.33476H20.832C21.9586 9.33476 22.8719 8.42148 22.8719 7.29492V6.00273H23.7047V5.16992H22.8711ZM15.375 24.3285H12.8758V15.998H15.375V24.3285ZM22.0383 7.29492C22.0383 7.96055 21.4961 8.50195 20.8312 8.50195H7.41953C6.75391 8.50195 6.21328 7.96055 6.21328 7.29492V3.87773C6.21328 3.21211 6.75391 2.6707 7.41953 2.6707H20.8312C21.4969 2.6707 22.0383 3.21211 22.0383 3.87773V7.29492Z" fill="#363636"/>
</svg>
