<svg width="26" height="26" viewBox="0 0 26 26" fill="none" xmlns="http://www.w3.org/2000/svg">
<path d="M10.811 12.1654L10.1918 12.2871C10.1592 12.2938 10.1413 12.3196 10.1478 12.3528L10.6084 14.6966L10.5816 14.7022L8.80594 12.6168C8.77661 12.5828 8.74081 12.5725 8.7024 12.5801L8.04492 12.7095C8.01235 12.716 7.99447 12.7417 8.00153 12.7748L8.71206 16.3887C8.71835 16.4219 8.74462 16.4397 8.77719 16.4333L9.39635 16.3115C9.42892 16.3048 9.4468 16.2787 9.44051 16.2456L8.98042 13.9073L9.00782 13.902L10.7873 15.981C10.8166 16.015 10.8474 16.0259 10.8914 16.0177L11.5432 15.8892C11.5757 15.8827 11.5936 15.8566 11.5866 15.8235L10.8762 12.2093C10.8698 12.1763 10.8436 12.159 10.811 12.1654Z" fill="#363636"/>
<path d="M14.6176 14.5623L13.0125 14.8779C12.9908 14.8826 12.9774 14.8738 12.9736 14.8518L12.8216 14.0795C12.817 14.0578 12.826 14.0449 12.8477 14.0402L14.1844 13.7774C14.217 13.771 14.2348 13.7451 14.2286 13.7123L14.1142 13.1319C14.1077 13.0993 14.0815 13.0814 14.0489 13.0876L12.7123 13.3507C12.6906 13.3548 12.6771 13.3457 12.6727 13.324L12.5275 12.5848C12.5231 12.5628 12.5321 12.5496 12.5538 12.5455L14.1589 12.2299C14.1915 12.2235 14.2093 12.1974 14.2023 12.1645L14.0873 11.5788C14.0808 11.5457 14.0547 11.5281 14.022 11.5345L11.6343 12.0041C11.601 12.0106 11.5837 12.0367 11.5902 12.0698L12.3007 15.684C12.3077 15.7168 12.3333 15.7344 12.3665 15.728L14.7542 15.2584C14.7869 15.2519 14.8048 15.2258 14.7978 15.193L14.6827 14.6069C14.6764 14.574 14.6502 14.5558 14.6176 14.5623Z" fill="#363636"/>
<path d="M18.9459 10.5661L18.2449 10.7039C18.2066 10.7113 18.188 10.7324 18.1899 10.772L18.1351 13.2108L18.1235 13.2129L17.0073 11.0045C16.9894 10.9731 16.9631 10.9559 16.9306 10.9623L16.4539 11.0559C16.4163 11.0635 16.3984 11.0893 16.3938 11.1251L16.2181 13.5877L16.2073 13.5901L15.2105 11.3574C15.199 11.3252 15.1728 11.3082 15.1345 11.3158L14.4278 11.4542C14.3895 11.4619 14.383 11.4859 14.3952 11.5179L16.0693 14.9423C16.0872 14.973 16.1133 14.991 16.146 14.9845L16.6936 14.8765C16.7319 14.8692 16.7498 14.8428 16.7542 14.8079L16.9504 12.3635L16.9612 12.3615L18.0628 14.5504C18.0801 14.5812 18.1063 14.5991 18.1446 14.5915L18.6922 14.4835C18.7305 14.4765 18.7535 14.4489 18.753 14.4146L19.0002 10.6122C18.9989 10.5778 18.9842 10.5585 18.9459 10.5661Z" fill="#363636"/>
<path d="M12.8943 1.45983C13.252 1.18787 13.7476 1.18787 14.1053 1.45983L16.1961 3.05065C16.3672 3.18078 16.5755 3.25102 16.7889 3.25378L16.8807 3.25085L19.4998 3.04382C19.9476 3.00841 20.3644 3.27615 20.5183 3.69811L21.4178 6.16686C21.5019 6.39767 21.6681 6.58977 21.8846 6.70593L24.2 7.94811C24.5959 8.16047 24.8016 8.61043 24.7029 9.0487L24.1258 11.6122L24.1092 11.702C24.0815 11.9135 24.1221 12.1294 24.2264 12.3173L25.5027 14.6141C25.721 15.0069 25.6509 15.497 25.3308 15.8124L23.4588 17.6561C23.2839 17.8285 23.1786 18.0595 23.1629 18.3046L22.9949 20.9266C22.9662 21.3749 22.6425 21.7493 22.2029 21.8417L19.6307 22.3807C19.3903 22.4312 19.1768 22.5688 19.031 22.7665L17.4725 24.8817L17.3631 25.0067C17.1271 25.2353 16.7926 25.3333 16.4705 25.2684L16.3113 25.2225L13.8562 24.286C13.6267 24.1984 13.3729 24.1984 13.1433 24.286L10.6883 25.2225L10.5291 25.2684C10.207 25.3333 9.87246 25.2353 9.63651 25.0067L9.52714 24.8817L7.96854 22.7665C7.84109 22.5935 7.66158 22.467 7.4578 22.4042L7.36894 22.3807L4.79667 21.8417C4.41197 21.7608 4.11628 21.464 4.02909 21.0907L4.00468 20.9266L3.83671 18.3046C3.82293 18.09 3.74008 17.8866 3.60233 17.7235L3.54081 17.6561L1.66874 15.8124C1.38869 15.5365 1.29922 15.1267 1.42753 14.7655L1.49687 14.6141L2.77323 12.3173C2.87753 12.1294 2.91813 11.9135 2.89042 11.702L2.87382 11.6122L2.29667 9.0487C2.21032 8.66523 2.35673 8.2724 2.65995 8.03796L2.7996 7.94811L5.11503 6.70593C5.30446 6.60428 5.45556 6.44477 5.54667 6.25182L5.58183 6.16686L6.48124 3.69811C6.63521 3.27615 7.05199 3.00841 7.49979 3.04382L10.1189 3.25085C10.3332 3.26779 10.5464 3.21541 10.7273 3.10241L10.8035 3.05065L12.8943 1.45983ZM13.5603 2.17663C13.5246 2.14943 13.475 2.14943 13.4392 2.17663L11.3475 3.76647C10.9758 4.04901 10.513 4.1851 10.0476 4.14831L7.42851 3.94128C7.38386 3.9379 7.3423 3.96462 7.32694 4.00671L6.42753 6.47546C6.26765 6.91408 5.95125 7.27823 5.53983 7.49889L3.2244 8.74108C3.18507 8.76241 3.16475 8.80775 3.1746 8.85143L3.75272 11.4139C3.85537 11.8693 3.78614 12.3467 3.55937 12.7548L2.283 15.0516C2.26129 15.0909 2.26861 15.1403 2.30058 15.1717L4.17167 17.0155C4.50417 17.3431 4.70525 17.7812 4.73515 18.2469L4.90214 20.869C4.90501 20.9139 4.93824 20.9516 4.98222 20.9608L7.55351 21.4999C8.01036 21.5957 8.41622 21.8565 8.69315 22.2323L10.2517 24.3475C10.2784 24.3836 10.326 24.3977 10.368 24.3817L12.8221 23.4452C13.2583 23.2788 13.7413 23.2788 14.1775 23.4452L16.6316 24.3817C16.6736 24.3977 16.7212 24.3836 16.7478 24.3475L18.3064 22.2323C18.5834 21.8565 18.9892 21.5957 19.4461 21.4999L22.0174 20.9608C22.0613 20.9516 22.0946 20.9139 22.0975 20.869L22.2644 18.2469C22.2943 17.7812 22.4954 17.3431 22.8279 17.0155L24.699 15.1717C24.731 15.1403 24.7383 15.0909 24.7166 15.0516L23.4402 12.7548C23.2134 12.3467 23.1442 11.8693 23.2469 11.4139L23.825 8.85143C23.8348 8.80775 23.8145 8.76241 23.7752 8.74108L21.4598 7.49889C21.0483 7.27823 20.7319 6.91408 20.5721 6.47546L19.6726 4.00671C19.6573 3.96462 19.6157 3.9379 19.5711 3.94128L16.9519 4.14831C16.4866 4.1851 16.0238 4.04901 15.6521 3.76647L13.5603 2.17663Z" fill="#363636"/>
</svg>
