<svg width="26" height="26" viewBox="0 0 26 26" fill="none" xmlns="http://www.w3.org/2000/svg">
<path d="M16.8125 2.01227C17.5828 1.242 18.761 1.242 19.5312 2.01227L21.1133 3.59332C21.8833 4.36359 21.8834 5.54288 21.1133 6.31305L19.2441 8.18121C19.0489 8.37647 18.7324 8.37647 18.5371 8.18121L14.9434 4.58746C14.8497 4.4937 14.7969 4.36651 14.7969 4.23395C14.7969 4.10141 14.8496 3.97415 14.9434 3.88043L16.8125 2.01227ZM18.8242 2.7193C18.4445 2.33956 17.8993 2.33956 17.5195 2.7193L16.0039 4.23395L18.8906 7.12067L20.4062 5.60602C20.7859 5.22638 20.7857 4.68008 20.4062 4.30035L18.8242 2.7193Z" fill="#363636"/>
<path d="M5.8125 21.8438V19.9492C4.49463 18.4663 3.65625 16.1772 3.65625 13.5781C3.65626 10.6549 4.72947 8.01893 6.47559 6.58398C7.62213 3.89311 10.2906 1.98583 13.3535 1.93652L13.6553 1.9375L13.75 1.94922C13.843 1.96944 13.9289 2.01581 13.9971 2.08398L20.9688 9.05566C21.0371 9.12401 21.0823 9.21069 21.1025 9.30371C21.1118 9.32231 21.1301 9.3569 21.1445 9.39551C21.1629 9.44453 21.1875 9.52515 21.1875 9.625V21.8438C21.1875 22.9105 20.3168 23.7812 19.25 23.7812H7.75C6.68323 23.7812 5.8125 22.9105 5.8125 21.8438ZM10.8438 13.5781C10.8437 12.2999 10.618 11.1687 10.2666 10.376C9.89577 9.53945 9.47951 9.2627 9.1875 9.2627C8.89549 9.2627 8.47923 9.53945 8.1084 10.376C7.75702 11.1687 7.53126 12.2999 7.53125 13.5781C7.53125 14.8563 7.75704 15.9876 8.1084 16.7803C8.47923 17.6168 8.89549 17.8936 9.1875 17.8936C9.47951 17.8936 9.89577 17.6168 10.2666 16.7803C10.618 15.9876 10.8438 14.8563 10.8438 13.5781ZM4.65625 13.5781C4.65625 16.0635 5.48632 18.1605 6.67578 19.416C6.76353 19.5088 6.8125 19.632 6.8125 19.7598V21.8438C6.8125 22.3582 7.23552 22.7812 7.75 22.7812H19.25C19.7645 22.7812 20.1875 22.3582 20.1875 21.8438V9.70312C20.1838 9.69512 20.1799 9.68622 20.1758 9.67676L13.4355 2.93652C10.7144 2.95326 8.33034 4.6653 7.35059 7.08203C7.31772 7.16288 7.26404 7.23332 7.19531 7.28711C5.69656 8.46004 4.65626 10.809 4.65625 13.5781ZM11.8438 13.5781C11.8438 14.9591 11.6019 16.2353 11.1807 17.1855C10.7788 18.092 10.1174 18.8936 9.1875 18.8936C8.25763 18.8936 7.59616 18.092 7.19434 17.1855C6.77315 16.2353 6.53125 14.9591 6.53125 13.5781C6.53126 12.1971 6.77313 10.9209 7.19434 9.9707C7.59616 9.06426 8.25763 8.2627 9.1875 8.2627C10.1174 8.2627 10.7788 9.06426 11.1807 9.9707C11.6019 10.9209 11.8437 12.1971 11.8438 13.5781Z" fill="#363636"/>
<path d="M20.6875 11.2812C20.9636 11.2812 21.1875 11.5051 21.1875 11.7812V19.6875C21.1875 19.9636 20.9636 20.1875 20.6875 20.1875H14.2188C13.9426 20.1875 13.7188 19.9636 13.7188 19.6875V11.7812C13.7188 11.5051 13.9426 11.2812 14.2188 11.2812H20.6875ZM14.7188 19.1875H20.1875V12.2812H14.7188V19.1875Z" fill="#363636"/>
</svg>
