<svg width="26" height="26" viewBox="0 0 26 26" fill="none" xmlns="http://www.w3.org/2000/svg">
<path d="M24.2 4.6H22.6C22.16 4.6 21.8 4.95999 21.8 5.4V5.79998H16.2V4.20002H16.6C17.04 4.20002 17.4 3.84002 17.4 3.40001V1.8C17.4 1.35999 17.04 1 16.6 1H9.39998C8.95997 1 8.59997 1.35999 8.59997 1.8V3.40001C8.59997 3.84002 8.95997 4.20002 9.39998 4.20002H9.79996V13.8H4.20002V13.4C4.20002 12.96 3.84002 12.6 3.40001 12.6H1.8C1.35999 12.6 1 12.96 1 13.4V20.6C1 21.04 1.35999 21.4 1.8 21.4H3.40001C3.84002 21.4 4.20002 21.04 4.20002 20.6V20.2H9.8V21.8H9.40003C8.96002 21.8 8.60002 22.16 8.60002 22.6V24.2C8.60002 24.6401 8.96002 25 9.40003 25H16.6C17.04 25 17.4 24.6401 17.4 24.2V22.6C17.4 22.16 17.04 21.8 16.6 21.8H16.2V12.2H21.8V12.5999C21.8 13.04 22.16 13.4 22.6 13.4H24.2C24.6401 13.4 25 13.04 25 12.5999V5.4C25 4.95999 24.64 4.6 24.2 4.6ZM9.39998 1.8H16.6V3.40001H15.8H10.2H9.39998V1.8ZM3.40001 20.6H1.8V13.4H3.40001V14.2V19.8V20.6ZM16.6 24.2H9.39998V22.6H10.2H15.8H16.6V24.2ZM15.8 11.4C15.56 11.4 15.4 11.5599 15.4 11.7999V21.7999H14.6V20.1999C14.6 19.9599 14.44 19.7999 14.2 19.7999C13.96 19.7999 13.8 19.9599 13.8 20.1999V21.7999H10.6V19.7999C10.6 19.5599 10.44 19.4 10.2 19.4H4.20002V14.6H10.2C10.44 14.6 10.6 14.44 10.6 14.2V4.20002H15.4V6.20001C15.4 6.44 15.56 6.59999 15.8 6.59999H21.8V9.8H20.6C20.36 9.8 20.2 9.95999 20.2 10.2C20.2 10.44 20.36 10.6 20.6 10.6H21.8V11.4H15.8ZM24.2 12.6H22.6V11.8V6.20001V5.4H24.2V12.6Z" fill="#363636"/>
</svg>
