<svg width="26" height="26" viewBox="0 0 26 26" fill="none" xmlns="http://www.w3.org/2000/svg">
<path d="M5.30273 8.36133V11.5433H6.0368V25H20.9628V11.5433H21.6968V8.36137H5.30273V8.36133ZM20.2275 24.2647H6.77208V23.0427H20.2275V24.2647ZM20.2275 22.3074H6.77208V13.99H16.1911V13.2547H6.77208V11.5433H20.2275V22.3074ZM20.9615 10.808H6.03802V9.09665H20.9614V10.808H20.9615Z" fill="#363636"/>
<path d="M18.6378 2H8.36181C7.88928 2 7.50488 2.38444 7.50488 2.85693V4.69262H8.97289V7.75036H9.70812V4.69262H17.2915V7.75031H18.0268V4.69262H19.4948V2.85693C19.4948 2.3844 19.1103 2 18.6378 2ZM18.7595 3.95734H8.24003V2.85693H8.24007C8.24007 2.79094 8.29582 2.73528 8.36172 2.73528H18.6378C18.7038 2.73528 18.7594 2.79103 18.7594 2.85693L18.7595 3.95734Z" fill="#363636"/>
<path d="M18.882 13.2549H17.4141V13.9902H18.882V13.2549Z" fill="#363636"/>
<path d="M7.50488 14.7227V18.271H8.24016V15.4579H9.58526V14.7227H7.50488Z" fill="#363636"/>
<path d="M8.24016 19.0049H7.50488V20.2282H8.24016V19.0049Z" fill="#363636"/>
</svg>
