<svg width="138" height="35" viewBox="0 0 138 35" fill="none" xmlns="http://www.w3.org/2000/svg">
<g clip-path="url(#clip0_2435_5448)">
<path d="M48.9134 21.9783L42.4079 22.2054L41.2717 25.2513L37.9489 25.3674L43.7049 11.1373L46.9076 11.0255L53.6622 24.8186L50.2593 24.9375L48.9134 21.9783ZM47.8066 19.5518L45.3974 14.2648L43.3628 19.707L47.8066 19.5518ZM64.1361 17.2179L67.0986 17.1145L67.2971 22.7993C66.5565 23.3997 65.6912 23.8708 64.701 24.2127C63.7109 24.5546 62.7087 24.7432 61.6945 24.7786C60.24 24.8294 58.9215 24.5682 57.739 23.9949C56.5561 23.4082 55.612 22.5794 54.9065 21.5084C54.214 20.4237 53.8434 19.1873 53.795 17.7995C53.7465 16.4117 54.0301 15.1592 54.6458 14.0421C55.2744 12.9112 56.1651 12.0183 57.318 11.3634C58.4704 10.6952 59.7806 10.3355 61.2485 10.2842C62.4762 10.2413 63.5977 10.4093 64.613 10.788C65.6283 11.1667 66.49 11.7379 67.1981 12.5015L65.1834 14.4958C64.1457 13.4765 62.9196 12.9916 61.5051 13.041C60.611 13.0722 59.8235 13.2867 59.1426 13.6846C58.4618 14.0825 57.9397 14.6285 57.5765 15.3226C57.2133 16.0167 57.047 16.8041 57.0778 17.6849C57.1081 18.5523 57.3286 19.3195 57.7394 19.9866C58.1501 20.6536 58.7025 21.1688 59.3966 21.532C60.1036 21.8814 60.8975 22.0408 61.7782 22.01C62.7123 21.9774 63.5461 21.7479 64.2794 21.3214L64.1361 17.2179ZM79.291 23.9237L76.4524 20.1147L76.2922 20.1203L73.4698 20.2189L73.6062 24.1222L70.3634 24.2354L69.8741 10.2235L75.9392 10.0117C77.1803 9.96836 78.2618 10.1377 79.1837 10.5197C80.1189 10.9012 80.8467 11.4637 81.367 12.2071C81.8873 12.9505 82.1656 13.8426 82.202 14.8835C82.2383 15.9244 82.0162 16.834 81.5357 17.6124C81.068 18.3769 80.3808 18.9755 79.474 19.408L82.774 23.802L79.291 23.9237ZM78.9192 14.9982C78.8917 14.2108 78.6172 13.6192 78.0956 13.2232C77.5736 12.8139 76.8255 12.6262 75.8514 12.6602L73.2091 12.7525L73.3797 17.6367L76.0219 17.5444C76.9961 17.5104 77.7293 17.271 78.2214 16.8263C78.7136 16.3815 78.9462 15.7722 78.9192 14.9982ZM84.5935 9.70948L87.8363 9.59624L88.3256 23.6082L85.0829 23.7214L84.5935 9.70948ZM98.3652 23.4981C96.9373 23.5479 95.6322 23.2862 94.4497 22.7129C93.2802 22.1258 92.3427 21.2967 91.6373 20.2258C90.9447 19.141 90.5742 17.9047 90.5257 16.5168C90.4772 15.129 90.7608 13.8765 91.3765 12.7594C92.0051 11.6285 92.8825 10.7361 94.0087 10.0822C95.1478 9.41441 96.4379 9.05537 97.8791 9.00504C99.0935 8.96264 100.195 9.13794 101.184 9.53095C102.187 9.9235 103.036 10.5085 103.731 11.2858L101.716 13.2802C100.73 12.219 99.5369 11.7129 98.1357 11.7618C97.2683 11.7921 96.5011 12.0126 95.834 12.4234C95.1665 12.8208 94.6511 13.3666 94.2879 14.0606C93.938 14.7543 93.7782 15.5348 93.8085 16.4022C93.8388 17.2696 94.0526 18.0371 94.4501 18.7046C94.8608 19.3717 95.4133 19.8868 96.1073 20.25C96.801 20.5999 97.5815 20.7597 98.4489 20.7294C99.8501 20.6805 101.005 20.0857 101.914 18.945L104.063 20.7939C103.424 21.6313 102.618 22.2807 101.646 22.7422C100.673 23.2037 99.5796 23.4557 98.3652 23.4981ZM112.832 22.9929C111.378 23.0437 110.052 22.776 108.856 22.1898C107.673 21.6031 106.729 20.7743 106.024 19.7033C105.331 18.6186 104.961 17.3889 104.913 16.0144C104.865 14.6399 105.149 13.3941 105.764 12.277C106.393 11.1461 107.277 10.2468 108.416 9.57904C109.568 8.91083 110.872 8.55133 112.326 8.50053C113.781 8.44974 115.1 8.71767 116.283 9.30433C117.465 9.89099 118.41 10.7265 119.116 11.8108C119.821 12.8817 120.198 14.1045 120.246 15.479C120.294 16.8535 120.004 18.1062 119.375 19.2371C118.746 20.3547 117.862 21.2473 116.723 21.9151C115.584 22.5828 114.287 22.9421 112.832 22.9929ZM112.736 20.2305C113.563 20.2016 114.304 19.9887 114.958 19.5918C115.612 19.1815 116.114 18.6295 116.464 17.9359C116.827 17.2418 116.993 16.461 116.963 15.5936C116.933 14.7262 116.712 13.959 116.302 13.2919C115.904 12.6244 115.365 12.1154 114.685 11.7651C114.004 11.4014 113.25 11.234 112.423 11.2629C111.595 11.2918 110.855 11.5114 110.201 11.9217C109.547 12.3186 109.038 12.8641 108.675 13.5582C108.325 14.2519 108.165 15.0324 108.196 15.8998C108.226 16.7672 108.44 17.5347 108.837 18.2022C109.248 18.8693 109.794 19.3846 110.475 19.7483C111.155 20.0987 111.909 20.2594 112.736 20.2305ZM135.289 7.93915L135.779 21.9511L133.116 22.044L125.833 13.7808L126.13 22.288L122.928 22.3998L122.438 8.38792L125.121 8.29425L132.384 16.5582L132.087 8.05099L135.289 7.93915Z" fill="#797A7C"/>
<path d="M48.9134 21.9783L42.4079 22.2054L41.2717 25.2513L37.9489 25.3674L43.7049 11.1373L46.9076 11.0255L53.6622 24.8186L50.2593 24.9375L48.9134 21.9783ZM47.8066 19.5518L45.3974 14.2648L43.3628 19.707L47.8066 19.5518ZM64.1361 17.2179L67.0986 17.1145L67.2971 22.7993C66.5565 23.3997 65.6912 23.8708 64.701 24.2127C63.7109 24.5546 62.7087 24.7432 61.6945 24.7786C60.24 24.8294 58.9215 24.5682 57.739 23.9949C56.5561 23.4082 55.612 22.5794 54.9065 21.5084C54.214 20.4237 53.8434 19.1873 53.795 17.7995C53.7465 16.4117 54.0301 15.1592 54.6458 14.0421C55.2744 12.9112 56.1651 12.0183 57.318 11.3634C58.4704 10.6952 59.7806 10.3355 61.2485 10.2842C62.4762 10.2413 63.5977 10.4093 64.613 10.788C65.6283 11.1667 66.49 11.7379 67.1981 12.5015L65.1834 14.4958C64.1457 13.4765 62.9196 12.9916 61.5051 13.041C60.611 13.0722 59.8235 13.2867 59.1426 13.6846C58.4618 14.0825 57.9397 14.6285 57.5765 15.3226C57.2133 16.0167 57.047 16.8041 57.0778 17.6849C57.1081 18.5523 57.3286 19.3195 57.7394 19.9866C58.1501 20.6536 58.7025 21.1688 59.3966 21.532C60.1036 21.8814 60.8975 22.0408 61.7782 22.01C62.7123 21.9774 63.5461 21.7479 64.2794 21.3214L64.1361 17.2179ZM79.291 23.9237L76.4524 20.1147L76.2922 20.1203L73.4698 20.2189L73.6062 24.1222L70.3634 24.2354L69.8741 10.2235L75.9392 10.0117C77.1803 9.96836 78.2618 10.1377 79.1837 10.5197C80.1189 10.9012 80.8467 11.4637 81.367 12.2071C81.8873 12.9505 82.1656 13.8426 82.202 14.8835C82.2383 15.9244 82.0162 16.834 81.5357 17.6124C81.068 18.3769 80.3808 18.9755 79.474 19.408L82.774 23.802L79.291 23.9237ZM78.9192 14.9982C78.8917 14.2108 78.6172 13.6192 78.0956 13.2232C77.5736 12.8139 76.8255 12.6262 75.8514 12.6602L73.2091 12.7525L73.3797 17.6367L76.0219 17.5444C76.9961 17.5104 77.7293 17.271 78.2214 16.8263C78.7136 16.3815 78.9462 15.7722 78.9192 14.9982ZM84.5935 9.70948L87.8363 9.59624L88.3256 23.6082L85.0829 23.7214L84.5935 9.70948ZM98.3652 23.4981C96.9373 23.5479 95.6322 23.2862 94.4497 22.7129C93.2802 22.1258 92.3427 21.2967 91.6373 20.2258C90.9447 19.141 90.5742 17.9047 90.5257 16.5168C90.4772 15.129 90.7608 13.8765 91.3765 12.7594C92.0051 11.6285 92.8825 10.7361 94.0087 10.0822C95.1478 9.41441 96.4379 9.05537 97.8791 9.00504C99.0935 8.96264 100.195 9.13794 101.184 9.53095C102.187 9.9235 103.036 10.5085 103.731 11.2858L101.716 13.2802C100.73 12.219 99.5369 11.7129 98.1357 11.7618C97.2683 11.7921 96.5011 12.0126 95.834 12.4234C95.1665 12.8208 94.6511 13.3666 94.2879 14.0606C93.938 14.7543 93.7782 15.5348 93.8085 16.4022C93.8388 17.2696 94.0526 18.0371 94.4501 18.7046C94.8608 19.3717 95.4133 19.8868 96.1073 20.25C96.801 20.5999 97.5815 20.7597 98.4489 20.7294C99.8501 20.6805 101.005 20.0857 101.914 18.945L104.063 20.7939C103.424 21.6313 102.618 22.2807 101.646 22.7422C100.673 23.2037 99.5796 23.4557 98.3652 23.4981ZM112.832 22.9929C111.378 23.0437 110.052 22.776 108.856 22.1898C107.673 21.6031 106.729 20.7743 106.024 19.7033C105.331 18.6186 104.961 17.3889 104.913 16.0144C104.865 14.6399 105.149 13.3941 105.764 12.277C106.393 11.1461 107.277 10.2468 108.416 9.57904C109.568 8.91083 110.872 8.55133 112.326 8.50053C113.781 8.44974 115.1 8.71767 116.283 9.30433C117.465 9.89099 118.41 10.7265 119.116 11.8108C119.821 12.8817 120.198 14.1045 120.246 15.479C120.294 16.8535 120.004 18.1062 119.375 19.2371C118.746 20.3547 117.862 21.2473 116.723 21.9151C115.584 22.5828 114.287 22.9421 112.832 22.9929ZM112.736 20.2305C113.563 20.2016 114.304 19.9887 114.958 19.5918C115.612 19.1815 116.114 18.6295 116.464 17.9359C116.827 17.2418 116.993 16.461 116.963 15.5936C116.933 14.7262 116.712 13.959 116.302 13.2919C115.904 12.6244 115.365 12.1154 114.685 11.7651C114.004 11.4014 113.25 11.234 112.423 11.2629C111.595 11.2918 110.855 11.5114 110.201 11.9217C109.547 12.3186 109.038 12.8641 108.675 13.5582C108.325 14.2519 108.165 15.0324 108.196 15.8998C108.226 16.7672 108.44 17.5347 108.837 18.2022C109.248 18.8693 109.794 19.3846 110.475 19.7483C111.155 20.0987 111.909 20.2594 112.736 20.2305ZM135.289 7.93915L135.779 21.9511L133.116 22.044L125.833 13.7808L126.13 22.288L122.928 22.3998L122.438 8.38792L125.121 8.29425L132.384 16.5582L132.087 8.05099L135.289 7.93915Z" fill="black"/>
<path d="M11.9416 17.4304L15.4147 17.3091C14.8025 14.7888 14.4387 12.167 14.3447 9.47591C14.3288 9.01856 14.3195 8.56101 14.3235 8.10283C13.1657 11.0568 12.3525 14.1842 11.9416 17.4304Z" fill="#EF3E21"/>
<path d="M11.9416 17.4304L15.4147 17.3091C14.8025 14.7888 14.4387 12.167 14.3447 9.47591C14.3288 9.01856 14.3195 8.56101 14.3235 8.10283C13.1657 11.0568 12.3525 14.1842 11.9416 17.4304Z" fill="white"/>
<path d="M11.6405 21.9005L11.6407 21.9072L17.2022 22.8676C16.5992 21.3756 16.0741 19.8278 15.6534 18.2364L11.8357 18.3697C11.7167 19.5288 11.652 20.7122 11.6405 21.9005Z" fill="#EF3E21"/>
<path d="M11.6405 21.9005L11.6407 21.9072L17.2022 22.8676C16.5992 21.3756 16.0741 19.8278 15.6534 18.2364L11.8357 18.3697C11.7167 19.5288 11.652 20.7122 11.6405 21.9005Z" fill="white"/>
<path d="M11.6421 22.8628C11.6391 23.1549 11.649 23.44 11.6592 23.7315C11.7768 27.0987 12.315 30.3515 13.2328 33.4451C14.0332 33.5634 14.8509 33.6011 15.6794 33.5721C18.0786 33.4884 20.3254 32.8324 22.2846 31.7355C20.4488 29.331 18.8904 26.7043 17.651 23.9006L11.6421 22.8628Z" fill="#EF3E21"/>
<path d="M11.6421 22.8628C11.6391 23.1549 11.649 23.44 11.6592 23.7315C11.7768 27.0987 12.315 30.3515 13.2328 33.4451C14.0332 33.5634 14.8509 33.6011 15.6794 33.5721C18.0786 33.4884 20.3254 32.8324 22.2846 31.7355C20.4488 29.331 18.8904 26.7043 17.651 23.9006L11.6421 22.8628Z" fill="white"/>
<path d="M0.644531 20.957C1.30827 25.7119 4.23485 29.7043 8.27857 31.8592C8.12385 30.6568 8.0215 29.4393 7.97845 28.2064C7.90809 26.1915 7.99138 24.2044 8.2222 22.2651L0.644531 20.957Z" fill="#EF3E21"/>
<path d="M0.644531 20.957C1.30827 25.7119 4.23485 29.7043 8.27857 31.8592C8.12385 30.6568 8.0215 29.4393 7.97845 28.2064C7.90809 26.1915 7.99138 24.2044 8.2222 22.2651L0.644531 20.957Z" fill="white"/>
<path d="M0.511432 19.4305C0.517912 19.6161 0.531064 19.8014 0.537545 19.987L8.33573 21.334C8.47443 20.3669 8.64712 19.4185 8.85305 18.4755L0.508159 18.7669C0.502593 18.9861 0.503563 19.2052 0.511432 19.4305Z" fill="#EF3E21"/>
<path d="M0.511432 19.4305C0.517912 19.6161 0.531064 19.8014 0.537545 19.987L8.33573 21.334C8.47443 20.3669 8.64712 19.4185 8.85305 18.4755L0.508159 18.7669C0.502593 18.9861 0.503563 19.2052 0.511432 19.4305Z" fill="white"/>
<path d="M15.1522 4.25802L14.5088 4.27369C7.02139 4.60167 1.07558 10.5032 0.541687 17.8283L9.07229 17.5304C10.1462 13.1264 11.9799 9.00759 14.4196 5.32551C14.6592 4.96541 14.8988 4.60521 15.1522 4.25802Z" fill="#EF3E21"/>
<path d="M15.1522 4.25802L14.5088 4.27369C7.02139 4.60167 1.07558 10.5032 0.541687 17.8283L9.07229 17.5304C10.1462 13.1264 11.9799 9.00759 14.4196 5.32551C14.6592 4.96541 14.8988 4.60521 15.1522 4.25802Z" fill="white"/>
<path d="M15.8079 4.79194C16.3466 9.19282 17.6135 13.3559 19.4787 17.1664L29.6792 16.8102C28.6967 9.95594 23.0051 4.69983 16.0754 4.27823L15.75 4.26953C15.7692 4.44145 15.7885 4.61336 15.8077 4.7851C15.8077 4.7851 15.8077 4.78511 15.8079 4.79194Z" fill="#EF3E21"/>
<path d="M15.8079 4.79194C16.3466 9.19282 17.6135 13.3559 19.4787 17.1664L29.6792 16.8102C28.6967 9.95594 23.0051 4.69983 16.0754 4.27823L15.75 4.26953C15.7692 4.44145 15.7885 4.61336 15.8077 4.7851C15.8077 4.7851 15.8077 4.78511 15.8079 4.79194Z" fill="white"/>
<path d="M26.9565 27.6239C27.4066 27.0174 27.8093 26.3861 28.1574 25.7169L24.6523 25.1094C25.3862 25.9796 26.1521 26.8223 26.9565 27.6239Z" fill="#EF3E21"/>
<path d="M26.9565 27.6239C27.4066 27.0174 27.8093 26.3861 28.1574 25.7169L24.6523 25.1094C25.3862 25.9796 26.1521 26.8223 26.9565 27.6239Z" fill="white"/>
<path d="M29.7796 17.7444L19.9434 18.0879C21.0384 20.1799 22.3151 22.153 23.7534 24.0007L28.5871 24.8338C29.4544 22.8724 29.9023 20.6933 29.8225 18.4066C29.8146 18.1813 29.8006 17.9627 29.7796 17.7444Z" fill="#EF3E21"/>
<path d="M29.7796 17.7444L19.9434 18.0879C21.0384 20.1799 22.3151 22.153 23.7534 24.0007L28.5871 24.8338C29.4544 22.8724 29.9023 20.6933 29.8225 18.4066C29.8146 18.1813 29.8006 17.9627 29.7796 17.7444Z" fill="white"/>
</g>
<defs>
<clipPath id="clip0_2435_5448">
<rect width="137" height="29.3762" fill="white" transform="translate(0 4.78125) rotate(-2)"/>
</clipPath>
</defs>
</svg>
