<svg width="52" height="43" viewBox="0 0 52 43" fill="none" xmlns="http://www.w3.org/2000/svg">
<g clip-path="url(#clip0_2435_5407)">
<g opacity="0.5">
<path d="M28.4693 11.9842C28.5937 15.5449 25.7959 18.5452 22.2351 18.6695C18.6743 18.7938 15.6741 15.996 15.5498 12.4353C15.4255 8.8746 18.2232 5.87435 21.784 5.75001C25.3458 5.65717 28.345 8.42344 28.4693 11.9842ZM26.3896 12.0568C26.3049 9.63046 24.2829 7.74501 21.8566 7.82974C19.4302 7.91447 17.5448 9.93637 17.6295 12.3627C17.7143 14.789 19.7361 16.6745 22.1625 16.5898C24.5888 16.505 26.4743 14.4831 26.3896 12.0568Z" fill="white"/>
<path d="M28.4693 11.9842C28.5937 15.5449 25.7959 18.5452 22.2351 18.6695C18.6743 18.7938 15.6741 15.996 15.5498 12.4353C15.4255 8.8746 18.2232 5.87435 21.784 5.75001C25.3458 5.65717 28.345 8.42344 28.4693 11.9842ZM26.3896 12.0568C26.3049 9.63046 24.2829 7.74501 21.8566 7.82974C19.4302 7.91447 17.5448 9.93637 17.6295 12.3627C17.7143 14.789 19.7361 16.6745 22.1625 16.5898C24.5888 16.505 26.4743 14.4831 26.3896 12.0568Z" fill="#FFFFFE"/>
</g>
<g opacity="0.5">
<path d="M49.8872 1.04391L50.4275 16.5159C50.4749 17.8709 48.4266 17.9424 48.3793 16.5874L48.3551 15.8941C44.3918 19.8501 37.5472 17.1865 37.3502 11.546C37.1544 5.93703 43.7639 2.77211 48.025 6.44081L47.839 1.11543C47.8192 0.548235 48.2754 0.0590603 48.8425 0.0392548C49.4098 0.0194459 49.8674 0.476708 49.8872 1.04391ZM48.19 11.1675C48.1053 8.74111 46.0834 6.85565 43.657 6.94038C41.2307 7.02511 39.3452 9.04701 39.43 11.4734C39.5147 13.8997 41.5366 15.7852 43.9629 15.7005C46.3893 15.6158 48.2747 13.5938 48.19 11.1675Z" fill="white"/>
<path d="M49.8872 1.04391L50.4275 16.5159C50.4749 17.8709 48.4266 17.9424 48.3793 16.5874L48.3551 15.8941C44.3918 19.8501 37.5472 17.1865 37.3502 11.546C37.1544 5.93703 43.7639 2.77211 48.025 6.44081L47.839 1.11543C47.8192 0.548235 48.2754 0.0590603 48.8425 0.0392548C49.4098 0.0194459 49.8674 0.476708 49.8872 1.04391ZM48.19 11.1675C48.1053 8.74111 46.0834 6.85565 43.657 6.94038C41.2307 7.02511 39.3452 9.04701 39.43 11.4734C39.5147 13.8997 41.5366 15.7852 43.9629 15.7005C46.3893 15.6158 48.2747 13.5938 48.19 11.1675Z" fill="#FFFFFE"/>
</g>
<g opacity="0.5">
<path d="M12.9302 2.46187C12.9104 1.89468 12.4212 1.43852 11.854 1.45832C11.2868 1.47813 10.8307 1.9673 10.8505 2.5345L11.086 9.27786L2.32588 9.58377L2.09039 2.84041C2.04308 1.48543 -0.00514451 1.55696 0.0421721 2.91193C0.213833 7.82765 0.698001 21.6924 0.854257 26.167C0.901574 27.522 2.9498 27.4504 2.90248 26.0955L2.3952 11.569L11.1553 11.2631L11.6626 25.7896C11.7099 27.1445 13.758 27.073 13.7107 25.718L13.2772 13.3027C13.3087 13.3016 12.9302 2.46187 12.9302 2.46187Z" fill="white"/>
<path d="M12.9302 2.46187C12.9104 1.89468 12.4212 1.43852 11.854 1.45832C11.2868 1.47813 10.8307 1.9673 10.8505 2.5345L11.086 9.27786L2.32588 9.58377L2.09039 2.84041C2.04308 1.48543 -0.00514451 1.55696 0.0421721 2.91193C0.213833 7.82765 0.698001 21.6924 0.854257 26.167C0.901574 27.522 2.9498 27.4504 2.90248 26.0955L2.3952 11.569L11.1553 11.2631L11.6626 25.7896C11.7099 27.1445 13.758 27.073 13.7107 25.718L13.2772 13.3027C13.3087 13.3016 12.9302 2.46187 12.9302 2.46187Z" fill="#FFFFFE"/>
</g>
<path d="M13.743 25.7471L14.094 35.7991C14.3009 41.7232 6.90207 43.9692 6.81514 41.4798C6.79533 40.9126 7.25149 40.4235 7.81869 40.4036C10.2135 40.32 12.1001 38.3296 12.048 35.9336C8.05317 39.8907 1.23898 37.1945 1.04311 31.5855L0.853847 26.1656C0.80653 24.8107 2.85475 24.7391 2.90207 26.0941L3.09134 31.514C3.17606 33.9403 5.19797 35.8258 7.62432 35.7411C10.0507 35.6564 11.9362 33.6344 11.8514 31.2081L11.6622 25.7882C11.6474 24.4636 13.6957 24.3921 13.743 25.7471Z" fill="#262524"/>
<path d="M13.743 25.7471L14.094 35.7991C14.3009 41.7232 6.90207 43.9692 6.81514 41.4798C6.79533 40.9126 7.25149 40.4235 7.81869 40.4036C10.2135 40.32 12.1001 38.3296 12.048 35.9336C8.05317 39.8907 1.23898 37.1945 1.04311 31.5855L0.853847 26.1656C0.80653 24.8107 2.85475 24.7391 2.90207 26.0941L3.09134 31.514C3.17606 33.9403 5.19797 35.8258 7.62432 35.7411C10.0507 35.6564 11.9362 33.6344 11.8514 31.2081L11.6622 25.7882C11.6474 24.4636 13.6957 24.3921 13.743 25.7471Z" fill="#FFFFFE"/>
<path d="M29.1197 30.6365C29.2441 34.1973 26.4463 37.1975 22.8855 37.3219C19.3247 37.4462 16.3245 34.6484 16.2002 31.0877C16.0758 27.527 18.8735 24.5267 22.4344 24.4023C25.9962 24.3095 28.9954 27.0758 29.1197 30.6365ZM27.04 30.7092C26.9553 28.2828 24.9333 26.3974 22.507 26.4821C20.0806 26.5668 18.1952 28.5887 18.2799 31.0151C18.3646 33.4414 20.3865 35.3269 22.8129 35.2421C25.2392 35.1574 27.1247 33.1355 27.04 30.7092Z" fill="#262524"/>
<path d="M29.1197 30.6365C29.2441 34.1973 26.4463 37.1975 22.8855 37.3219C19.3247 37.4462 16.3245 34.6484 16.2002 31.0877C16.0758 27.527 18.8735 24.5267 22.4344 24.4023C25.9962 24.3095 28.9954 27.0758 29.1197 30.6365ZM27.04 30.7092C26.9553 28.2828 24.9333 26.3974 22.507 26.4821C20.0806 26.5668 18.1952 28.5887 18.2799 31.0151C18.3646 33.4414 20.3865 35.3269 22.8129 35.2421C25.2392 35.1574 27.1247 33.1355 27.04 30.7092Z" fill="#FFFFFE"/>
<g opacity="0.5">
<path d="M41.7816 25.5261C41.6749 22.4695 39.8795 21.6488 36.9669 20.457C34.1813 19.2923 30.6927 17.8682 30.5167 12.8265L30.1359 1.92365C30.0875 0.537168 32.1988 0.463439 32.2472 1.84992L32.628 12.7527C32.7567 16.4395 35.0933 17.399 37.782 18.5041C40.5664 19.6372 43.8693 21.1624 43.8299 25.4545C43.8489 26.9051 41.8289 26.881 41.7816 25.5261Z" fill="white"/>
<path d="M41.7816 25.5261C41.6749 22.4695 39.8795 21.6488 36.9669 20.457C34.1813 19.2923 30.6927 17.8682 30.5167 12.8265L30.1359 1.92365C30.0875 0.537168 32.1988 0.463439 32.2472 1.84992L32.628 12.7527C32.7567 16.4395 35.0933 17.399 37.782 18.5041C40.5664 19.6372 43.8693 21.1624 43.8299 25.4545C43.8489 26.9051 41.8289 26.881 41.7816 25.5261Z" fill="#FFFFFE"/>
</g>
<path d="M43.8359 24.6969L44.0251 30.1168C44.1495 33.6776 41.3518 36.6778 37.791 36.8021C34.2302 36.9265 31.23 34.1288 31.1056 30.568L30.9163 25.1481C30.869 23.7931 32.9173 23.7216 32.9646 25.0765L33.1539 30.4964C33.2386 32.9229 35.2605 34.8082 37.6868 34.7235C40.1132 34.6388 41.9987 32.6169 41.9139 30.1905L41.7247 24.7706C41.7088 23.4146 43.7886 23.3419 43.8359 24.6969Z" fill="#262524"/>
<path d="M43.8359 24.6969L44.0251 30.1168C44.1495 33.6776 41.3518 36.6778 37.791 36.8021C34.2302 36.9265 31.23 34.1288 31.1056 30.568L30.9163 25.1481C30.869 23.7931 32.9173 23.7216 32.9646 25.0765L33.1539 30.4964C33.2386 32.9229 35.2605 34.8082 37.6868 34.7235C40.1132 34.6388 41.9987 32.6169 41.9139 30.1905L41.7247 24.7706C41.7088 23.4146 43.7886 23.3419 43.8359 24.6969Z" fill="#FFFFFE"/>
</g>
<defs>
<clipPath id="clip0_2435_5407">
<rect width="50" height="41" fill="white" transform="translate(0 1.74512) rotate(-2)"/>
</clipPath>
</defs>
</svg>
