<svg width="137" height="30" viewBox="0 0 137 30" fill="none" xmlns="http://www.w3.org/2000/svg">
<g clip-path="url(#clip0_2435_5448)">
<path d="M48.2889 18.9231L41.7794 18.9252L40.5386 21.93L37.2137 21.9311L43.4582 7.90858L46.6629 7.90753L52.9367 21.9259L49.5317 21.927L48.2889 18.9231ZM47.2666 16.4598L45.0415 11.0927L42.8201 16.4613L47.2666 16.4598ZM63.667 14.6918L66.6313 14.6908L66.6332 20.3791C65.8723 20.9536 64.9911 21.3945 63.9898 21.7019C62.9884 22.0094 61.9803 22.1633 60.9655 22.1636C59.5101 22.1641 58.2014 21.8574 57.0395 21.2436C55.8776 20.6164 54.9626 19.7554 54.2946 18.6607C53.64 17.5526 53.3124 16.3043 53.312 14.9156C53.3115 13.5269 53.6382 12.2849 54.2922 11.1898C54.9594 10.0813 55.8805 9.21973 57.0553 8.60511C58.2302 7.97714 59.552 7.66291 61.0208 7.66243C62.2493 7.66202 63.3643 7.86862 64.3659 8.28223C65.3675 8.69583 66.2089 9.29643 66.8902 10.084L64.8078 12.0075C63.806 10.953 62.5974 10.4259 61.182 10.4264C60.2873 10.4267 59.4929 10.6139 58.7987 10.988C58.1044 11.3621 57.5638 11.8897 57.1768 12.5709C56.7898 13.252 56.5965 14.0332 56.5967 14.9145C56.597 15.7824 56.7909 16.5568 57.1784 17.2377C57.5658 17.9185 58.1001 18.4525 58.7812 18.8395C59.4757 19.2131 60.2636 19.3998 61.1449 19.3995C62.0796 19.3992 62.9207 19.1986 63.6684 18.7978L63.667 14.6918ZM78.581 21.9174L75.8758 18.0126L75.7155 18.0127L72.8914 18.0136L72.8927 21.9193L69.648 21.9204L69.6433 7.89993L75.7122 7.89792C76.954 7.89751 78.029 8.10412 78.9371 8.51776C79.8586 8.93139 80.5665 9.51868 81.0608 10.2796C81.5551 11.0406 81.8024 11.9418 81.8028 12.9833C81.8031 14.0249 81.5497 14.9263 81.0426 15.6875C80.5487 16.4355 79.8412 17.0099 78.92 17.4107L82.0661 21.9163L78.581 21.9174ZM78.518 12.9844C78.5177 12.1966 78.2638 11.5958 77.7563 11.182C77.2487 10.7549 76.5076 10.5415 75.5328 10.5418L72.889 10.5427L72.8906 15.4298L75.5344 15.429C76.5092 15.4287 77.2502 15.2148 77.7575 14.7873C78.2647 14.3598 78.5182 13.7589 78.518 12.9844ZM84.3718 7.89506L87.6165 7.89398L87.6211 21.9145L84.3764 21.9155L84.3718 7.89506ZM97.6585 22.1515C96.2298 22.152 94.9345 21.8453 93.7726 21.2314C92.624 20.6042 91.7157 19.7433 91.0477 18.6486C90.3931 17.5405 90.0655 16.2921 90.0651 14.9034C90.0646 13.5147 90.3913 12.2728 91.0453 11.1776C91.7125 10.0691 92.6203 9.20758 93.7684 8.59297C94.9299 7.96501 96.2317 7.65078 97.6738 7.65031C98.8889 7.64991 99.9839 7.86319 100.959 8.29016C101.947 8.71712 102.775 9.33108 103.443 10.132L101.361 12.0555C100.412 10.9609 99.237 10.4138 97.8349 10.4143C96.967 10.4146 96.1926 10.6084 95.5117 10.9959C94.8309 11.37 94.2969 11.8976 93.9099 12.5787C93.5363 13.2599 93.3496 14.0344 93.3499 14.9023C93.3502 15.7703 93.5373 16.5447 93.9114 17.2255C94.2989 17.9064 94.8332 18.4403 95.5143 18.8273C96.1954 19.201 96.97 19.3877 97.8379 19.3874C99.2399 19.3869 100.415 18.8324 101.362 17.7238L103.446 19.6459C102.779 20.4607 101.951 21.0818 100.963 21.5095C99.9752 21.9371 98.8737 22.1511 97.6585 22.1515ZM112.135 22.1467C110.679 22.1472 109.364 21.8338 108.189 21.2066C107.027 20.5794 106.112 19.7185 105.444 18.6238C104.789 17.5157 104.461 16.274 104.461 14.8986C104.461 13.5233 104.787 12.2881 105.441 11.1929C106.108 10.0844 107.023 9.21617 108.184 8.58821C109.359 7.96023 110.674 7.64601 112.13 7.64553C113.585 7.64505 114.894 7.9584 116.056 8.5856C117.218 9.2128 118.133 10.0804 118.801 11.1885C119.469 12.2832 119.803 13.5182 119.803 14.8936C119.804 16.2689 119.47 17.5108 118.803 18.6193C118.136 19.7145 117.222 20.5761 116.06 21.204C114.899 21.832 113.59 22.1462 112.135 22.1467ZM112.134 19.3827C112.962 19.3824 113.709 19.1952 114.377 18.8211C115.044 18.4336 115.565 17.8994 115.939 17.2182C116.326 16.5371 116.519 15.7626 116.519 14.8947C116.518 14.0267 116.324 13.2523 115.937 12.5715C115.563 11.8906 115.042 11.3633 114.374 10.9897C113.706 10.6027 112.959 10.4093 112.131 10.4096C111.303 10.4098 110.555 10.6037 109.888 10.9912C109.22 11.3653 108.693 11.8929 108.306 12.574C107.932 13.2551 107.746 14.0296 107.746 14.8976C107.746 15.7655 107.933 16.5399 108.307 17.2208C108.695 17.9016 109.222 18.4356 109.89 18.8226C110.558 19.1962 111.306 19.3829 112.134 19.3827ZM135.098 7.87828L135.103 21.8988L132.439 21.8996L125.446 13.3895L125.449 21.9019L122.244 21.903L122.24 7.88254L124.923 7.88165L131.896 16.3918L131.894 7.87934L135.098 7.87828Z" fill="#797A7C"/>
<path d="M48.2889 18.9231L41.7794 18.9252L40.5386 21.93L37.2137 21.9311L43.4582 7.90858L46.6629 7.90753L52.9367 21.9259L49.5317 21.927L48.2889 18.9231ZM47.2666 16.4598L45.0415 11.0927L42.8201 16.4613L47.2666 16.4598ZM63.667 14.6918L66.6313 14.6908L66.6332 20.3791C65.8723 20.9536 64.9911 21.3945 63.9898 21.7019C62.9884 22.0094 61.9803 22.1633 60.9655 22.1636C59.5101 22.1641 58.2014 21.8574 57.0395 21.2436C55.8776 20.6164 54.9626 19.7554 54.2946 18.6607C53.64 17.5526 53.3124 16.3043 53.312 14.9156C53.3115 13.5269 53.6382 12.2849 54.2922 11.1898C54.9594 10.0813 55.8805 9.21973 57.0553 8.60511C58.2302 7.97714 59.552 7.66291 61.0208 7.66243C62.2493 7.66202 63.3643 7.86862 64.3659 8.28223C65.3675 8.69583 66.2089 9.29643 66.8902 10.084L64.8078 12.0075C63.806 10.953 62.5974 10.4259 61.182 10.4264C60.2873 10.4267 59.4929 10.6139 58.7987 10.988C58.1044 11.3621 57.5638 11.8897 57.1768 12.5709C56.7898 13.252 56.5965 14.0332 56.5967 14.9145C56.597 15.7824 56.7909 16.5568 57.1784 17.2377C57.5658 17.9185 58.1001 18.4525 58.7812 18.8395C59.4757 19.2131 60.2636 19.3998 61.1449 19.3995C62.0796 19.3992 62.9207 19.1986 63.6684 18.7978L63.667 14.6918ZM78.581 21.9174L75.8758 18.0126L75.7155 18.0127L72.8914 18.0136L72.8927 21.9193L69.648 21.9204L69.6433 7.89993L75.7122 7.89792C76.954 7.89751 78.029 8.10412 78.9371 8.51776C79.8586 8.93139 80.5665 9.51868 81.0608 10.2796C81.5551 11.0406 81.8024 11.9418 81.8028 12.9833C81.8031 14.0249 81.5497 14.9263 81.0426 15.6875C80.5487 16.4355 79.8412 17.0099 78.92 17.4107L82.0661 21.9163L78.581 21.9174ZM78.518 12.9844C78.5177 12.1966 78.2638 11.5958 77.7563 11.182C77.2487 10.7549 76.5076 10.5415 75.5328 10.5418L72.889 10.5427L72.8906 15.4298L75.5344 15.429C76.5092 15.4287 77.2502 15.2148 77.7575 14.7873C78.2647 14.3598 78.5182 13.7589 78.518 12.9844ZM84.3718 7.89506L87.6165 7.89398L87.6211 21.9145L84.3764 21.9155L84.3718 7.89506ZM97.6585 22.1515C96.2298 22.152 94.9345 21.8453 93.7726 21.2314C92.624 20.6042 91.7157 19.7433 91.0477 18.6486C90.3931 17.5405 90.0655 16.2921 90.0651 14.9034C90.0646 13.5147 90.3913 12.2728 91.0453 11.1776C91.7125 10.0691 92.6203 9.20758 93.7684 8.59297C94.9299 7.96501 96.2317 7.65078 97.6738 7.65031C98.8889 7.64991 99.9839 7.86319 100.959 8.29016C101.947 8.71712 102.775 9.33108 103.443 10.132L101.361 12.0555C100.412 10.9609 99.237 10.4138 97.8349 10.4143C96.967 10.4146 96.1926 10.6084 95.5117 10.9959C94.8309 11.37 94.2969 11.8976 93.9099 12.5787C93.5363 13.2599 93.3496 14.0344 93.3499 14.9023C93.3502 15.7703 93.5373 16.5447 93.9114 17.2255C94.2989 17.9064 94.8332 18.4403 95.5143 18.8273C96.1954 19.201 96.97 19.3877 97.8379 19.3874C99.2399 19.3869 100.415 18.8324 101.362 17.7238L103.446 19.6459C102.779 20.4607 101.951 21.0818 100.963 21.5095C99.9752 21.9371 98.8737 22.1511 97.6585 22.1515ZM112.135 22.1467C110.679 22.1472 109.364 21.8338 108.189 21.2066C107.027 20.5794 106.112 19.7185 105.444 18.6238C104.789 17.5157 104.461 16.274 104.461 14.8986C104.461 13.5233 104.787 12.2881 105.441 11.1929C106.108 10.0844 107.023 9.21617 108.184 8.58821C109.359 7.96023 110.674 7.64601 112.13 7.64553C113.585 7.64505 114.894 7.9584 116.056 8.5856C117.218 9.2128 118.133 10.0804 118.801 11.1885C119.469 12.2832 119.803 13.5182 119.803 14.8936C119.804 16.2689 119.47 17.5108 118.803 18.6193C118.136 19.7145 117.222 20.5761 116.06 21.204C114.899 21.832 113.59 22.1462 112.135 22.1467ZM112.134 19.3827C112.962 19.3824 113.709 19.1952 114.377 18.8211C115.044 18.4336 115.565 17.8994 115.939 17.2182C116.326 16.5371 116.519 15.7626 116.519 14.8947C116.518 14.0267 116.324 13.2523 115.937 12.5715C115.563 11.8906 115.042 11.3633 114.374 10.9897C113.706 10.6027 112.959 10.4093 112.131 10.4096C111.303 10.4098 110.555 10.6037 109.888 10.9912C109.22 11.3653 108.693 11.8929 108.306 12.574C107.932 13.2551 107.746 14.0296 107.746 14.8976C107.746 15.7655 107.933 16.5399 108.307 17.2208C108.695 17.9016 109.222 18.4356 109.89 18.8226C110.558 19.1962 111.306 19.3829 112.134 19.3827ZM135.098 7.87828L135.103 21.8988L132.439 21.8996L125.446 13.3895L125.449 21.9019L122.244 21.903L122.24 7.88254L124.923 7.88165L131.896 16.3918L131.894 7.87934L135.098 7.87828Z" fill="black"/>
<path d="M11.4972 13.0995L14.9724 13.0983C14.4478 10.5584 14.1748 7.92551 14.1739 5.23284C14.1738 4.77521 14.1803 4.3176 14.2002 3.85984C12.941 6.77202 12.0201 9.86946 11.4972 13.0995Z" fill="#EF3E21"/>
<path d="M11.4972 13.0995L14.9724 13.0983C14.4478 10.5584 14.1748 7.92551 14.1739 5.23284C14.1738 4.77521 14.1803 4.3176 14.2002 3.85984C12.941 6.77202 12.0201 9.86946 11.4972 13.0995Z" fill="white"/>
<path d="M11.0422 17.5564L11.0422 17.563L16.5671 18.7151C16.0161 17.2032 15.5448 15.6382 15.1794 14.0332L11.3594 14.0345C11.2003 15.1887 11.0948 16.3692 11.0422 17.5564Z" fill="#EF3E21"/>
<path d="M11.0422 17.5564L11.0422 17.563L16.5671 18.7151C16.0161 17.2032 15.5448 15.6382 15.1794 14.0332L11.3594 14.0345C11.2003 15.1887 11.0948 16.3692 11.0422 17.5564Z" fill="white"/>
<path d="M11.0093 18.5189C10.9962 18.8107 10.9963 19.096 10.9964 19.3877C10.9975 22.7569 11.423 26.0264 12.2332 29.1499C13.029 29.2957 13.845 29.3617 14.6739 29.3614C17.0747 29.3606 19.3428 28.7828 21.3387 27.7542C19.5871 25.2877 18.1205 22.6087 16.9787 19.7638L11.0093 18.5189Z" fill="#EF3E21"/>
<path d="M11.0093 18.5189C10.9962 18.8107 10.9963 19.096 10.9964 19.3877C10.9975 22.7569 11.423 26.0264 12.2332 29.1499C13.029 29.2957 13.845 29.3617 14.6739 29.3614C17.0747 29.3606 19.3428 28.7828 21.3387 27.7542C19.5871 25.2877 18.1205 22.6087 16.9787 19.7638L11.0093 18.5189Z" fill="white"/>
<path d="M0.0859375 16.2338C0.584909 21.0087 3.37173 25.0999 7.33854 27.3933C7.22547 26.1864 7.16527 24.966 7.16486 23.7324C7.1642 21.7162 7.31614 19.7332 7.61386 17.803L0.0859375 16.2338Z" fill="#EF3E21"/>
<path d="M0.0859375 16.2338C0.584909 21.0087 3.37173 25.0999 7.33854 27.3933C7.22547 26.1864 7.16527 24.966 7.16486 23.7324C7.1642 21.7162 7.31614 19.7332 7.61386 17.803L0.0859375 16.2338Z" fill="white"/>
<path d="M0.00412559 14.7038C0.00418699 14.8894 0.0109248 15.0751 0.0109862 15.2608L7.75795 16.8766C7.92999 15.9149 8.13537 14.973 8.37378 14.0377L0.0237964 14.0404C0.010655 14.2593 0.00405104 14.4783 0.00412559 14.7038Z" fill="#EF3E21"/>
<path d="M0.00412559 14.7038C0.00418699 14.8894 0.0109248 15.0751 0.0109862 15.2608L7.75795 16.8766C7.92999 15.9149 8.13537 14.973 8.37378 14.0377L0.0237964 14.0404C0.010655 14.2593 0.00405104 14.4783 0.00412559 14.7038Z" fill="white"/>
<path d="M15.1612 0.0461393L14.5176 0.039552C7.02332 0.108509 0.877048 5.80093 0.0902556 13.1032L8.62606 13.1004C9.85155 8.73612 11.8266 4.68321 14.3921 1.08766C14.644 0.736063 14.8959 0.384357 15.1612 0.0461393Z" fill="#EF3E21"/>
<path d="M15.1612 0.0461393L14.5176 0.039552C7.02332 0.108509 0.877048 5.80093 0.0902556 13.1032L8.62606 13.1004C9.85155 8.73612 11.8266 4.68321 14.3921 1.08766C14.644 0.736063 14.8959 0.384357 15.1612 0.0461393Z" fill="white"/>
<path d="M15.7976 0.602601C16.1838 5.01948 17.3061 9.22386 19.0384 13.0966L29.2452 13.0932C28.5002 6.20907 22.9937 0.75935 16.0827 0.098445L15.7578 0.0785037C15.7711 0.250982 15.7844 0.423461 15.7976 0.595761C15.7976 0.595761 15.7976 0.595764 15.7976 0.602601Z" fill="#EF3E21"/>
<path d="M15.7976 0.602601C16.1838 5.01948 17.3061 9.22386 19.0384 13.0966L29.2452 13.0932C28.5002 6.20907 22.9937 0.75935 16.0827 0.098445L15.7578 0.0785037C15.7711 0.250982 15.7844 0.423461 15.7976 0.595761C15.7976 0.595761 15.7976 0.595764 15.7976 0.602601Z" fill="white"/>
<path d="M26.1515 23.8059C26.6222 23.2154 27.0465 22.5984 27.4175 21.9416L23.9355 21.2133C24.6388 22.1083 25.3752 22.977 26.1515 23.8059Z" fill="#EF3E21"/>
<path d="M26.1515 23.8059C26.6222 23.2154 27.0465 22.5984 27.4175 21.9416L23.9355 21.2133C24.6388 22.1083 25.3752 22.977 26.1515 23.8059Z" fill="white"/>
<path d="M29.3129 14.0303L19.4707 14.0336C20.4927 16.1622 21.7005 18.1782 23.0741 20.0745L27.8761 21.0743C28.8107 19.1441 29.3336 16.9817 29.3329 14.6937C29.3328 14.4682 29.3263 14.2492 29.3129 14.0303Z" fill="#EF3E21"/>
<path d="M29.3129 14.0303L19.4707 14.0336C20.4927 16.1622 21.7005 18.1782 23.0741 20.0745L27.8761 21.0743C28.8107 19.1441 29.3336 16.9817 29.3329 14.6937C29.3328 14.4682 29.3263 14.2492 29.3129 14.0303Z" fill="white"/>
</g>
<defs>
<clipPath id="clip0_2435_5448">
<rect width="137" height="29.3762" fill="white" transform="translate(0 0.0453006) rotate(-0.0189455)"/>
</clipPath>
</defs>
</svg>
